<svg id="Layer_1" data-name="Layer 1" xmlns="http://www.w3.org/2000/svg" viewBox="0 0 173.43 173.43"><defs><style>.cls-1{fill:#00b288;fill-rule:evenodd;}</style></defs><title>arrow-right-green</title><path class="cls-1" d="M89.73,67v0A8.1,8.1,0,1,0,78.77,79l0,0,26,23.82-26,23.81,0,0a8.1,8.1,0,1,0,11,11.94v0l32.52-29.82a8.07,8.07,0,0,0,2.65-6,8.17,8.17,0,0,0-2.65-6ZM97.8,16.09a86.71,86.71,0,1,0,86.71,86.71A86.7,86.7,0,0,0,97.8,16.09Zm0,157.15a70.45,70.45,0,1,1,70.44-70.44A70.54,70.54,0,0,1,97.8,173.24Zm0,0" transform="translate(-11.09 -16.09)"/></svg>