<svg id="Layer_1" data-name="Layer 1" xmlns="http://www.w3.org/2000/svg" viewBox="0 0 63.4 63.4"><defs><style>.cls-1{fill:#fed700;fill-rule:evenodd;}</style></defs><title>arrow-right-yellow2</title><path class="cls-1" d="M31.8,22.42h0a3,3,0,1,0-4,4.36h0l9.5,8.71-9.5,8.7h0a3,3,0,1,0,4,4.36h0l11.89-10.9a3,3,0,0,0,1-2.19,3,3,0,0,0-1-2.2Zm3-18.61a31.7,31.7,0,1,0,31.7,31.7A31.7,31.7,0,0,0,34.75,3.8Zm0,57.45A25.75,25.75,0,1,1,60.5,35.5,25.78,25.78,0,0,1,34.75,61.25Zm0,0" transform="translate(-3.05 -3.8)"/></svg>