<svg id="instagram" xmlns="http://www.w3.org/2000/svg" viewBox="0 0 76.6 76.6"><defs><style>.cls-1{fill:none;stroke:#fff;stroke-miterlimit:10;stroke-width:4.88px;}.cls-2{fill:#fff;}</style></defs><title>social-instagram</title><path class="cls-1" d="M43,79.29A35.86,35.86,0,1,0,7.14,43.43,35.86,35.86,0,0,0,43,79.29" transform="translate(-4.7 -5.12)"/><path class="cls-2" d="M54.85,24.25H31.24a7.44,7.44,0,0,0-7.44,7.44V55.3a7.44,7.44,0,0,0,7.44,7.44h23.6a7.44,7.44,0,0,0,7.44-7.44V31.69A7.44,7.44,0,0,0,54.85,24.25ZM57,28.69h.85v6.52l-6.5,0,0-6.52ZM37.55,39.54a6.76,6.76,0,1,1-1.28,3.95A6.76,6.76,0,0,1,37.55,39.54Zm21,15.75A3.69,3.69,0,0,1,54.85,59H31.24a3.69,3.69,0,0,1-3.69-3.69V39.54H33.3a10.52,10.52,0,1,0,19.49,0h5.74Z" transform="translate(-4.7 -5.12)"/></svg>