<svg id="twitter" xmlns="http://www.w3.org/2000/svg" viewBox="0 0 76.6 76.6"><defs><style>.cls-1{fill:#fff;}.cls-2{fill:none;stroke:#fff;stroke-miterlimit:10;stroke-width:4.88px;}</style></defs><title>social-twitter</title><path class="cls-1" d="M62.08,33.18a15.88,15.88,0,0,1-4.56,1.25A8,8,0,0,0,61,30,15.86,15.86,0,0,1,56,32,7.95,7.95,0,0,0,42.44,39.2a22.54,22.54,0,0,1-16.37-8.3,8,8,0,0,0,2.46,10.6,7.94,7.94,0,0,1-3.6-1v.1A7.94,7.94,0,0,0,31.3,48.4a7.75,7.75,0,0,1-2.09.28,7.87,7.87,0,0,1-1.49-.14A7.94,7.94,0,0,0,35.13,54a16.06,16.06,0,0,1-11.76,3.29,22.49,22.49,0,0,0,12.17,3.57c14.61,0,22.59-12.1,22.59-22.59,0-.35,0-.69,0-1a16.1,16.1,0,0,0,4-4.11" transform="translate(-4.7 -5.12)"/><path class="cls-2" d="M43,79.29A35.86,35.86,0,1,0,7.14,43.43,35.86,35.86,0,0,0,43,79.29" transform="translate(-4.7 -5.12)"/></svg>