<svg id="twitter" xmlns="http://www.w3.org/2000/svg" viewBox="0 0 61.33 49.84"><defs><style>.cls-1{fill:#231f20;}</style></defs><title>social-feed-twitter</title><path class="cls-1" d="M66.67,17a25.16,25.16,0,0,1-7.23,2A12.6,12.6,0,0,0,65,12a25.14,25.14,0,0,1-8,3A12.6,12.6,0,0,0,35.54,26.53,35.72,35.72,0,0,1,9.6,13.38a12.6,12.6,0,0,0,3.9,16.8,12.59,12.59,0,0,1-5.7-1.57v.15A12.58,12.58,0,0,0,17.89,41.1a12.28,12.28,0,0,1-3.32.44,12.47,12.47,0,0,1-2.37-.22A12.58,12.58,0,0,0,24,50.06,25.24,25.24,0,0,1,8.34,55.44a25.26,25.26,0,0,1-3-.17,35.65,35.65,0,0,0,19.29,5.65c23.15,0,35.8-19.17,35.8-35.8,0-.55,0-1.09,0-1.63A25.51,25.51,0,0,0,66.67,17" transform="translate(-5.33 -11.08)"/></svg>