<svg id="Layer_1" data-name="Layer 1" xmlns="http://www.w3.org/2000/svg" viewBox="0 0 1137.11 500"><defs><style>.cls-1{fill:#fff;}.cls-2{fill:#cfab7a;}.cls-3{fill:none;stroke:#cfab7a;stroke-miterlimit:10;stroke-width:2.21px;}</style></defs><title>Artboard 1</title><path class="cls-1" d="M34.7,479.46H31.78V456.6H23.22v-2.66H43.27v2.66H34.7Z"/><path class="cls-1" d="M51.53,468v11.48H48.64V453.94h2.88v11.33H66.25V453.94h2.88v25.51H66.25V468Z"/><path class="cls-1" d="M94.78,456.56H79.21v8.71H93.14v2.63H79.21v8.93H95v2.62H76.33V453.94H94.78Z"/><path class="cls-1" d="M123.33,479.89c-7.36,0-12.79-5.79-12.79-13.16s5.39-13.24,12.9-13.24a13.28,13.28,0,0,1,10,4l-2,2.11a11.1,11.1,0,0,0-8-3.5c-5.65,0-9.88,4.56-9.88,10.5s4.27,10.57,9.88,10.57c3.5,0,5.8-1.35,8.24-3.68l1.89,1.86A13.28,13.28,0,0,1,123.33,479.89Z"/><path class="cls-1" d="M162.32,479.46h-3.1l-3-6.75H142.35l-3,6.75h-3L148,453.76h2.7Zm-13-22.34-5.83,13H155.1Z"/><path class="cls-1" d="M179.59,472.46h-.15l-9.3-13.63v20.63h-2.81V453.94h2.92l9.3,13.92,9.3-13.92h2.91v25.51h-2.88V458.79Z"/><path class="cls-1" d="M208,470.45h-6.19v9H199V453.94h9.55c5.76,0,9.55,3.06,9.55,8.13C218.06,467.61,213.47,470.45,208,470.45Zm.26-13.85h-6.45v11.23h6.31c4.23,0,7-2.26,7-5.65C215.15,458.5,212.41,456.6,208.29,456.6Z"/><path class="cls-1" d="M244.51,479.46h-3.1l-3-6.75H224.54l-3,6.75h-3l11.63-25.7h2.7Zm-13-22.34-5.83,13h11.63Z"/><path class="cls-1" d="M252.66,453.94v25.51h-2.88V453.94Z"/><path class="cls-1" d="M272,479.89c-8,0-13-5.83-13-13.16,0-7,5.14-13.24,12.79-13.24a13.47,13.47,0,0,1,9.52,3.39l-1.86,2.19a10.83,10.83,0,0,0-7.76-2.92c-5.65,0-9.7,4.77-9.7,10.5,0,6.12,3.9,10.64,10.1,10.64a12,12,0,0,0,7.36-2.55v-6.34h-7.76v-2.59h10.54V476A15.46,15.46,0,0,1,272,479.89Z"/><path class="cls-1" d="M307.46,453.94h2.81v25.51H308L291.5,458.53v20.92h-2.81V453.94h2.7l16.08,20.45Z"/><path class="cls-1" d="M346.74,456.6H331.28v9.12H345.1v2.62H331.28v11.12H328.4V453.94h18.34Z"/><path class="cls-1" d="M363.6,479.89a13.2,13.2,0,1,1,13.05-13.23A12.81,12.81,0,0,1,363.6,479.89Zm0-23.73c-5.83,0-10,4.67-10,10.5s4.23,10.57,10.06,10.57,10-4.67,10-10.5S369.43,456.16,363.6,456.16Z"/><path class="cls-1" d="M400.29,479.46l-7.4-9.91H385.6v9.91h-2.88V453.94h11c5.61,0,9.22,3,9.22,7.62,0,4.27-2.92,6.75-6.93,7.48l7.84,10.42Zm-6.82-22.86H385.6V467h7.84c3.83,0,6.56-2,6.56-5.29S397.59,456.6,393.47,456.6Z"/><path class="cls-1" d="M420,453.94h2.88V476.8h14.36v2.66H420Z"/><path class="cls-1" d="M452.93,479.89A13.2,13.2,0,1,1,466,466.67,12.81,12.81,0,0,1,452.93,479.89Zm0-23.73c-5.83,0-10,4.67-10,10.5s4.23,10.57,10.06,10.57,10-4.67,10-10.5S458.76,456.16,452.93,456.16Z"/><path class="cls-1" d="M480.76,479.46h-2.91V469.36l-10.61-15.42h3.5l8.6,12.76L488,453.94h3.35l-10.61,15.38Z"/><path class="cls-1" d="M505.6,479.89a13.2,13.2,0,1,1,13.05-13.23A12.81,12.81,0,0,1,505.6,479.89Zm0-23.73c-5.83,0-10,4.67-10,10.5s4.23,10.57,10.06,10.57,10-4.67,10-10.5S511.44,456.16,505.6,456.16Z"/><path class="cls-1" d="M524.72,453.94h2.88V476.8H542v2.66H524.72Z"/><path class="cls-1" d="M571,479.46h-3.1l-3-6.75H551.07l-3,6.75h-3l11.63-25.7h2.7Zm-13-22.34-5.83,13h11.63Z"/><path class="cls-1" d="M607.84,468.56c0,7.44-4.26,11.3-10.64,11.3s-10.61-3.86-10.61-11.08V453.94h2.88v14.65c0,5.51,2.92,8.6,7.8,8.6,4.7,0,7.7-2.84,7.7-8.42V453.94h2.88Z"/><path class="cls-1" d="M633.41,453.94h2.8v25.51h-2.3l-16.48-20.92v20.92h-2.81V453.94h2.7l16.08,20.45Z"/><path class="cls-1" d="M646.55,453.94v25.51h-2.88V453.94Z"/><path class="cls-1" d="M673.23,453.94h3.1l-11,25.7h-2.55l-11-25.7H655l9.08,22Z"/><path class="cls-1" d="M699.79,456.56H684.22v8.71h13.93v2.63H684.22v8.93H700v2.62H681.34V453.94h18.45Z"/><path class="cls-1" d="M723.32,479.46l-7.4-9.91h-7.29v9.91h-2.88V453.94h11c5.61,0,9.22,3,9.22,7.62,0,4.27-2.91,6.75-6.92,7.48l7.84,10.42ZM716.5,456.6h-7.87V467h7.84c3.83,0,6.56-2,6.56-5.29S720.62,456.6,716.5,456.6Z"/><path class="cls-1" d="M741.24,465.31c5.69,1.24,8.31,3.32,8.31,7.25,0,4.41-3.64,7.26-8.71,7.26a14.94,14.94,0,0,1-10.43-4.09l1.79-2.11a12.16,12.16,0,0,0,8.75,3.61c3.42,0,5.69-1.78,5.69-4.37,0-2.41-1.28-3.75-6.64-4.89-5.87-1.27-8.56-3.17-8.56-7.4s3.53-7,8.38-7a13.31,13.31,0,0,1,9,3.14l-1.68,2.22a11.21,11.21,0,0,0-7.37-2.77c-3.31,0-5.43,1.83-5.43,4.16S735.63,464.11,741.24,465.31Z"/><path class="cls-1" d="M758.54,453.94v25.51h-2.88V453.94Z"/><path class="cls-1" d="M775.67,479.46h-2.92V456.6h-8.56v-2.66h20v2.66h-8.57Z"/><path class="cls-1" d="M800.52,479.46H797.6V469.36L787,453.94h3.5l8.6,12.76,8.67-12.76h3.36l-10.61,15.38Z"/><path class="cls-1" d="M845.4,453.94h2.8v25.51h-2.29l-16.48-20.92v20.92h-2.81V453.94h2.7l16.08,20.45Z"/><path class="cls-1" d="M873.86,456.56H858.29v8.71h13.93v2.63H858.29v8.93H874v2.62H855.41V453.94h18.45Z"/><path class="cls-1" d="M895.28,453.87h2.37l7,21.33,7.29-21.25h3l-9.11,25.7H903.4l-7-20.71-7,20.71H887l-9.11-25.7H881l7.29,21.25Z"/><path class="cls-1" d="M942.92,479.89A13.2,13.2,0,1,1,956,466.67,12.81,12.81,0,0,1,942.92,479.89Zm0-23.73c-5.83,0-10,4.67-10,10.5s4.23,10.57,10.06,10.57,10-4.67,10-10.5S948.76,456.16,942.92,456.16Z"/><path class="cls-1" d="M979.62,479.46l-7.4-9.91h-7.29v9.91H962V453.94h11c5.62,0,9.22,3,9.22,7.62,0,4.27-2.92,6.75-6.93,7.48l7.84,10.42ZM972.8,456.6h-7.88V467h7.84c3.83,0,6.56-2,6.56-5.29S976.92,456.6,972.8,456.6Z"/><path class="cls-1" d="M988.38,453.94h2.88V476.8h14.36v2.66H988.38Z"/><path class="cls-1" d="M1029.38,456.56h-15.57v8.71h13.92v2.63h-13.92v8.93h15.75v2.62h-18.63V453.94h18.45Z"/><path class="cls-1" d="M1059.11,479.46H1056l-3-6.75h-13.89l-3,6.75h-3l11.63-25.7h2.69Zm-13-22.34-5.83,13h11.62Z"/><path class="cls-1" d="M1082.9,453.94h2.81v25.51h-2.3l-16.48-20.92v20.92h-2.81V453.94h2.7l16.08,20.45Z"/><path class="cls-1" d="M1102.06,465.31c5.69,1.24,8.31,3.32,8.31,7.25,0,4.41-3.64,7.26-8.71,7.26a14.93,14.93,0,0,1-10.43-4.09l1.79-2.11a12.16,12.16,0,0,0,8.75,3.61c3.42,0,5.69-1.78,5.69-4.37,0-2.41-1.28-3.75-6.64-4.89-5.87-1.27-8.56-3.17-8.56-7.4s3.53-7,8.38-7a13.31,13.31,0,0,1,9,3.14l-1.68,2.22a11.21,11.21,0,0,0-7.37-2.77c-3.31,0-5.43,1.83-5.43,4.16S1096.44,464.11,1102.06,465.31Z"/><path class="cls-1" d="M75.2,345.64H35.52v19h35.2v11.17H35.52v28.42H23.25v-69.8h52Z"/><path class="cls-1" d="M146.49,404.27h-13l-7.08-16.85h-33l-7.18,16.85H73.69L104.41,334h11.37Zm-36.6-55.64-12,27.92h24Z"/><path class="cls-1" d="M170.41,334.47v69.8H158.15v-69.8Z"/><path class="cls-1" d="M217.57,404.27H205.21V345.83H183.07V334.47h56.64v11.36H217.57Z"/><path class="cls-1" d="M263.94,374.85v29.42H251.67v-69.8h12.26v29h33.31v-29h12.27v69.8H297.24V374.85Z"/><path class="cls-1" d="M357.46,404.27v-69.8h5.19v69.8Z"/><path class="cls-1" d="M433.45,404.27l-49.16-62v62h-5v-69.8h4.88l48.16,60.73V334.47h5v69.8Z"/><path class="cls-1" d="M510.52,339.25v65h-5.19v-65H481v-4.78h53.85v4.78Z"/><path class="cls-1" d="M595.68,404.27v-32.7H551v32.7h-5.18v-69.8H551v32.31h44.67V334.47h5.19v69.8Z"/><path class="cls-1" d="M616.82,404.27v-69.8h49.66v4.78H622v27.43h40v4.79H622v28h45v4.79Z"/><path class="cls-1" d="M762.11,345.64H722.42v19h35.2v11.17h-35.2v28.42H710.15v-69.8h52Z"/><path class="cls-1" d="M833.19,374.05c0,20.84-11.77,31.31-30,31.31s-29.71-10.47-29.71-30.72V334.47h12.26v39.69c0,13,6.68,19.94,17.65,19.94s17.55-6.58,17.55-19.44V334.47h12.26Z"/><path class="cls-1" d="M878.56,404.27H866.2V345.83H844.05V334.47H900.7v11.36H878.56Z"/><path class="cls-1" d="M971.29,374.05c0,20.84-11.77,31.31-30,31.31s-29.72-10.47-29.72-30.72V334.47h12.27v39.69c0,13,6.68,19.94,17.65,19.94S959,387.51,959,374.65V334.47h12.27Z"/><path class="cls-1" d="M1031.91,404.27l-17.15-24.33H999.4v24.33H987.14v-69.8h31.11c16.05,0,25.93,8.47,25.93,22.14,0,11.57-6.88,18.54-16.65,21.24l18.85,26.43Zm-14.66-58.63H999.4v23.43h17.95c8.78,0,14.36-4.59,14.36-11.77C1031.71,349.62,1026.33,345.64,1017.25,345.64Z"/><path class="cls-1" d="M1109.51,345.43H1070v18.15h35v11h-35V393.3h40v11h-52.25v-69.8h51.75Z"/><path class="cls-2" d="M580,185.89s6.72-15.3,2.86-19.15-16.71-16.57-16.71-16.57-12.86,12.71-16.72,16.57,2.87,19.15,2.87,19.15-15.16-6-19-2.15-16.58,16.72-16.58,16.72,12.71,12.85,16.58,16.72,19-2.15,19-2.15-5.57,33.83-2.36,37l16.21,16.21,16.21-16.21c3.21-3.21-2.36-37-2.36-37s15.17,6,19,2.15,16.57-16.72,16.57-16.72S602.87,187.61,599,183.75,580,185.89,580,185.89Z"/><path class="cls-2" d="M552.3,95.55s-6.72,15.3-2.87,19.15,16.71,16.58,16.71,16.58S579,118.56,582.86,114.7,580,95.55,580,95.55s15.17,6,19,2.14S615.59,81,615.59,81,602.87,68.12,599,64.26s-19,2.15-19,2.15,5.58-33.84,2.36-37L566.15,13.16,549.94,29.37c-3.2,3.21,2.36,37,2.36,37s-15.16-6-19-2.15S516.71,81,516.71,81s12.71,12.86,16.58,16.72S552.3,95.55,552.3,95.55Z"/><path class="cls-2" d="M521,154.57s15.3,6.72,19.15,2.87,16.58-16.71,16.58-16.71S544,127.87,540.12,124,521,126.87,521,126.87s6-15.16,2.15-19S506.4,91.29,506.4,91.29,493.55,104,489.68,107.85s2.15,19,2.15,19-33.83-5.57-37-2.36-16.21,16.21-16.21,16.21,13,13,16.21,16.22,37-2.36,37-2.36-6,15.16-2.15,19,16.72,16.58,16.72,16.58,12.85-12.72,16.72-16.58S521,154.57,521,154.57Z"/><path class="cls-2" d="M611.32,126.87S596,120.15,592.17,124s-16.57,16.71-16.57,16.71,12.71,12.86,16.57,16.72,19.15-2.86,19.15-2.86-6,15.16-2.14,19,16.71,16.57,16.71,16.57,12.86-12.71,16.72-16.57-2.15-19-2.15-19,33.83,5.57,37.05,2.36l16.19-16.21-16.19-16.22c-3.22-3.21-37.05,2.36-37.05,2.36s6-15.16,2.15-19-16.71-16.57-16.71-16.57S613,104,609.18,107.86,611.32,126.87,611.32,126.87Z"/><line class="cls-3" x1="23.07" y1="429.71" x2="1109.87" y2="429.71"/></svg>