<svg id="Layer_1" data-name="Layer 1" xmlns="http://www.w3.org/2000/svg" viewBox="0 0 374.98 437.98"><defs><style>.cls-1{fill:#fff;}</style></defs><title>LUNOMarquetteArtboard 1</title><path class="cls-1" d="M365,250.77,365,149h-7l-13.73-26.21L331,149h-7.14V95.84H318v5.08h-1.73l0-5.18h-5.91l0,5.18h-1.87v-5H303v5h-2v-5h-5.65v5l-2.21,0V84h-5.61V88.5h-1.83V84h-5.18V88.5H279V84h-5v4.52h-1.76V84L267,84l.09,28.91h-5.31v4.52h-6.56v-4.52h-8v4.52h-4.69v5.13h-1.47v-5.13h-6v5.13h-1.47v-5.13h-6v5.13h-1.47v-5.13h-6v5.13h-1.47v-5.13h-6v5.13h-1.47v-5.13H206.8v-49l-5.7,0v7.22h-1.64V68.43h-6.13v19H185V85.06h-1.63V79.62H186L186,76.07h-2.54v-3.3h-3.54v3.3H177l0,3.55h2.79v5.43h-1.66v2.49h-8.08l0-19.18h-5.72v7.17h-1.49V68.33h-5.76v49.31H152.8v4.93h-1.47v-4.93h-6v4.93h-1.47v-4.93h-6v4.93h-1.47v-4.93h-6v4.93H129v-4.92h-6v4.92h-1.47v-4.92h-5.29v-4.5h-7.78v4.5h-5.7v-4.48h-9.4v56.93h0v5.44H91.31v-5.44H86.15v5.44H84.09v-5.44H84l0-76.47H80.6l-.2-50.69L76.85,7.86,74.36,42.06,60.22,42V34.3h3.57V29.87H60.22V25.24h-4.3v4.64H52.07V34h3.84v8H42.22L39.56,7.86l-4,35.07.22,50.76H32.19l.05,76.42h0v5.41h-1.5v-5.41l-5.45,0v5.4H23.81v-5.41l-5.5,0v5.42H16.84v-5.43l-6.17,0v80.65h36.2V208.53H69.18v42.19h37.41v-9.37h9.75V229.54l3.61-2.72,3.61,2.72v11.82h7.13V229.54l3.61-2.72,3.61,2.72v11.82h19.32v-8.91h0l14.91-9.94h19.41l14.91,9.94v8.91h19.41V229.54l3.61-2.72,3.61,2.72v11.82h7.13V229.54l3.61-2.72,3.61,2.72v11.82h12.19V229.54l2.16-2.72,2.16,2.72v11.82h2.9v9.4h27v-23.3l6-6,6,6v23.3Zm-30.18-13h-1.33V220.35h1.33Zm-1.14-23.26V200.28h.94v14.25Zm6,23.26h-1.33V220.35h1.33Zm-1.13-23.26V200.28h.94v14.25Zm6,23.26h-1.33V220.35h1.33Zm-1.05-23.26V200.28h.94v14.25Zm5.92,23.26h-1.33V220.35h1.33Zm-1-23.26V200.28h.94v14.25Zm5.91,23.26H353V220.35h1.33Zm-1-23.26V200.28h.94v14.25Zm5-14.25h.94v14.25h-.94Zm-.4,20.07h1.33v17.44h-1.33Zm-2.14-48.07V190.9H345.61V172.27l5.06-4.63Zm-13.5-31h5.25v15.38h-5.25Zm-10.5,31,5.06-4.63,5.06,4.63V190.9H331.74Zm-2.91,28h.94v14.25h-.94Zm-.19,20.07H330v17.44h-1.33ZM308.57,136h1.78v22.32h-1.78Zm0,26.63h1.78V184.9h-1.78Zm0,26.63h1.78v22.32h-1.78Zm-245-24.76H52.44V133.67c0-10.09,1.78-20,5.58-20s5.58,9.85,5.58,20Zm0-65.83H52.44V78.34c0-10.09,1.78-20,5.58-20s5.58,9.85,5.58,20ZM108.28,159h-4.59V137h4.59ZM127,212h-4.5V160.15a2.25,2.25,0,0,1,4.5,0Zm.94-61.79H121.6v-8.06l3.19-2.72,3.19,2.72ZM138.1,212h-4.5V160.15a2.25,2.25,0,1,1,4.5,0Zm.94-61.79h-6.38v-8.06l3.19-2.72,3.19,2.72ZM149.16,212h-4.5V160.15a2.25,2.25,0,0,1,4.5,0Zm.94-61.79h-6.38v-8.06l3.19-2.72,3.19,2.72ZM184,99h2.81v18.29H184Zm0,57.58V138.3h1.78v18.29Zm1.78,8.53V183.4H184V165.12Zm-8.28-8.53V138.3h1.78v18.29Zm1.78,8.53V183.4h-1.78V165.12Zm-8.38-47.82h-2.81V99h2.81Zm1.88,66.11H171V165.12h1.78Zm0-26.82H171V138.3h1.78ZM176,99h2.81v18.29H176ZM186.9,215.19H176.31V197.12l5.3-3.21,5.3,3.21Zm5.39-31.79h-1.78V165.12h1.78Zm0-26.82h-1.78V138.3h1.78Zm2.43-39.29h-2.81V99h2.81ZM219.49,212H215V160.15a2.25,2.25,0,0,1,4.5,0Zm.94-61.79h-6.38v-8.06l3.19-2.72,3.19,2.72ZM230.56,212h-4.5V160.15a2.25,2.25,0,0,1,4.5,0Zm.94-61.79h-6.38v-8.06l3.19-2.72,3.19,2.72ZM241.62,212h-4.5V160.15a2.25,2.25,0,0,1,4.5,0Zm.94-61.79h-6.38v-8.06l3.19-2.72,3.19,2.72Zm33.38-23.07h-2.81V110.26h2.81Zm4.78,110.46h-3.46V220.91h3.46Zm10.13-26.07h-1.78V189.21h1.78Zm0-26.63h-1.78V162.58h1.78Zm0-26.63h-1.78V136h1.78Zm6.5,53.26h-1.78V189.21h1.78Zm0-26.63h-1.78V162.58h1.78Zm0-26.63h-1.78V136h1.78Zm6.5,53.26h-1.78V189.21h1.78Zm0-26.63h-1.78V162.58h1.78Zm0-26.63h-1.78V136h1.78Z"/><path class="cls-1" d="M41.5,381.73h9.55v-.2c-3.31-1.23-2.92-6-2.92-8.9v-24.5c0-3-.39-7.73,2.92-9L51,339H38.64v.2c3.25,1.23,2.86,6,2.86,8.9v19.56c0,2.34.07,4-1.36,5.91a11.49,11.49,0,0,1-9.49,4.55c-6.69,0-10.33-4-10.33-12.67V348.06c0-2.92-.39-7.67,2.86-8.9V339H10.82v.2c3.31,1.23,2.86,6,2.86,8.9v17.35c0,4.68-.13,9,3.31,12.8,2.92,3.18,7.47,4.55,11.76,4.55,4.55,0,9.88-1.56,12.74-5.33Z"/><path class="cls-1" d="M65.16,348.13,87.44,376.4c2.86,3.7,4.87,5.85,9.49,7.41V347.35c0-3.64,0-6.24,3.38-8.19V339H88.87v.2c3.45,1.95,3.38,4.55,3.38,8.19V372L68.47,342l-.91-1.3a4,4,0,0,1-1-1.62V339H57.1v.2c3.38,1.95,3.38,4.55,3.38,8.19v25.93c0,3.64,0,6.24-3.44,8.25v.2h11.5v-.2c-3.44-2-3.38-4.61-3.38-8.25Z"/><path class="cls-1" d="M107.09,372.63c0,2.92.39,7.73-2.86,8.9v.19h12.35v-.19c-3.25-1.23-2.86-6-2.86-8.9v-24.5c0-2.92-.39-7.73,2.86-9V339H104.23v.2c3.31,1.23,2.86,6,2.86,9Z"/><path class="cls-1" d="M141.71,374.06l-10.33-28.27c-.52-1.43-1.75-4.61-1.75-6l.07-.78H120.2v.2c2.86,2.21,3.83,6,5.07,9.29L135.08,375c1.88,5.13,3.38,5.65,7.93,8.64L160.17,339h-9.68v.2c4,1.62,1.82,7,.07,11.57Z"/><path class="cls-1" d="M173.9,360.87h4.81c2,0,4.74-.07,5.78,1.82h.2V355.8h-.2a6.65,6.65,0,0,1-2.86.39H173.9V344.1a36.57,36.57,0,0,1,6.63-.45c3,0,5.65.26,7.67,2.6h.2v-7.6h-.2a6.61,6.61,0,0,1-3.05.33h-20.8v.2c3.31,1.23,2.92,6,2.92,9v24.5c0,2.92.39,7.73-2.92,8.9v.19h27.1l2.92-8.51h-.2a16.2,16.2,0,0,1-12,3.83l-8.25-.78Z"/><path class="cls-1" d="M197.32,339v.2c3.31,1.23,2.86,6,2.86,9v24.5c0,2.92.46,7.73-2.86,8.9v.2h12.41v-.2c-3.31-1.17-2.92-5.91-2.92-8.9V343.51a34.06,34.06,0,0,1,4.42-.52c4.35-.2,8.38,2.53,8.38,7.21,0,6.11-6,8.51-11.24,9.29l6,9.16,7.93,9.81c1.95,2.4,4.09,3.25,7.54,3.25h6a45.59,45.59,0,0,1-10.53-9.1l-9.36-11.76c5.33-1.23,10.33-5.72,10.33-11.44,0-5.91-4.74-10.46-13.45-10.46Z"/><path class="cls-1" d="M264.29,339.36a32.65,32.65,0,0,0-9.68-1.43c-7.93,0-16.31,3.12-16.31,11.31,0,13.78,22.36,12,22.36,22.09,0,4.55-5.59,6.76-9.29,6.76a22.49,22.49,0,0,1-14.23-5.39l1.89,8.12a33.62,33.62,0,0,0,11.63,2c10.14,0,17.42-6.5,17.42-13.45,0-12-22.36-11.89-22.36-20.79,0-4.48,4.68-5.91,8.38-5.91a14.8,14.8,0,0,1,10.2,4.09Z"/><path class="cls-1" d="M274.25,372.63c0,2.92.39,7.73-2.86,8.9v.19h12.35v-.19c-3.25-1.23-2.86-6-2.86-8.9v-24.5c0-2.92-.39-7.73,2.86-9V339H271.39v.2c3.31,1.23,2.86,6,2.86,9Z"/><path class="cls-1" d="M308.24,343.64h5.85c2.14,0,4.74.33,5.59,2.6h.2l2.08-7.73h-.2a7.22,7.22,0,0,1-3,.45H292.9a10.29,10.29,0,0,1-2.47-.45h-.19L288,346.24h.2a11.28,11.28,0,0,1,7.73-2.6h5.72v29c0,2.92.39,7.67-2.86,8.9v.2h12.87v-.2c-3.44-2-3.38-4.55-3.38-8.25Z"/><path class="cls-1" d="M348.34,363l16-24H353v.2c3.64,1.75,2.14,4.87,1,6.5l-8.06,12.09-10.4-17c-.85-1.36-2.8-1.82-4.87-1.82h-5.91c3.12,1.69,4.42,3.83,6.17,6.69L341.72,363v9.62c0,3.05.45,7.28-2.73,8.9v.19h12.67v-.19c-3.31-2.4-3.31-4.35-3.31-8.25Z"/><path class="cls-1" d="M24.84,320.24V276.77c0-4.49-.7-11.87,4.39-13.76v-.3h-19v.3c5.08,1.89,4.49,9.17,4.49,13.76v37.59c0,4.49.6,11.86-4.49,13.66v.3h41l5.18-13.26H56a24.52,24.52,0,0,1-17.65,6.08Z"/><path class="cls-1" d="M92.75,268.2c15.75,0,25,14.06,25,28.61,0,14.86-9.67,25.92-24.83,25.92-15.65,0-25.52-14.36-25.52-28.32,0-15.06,9.87-26.22,25.32-26.22m.7-7.18c-20.94-.5-37.39,15.35-37.39,34.3,0,20.44,16.65,34.6,36.39,34.6s36.69-14.76,36.69-35.1c0-17.95-14.76-33.9-35.69-33.8"/><path class="cls-1" d="M155.75,299.61l24.53-36.89H162.83v.3c5.58,2.69,3.29,7.48,1.59,10l-12.36,18.54-16-26c-1.3-2.09-4.29-2.79-7.48-2.79h-9.07c4.79,2.59,6.78,5.88,9.47,10.27l16.55,26.62v14.76c0,4.69.7,11.17-4.19,13.66v.3h19.44V328c-5.08-3.69-5.08-6.68-5.08-12.66Z"/><path class="cls-1" d="M209.11,268.2c15.75,0,25,14.06,25,28.61,0,14.86-9.67,25.92-24.83,25.92-15.65,0-25.52-14.36-25.52-28.32,0-15.06,9.87-26.22,25.33-26.22m.7-7.18c-20.94-.5-37.39,15.35-37.39,34.3,0,20.44,16.65,34.6,36.39,34.6s36.69-14.76,36.69-35.1c0-17.95-14.76-33.9-35.69-33.8"/><path class="cls-1" d="M261.58,320.24V276.77c0-4.49-.7-11.87,4.39-13.76v-.3h-19v.3c5.09,1.89,4.49,9.17,4.49,13.76v37.59c0,4.49.6,11.86-4.49,13.66v.3h41l5.18-13.26h-.3a24.52,24.52,0,0,1-17.65,6.08Z"/><path class="cls-1" d="M337.28,296.31H317.64l9.87-25.12Zm2.89,7.38,5.38,14.06c2.69,7,3.49,8.08-1.4,10.27v.3H364.6V328c-5.68-2.89-7.48-8.47-9.77-14.16l-20.74-51.15H318.34v.3c4.78,1.5,2.89,5.68,1.49,9.27l-16.65,41.58c-2.19,5.68-3.89,11.27-9.67,14.16v.3h18.35V328c-4.79-1.8-4.09-4.69-2-10.27L315,303.69Z"/><path class="cls-1" d="M19,398.44l18.32,23.23c2.35,3,4,4.81,7.8,6.09v-30c0-3,0-5.13,2.78-6.73v-.16h-9.4v.16c2.83,1.6,2.78,3.74,2.78,6.73V418L21.7,393.36,21,392.3a3.31,3.31,0,0,1-.8-1.33v-.05h-7.8v.16c2.78,1.6,2.78,3.74,2.78,6.73v21.31c0,3,0,5.13-2.83,6.78v.16h9.45v-.16c-2.83-1.66-2.78-3.79-2.78-6.78Z"/><path class="cls-1" d="M60.28,408.91h4c1.65,0,3.9-.05,4.75,1.5h.16v-5.66H69a5.45,5.45,0,0,1-2.35.32H60.28v-9.94a30.13,30.13,0,0,1,5.45-.37c2.46,0,4.65.21,6.3,2.14h.16v-6.25H72a5.45,5.45,0,0,1-2.51.27H52.43v.16c2.72,1,2.4,4.92,2.4,7.37v20.14c0,2.4.32,6.36-2.4,7.32v.16H74.7l2.4-7h-.16a13.31,13.31,0,0,1-9.88,3.15l-6.78-.64Z"/><path class="cls-1" d="M102,400.68l5.88,18.37c1.76,5.5,2.14,5.23,7.05,8.6l11.27-36.75H118v.16c4.17,1.44,2.4,5.77,1.44,8.81l-6,19.55L106,396.3c-.75-2.35-1.12-4.06-.8-5.39H97.62v.16c2.94,1.5,1.87,5,.86,8.23l-6.25,20.3-8-24.84a9.27,9.27,0,0,1-.64-3.85h-7.8v.16c2.67,1.82,3.47,5.29,4.43,8.23L86.57,419c1.76,5.5,2.24,5.13,7.1,8.65Z"/><path class="cls-1" d="M155,393.85c8.44,0,13.41,7.53,13.41,15.33,0,8-5.18,13.89-13.3,13.89-8.39,0-13.67-7.69-13.67-15.17,0-8.07,5.29-14,13.57-14m.37-3.85c-11.22-.27-20,8.23-20,18.37,0,10.95,8.92,18.53,19.5,18.53s19.66-7.9,19.66-18.8c0-9.61-7.9-18.16-19.12-18.11"/><path class="cls-1" d="M176.4,390.91v.16c2.72,1,2.35,4.91,2.35,7.37v20.14c0,2.4.37,6.36-2.35,7.32v.16h10.2v-.16c-2.72-1-2.4-4.86-2.4-7.32V394.65a28.3,28.3,0,0,1,3.63-.43c3.58-.16,6.89,2.08,6.89,5.93,0,5-5,7-9.24,7.64l4.91,7.53,6.52,8.07c1.6,2,3.36,2.67,6.19,2.67H208a37.48,37.48,0,0,1-8.65-7.48l-7.69-9.67c4.38-1,8.49-4.7,8.49-9.4,0-4.86-3.9-8.6-11.06-8.6Z"/><path class="cls-1" d="M218.2,421.73V398.44c0-2.4-.37-6.36,2.35-7.37v-.16h-10.2v.16c2.72,1,2.4,4.91,2.4,7.37v20.14c0,2.4.32,6.36-2.4,7.32v.16h22l2.78-7.1h-.16a13.14,13.14,0,0,1-9.45,3.26Z"/><path class="cls-1" d="M244.33,408.91h4c1.65,0,3.9-.05,4.75,1.5h.16v-5.66H253a5.45,5.45,0,0,1-2.35.32h-6.36v-9.94a30.14,30.14,0,0,1,5.45-.37c2.46,0,4.65.21,6.3,2.14h.16v-6.25h-.16a5.45,5.45,0,0,1-2.51.27H236.48v.16c2.72,1,2.4,4.92,2.4,7.37v20.14c0,2.4.32,6.36-2.4,7.32v.16h22.27l2.4-7H261a13.31,13.31,0,0,1-9.88,3.15l-6.78-.64Z"/><path class="cls-1" d="M286.82,408.91H276.3l5.29-13.46Zm1.55,4,2.88,7.53c1.44,3.74,1.87,4.33-.75,5.5v.16h10.95v-.16c-3-1.55-4-4.54-5.24-7.59l-11.11-27.4h-8.44v.16c2.56.8,1.55,3,.8,5l-8.92,22.27c-1.18,3-2.08,6-5.18,7.59v.16h9.83v-.16c-2.56-1-2.19-2.51-1.07-5.5l2.78-7.53Z"/><path class="cls-1" d="M311.2,398.44l18.32,23.23c2.35,3,4,4.81,7.8,6.09v-30c0-3,0-5.13,2.78-6.73v-.16h-9.4v.16c2.83,1.6,2.78,3.74,2.78,6.73V418l-19.55-24.68-.75-1.07a3.31,3.31,0,0,1-.8-1.33v-.05h-7.8v.16c2.78,1.6,2.78,3.74,2.78,6.73v21.31c0,3,0,5.13-2.83,6.78v.16H314v-.16c-2.83-1.66-2.78-3.79-2.78-6.78Z"/><path class="cls-1" d="M362.58,391.23a26.86,26.86,0,0,0-8-1.17c-6.52,0-13.41,2.56-13.41,9.29,0,11.32,18.37,9.83,18.37,18.16,0,3.74-4.59,5.56-7.64,5.56a18.49,18.49,0,0,1-11.7-4.43l1.55,6.68a27.67,27.67,0,0,0,9.56,1.6c8.33,0,14.31-5.34,14.31-11.06,0-9.88-18.37-9.78-18.37-17.09,0-3.68,3.85-4.86,6.89-4.86a12.16,12.16,0,0,1,8.39,3.37Z"/></svg>