<?xml version="1.0" encoding="utf-8"?>
<!-- Generator: Adobe Illustrator 15.0.0, SVG Export Plug-In . SVG Version: 6.00 Build 0)  -->
<!DOCTYPE svg PUBLIC "-//W3C//DTD SVG 1.1//EN" "http://www.w3.org/Graphics/SVG/1.1/DTD/svg11.dtd">
<svg version="1.1" id="Layer_1" xmlns="http://www.w3.org/2000/svg" xmlns:xlink="http://www.w3.org/1999/xlink" x="0px" y="0px"
	 width="796.5px" height="148.5px" viewBox="0 0 796.5 148.5" enable-background="new 0 0 796.5 148.5" xml:space="preserve">
<image display="none" overflow="visible" width="800" height="154" xlink:href="BB949A51.png"  transform="matrix(1 0 0 1 -2.75 -2.75)">
</image>
<g>
	<path d="M170.12,33.655h3.007v22.553h11.599V59H170.12V33.655z"/>
	<path d="M199.796,59.644c-1.933,0-3.705-0.334-5.316-1.002c-1.611-0.667-3.007-1.593-4.188-2.774
		c-1.181-1.181-2.1-2.589-2.756-4.224c-0.657-1.635-0.984-3.407-0.984-5.316c0-1.909,0.328-3.681,0.984-5.316
		c0.656-1.634,1.575-3.043,2.756-4.224c1.182-1.182,2.578-2.106,4.188-2.774c1.611-0.668,3.383-1.002,5.316-1.002
		s3.705,0.334,5.316,1.002c1.611,0.668,3.007,1.593,4.188,2.774c1.182,1.181,2.1,2.59,2.756,4.224
		c0.656,1.635,0.984,3.407,0.984,5.316c0,1.91-0.328,3.682-0.984,5.316s-1.575,3.042-2.756,4.224
		c-1.182,1.182-2.577,2.107-4.188,2.774C203.501,59.31,201.729,59.644,199.796,59.644z M199.796,56.852
		c1.479,0,2.833-0.274,4.063-0.824c1.229-0.548,2.285-1.3,3.168-2.255c0.882-0.955,1.569-2.07,2.059-3.347
		c0.488-1.276,0.733-2.643,0.733-4.099c0-1.455-0.245-2.822-0.733-4.099c-0.49-1.277-1.176-2.393-2.059-3.347
		c-0.883-0.954-1.939-1.706-3.168-2.255c-1.229-0.549-2.583-0.823-4.063-0.823s-2.834,0.274-4.063,0.823
		c-1.229,0.549-2.286,1.301-3.168,2.255c-0.883,0.955-1.57,2.07-2.059,3.347c-0.489,1.277-0.733,2.644-0.733,4.099
		c0,1.456,0.244,2.823,0.733,4.099c0.489,1.277,1.175,2.393,2.059,3.347c0.882,0.955,1.938,1.707,3.168,2.255
		C196.962,56.578,198.317,56.852,199.796,56.852z"/>
	<path d="M223.853,48.081l-9.451-14.426h3.831l7.124,11.456l7.339-11.456h3.615l-9.451,14.426V59h-3.007V48.081z"/>
	<path d="M250.916,59.644c-1.933,0-3.705-0.334-5.316-1.002c-1.611-0.667-3.007-1.593-4.188-2.774
		c-1.181-1.181-2.101-2.589-2.756-4.224c-0.657-1.635-0.985-3.407-0.985-5.316c0-1.909,0.328-3.681,0.985-5.316
		c0.656-1.634,1.575-3.043,2.756-4.224c1.181-1.182,2.578-2.106,4.188-2.774c1.611-0.668,3.383-1.002,5.316-1.002
		s3.705,0.334,5.316,1.002c1.611,0.668,3.007,1.593,4.188,2.774c1.182,1.181,2.1,2.59,2.757,4.224
		c0.656,1.635,0.984,3.407,0.984,5.316c0,1.91-0.328,3.682-0.984,5.316c-0.657,1.635-1.575,3.042-2.757,4.224
		c-1.181,1.182-2.577,2.107-4.188,2.774C254.621,59.31,252.849,59.644,250.916,59.644z M250.916,56.852
		c1.479,0,2.833-0.274,4.063-0.824c1.229-0.548,2.285-1.3,3.168-2.255s1.569-2.07,2.059-3.347c0.489-1.276,0.734-2.643,0.734-4.099
		c0-1.455-0.245-2.822-0.734-4.099c-0.489-1.277-1.176-2.393-2.059-3.347c-0.883-0.954-1.939-1.706-3.168-2.255
		c-1.229-0.549-2.584-0.823-4.063-0.823c-1.48,0-2.834,0.274-4.063,0.823c-1.229,0.549-2.285,1.301-3.168,2.255
		c-0.883,0.955-1.569,2.07-2.058,3.347c-0.489,1.277-0.734,2.644-0.734,4.099c0,1.456,0.245,2.823,0.734,4.099
		c0.489,1.277,1.175,2.393,2.058,3.347s1.939,1.707,3.168,2.255C248.082,56.578,249.436,56.852,250.916,56.852z"/>
	<path d="M268.994,33.655h3.007v22.553H283.6V59h-14.605V33.655z"/>
	<path d="M295.126,33.655h2.828L308.729,59h-3.508l-2.577-6.229h-12.673L287.358,59h-3.401L295.126,33.655z M296.487,37.521h-0.071
		l-5.263,12.458h10.346L296.487,37.521z"/>
	<path d="M341.055,49.334c0,1.384-0.173,2.697-0.519,3.938c-0.346,1.241-0.895,2.333-1.647,3.275
		c-0.752,0.943-1.736,1.695-2.953,2.255s-2.697,0.841-4.439,0.841c-1.743,0-3.222-0.281-4.439-0.841s-2.201-1.312-2.954-2.255
		c-0.751-0.942-1.301-2.034-1.646-3.275c-0.346-1.24-0.519-2.553-0.519-3.938v-15.68h3.007v15.25c0,1.026,0.107,2.017,0.322,2.971
		c0.215,0.955,0.573,1.802,1.074,2.542c0.501,0.74,1.169,1.331,2.004,1.772c0.835,0.442,1.885,0.663,3.15,0.663
		c1.265,0,2.314-0.22,3.15-0.663c0.835-0.441,1.503-1.032,2.004-1.772c0.501-0.74,0.859-1.587,1.074-2.542
		c0.215-0.954,0.322-1.945,0.322-2.971v-15.25h3.007V49.334z"/>
	<path d="M347.248,33.655h3.795l14.677,21.049h0.071V33.655h3.007V59h-3.794l-14.677-21.05h-0.072V59h-3.007V33.655z"/>
	<path d="M375.099,33.655h3.007V59h-3.007V33.655z"/>
	<path d="M380.934,33.655h3.4l7.804,20.834h0.072l8.055-20.834h3.186L393.534,59h-2.899L380.934,33.655z"/>
	<path d="M406.277,33.655h15.931v2.792h-12.923v7.947h12.064v2.792h-12.064v9.021h13.568V59h-16.575V33.655z"/>
	<path d="M427.505,33.655h6.479c1.217,0,2.428,0.071,3.634,0.215c1.205,0.143,2.285,0.454,3.24,0.931
		c0.954,0.478,1.729,1.176,2.327,2.094c0.597,0.919,0.895,2.166,0.895,3.741c0,1.862-0.562,3.365-1.682,4.511
		c-1.123,1.146-2.674,1.874-4.654,2.184L444.938,59h-3.687l-6.873-11.384h-3.866V59h-3.007V33.655z M430.512,44.824h2.685
		c0.834,0,1.7-0.023,2.595-0.072c0.895-0.047,1.718-0.202,2.47-0.465c0.751-0.262,1.372-0.674,1.861-1.235
		c0.489-0.561,0.734-1.366,0.734-2.417c0-0.907-0.179-1.634-0.537-2.183c-0.358-0.549-0.83-0.973-1.414-1.271
		c-0.585-0.298-1.241-0.496-1.969-0.591c-0.729-0.095-1.462-0.144-2.202-0.144h-4.224V44.824z"/>
	<path d="M461.406,38.13c-0.501-0.811-1.169-1.402-2.004-1.772c-0.835-0.37-1.707-0.555-2.613-0.555
		c-0.668,0-1.325,0.084-1.969,0.25c-0.644,0.167-1.223,0.418-1.736,0.752c-0.513,0.334-0.926,0.776-1.235,1.325
		c-0.31,0.549-0.465,1.193-0.465,1.933c0,0.573,0.09,1.08,0.269,1.521c0.178,0.442,0.47,0.841,0.877,1.199
		c0.405,0.358,0.954,0.692,1.646,1.002c0.692,0.31,1.539,0.621,2.542,0.931c0.978,0.311,1.926,0.645,2.845,1.002
		c0.918,0.358,1.73,0.812,2.434,1.36c0.705,0.549,1.265,1.235,1.683,2.058c0.417,0.824,0.626,1.856,0.626,3.097
		c0,1.265-0.25,2.362-0.751,3.293c-0.502,0.931-1.164,1.7-1.987,2.309c-0.824,0.608-1.772,1.062-2.846,1.36
		c-1.075,0.298-2.184,0.447-3.329,0.447c-0.74,0-1.48-0.066-2.22-0.197c-0.74-0.131-1.449-0.334-2.129-0.608
		c-0.68-0.274-1.319-0.632-1.916-1.074c-0.597-0.441-1.109-0.984-1.539-1.629l2.578-2.112c0.548,0.931,1.312,1.635,2.291,2.112
		c0.979,0.478,2.017,0.716,3.115,0.716c0.644,0,1.294-0.095,1.951-0.287c0.656-0.19,1.247-0.471,1.772-0.841
		c0.525-0.37,0.955-0.829,1.289-1.378c0.333-0.548,0.501-1.181,0.501-1.897c0-0.788-0.131-1.426-0.394-1.915
		c-0.263-0.489-0.668-0.913-1.217-1.271c-0.549-0.358-1.241-0.68-2.077-0.967c-0.835-0.286-1.813-0.62-2.935-1.002
		c-0.907-0.287-1.742-0.614-2.506-0.984c-0.764-0.37-1.426-0.824-1.987-1.36c-0.561-0.537-1.002-1.182-1.324-1.934
		c-0.323-0.751-0.483-1.652-0.483-2.703c0-1.217,0.238-2.278,0.716-3.186c0.477-0.907,1.122-1.665,1.933-2.273
		c0.812-0.608,1.73-1.068,2.757-1.378c1.026-0.31,2.1-0.465,3.222-0.465c1.432,0,2.738,0.221,3.92,0.663
		c1.181,0.441,2.237,1.211,3.168,2.309L461.406,38.13z"/>
	<path d="M469.281,33.655h3.007V59h-3.007V33.655z"/>
	<path d="M495.592,36.447h-8.377V59h-3.007V36.447h-8.376v-2.792h19.76V36.447z"/>
	<path d="M505.114,48.081l-9.451-14.426h3.831l7.124,11.456l7.339-11.456h3.615l-9.451,14.426V59h-3.007V48.081z"/>
	<path d="M530.352,33.655h3.795l14.676,21.049h0.072V33.655h3.008V59h-3.795L533.43,37.95h-0.072V59h-3.006V33.655z"/>
	<path d="M558.201,33.655h15.932v2.792h-12.924v7.947h12.064v2.792h-12.064v9.021h13.568V59h-16.576V33.655z"/>
	<path d="M576.494,33.655h3.328l5.764,21.049h0.072l6.229-21.049h3.365l6.193,21.049h0.07l5.871-21.049h3.15L603.092,59h-3.258
		l-6.266-21.479h-0.07L587.197,59h-3.293L576.494,33.655z"/>
	<path d="M635.631,59.644c-1.932,0-3.705-0.334-5.316-1.002c-1.609-0.667-3.006-1.593-4.188-2.774
		c-1.182-1.181-2.1-2.589-2.756-4.224s-0.984-3.407-0.984-5.316c0-1.909,0.328-3.681,0.984-5.316
		c0.656-1.634,1.574-3.043,2.756-4.224c1.182-1.182,2.578-2.106,4.188-2.774c1.611-0.668,3.385-1.002,5.316-1.002
		c1.934,0,3.707,0.334,5.316,1.002c1.611,0.668,3.008,1.593,4.189,2.774c1.18,1.181,2.1,2.59,2.756,4.224
		c0.656,1.635,0.984,3.407,0.984,5.316c0,1.91-0.328,3.682-0.984,5.316s-1.576,3.042-2.756,4.224
		c-1.182,1.182-2.578,2.107-4.189,2.774C639.338,59.31,637.564,59.644,635.631,59.644z M635.631,56.852
		c1.48,0,2.834-0.274,4.064-0.824c1.229-0.548,2.283-1.3,3.168-2.255c0.883-0.955,1.568-2.07,2.059-3.347
		c0.488-1.276,0.732-2.643,0.732-4.099c0-1.455-0.244-2.822-0.732-4.099c-0.49-1.277-1.176-2.393-2.059-3.347
		c-0.885-0.954-1.939-1.706-3.168-2.255c-1.23-0.549-2.584-0.823-4.064-0.823c-1.479,0-2.834,0.274-4.062,0.823
		c-1.229,0.549-2.285,1.301-3.168,2.255c-0.883,0.955-1.568,2.07-2.059,3.347s-0.734,2.644-0.734,4.099
		c0,1.456,0.244,2.823,0.734,4.099c0.49,1.277,1.176,2.393,2.059,3.347s1.939,1.707,3.168,2.255
		C632.797,56.578,634.152,56.852,635.631,56.852z"/>
	<path d="M653.709,33.655h6.48c1.217,0,2.428,0.071,3.633,0.215c1.205,0.143,2.285,0.454,3.24,0.931
		c0.953,0.478,1.73,1.176,2.326,2.094c0.598,0.919,0.896,2.166,0.896,3.741c0,1.862-0.562,3.365-1.684,4.511
		s-2.674,1.874-4.654,2.184L671.143,59h-3.686l-6.873-11.384h-3.867V59h-3.008V33.655z M656.717,44.824h2.686
		c0.834,0,1.699-0.023,2.594-0.072c0.896-0.047,1.719-0.202,2.471-0.465c0.752-0.262,1.371-0.674,1.861-1.235
		c0.49-0.561,0.734-1.366,0.734-2.417c0-0.907-0.18-1.634-0.537-2.183s-0.83-0.973-1.414-1.271c-0.586-0.298-1.24-0.496-1.969-0.591
		s-1.463-0.144-2.201-0.144h-4.225V44.824z"/>
	<path d="M675.582,33.655h3.008v22.553h11.598V59h-14.605V33.655z"/>
	<path d="M693.48,33.655h15.932v2.792h-12.924v7.947h12.064v2.792h-12.064v9.021h13.568V59H693.48V33.655z"/>
	<path d="M722.941,33.655h2.828L736.545,59h-3.508l-2.578-6.229h-12.672L715.174,59h-3.4L722.941,33.655z M724.303,37.521h-0.072
		l-5.262,12.458h10.346L724.303,37.521z"/>
	<path d="M739.91,33.655h3.795l14.678,21.049h0.07V33.655h3.008V59h-3.795l-14.678-21.05h-0.07V59h-3.008V33.655z"/>
	<path d="M779.789,38.13c-0.502-0.811-1.17-1.402-2.004-1.772c-0.836-0.37-1.707-0.555-2.613-0.555c-0.67,0-1.326,0.084-1.971,0.25
		c-0.643,0.167-1.223,0.418-1.734,0.752c-0.514,0.334-0.926,0.776-1.236,1.325c-0.309,0.549-0.465,1.193-0.465,1.933
		c0,0.573,0.09,1.08,0.27,1.521c0.178,0.442,0.471,0.841,0.877,1.199c0.404,0.358,0.953,0.692,1.646,1.002
		c0.691,0.31,1.539,0.621,2.541,0.931c0.979,0.311,1.928,0.645,2.846,1.002s1.73,0.812,2.434,1.36
		c0.705,0.549,1.266,1.235,1.684,2.058c0.418,0.824,0.627,1.856,0.627,3.097c0,1.265-0.252,2.362-0.752,3.293
		c-0.502,0.931-1.164,1.7-1.986,2.309c-0.824,0.608-1.773,1.062-2.848,1.36c-1.074,0.298-2.184,0.447-3.328,0.447
		c-0.74,0-1.48-0.066-2.221-0.197c-0.74-0.131-1.449-0.334-2.129-0.608c-0.68-0.274-1.318-0.632-1.916-1.074
		c-0.596-0.441-1.109-0.984-1.539-1.629l2.578-2.112c0.549,0.931,1.312,1.635,2.291,2.112c0.979,0.478,2.016,0.716,3.115,0.716
		c0.643,0,1.293-0.095,1.949-0.287c0.656-0.19,1.248-0.471,1.773-0.841c0.523-0.37,0.953-0.829,1.289-1.378
		c0.332-0.548,0.5-1.181,0.5-1.897c0-0.788-0.131-1.426-0.395-1.915c-0.262-0.489-0.668-0.913-1.217-1.271s-1.24-0.68-2.076-0.967
		c-0.836-0.286-1.812-0.62-2.936-1.002c-0.906-0.287-1.742-0.614-2.506-0.984s-1.426-0.824-1.986-1.36
		c-0.561-0.537-1.002-1.182-1.324-1.934c-0.322-0.751-0.484-1.652-0.484-2.703c0-1.217,0.238-2.278,0.717-3.186
		c0.477-0.907,1.121-1.665,1.934-2.273c0.811-0.608,1.73-1.068,2.756-1.378c1.025-0.31,2.1-0.465,3.223-0.465
		c1.432,0,2.738,0.221,3.92,0.663s2.236,1.211,3.168,2.309L779.789,38.13z"/>
</g>
<rect x="168.25" y="-150.25" fill="none" width="854" height="56.571"/>
<text transform="matrix(1 0 0 1 168.25 -113.9619)" font-family="'Avenir-Roman'" font-size="48">LOYOLA UNIVERSITY NEW ORLEANS</text>
<g>
	<path d="M183.028,88.903c-0.479-0.642-1.068-1.123-1.769-1.443c-0.703-0.321-1.434-0.482-2.195-0.482
		c-0.881,0-1.69,0.179-2.429,0.538c-0.739,0.358-1.377,0.839-1.915,1.444c-0.537,0.605-0.955,1.307-1.253,2.105
		c-0.299,0.799-0.448,1.631-0.448,2.497c0,0.926,0.149,1.788,0.448,2.587c0.298,0.798,0.713,1.493,1.243,2.082
		c0.529,0.589,1.165,1.057,1.903,1.4c0.739,0.343,1.556,0.515,2.452,0.515c0.97,0,1.836-0.191,2.598-0.571
		c0.761-0.381,1.425-0.929,1.993-1.646l1.411,1.187c-0.717,0.956-1.579,1.657-2.586,2.105c-1.008,0.448-2.146,0.672-3.415,0.672
		c-1.135,0-2.194-0.21-3.18-0.627c-0.985-0.418-1.84-0.997-2.563-1.736c-0.725-0.739-1.292-1.615-1.702-2.631
		c-0.411-1.015-0.616-2.127-0.616-3.336c0-1.164,0.198-2.254,0.593-3.27c0.396-1.014,0.952-1.895,1.668-2.642
		c0.716-0.747,1.567-1.336,2.553-1.769c0.985-0.433,2.067-0.649,3.247-0.649c1.075,0,2.108,0.194,3.101,0.583
		c0.993,0.389,1.825,1.022,2.497,1.903L183.028,88.903z"/>
	<path d="M187.685,85.634h9.964v1.747h-8.083v4.971h7.546v1.747h-7.546v5.642h8.486v1.747h-10.367V85.634z"/>
	<path d="M200.963,85.634h4.053c0.761,0,1.518,0.045,2.273,0.135c0.753,0.089,1.429,0.284,2.026,0.582
		c0.597,0.299,1.082,0.736,1.456,1.31c0.373,0.575,0.56,1.355,0.56,2.34c0,1.165-0.351,2.105-1.053,2.822
		c-0.701,0.717-1.671,1.172-2.91,1.366l4.5,7.299h-2.306l-4.299-7.121h-2.419v7.121h-1.88V85.634z M202.843,92.621h1.68
		c0.522,0,1.063-0.016,1.624-0.046c0.559-0.029,1.075-0.126,1.545-0.291c0.47-0.164,0.858-0.421,1.164-0.772
		c0.306-0.35,0.459-0.854,0.459-1.512c0-0.567-0.112-1.022-0.336-1.365c-0.224-0.344-0.519-0.608-0.884-0.795
		c-0.367-0.186-0.776-0.31-1.231-0.369c-0.456-0.059-0.915-0.09-1.377-0.09h-2.643V92.621z"/>
	<path d="M224.877,87.38h-5.239v14.107h-1.881V87.38h-5.239v-1.747h12.359V87.38z"/>
	<path d="M227.094,85.634h1.88v15.854h-1.88V85.634z"/>
	<path d="M232.916,85.634h9.83v1.747h-7.949v5.241h7.389v1.745h-7.389v7.121h-1.881V85.634z"/>
	<path d="M245.365,85.634h1.88v15.854h-1.88V85.634z"/>
	<path d="M262.293,88.903c-0.479-0.642-1.068-1.123-1.769-1.443c-0.703-0.321-1.433-0.482-2.195-0.482
		c-0.88,0-1.69,0.179-2.429,0.538c-0.739,0.358-1.377,0.839-1.915,1.444c-0.538,0.605-0.956,1.307-1.253,2.105
		c-0.3,0.799-0.448,1.631-0.448,2.497c0,0.926,0.148,1.788,0.448,2.587c0.298,0.798,0.712,1.493,1.242,2.082
		c0.53,0.589,1.165,1.057,1.904,1.4c0.739,0.343,1.556,0.515,2.452,0.515c0.97,0,1.836-0.191,2.598-0.571
		c0.761-0.381,1.425-0.929,1.993-1.646l1.411,1.187c-0.717,0.956-1.579,1.657-2.586,2.105c-1.007,0.448-2.146,0.672-3.415,0.672
		c-1.135,0-2.194-0.21-3.18-0.627c-0.985-0.418-1.84-0.997-2.563-1.736c-0.725-0.739-1.292-1.615-1.702-2.631
		c-0.411-1.015-0.616-2.127-0.616-3.336c0-1.164,0.198-2.254,0.594-3.27c0.395-1.014,0.951-1.895,1.668-2.642
		s1.567-1.336,2.553-1.769s2.067-0.649,3.247-0.649c1.075,0,2.108,0.194,3.102,0.583c0.992,0.389,1.825,1.022,2.497,1.903
		L262.293,88.903z"/>
	<path d="M272.101,85.634h1.769l6.739,15.854h-2.194l-1.612-3.896h-7.927l-1.634,3.896h-2.127L272.101,85.634z M272.951,88.052
		h-0.044l-3.292,7.792h6.472L272.951,88.052z"/>
	<path d="M291.29,87.38h-5.24v14.107h-1.881V87.38h-5.239v-1.747h12.36V87.38z"/>
	<path d="M293.506,85.634h9.965v1.747h-8.083v4.971h7.546v1.747h-7.546v5.642h8.487v1.747h-10.368V85.634z"/>
	<path d="M313.009,85.634h1.881v15.854h-1.881V85.634z"/>
	<path d="M318.83,85.634h2.374l9.18,13.167h0.045V85.634h1.881v15.854h-2.373l-9.181-13.166h-0.045v13.166h-1.881V85.634z"/>
	<path d="M349.999,88.433c-0.313-0.507-0.73-0.877-1.253-1.108c-0.522-0.231-1.067-0.347-1.635-0.347
		c-0.418,0-0.829,0.052-1.232,0.157c-0.403,0.104-0.764,0.261-1.085,0.47c-0.322,0.209-0.58,0.485-0.773,0.829
		c-0.194,0.344-0.292,0.747-0.292,1.209c0,0.358,0.057,0.676,0.168,0.952c0.111,0.277,0.295,0.526,0.549,0.75
		c0.253,0.224,0.597,0.434,1.029,0.627c0.433,0.194,0.963,0.388,1.59,0.582c0.613,0.194,1.206,0.403,1.781,0.627
		c0.574,0.224,1.083,0.508,1.522,0.851s0.791,0.772,1.052,1.288c0.261,0.515,0.392,1.161,0.392,1.937c0,0.792-0.156,1.478-0.47,2.06
		c-0.313,0.582-0.728,1.063-1.242,1.444c-0.515,0.38-1.108,0.664-1.781,0.851c-0.671,0.186-1.366,0.28-2.082,0.28
		c-0.463,0-0.926-0.042-1.389-0.123c-0.462-0.083-0.906-0.209-1.332-0.381c-0.426-0.171-0.826-0.396-1.198-0.672
		c-0.374-0.276-0.694-0.616-0.963-1.019l1.612-1.321c0.343,0.583,0.82,1.022,1.432,1.321c0.612,0.298,1.262,0.448,1.949,0.448
		c0.403,0,0.809-0.06,1.22-0.18c0.41-0.119,0.78-0.294,1.108-0.526c0.329-0.231,0.598-0.519,0.807-0.862s0.313-0.739,0.313-1.187
		c0-0.492-0.082-0.891-0.246-1.198c-0.165-0.305-0.418-0.571-0.762-0.795c-0.343-0.224-0.775-0.425-1.298-0.604
		c-0.523-0.179-1.134-0.388-1.836-0.626c-0.567-0.179-1.089-0.384-1.567-0.616s-0.892-0.515-1.243-0.851
		c-0.351-0.336-0.626-0.739-0.828-1.209c-0.201-0.47-0.302-1.034-0.302-1.69c0-0.761,0.149-1.425,0.448-1.993
		c0.298-0.567,0.702-1.042,1.209-1.422c0.507-0.381,1.083-0.668,1.724-0.862c0.643-0.194,1.314-0.292,2.016-0.292
		c0.896,0,1.713,0.139,2.452,0.415c0.739,0.276,1.4,0.757,1.981,1.444L349.999,88.433z"/>
	<path d="M362.292,101.891c-1.209,0-2.318-0.21-3.326-0.627c-1.008-0.418-1.881-0.997-2.619-1.736
		c-0.74-0.739-1.314-1.62-1.725-2.642c-0.411-1.022-0.616-2.131-0.616-3.325c0-1.194,0.205-2.302,0.616-3.325
		c0.41-1.022,0.985-1.903,1.725-2.642c0.738-0.739,1.611-1.317,2.619-1.735c1.007-0.417,2.116-0.627,3.326-0.627
		c1.208,0,2.317,0.209,3.324,0.627c1.008,0.418,1.881,0.996,2.621,1.735c0.739,0.739,1.313,1.62,1.724,2.642
		c0.411,1.023,0.616,2.131,0.616,3.325c0,1.194-0.205,2.303-0.616,3.325c-0.411,1.022-0.985,1.903-1.724,2.642
		c-0.739,0.739-1.613,1.318-2.621,1.736C364.61,101.681,363.501,101.891,362.292,101.891z M362.292,100.144
		c0.925,0,1.771-0.172,2.541-0.515c0.769-0.344,1.429-0.814,1.981-1.411s0.981-1.295,1.287-2.094
		c0.307-0.798,0.459-1.653,0.459-2.564c0-0.91-0.152-1.765-0.459-2.563c-0.306-0.799-0.735-1.497-1.287-2.094
		c-0.552-0.596-1.213-1.067-1.981-1.41c-0.77-0.343-1.616-0.515-2.541-0.515c-0.926,0-1.773,0.172-2.542,0.515
		c-0.769,0.343-1.43,0.814-1.981,1.41c-0.553,0.597-0.982,1.295-1.289,2.094c-0.306,0.798-0.458,1.653-0.458,2.563
		c0,0.911,0.152,1.766,0.458,2.564c0.306,0.799,0.735,1.497,1.289,2.094c0.552,0.597,1.212,1.067,1.981,1.411
		C360.519,99.972,361.366,100.144,362.292,100.144z"/>
	<path d="M373.6,85.634h9.83v1.747h-7.95v5.241h7.389v1.745h-7.389v7.121h-1.88V85.634z"/>
	<path d="M396.686,87.38h-5.241v14.107h-1.88V87.38h-5.24v-1.747h12.361V87.38z"/>
	<path d="M397.066,85.634h2.082l3.605,13.167h0.044l3.896-13.167h2.105l3.873,13.167h0.045l3.672-13.167h1.97l-4.657,15.854h-2.039
		l-3.918-13.435h-0.045l-3.94,13.435h-2.06L397.066,85.634z"/>
	<path d="M425.078,85.634h1.769l6.74,15.854h-2.194l-1.613-3.896h-7.926l-1.634,3.896h-2.127L425.078,85.634z M425.929,88.052
		h-0.045l-3.292,7.792h6.471L425.929,88.052z"/>
	<path d="M435.691,85.634h4.053c0.762,0,1.52,0.045,2.272,0.135c0.754,0.089,1.43,0.284,2.026,0.582
		c0.597,0.299,1.083,0.736,1.457,1.31c0.372,0.575,0.559,1.355,0.559,2.34c0,1.165-0.351,2.105-1.052,2.822
		c-0.702,0.717-1.671,1.172-2.911,1.366l4.5,7.299h-2.306l-4.299-7.121h-2.418v7.121h-1.881V85.634z M437.572,92.621h1.68
		c0.522,0,1.062-0.016,1.623-0.046c0.56-0.029,1.075-0.126,1.546-0.291c0.47-0.164,0.857-0.421,1.163-0.772
		c0.306-0.35,0.459-0.854,0.459-1.512c0-0.567-0.112-1.022-0.335-1.365c-0.224-0.344-0.52-0.608-0.885-0.795
		c-0.366-0.186-0.776-0.31-1.231-0.369c-0.456-0.059-0.915-0.09-1.376-0.09h-2.643V92.621z"/>
	<path d="M449.372,85.634h9.964v1.747h-8.083v4.971h7.546v1.747h-7.546v5.642h8.487v1.747h-10.368V85.634z"/>
	<path d="M468.583,85.634h6.09c0.522,0,1.075,0.06,1.657,0.18c0.583,0.12,1.16,0.31,1.735,0.571
		c0.575,0.261,1.127,0.601,1.657,1.019s0.997,0.922,1.4,1.511c0.402,0.59,0.724,1.269,0.963,2.038
		c0.238,0.769,0.358,1.639,0.358,2.608c0,0.97-0.12,1.84-0.358,2.609c-0.239,0.769-0.561,1.448-0.963,2.037
		c-0.403,0.59-0.87,1.094-1.4,1.512c-0.53,0.418-1.082,0.758-1.657,1.019c-0.575,0.262-1.152,0.452-1.735,0.571
		c-0.582,0.12-1.135,0.179-1.657,0.179h-6.09V85.634z M470.465,99.741h3.582c0.91,0,1.754-0.119,2.53-0.358
		c0.776-0.239,1.448-0.608,2.016-1.109c0.566-0.5,1.015-1.138,1.343-1.915c0.329-0.776,0.493-1.709,0.493-2.799
		c0-1.089-0.164-2.022-0.493-2.798c-0.328-0.776-0.776-1.415-1.343-1.915c-0.568-0.5-1.239-0.87-2.016-1.109
		c-0.776-0.238-1.62-0.358-2.53-0.358h-3.582V99.741z"/>
	<path d="M485.467,85.634h9.964v1.747h-8.083v4.971h7.545v1.747h-7.545v5.642h8.487v1.747h-10.368V85.634z"/>
	<path d="M496.573,85.634h2.127l4.88,13.032h0.047l5.036-13.032h1.993l-6.201,15.854h-1.814L496.573,85.634z"/>
	<path d="M512.426,85.634h9.965v1.747h-8.085v4.971h7.547v1.747h-7.547v5.642h8.487v1.747h-10.367V85.634z"/>
	<path d="M525.703,85.634h1.881v14.107h7.255v1.747h-9.136V85.634z"/>
	<path d="M544.266,101.891c-1.209,0-2.317-0.21-3.324-0.627c-1.008-0.418-1.882-0.997-2.619-1.736
		c-0.74-0.739-1.315-1.62-1.725-2.642c-0.412-1.022-0.617-2.131-0.617-3.325c0-1.194,0.205-2.302,0.617-3.325
		c0.409-1.022,0.984-1.903,1.725-2.642c0.737-0.739,1.611-1.317,2.619-1.735c1.007-0.417,2.115-0.627,3.324-0.627
		c1.211,0,2.317,0.209,3.325,0.627c1.008,0.418,1.881,0.996,2.619,1.735c0.739,0.739,1.314,1.62,1.726,2.642
		c0.409,1.023,0.615,2.131,0.615,3.325c0,1.194-0.206,2.303-0.615,3.325c-0.411,1.022-0.986,1.903-1.726,2.642
		c-0.738,0.739-1.611,1.318-2.619,1.736C546.583,101.681,545.477,101.891,544.266,101.891z M544.266,100.144
		c0.925,0,1.773-0.172,2.543-0.515c0.767-0.344,1.428-0.814,1.98-1.411c0.552-0.597,0.981-1.295,1.287-2.094
		c0.307-0.798,0.459-1.653,0.459-2.564c0-0.91-0.152-1.765-0.459-2.563c-0.306-0.799-0.735-1.497-1.287-2.094
		c-0.553-0.596-1.214-1.067-1.98-1.41c-0.77-0.343-1.618-0.515-2.543-0.515c-0.926,0-1.771,0.172-2.541,0.515
		s-1.43,0.814-1.982,1.41c-0.553,0.597-0.98,1.295-1.287,2.094c-0.307,0.798-0.459,1.653-0.459,2.563
		c0,0.911,0.152,1.766,0.459,2.564c0.307,0.799,0.734,1.497,1.287,2.094s1.213,1.067,1.982,1.411
		C542.494,99.972,543.34,100.144,544.266,100.144z"/>
	<path d="M555.574,85.634h4.701c0.732,0,1.43,0.072,2.093,0.213c0.665,0.143,1.255,0.381,1.771,0.717
		c0.515,0.335,0.925,0.784,1.23,1.344c0.307,0.56,0.46,1.25,0.46,2.071c0,0.866-0.165,1.583-0.492,2.149
		c-0.329,0.567-0.751,1.016-1.267,1.343c-0.515,0.329-1.078,0.56-1.688,0.695c-0.613,0.134-1.195,0.201-1.747,0.201h-3.181v7.121
		h-1.88V85.634z M557.454,92.621h3.181c0.939,0,1.704-0.214,2.294-0.639c0.591-0.425,0.885-1.086,0.885-1.982
		c0-0.895-0.294-1.556-0.885-1.981c-0.59-0.425-1.354-0.638-2.294-0.638h-3.181V92.621z"/>
	<path d="M568.852,85.634h2.799l5.374,12.427h0.045l5.419-12.427h2.732v15.854h-1.882V88.186h-0.045l-5.687,13.301h-1.142
		l-5.689-13.301h-0.044v13.301h-1.881V85.634z"/>
	<path d="M589.16,85.634h9.965v1.747h-8.083v4.971h7.545v1.747h-7.545v5.642h8.485v1.747H589.16V85.634z"/>
	<path d="M602.439,85.634h2.373l9.18,13.167h0.045V85.634h1.882v15.854h-2.373l-9.183-13.166h-0.044v13.166h-1.88V85.634z"/>
	<path d="M630.495,87.38h-5.239v14.107h-1.882V87.38h-5.238v-1.747h12.359V87.38z"/>
	<path d="M644.087,85.634h1.768l6.742,15.854H650.4l-1.611-3.896h-7.927l-1.635,3.896h-2.127L644.087,85.634z M644.938,88.052
		h-0.045l-3.292,7.792h6.472L644.938,88.052z"/>
	<path d="M654.7,85.634h2.374l9.18,13.167h0.044V85.634h1.883v15.854h-2.373l-9.183-13.166h-0.044v13.166H654.7V85.634z"/>
	<path d="M671.829,85.634h6.091c0.522,0,1.075,0.06,1.657,0.18c0.582,0.12,1.159,0.31,1.734,0.571
		c0.574,0.261,1.128,0.601,1.658,1.019c0.529,0.418,0.997,0.922,1.398,1.511c0.403,0.59,0.726,1.269,0.964,2.038
		c0.238,0.769,0.358,1.639,0.358,2.608c0,0.97-0.12,1.84-0.358,2.609s-0.561,1.448-0.964,2.037c-0.401,0.59-0.869,1.094-1.398,1.512
		c-0.53,0.418-1.084,0.758-1.658,1.019c-0.575,0.262-1.152,0.452-1.734,0.571s-1.135,0.179-1.657,0.179h-6.091V85.634z
		 M673.71,99.741h3.583c0.91,0,1.754-0.119,2.53-0.358c0.775-0.239,1.447-0.608,2.015-1.109c0.567-0.5,1.016-1.138,1.344-1.915
		c0.329-0.776,0.493-1.709,0.493-2.799c0-1.089-0.164-2.022-0.493-2.798c-0.328-0.776-0.776-1.415-1.344-1.915
		c-0.567-0.5-1.239-0.87-2.015-1.109c-0.776-0.238-1.62-0.358-2.53-0.358h-3.583V99.741z"/>
	<path d="M706.044,88.903c-0.478-0.642-1.067-1.123-1.77-1.443c-0.702-0.321-1.433-0.482-2.193-0.482
		c-0.882,0-1.691,0.179-2.43,0.538c-0.74,0.358-1.377,0.839-1.915,1.444c-0.538,0.605-0.956,1.307-1.254,2.105
		c-0.299,0.799-0.447,1.631-0.447,2.497c0,0.926,0.148,1.788,0.447,2.587c0.298,0.798,0.713,1.493,1.243,2.082
		c0.529,0.589,1.165,1.057,1.903,1.4c0.739,0.343,1.557,0.515,2.452,0.515c0.97,0,1.835-0.191,2.596-0.571
		c0.763-0.381,1.427-0.929,1.993-1.646l1.411,1.187c-0.716,0.956-1.579,1.657-2.586,2.105c-1.008,0.448-2.146,0.672-3.414,0.672
		c-1.136,0-2.195-0.21-3.181-0.627c-0.985-0.418-1.84-0.997-2.563-1.736c-0.725-0.739-1.291-1.615-1.701-2.631
		c-0.411-1.015-0.616-2.127-0.616-3.336c0-1.164,0.197-2.254,0.593-3.27c0.396-1.014,0.952-1.895,1.668-2.642
		c0.717-0.747,1.568-1.336,2.554-1.769c0.984-0.433,2.066-0.649,3.247-0.649c1.074,0,2.108,0.194,3.1,0.583
		c0.993,0.389,1.824,1.022,2.497,1.903L706.044,88.903z"/>
	<path d="M718.067,101.891c-1.209,0-2.317-0.21-3.325-0.627c-1.008-0.418-1.88-0.997-2.62-1.736
		c-0.737-0.739-1.312-1.62-1.724-2.642c-0.41-1.022-0.615-2.131-0.615-3.325c0-1.194,0.205-2.302,0.615-3.325
		c0.411-1.022,0.986-1.903,1.724-2.642c0.74-0.739,1.612-1.317,2.62-1.735c1.008-0.417,2.116-0.627,3.325-0.627
		s2.318,0.209,3.325,0.627c1.008,0.418,1.882,0.996,2.62,1.735c0.739,0.739,1.313,1.62,1.725,2.642
		c0.41,1.023,0.616,2.131,0.616,3.325c0,1.194-0.206,2.303-0.616,3.325c-0.411,1.022-0.985,1.903-1.725,2.642
		c-0.738,0.739-1.612,1.318-2.62,1.736C720.386,101.681,719.276,101.891,718.067,101.891z M718.067,100.144
		c0.926,0,1.772-0.172,2.541-0.515c0.77-0.344,1.431-0.814,1.983-1.411c0.551-0.597,0.979-1.295,1.287-2.094
		c0.306-0.798,0.458-1.653,0.458-2.564c0-0.91-0.152-1.765-0.458-2.563c-0.308-0.799-0.736-1.497-1.287-2.094
		c-0.553-0.596-1.214-1.067-1.983-1.41c-0.769-0.343-1.615-0.515-2.541-0.515c-0.925,0-1.772,0.172-2.541,0.515
		s-1.429,0.814-1.981,1.41c-0.553,0.597-0.982,1.295-1.288,2.094c-0.306,0.798-0.458,1.653-0.458,2.563
		c0,0.911,0.152,1.766,0.458,2.564c0.306,0.799,0.735,1.497,1.288,2.094s1.213,1.067,1.981,1.411
		C716.295,99.972,717.143,100.144,718.067,100.144z"/>
	<path d="M729.084,85.634h6.091c0.522,0,1.075,0.06,1.657,0.18c0.583,0.12,1.16,0.31,1.734,0.571
		c0.575,0.261,1.128,0.601,1.658,1.019c0.529,0.418,0.997,0.922,1.398,1.511c0.403,0.59,0.725,1.269,0.964,2.038
		c0.238,0.769,0.358,1.639,0.358,2.608c0,0.97-0.12,1.84-0.358,2.609c-0.239,0.769-0.561,1.448-0.964,2.037
		c-0.401,0.59-0.869,1.094-1.398,1.512c-0.53,0.418-1.083,0.758-1.658,1.019c-0.574,0.262-1.151,0.452-1.734,0.571
		c-0.582,0.12-1.135,0.179-1.657,0.179h-6.091V85.634z M730.966,99.741h3.583c0.91,0,1.753-0.119,2.529-0.358
		c0.776-0.239,1.447-0.608,2.016-1.109c0.567-0.5,1.015-1.138,1.343-1.915c0.329-0.776,0.493-1.709,0.493-2.799
		c0-1.089-0.164-2.022-0.493-2.798c-0.328-0.776-0.775-1.415-1.343-1.915c-0.568-0.5-1.239-0.87-2.016-1.109
		c-0.776-0.238-1.619-0.358-2.529-0.358h-3.583V99.741z"/>
	<path d="M745.967,85.634h1.882v15.854h-1.882V85.634z"/>
	<path d="M751.789,85.634h2.373l9.182,13.167h0.045V85.634h1.88v15.854h-2.374l-9.18-13.166h-0.044v13.166h-1.882V85.634z"/>
	<path d="M782.689,100.413c-0.91,0.507-1.87,0.881-2.878,1.12c-1.008,0.238-2.026,0.358-3.057,0.358
		c-1.239,0-2.374-0.202-3.403-0.605s-1.923-0.97-2.675-1.702c-0.754-0.731-1.341-1.607-1.758-2.63
		c-0.418-1.022-0.627-2.153-0.627-3.393c0-1.253,0.22-2.392,0.661-3.415c0.439-1.022,1.048-1.895,1.825-2.62
		c0.774-0.724,1.678-1.288,2.708-1.69c1.03-0.403,2.142-0.605,3.336-0.605c1.045,0,2.05,0.157,3.012,0.471
		c0.964,0.313,1.825,0.851,2.587,1.612l-1.411,1.478c-0.537-0.582-1.191-1.03-1.959-1.344c-0.769-0.313-1.556-0.47-2.361-0.47
		c-0.911,0-1.756,0.164-2.531,0.493s-1.452,0.784-2.026,1.366c-0.573,0.583-1.022,1.276-1.343,2.083
		c-0.322,0.806-0.481,1.687-0.481,2.642c0,0.94,0.159,1.814,0.481,2.62c0.32,0.806,0.77,1.504,1.343,2.094
		c0.574,0.59,1.266,1.049,2.071,1.377c0.807,0.329,1.693,0.493,2.664,0.493c0.643,0,1.314-0.079,2.016-0.235
		c0.701-0.158,1.344-0.385,1.926-0.684v-4.859h-3.649v-1.745h5.53V100.413z"/>
</g>
<line fill="none" stroke="#FFFFFF" stroke-width="1.5" stroke-miterlimit="10" x1="145.167" y1="74.25" x2="790.835" y2="74.25"/>
<circle fill="none" stroke="#FFFFFF" stroke-width="1.5" stroke-miterlimit="10" cx="74.833" cy="74.25" r="70.333"/>
<g>
	<path d="M58.179,65.995l-18.623,8.674v0.14l18.623,8.675v9.514L28.454,79.146v-8.814l29.726-13.851V65.995z"/>
	<path d="M80.267,42.7l6.697,2.448L69.34,99.644l-6.638-2.449L80.267,42.7z"/>
	<path d="M91.487,83.484l18.623-8.675v-0.14l-18.623-8.674v-9.514l29.726,13.851v8.814L91.487,92.998V83.484z"/>
</g>
</svg>
