<?xml version="1.0" encoding="utf-8"?>
<!-- Generator: Adobe Illustrator 15.0.0, SVG Export Plug-In . SVG Version: 6.00 Build 0)  -->
<!DOCTYPE svg PUBLIC "-//W3C//DTD SVG 1.1//EN" "http://www.w3.org/Graphics/SVG/1.1/DTD/svg11.dtd">
<svg version="1.1" id="Layer_1" xmlns="http://www.w3.org/2000/svg" xmlns:xlink="http://www.w3.org/1999/xlink" x="0px" y="0px"
	 width="576px" height="34.058px" viewBox="0 0 576 34.058" enable-background="new 0 0 576 34.058" xml:space="preserve">
<path fill="#FFFFFF" d="M4.814,26.052V10.29c0-1.626-0.253-4.304,1.591-4.99V5.19H-0.5V5.3c1.844,0.683,1.625,3.327,1.625,4.99
	v13.631c0,1.625,0.215,4.303-1.625,4.951v0.096h14.86l1.878-4.781h-0.109c-1.758,1.553-4.059,2.346-6.4,2.207l-4.918-0.342H4.814z"
	/>
<path fill="#FFFFFF" d="M30.03,4.579c-7.592-0.181-13.559,5.567-13.559,12.436c0,7.411,6.039,12.545,13.197,12.545
	s13.32-5.352,13.32-12.726c0-6.506-5.352-12.295-12.944-12.254H30.03z M29.777,7.182c5.71,0,9.074,5.096,9.074,10.376
	c0,5.387-3.507,9.398-9.003,9.398c-5.673,0-9.252-5.204-9.252-10.283c0-5.464,3.579-9.508,9.184-9.508L29.777,7.182z"/>
<path fill="#FFFFFF" d="M53.985,18.569l8.88-13.379H56.55V5.3c2.025,0.977,1.192,2.712,0.577,3.617l-4.481,6.731l-5.782-9.443
	c-0.471-0.758-1.554-1.024-2.712-1.024h-3.289c1.735,0.939,2.459,2.134,3.436,3.723l6,9.652v5.365c0,1.707,0.253,4.047-1.52,4.951
	v0.096h7.049v-0.109c-1.844-1.335-1.844-2.421-1.844-4.59V18.569z"/>
<path fill="#FFFFFF" d="M74.112,4.579c-7.592-0.181-13.559,5.567-13.559,12.436c0,7.411,6.039,12.545,13.197,12.545
	s13.32-5.352,13.32-12.726c0-6.506-5.352-12.295-12.944-12.254H74.112z M73.859,7.182c5.71,0,9.074,5.096,9.074,10.376
	c0,5.387-3.507,9.398-9.003,9.398c-5.676,0-9.255-5.204-9.255-10.266C64.675,11.226,68.254,7.182,73.859,7.182z"/>
<path fill="#FFFFFF" d="M92.968,26.052V10.29c0-1.626-0.253-4.304,1.591-4.99V5.19h-6.906V5.3c1.844,0.683,1.625,3.327,1.625,4.99
	v13.631c0,1.625,0.215,4.303-1.625,4.951v0.096h14.86l1.878-4.781h-0.109c-1.758,1.553-4.06,2.346-6.4,2.207l-4.918-0.342H92.968z"
	/>
<path fill="#FFFFFF" d="M121.257,20.051l1.964,5.099c0.977,2.531,1.264,2.932-0.505,3.723v0.096h7.411v-0.109
	c-2.049-1.048-2.711-3.073-3.542-5.123L119.072,5.19h-5.734V5.3c1.735,0.543,1.048,2.049,0.543,3.361l-6.028,15.079
	c-0.795,2.049-1.41,4.099-3.507,5.123v0.105h6.653v-0.109c-1.735-0.648-1.482-1.707-0.724-3.723l1.878-5.096L121.257,20.051z
	 M120.209,17.376h-7.125l3.58-9.112l3.545,9.108V17.376z"/>
<path fill="#FFFFFF" d="M157.491,28.968h5.314v-0.109c-1.844-0.683-1.625-3.326-1.625-4.951V10.29c0-1.664-0.219-4.304,1.625-4.99
	l-0.038-0.109h-6.868V5.3c1.807,0.683,1.592,3.327,1.592,4.953v10.884c0,1.302,0.038,2.206-0.758,3.289
	c-1.192,1.708-3.255,2.53-5.28,2.53c-3.723,0-5.748-2.24-5.748-7.049v-9.651c0-1.626-0.219-4.266,1.592-4.953V5.194h-6.869v0.109
	c1.844,0.683,1.592,3.327,1.592,4.953v9.651c0,2.603-0.072,5.024,1.844,7.121c1.625,1.772,4.156,2.531,6.544,2.531
	c2.531,0,5.495-0.867,7.087-2.965v2.391L157.491,28.968z"/>
<path fill="#FFFFFF" d="M169.844,10.29l12.401,15.711c1.591,2.049,2.712,3.254,5.277,4.121V9.842c0-2.025,0-3.47,1.878-4.556V5.177
	h-6.363v0.109c1.916,1.086,1.878,2.531,1.878,4.556v13.716L171.685,6.854L171.18,6.13c-0.25-0.254-0.437-0.564-0.543-0.905V5.188
	h-5.277v0.109c1.878,1.086,1.878,2.531,1.878,4.556v14.43c0,2.025,0,3.471-1.916,4.59v0.096h6.397v-0.109
	c-1.916-1.119-1.878-2.564-1.878-4.59V10.266L169.844,10.29z"/>
<path fill="#FFFFFF" d="M193.076,23.921c0,1.625,0.219,4.303-1.592,4.951v0.096h6.875v-0.109c-1.807-0.683-1.592-3.326-1.592-4.951
	V10.29c0-1.626-0.219-4.304,1.592-4.99V5.19h-6.872V5.3c1.844,0.683,1.592,3.327,1.592,4.99v13.631H193.076z"/>
<path fill="#FFFFFF" d="M211.652,24.716l-5.748-15.71c-0.291-0.796-0.977-2.565-0.977-3.361l0.038-0.434h-5.28V5.32
	c1.591,1.229,2.134,3.327,2.821,5.171l5.465,14.785c1.048,2.855,1.878,3.146,4.409,4.809l9.546-24.891h-5.393v0.109
	c2.241,0.905,1.025,3.87,0.038,6.435L211.652,24.716z"/>
<path fill="#FFFFFF" d="M229.494,17.376h2.678c1.12,0,2.64-0.038,3.217,1.025h0.109v-3.846h-0.109
	c-0.508,0.188-1.052,0.263-1.592,0.219h-4.303V8.049c1.224-0.198,2.463-0.284,3.702-0.256c1.663,0,3.146,0.144,4.266,1.445h0.109
	V5.013h-0.109c-0.471,0.252-1.086,0.181-1.708,0.181h-11.575v0.109c1.844,0.683,1.626,3.327,1.626,4.99v13.628
	c0,1.625,0.215,4.303-1.626,4.951v0.096h15.076l1.625-4.736h-0.109c-1.849,1.585-4.262,2.354-6.687,2.131l-4.59-0.434V17.376z"/>
<path fill="#FFFFFF" d="M242.13,5.194v0.109c1.844,0.683,1.591,3.327,1.591,4.99v13.628c0,1.625,0.253,4.303-1.591,4.951v0.096
	h6.906v-0.109c-1.844-0.648-1.625-3.288-1.625-4.951V7.725c0.812-0.15,1.634-0.248,2.459-0.291c2.421-0.109,4.662,1.411,4.662,4.013
	c0,3.398-3.361,4.737-6.254,5.171l3.327,5.095l4.409,5.465c1.09,1.332,2.275,1.789,4.191,1.789h3.327
	c-2.2-1.377-4.176-3.084-5.857-5.061l-5.205-6.531c2.964-0.683,5.748-3.18,5.748-6.363c0-3.289-2.64-5.806-7.483-5.806L242.13,5.194
	z"/>
<path fill="#FFFFFF" d="M277.148,5.402c-1.745-0.535-3.561-0.803-5.386-0.796c-4.413,0-9.075,1.735-9.075,6.292
	c0,7.664,12.435,6.653,12.435,12.294c0,2.531-3.108,3.758-5.171,3.758c-2.907-0.051-5.707-1.112-7.917-3.002l1.048,4.518
	c2.077,0.741,4.268,1.109,6.472,1.086c5.639,0,9.689-3.616,9.689-7.482c0-6.687-12.436-6.616-12.436-11.568
	c0-2.493,2.603-3.289,4.662-3.289s4.266,0.83,5.676,2.278V5.402z"/>
<path fill="#FFFFFF" d="M282.661,23.921c0,1.625,0.218,4.303-1.592,4.951v0.096h6.868v-0.109c-1.807-0.683-1.591-3.326-1.591-4.951
	V10.29c0-1.626-0.219-4.304,1.591-4.99V5.19h-6.865V5.3c1.844,0.683,1.592,3.327,1.592,4.99v13.631H282.661z"/>
<path fill="#FFFFFF" d="M299.795,7.793h3.256c1.191,0,2.64,0.181,3.107,1.445h0.109l1.158-4.303h-0.117
	c-0.53,0.2-1.097,0.286-1.662,0.253h-14.39c-0.464-0.029-0.923-0.114-1.366-0.253h-0.109l-1.257,4.307h0.109
	c1.12-1.048,2.732-1.445,4.304-1.445h3.183v16.125c0,1.625,0.219,4.266-1.591,4.951v0.096h7.172v-0.109
	c-1.916-1.119-1.879-2.53-1.879-4.59V7.793H299.795z"/>
<path fill="#FFFFFF" d="M320.25,18.569l8.88-13.379h-6.315V5.3c2.025,0.977,1.192,2.712,0.578,3.617l-4.471,6.731l-5.807-9.443
	c-0.471-0.758-1.555-1.024-2.712-1.024h-3.289c1.735,0.939,2.459,2.134,3.437,3.723l6,9.652v5.365c0,1.707,0.253,4.047-1.52,4.951
	v0.096h7.049v-0.109c-1.844-1.335-1.844-2.421-1.844-4.59v-5.699H320.25z"/>
<path fill="#FFFFFF" d="M345.421,10.29l12.401,15.711c1.592,2.049,2.712,3.254,5.277,4.121V9.842c0-2.025,0-3.47,1.881-4.556V5.177
	h-6.362v0.109c1.916,1.086,1.882,2.531,1.882,4.556v13.716L347.269,6.854l-0.505-0.724c-0.251-0.254-0.438-0.564-0.543-0.905V5.188
	h-5.277v0.109c1.879,1.086,1.879,2.531,1.879,4.556v14.43c0,2.025,0,3.471-1.916,4.59v0.096h6.4v-0.109
	c-1.916-1.119-1.883-2.564-1.883-4.59V10.266L345.421,10.29z"/>
<path fill="#FFFFFF" d="M372.56,17.376h2.675c1.119,0,2.639-0.038,3.217,1.025h0.109v-3.846h-0.109
	c-0.508,0.188-1.052,0.263-1.592,0.219h-4.303V8.049c1.219-0.196,2.453-0.281,3.688-0.253c1.664,0,3.146,0.144,4.266,1.445h0.109
	V5.013h-0.109c-0.471,0.252-1.086,0.181-1.707,0.181h-11.568v0.109c1.845,0.683,1.627,3.327,1.627,4.99v13.628
	c0,1.625,0.218,4.303-1.627,4.951v0.096h15.076l1.625-4.736h-0.109c-1.849,1.585-4.262,2.354-6.687,2.131l-4.591-0.434v-8.552
	H372.56z"/>
<path fill="#FFFFFF" d="M399.694,11.81l3.976,12.436c1.192,3.723,1.444,3.541,4.781,5.807l7.627-24.875h-5.567v0.109
	c2.821,0.977,1.626,3.904,0.977,5.967l-4.098,13.23l-5.024-15.655c-0.506-1.592-0.758-2.732-0.543-3.651h-5.096v0.109
	c1.987,1.025,1.264,3.361,0.577,5.567l-4.228,13.736l-5.387-16.797c-0.219-0.683-0.577-1.807-0.434-2.603h-5.277V5.3
	c1.807,1.229,2.35,3.58,2.999,5.567l4.267,13.341c1.191,3.723,1.516,3.469,4.809,5.857l5.639-18.259L399.694,11.81z"/>
<path fill="#FFFFFF" d="M437.919,4.579c-7.592-0.181-13.559,5.567-13.559,12.436c0,7.411,6.038,12.545,13.197,12.545
	c7.158,0,13.319-5.352,13.319-12.726c0-6.506-5.352-12.295-12.944-12.254H437.919z M437.666,7.182c5.711,0,9.075,5.096,9.075,10.376
	c0,5.387-3.508,9.398-9.003,9.398c-5.677,0-9.256-5.204-9.256-10.266C428.482,11.226,432.062,7.182,437.666,7.182z"/>
<path fill="#FFFFFF" d="M451.676,5.194v0.109c1.845,0.683,1.592,3.327,1.592,4.99v13.628c0,1.625,0.253,4.303-1.592,4.951v0.096
	h6.906v-0.109c-1.845-0.648-1.626-3.288-1.626-4.951V7.725c0.812-0.15,1.634-0.248,2.459-0.291c2.422-0.109,4.666,1.411,4.666,4.013
	c0,3.398-3.361,4.737-6.254,5.171l3.326,5.095l4.41,5.465c1.082,1.339,2.277,1.807,4.193,1.807h3.327
	c-2.2-1.377-4.176-3.084-5.857-5.062l-5.202-6.547c2.965-0.683,5.748-3.18,5.748-6.363c0-3.289-2.64-5.806-7.482-5.806
	L451.676,5.194z"/>
<path fill="#FFFFFF" d="M478.077,26.052V10.29c0-1.626-0.253-4.304,1.592-4.99V5.19h-6.906V5.3c1.845,0.683,1.626,3.327,1.626,4.99
	v13.631c0,1.625,0.219,4.303-1.626,4.951v0.096h14.877l1.879-4.809h-0.109c-1.759,1.553-4.06,2.346-6.4,2.207l-4.918-0.342
	L478.077,26.052z"/>
<path fill="#FFFFFF" d="M496.113,17.376h2.675c1.12,0,2.64-0.038,3.217,1.025h0.109v-3.846h-0.109
	c-0.508,0.188-1.052,0.263-1.592,0.219h-4.303V8.049c1.219-0.196,2.454-0.281,3.688-0.253c1.663,0,3.146,0.144,4.266,1.445h0.109
	V5.013h-0.109c-0.472,0.252-1.086,0.181-1.708,0.181h-11.567v0.109c1.844,0.683,1.626,3.327,1.626,4.99v13.628
	c0,1.625,0.215,4.303-1.626,4.951v0.096h15.075l1.626-4.736h-0.109c-1.85,1.585-4.262,2.354-6.688,2.131l-4.59-0.434v-8.552H496.113
	z"/>
<path fill="#FFFFFF" d="M524.44,20.051l1.95,5.096c0.977,2.53,1.267,2.931-0.506,3.723v0.099h7.412v-0.109
	c-2.05-1.048-2.712-3.073-3.542-5.123L522.241,5.19h-5.711V5.3c1.735,0.543,1.049,2.049,0.543,3.361l-6.038,15.075
	c-0.796,2.05-1.41,4.1-3.508,5.123v0.109h6.653v-0.109c-1.735-0.648-1.482-1.707-0.724-3.723l1.878-5.096L524.44,20.051z
	 M523.392,17.376h-7.121l3.58-9.108L523.392,17.376z"/>
<path fill="#FFFFFF" d="M538.348,10.29l12.401,15.711c1.592,2.049,2.712,3.254,5.276,4.121V9.842c0-2.025,0-3.47,1.882-4.556V5.177
	h-6.366v0.109c1.916,1.086,1.882,2.531,1.882,4.556v13.716l-13.23-16.705l-0.506-0.724c-0.25-0.254-0.437-0.564-0.543-0.905V5.188
	h-5.276v0.109c1.878,1.086,1.878,2.531,1.878,4.556v14.43c0,2.025,0,3.471-1.916,4.59v0.096h6.407v-0.109
	c-1.916-1.119-1.878-2.564-1.878-4.59V10.266L538.348,10.29z"/>
<path fill="#FFFFFF" d="M573.403,5.402c-1.745-0.535-3.562-0.803-5.387-0.796c-4.409,0-9.074,1.735-9.074,6.292
	c0,7.664,12.436,6.653,12.436,12.294c0,2.531-3.108,3.758-5.171,3.758c-2.908-0.051-5.707-1.112-7.917-3.002l1.049,4.518
	c2.076,0.741,4.268,1.109,6.472,1.086c5.639,0,9.689-3.616,9.689-7.482c0-6.687-12.436-6.616-12.436-11.568
	c0-2.493,2.603-3.289,4.666-3.289c2.062,0,4.269,0.837,5.673,2.289V5.402z"/>
</svg>
