<svg id="Layer_2" data-name="Layer 2" xmlns="http://www.w3.org/2000/svg" viewBox="0 0 313.33 148.88"><defs><style>.cls-1,.cls-2{fill:none;stroke-miterlimit:10;}.cls-1,.cls-2,.cls-5{stroke:#fff;}.cls-1{stroke-width:0.85px;}.cls-2{stroke-width:3.39px;}.cls-3{fill:#c7c6bc;}.cls-4{fill:#fff;}.cls-5{fill:#231f20;stroke-width:0.58px;}.cls-6{fill:#6c6b60;}</style></defs><title>logo-ajcu</title><line class="cls-1" x1="45.96" y1="127.42" x2="119.62" y2="127.42"/><line class="cls-2" x1="45.96" y1="123.47" x2="121.02" y2="123.47"/><line class="cls-2" x1="268.47" y1="123.47" x2="193.41" y2="123.47"/><line class="cls-1" x1="268.52" y1="127.42" x2="194.86" y2="127.42"/><path class="cls-3" d="M49.2,33.44c-.12,0-.2-.08-.12-.29l3.58-11q.31-.92.61,0l3.87,11c0,.16,0,.29-.16.29Zm-5.7,9c-.73,2-1.55,3.58-3.42,3.83-.33,0-.9.08-1.18.08s-.37.08-.37.24.24.33.77.33c1.91,0,4.15-.12,4.6-.12s2.2.12,3.18.12c.37,0,.61-.08.61-.33s-.12-.24-.41-.24h-.41c-.69,0-1.55-.37-1.55-1.18a8.6,8.6,0,0,1,.57-2.73l2.44-7.21a.43.43,0,0,1,.41-.33h8.76a.36.36,0,0,1,.37.24l3.79,10c.24.65,0,1-.24,1.1s-.29.12-.29.28.45.24,1.22.29c2.81.08,5.78.08,6.39.08.45,0,.81-.08.81-.33s-.16-.24-.41-.24a5.27,5.27,0,0,1-1.63-.24c-.86-.24-2-.9-3.5-4.52-2.48-6.19-8.88-23-9.49-24.56-.49-1.26-.65-1.47-.9-1.47s-.41.24-.9,1.59Z" transform="translate(-21.33 -15.56)"/><path class="cls-3" d="M71.62,46.49c-.43-.21-.46-.34-.46-1.16,0-1.53.12-2.75.15-3.24,0-.34.09-.49.24-.49s.21.09.21.34a5.4,5.4,0,0,0,.09,1.13c.46,2.26,2.47,3.12,4.52,3.12a4.08,4.08,0,0,0,4.37-4.06c0-2.11-.89-3.33-3.51-5.5L75.87,35.5c-3.24-2.66-4-4.55-4-6.63,0-3.27,2.44-5.5,6.32-5.5a11.85,11.85,0,0,1,2.84.31,5,5,0,0,0,1.07.15c.24,0,.31.06.31.21s-.12,1.16-.12,3.24c0,.49-.06.7-.21.7s-.21-.15-.24-.4a5.36,5.36,0,0,0-.4-1.53c-.18-.34-1-1.62-3.82-1.62A3.47,3.47,0,0,0,73.88,28c0,1.74.85,2.78,3.73,5.13l.86.67c3.6,2.84,4.46,4.73,4.46,7.18A6.33,6.33,0,0,1,80.33,46a8,8,0,0,1-4.61,1.28A9.27,9.27,0,0,1,71.62,46.49Z" transform="translate(-21.33 -15.56)"/><path class="cls-3" d="M89.43,46.49c-.43-.21-.46-.34-.46-1.16,0-1.53.12-2.75.15-3.24,0-.34.09-.49.24-.49s.21.09.21.34a5.4,5.4,0,0,0,.09,1.13c.46,2.26,2.47,3.12,4.52,3.12a4.08,4.08,0,0,0,4.37-4.06c0-2.11-.89-3.33-3.51-5.5L93.67,35.5c-3.24-2.66-4-4.55-4-6.63,0-3.27,2.44-5.5,6.32-5.5a11.85,11.85,0,0,1,2.84.31,5,5,0,0,0,1.07.15c.24,0,.31.06.31.21s-.12,1.16-.12,3.24c0,.49-.06.7-.21.7s-.21-.15-.24-.4a5.36,5.36,0,0,0-.4-1.53c-.18-.34-1-1.62-3.82-1.62A3.47,3.47,0,0,0,91.69,28c0,1.74.85,2.78,3.73,5.13l.85.67c3.6,2.84,4.46,4.73,4.46,7.18A6.33,6.33,0,0,1,98.13,46a8,8,0,0,1-4.61,1.28A9.27,9.27,0,0,1,89.43,46.49Z" transform="translate(-21.33 -15.56)"/><path class="cls-3" d="M108.61,34.46c0-6.69,3.82-10,8.92-10,4.83,0,9.28,3.94,9.28,11.27,0,8.89-5.68,10.48-8.43,10.48C112.88,46.15,108.61,41.57,108.61,34.46Zm-2.9.86c0,5.5,3.48,12,11.85,12,7.36,0,12.19-5.65,12.19-12.49,0-7.12-5.13-11.45-12-11.45C109.31,23.37,105.71,30.36,105.71,35.31Z" transform="translate(-21.33 -15.56)"/><path class="cls-3" d="M137.74,44a11.7,11.7,0,0,1-3.7-9,12.19,12.19,0,0,1,3.42-8.34c1.83-1.83,4.61-3.27,9.32-3.27a26.13,26.13,0,0,1,4.43.37,26.55,26.55,0,0,0,3.12.46c.34,0,.4.15.4.34s-.09.61-.15,1.71-.06,2.69-.09,3.15-.09.64-.27.64-.24-.21-.24-.64a4.23,4.23,0,0,0-1.28-3.11,10.17,10.17,0,0,0-6.11-1.74c-4.06,0-6,1.19-7,2.23-2.23,2.14-2.75,4.86-2.75,8a11,11,0,0,0,11,11.18c2.29,0,4.09-.27,5.31-1.53a5.81,5.81,0,0,0,1.13-2.57c.06-.34.12-.46.31-.46s.21.21.21.46a31.69,31.69,0,0,1-.67,3.91c-.18.58-.24.64-.79.89a17.7,17.7,0,0,1-5.5.7C143.24,47.32,140.16,46.18,137.74,44Z" transform="translate(-21.33 -15.56)"/><path class="cls-3" d="M165.08,38c0,2.93,0,5.35.15,6.63.09.89.27,1.56,1.19,1.68a13.38,13.38,0,0,0,1.37.12c.18,0,.24.09.24.18s-.15.24-.49.24c-1.68,0-3.6-.09-3.76-.09s-2.08.09-3,.09c-.34,0-.49-.06-.49-.24s.06-.18.24-.18a4.73,4.73,0,0,0,.92-.12c.61-.12.76-.79.89-1.68.15-1.28.15-3.7.15-6.63V32.65c0-4.76,0-5.62-.06-6.6s-.37-1.56-1-1.71a4,4,0,0,0-.95-.12c-.12,0-.24-.06-.24-.18s.15-.24.49-.24c1,0,2.93.09,3.09.09s2.08-.09,3-.09c.34,0,.49.06.49.24s-.12.18-.24.18a4.52,4.52,0,0,0-.76.09c-.82.15-1.07.67-1.13,1.74s-.06,1.83-.06,6.6Z" transform="translate(-21.33 -15.56)"/><path class="cls-3" d="M178.09,36.78c-.09,0-.15-.06-.09-.21l2.69-8.25q.23-.69.46,0l2.9,8.25c0,.12,0,.21-.12.21Zm-4.28,6.75c-.55,1.53-1.16,2.69-2.57,2.87-.24,0-.67.06-.89.06s-.27.06-.27.18.18.24.58.24c1.44,0,3.12-.09,3.45-.09s1.65.09,2.38.09c.28,0,.46-.06.46-.24s-.09-.18-.31-.18h-.31c-.52,0-1.16-.27-1.16-.89a6.45,6.45,0,0,1,.43-2l1.83-5.41a.32.32,0,0,1,.31-.24h6.57a.27.27,0,0,1,.27.18l2.84,7.51c.18.49,0,.76-.18.82s-.21.09-.21.21.34.18.92.21c2.11.06,4.34.06,4.8.06s.61-.06.61-.24-.12-.18-.31-.18a4,4,0,0,1-1.22-.18c-.64-.18-1.53-.67-2.63-3.39-1.86-4.64-6.66-17.26-7.12-18.42-.37-.95-.49-1.1-.67-1.1s-.31.18-.67,1.19Z" transform="translate(-21.33 -15.56)"/><path class="cls-3" d="M202.49,38c0,2.93,0,5.35.15,6.63.09.89.27,1.56,1.19,1.68a13.37,13.37,0,0,0,1.37.12c.18,0,.24.09.24.18s-.15.24-.49.24c-1.68,0-3.6-.09-3.76-.09s-2.08.09-3,.09c-.34,0-.49-.06-.49-.24s.06-.18.24-.18a4.74,4.74,0,0,0,.92-.12c.61-.12.76-.79.89-1.68.15-1.28.15-3.7.15-6.63V25.11l-4.52.06c-1.89,0-2.63.24-3.11,1a5.3,5.3,0,0,0-.52.95c-.09.24-.18.31-.31.31s-.15-.09-.15-.27.61-2.93.67-3.18.18-.58.31-.58a5.7,5.7,0,0,0,1.34.37c.89.09,2,.15,2.41.15H207.5a16.14,16.14,0,0,0,2.17-.15,7.37,7.37,0,0,1,.85-.15c.15,0,.15.18.15.37,0,.92-.09,3-.09,3.36s-.09.4-.21.4-.21-.09-.24-.52l0-.34c-.12-.92-.82-1.62-3.76-1.68l-3.85-.06Z" transform="translate(-21.33 -15.56)"/><path class="cls-3" d="M220.05,38c0,2.93,0,5.35.15,6.63.09.89.27,1.56,1.19,1.68a13.39,13.39,0,0,0,1.37.12c.18,0,.24.09.24.18s-.15.24-.49.24c-1.68,0-3.6-.09-3.76-.09s-2.08.09-3,.09c-.34,0-.49-.06-.49-.24s.06-.18.24-.18a4.73,4.73,0,0,0,.92-.12c.61-.12.76-.79.89-1.68.15-1.28.15-3.7.15-6.63V32.65c0-4.76,0-5.62-.06-6.6s-.37-1.56-1-1.71a4,4,0,0,0-.95-.12c-.12,0-.24-.06-.24-.18s.15-.24.49-.24c1,0,2.93.09,3.09.09s2.08-.09,3-.09c.34,0,.49.06.49.24s-.12.18-.24.18a4.51,4.51,0,0,0-.76.09c-.83.15-1.07.67-1.13,1.74s-.06,1.83-.06,6.6Z" transform="translate(-21.33 -15.56)"/><path class="cls-3" d="M230,34.46c0-6.69,3.82-10,8.92-10,4.83,0,9.29,3.94,9.29,11.27,0,8.89-5.68,10.48-8.43,10.48C234.26,46.15,230,41.57,230,34.46Zm-2.9.86c0,5.5,3.48,12,11.85,12,7.36,0,12.19-5.65,12.19-12.49,0-7.12-5.13-11.45-12-11.45C230.69,23.37,227.08,30.36,227.08,35.31Z" transform="translate(-21.33 -15.56)"/><path class="cls-3" d="M259.58,42.73c.06,2.5.37,3.3,1.19,3.54a6.71,6.71,0,0,0,1.53.18c.15,0,.24.06.24.18s-.18.24-.55.24c-1.74,0-3-.09-3.24-.09s-1.56.09-2.93.09c-.31,0-.49,0-.49-.24s.09-.18.24-.18a4.38,4.38,0,0,0,1.25-.18c.76-.21.92-1.1.92-3.88l0-17.5c0-1.19.09-1.53.34-1.53s.76.67,1.07,1c.46.52,5,5.44,9.71,10.48,3,3.24,6.35,7,7.33,8l-.34-15.52c0-2-.24-2.66-1.19-2.9a8.13,8.13,0,0,0-1.5-.15c-.21,0-.24-.09-.24-.21s.24-.21.61-.21c1.37,0,2.84.09,3.18.09s1.34-.09,2.6-.09c.34,0,.55,0,.55.21s-.12.21-.34.21a2.69,2.69,0,0,0-.73.09c-1,.21-1.13.89-1.13,2.72l-.06,17.9c0,2-.06,2.17-.28,2.17s-.61-.34-2.23-2c-.34-.31-4.73-4.79-8-8.28-3.54-3.82-7-7.67-8-8.77Z" transform="translate(-21.33 -15.56)"/><path class="cls-3" d="M302.32,35.25c1.07,0,1.25,1.07,1.22,2a18.85,18.85,0,0,1-2.84,7.45c-1,1.31-1.74,1.59-2.41,1.59-.89,0-1.31-.89-1.25-2a17.66,17.66,0,0,1,3.05-7.64C301,35.53,301.71,35.25,302.32,35.25Zm.21-.92a6,6,0,0,0-4.21,2A11.47,11.47,0,0,0,295,43.16c-.18,2.63,1.1,4.06,3.05,4.06a5.86,5.86,0,0,0,4.37-2.11,11.61,11.61,0,0,0,3.24-6.93C305.77,36,304.7,34.33,302.54,34.33Z" transform="translate(-21.33 -15.56)"/><path class="cls-3" d="M313,35.89c-.18.52-.43,1.5-.7,2.41-1,3.39-1.86,6.78-2.87,10.14-.85,2.75-1.77,4.43-2.41,5A5.19,5.19,0,0,1,303.51,55a1.84,1.84,0,0,1-2-1.56,1.23,1.23,0,0,1,.58-1.1c.43-.37.64-.12.89.27a2.34,2.34,0,0,0,1.83,1.13c.55,0,1.28-.46,1.92-2.53,1.56-5.1,2.57-10.35,4-15.33h-2.53a.77.77,0,0,1,.21-1.13h2.63a18.52,18.52,0,0,1,3.39-7.27A6.58,6.58,0,0,1,319.61,25a2.29,2.29,0,0,1,2.5,2c0,.95-.82,1.89-1.31,1.89-.27,0-.4-.28-.43-.49-.09-1.83-1.07-2.38-1.86-2.38a3.11,3.11,0,0,0-2.38,1.65c-1.44,2-2,4.52-2.87,7.12h3.82a.82.82,0,0,1-.31,1.13Z" transform="translate(-21.33 -15.56)"/><path class="cls-4" d="M27.73,66.25c0-6.71,0-7.94-.09-9.35s-.44-2.21-1.9-2.51A9.08,9.08,0,0,0,24,54.24c-.49,0-.75-.09-.75-.4s.31-.4,1-.4c2.34,0,5.12.13,6.27.13s3.84-.13,5.56-.13c.62,0,.93.09.93.4s-.26.4-.79.4a6.65,6.65,0,0,0-1.28.13c-1.19.22-1.54,1-1.63,2.51s-.09,2.65-.09,9.35v8.16c0,1.9.13,4,.13,6.22a23.67,23.67,0,0,1-1.06,7.81c-.93,2.69-3.26,5.74-7.5,8.34a24.1,24.1,0,0,1-2.21,1.15,2,2,0,0,1-.88.26.35.35,0,0,1-.35-.35c0-.22.22-.4,1-.79a9.22,9.22,0,0,0,2.12-1.68c3.35-3.4,3.31-7.81,3.31-16.46Z" transform="translate(-21.33 -15.56)"/><path class="cls-4" d="M45.59,71.75c0-4.9,0-5.8-.06-6.84s-.32-1.61-1.39-1.84a6.62,6.62,0,0,0-1.26-.1c-.35,0-.55-.06-.55-.29s.23-.29.71-.29c1.71,0,3.74.1,4.64.1s7.45,0,8.06,0a12.82,12.82,0,0,0,1.39-.19,3,3,0,0,1,.52-.13c.16,0,.19.13.19.29a20.69,20.69,0,0,0-.26,2.1c0,.32-.1,1.74-.16,2.13,0,.16-.1.35-.32.35s-.29-.16-.29-.45a3.46,3.46,0,0,0-.19-1.16c-.23-.58-.55-1-2.16-1.16-.55-.06-3.93-.13-4.58-.13-.16,0-.23.1-.23.32v8.16c0,.23,0,.35.23.35.71,0,4.42,0,5.16-.06a2.25,2.25,0,0,0,1.55-.48c.23-.26.35-.42.52-.42s.23.06.23.26-.16.71-.26,2.35c-.06.64-.13,1.93-.13,2.16s0,.61-.29.61a.26.26,0,0,1-.29-.29,8.45,8.45,0,0,0-.13-1.16c-.16-.64-.61-1.13-1.81-1.26-.61-.06-3.8-.1-4.58-.1-.16,0-.19.13-.19.32v2.55c0,1.1,0,4.06,0,5,.06,2.22.58,2.71,3.87,2.71a8.18,8.18,0,0,0,3-.39c.84-.39,1.23-1.06,1.45-2.39.06-.35.13-.48.35-.48s.26.26.26.58A25.26,25.26,0,0,1,58.2,86c-.23.84-.52.84-1.74.84-4.87,0-7-.19-8.93-.19-.74,0-2.77.1-4.06.1-.42,0-.64-.1-.64-.32s.13-.26.52-.26a5.28,5.28,0,0,0,1.16-.13c.65-.13.81-.84.94-1.77.16-1.35.16-3.9.16-6.87Z" transform="translate(-21.33 -15.56)"/><path class="cls-4" d="M65.26,86.38c-.52-.23-.61-.39-.61-1.1,0-1.77.13-3.71.16-4.22s.13-.84.39-.84.32.29.32.55a6.8,6.8,0,0,0,.29,1.64,4.44,4.44,0,0,0,4.61,3.26c2.9,0,4.32-2,4.32-3.68s-.48-3.1-3.16-5.16l-1.48-1.16c-3.55-2.77-4.77-5-4.77-7.64,0-3.55,3-6.09,7.45-6.09a15.61,15.61,0,0,1,4.29.55c.29.06.45.16.45.39,0,.42-.13,1.35-.13,3.87,0,.71-.1,1-.35,1s-.32-.19-.32-.58A3.9,3.9,0,0,0,75.87,65a4.08,4.08,0,0,0-3.51-1.58c-2.39,0-3.84,1.39-3.84,3.32,0,1.48.74,2.61,3.42,4.64l.9.68c3.87,3,5.29,5.16,5.29,8.22a6.5,6.5,0,0,1-3,5.61A9.32,9.32,0,0,1,70,87.22,11.18,11.18,0,0,1,65.26,86.38Z" transform="translate(-21.33 -15.56)"/><path class="cls-4" d="M85.47,71.75c0-4.9,0-5.8-.06-6.84S85.09,63.3,84,63.07a6.62,6.62,0,0,0-1.26-.1c-.35,0-.55-.06-.55-.29s.23-.29.71-.29c1.71,0,3.74.1,4.71.1.77,0,2.8-.1,4-.1.48,0,.71.06.71.29s-.19.29-.52.29a4.85,4.85,0,0,0-.94.1c-.87.16-1.13.71-1.19,1.84s-.06,1.93-.06,6.84v4.51c0,4.68.93,6.64,2.51,7.93a6,6,0,0,0,4,1.32,6.31,6.31,0,0,0,4.45-1.74c1.77-1.77,1.87-4.68,1.87-8v-4c0-4.9,0-5.8-.06-6.84s-.32-1.61-1.39-1.84a6.24,6.24,0,0,0-1.16-.1c-.36,0-.55-.06-.55-.29s.23-.29.68-.29c1.64,0,3.68.1,3.71.1.39,0,2.42-.1,3.68-.1.45,0,.68.06.68.29s-.19.29-.58.29a4.84,4.84,0,0,0-.93.1c-.87.16-1.13.71-1.19,1.84s-.06,1.93-.06,6.84V75.2c0,3.58-.35,7.38-3.06,9.71a9.62,9.62,0,0,1-6.71,2.32c-1.71,0-4.8-.1-7.16-2.23-1.64-1.48-2.87-3.87-2.87-8.54Z" transform="translate(-21.33 -15.56)"/><path class="cls-4" d="M115.39,71.75c0-4.9,0-5.8-.06-6.84s-.39-1.64-1.1-1.81a4.57,4.57,0,0,0-1.16-.13c-.32,0-.52-.06-.52-.32s.26-.26.77-.26c1.23,0,3.26.1,4.19.1s2.71-.1,3.93-.1c.42,0,.68.06.68.26s-.19.32-.52.32a5.44,5.44,0,0,0-1,.1c-.87.16-1.13.71-1.19,1.84s-.06,1.93-.06,6.84v5.67c0,3.13,0,5.67.13,7.06.1.87.32,1.45,1.29,1.58a13.66,13.66,0,0,0,1.64.13c.35,0,.52.1.52.26s-.26.32-.61.32c-2.13,0-4.16-.1-5-.1s-2.77.1-4.06.1c-.42,0-.64-.1-.64-.32s.13-.26.52-.26a5.29,5.29,0,0,0,1.16-.13c.64-.13.84-.68.93-1.61.16-1.35.16-3.9.16-7Z" transform="translate(-21.33 -15.56)"/><path class="cls-4" d="M135.32,64.2l-4.8.13c-1.87.06-2.64.23-3.13.93a3.81,3.81,0,0,0-.55,1.13c-.06.26-.16.39-.35.39s-.29-.16-.29-.52c0-.52.61-3.45.68-3.71.1-.42.19-.61.39-.61a7.47,7.47,0,0,0,1.39.39c.94.1,2.16.16,3.22.16h12.77a15.44,15.44,0,0,0,2.22-.16,7.74,7.74,0,0,1,.87-.16c.23,0,.26.19.26.68,0,.68-.1,2.9-.1,3.74,0,.32-.1.52-.29.52s-.32-.16-.35-.65l0-.35c-.06-.84-.94-1.74-3.8-1.81l-4.06-.1V77.42c0,3,0,5.51.16,6.9.1.9.29,1.61,1.26,1.74a13.65,13.65,0,0,0,1.64.13c.35,0,.52.1.52.26s-.26.32-.61.32c-2.13,0-4.16-.1-5.06-.1-.74,0-2.77.1-4.06.1-.42,0-.65-.1-.65-.32s.13-.26.52-.26a5.28,5.28,0,0,0,1.16-.13c.65-.13.84-.84.94-1.77.16-1.35.16-3.9.16-6.87Z" transform="translate(-21.33 -15.56)"/><path class="cls-3" d="M157.87,82.66c-4.28-3.84-5.34-8.87-5.34-13.06a17.61,17.61,0,0,1,4.94-12c2.65-2.65,6.66-4.72,13.46-4.72a37.83,37.83,0,0,1,6.4.53,38.33,38.33,0,0,0,4.5.66c.49,0,.57.22.57.49s-.13.88-.22,2.47-.09,3.88-.13,4.54-.13.93-.4.93-.35-.31-.35-.93a6.11,6.11,0,0,0-1.85-4.5c-1.54-1.32-4.94-2.52-8.82-2.52-5.87,0-8.6,1.72-10.15,3.22-3.22,3.09-4,7-4,11.52A15.93,15.93,0,0,0,172.43,85.4c3.31,0,5.91-.4,7.68-2.21a8.4,8.4,0,0,0,1.63-3.71c.09-.49.18-.66.44-.66s.31.31.31.66a45.74,45.74,0,0,1-1,5.65c-.26.84-.35.93-1.15,1.28a25.56,25.56,0,0,1-7.94,1C165.81,87.43,161.36,85.79,157.87,82.66Z" transform="translate(-21.33 -15.56)"/><path class="cls-3" d="M190.35,73.65c0-7.06,4-10.61,9.41-10.61,5.09,0,9.8,4.16,9.8,11.9,0,9.38-6,11.06-8.9,11.06C194.86,86,190.35,81.16,190.35,73.65Zm-3.06.9c0,5.8,3.68,12.67,12.51,12.67,7.77,0,12.86-6,12.86-13.19,0-7.51-5.42-12.09-12.67-12.09C191.09,61.95,187.29,69.33,187.29,74.55Z" transform="translate(-21.33 -15.56)"/><path class="cls-3" d="M222.21,77.49c0,4.74.13,6.8.71,7.38s1.35.74,3.87.74c1.71,0,3.13,0,3.9-1a4.48,4.48,0,0,0,.84-1.93c0-.26.1-.42.29-.42s.19.13.19.48a20.56,20.56,0,0,1-.48,3.22c-.23.74-.32.87-2,.87-4.64,0-6.77-.19-8.64-.19-.13,0-.68,0-1.32,0s-1.35.06-1.84.06-.52-.06-.52-.26.06-.19.26-.19a5,5,0,0,0,1-.13c.64-.13.81-.84.94-1.77.16-1.35.16-3.9.16-7V71.75c0-5,0-5.93-.06-7s-.32-1.61-1.39-1.84a6.07,6.07,0,0,0-1.1-.1c-.13,0-.26-.06-.26-.19s.16-.26.52-.26c1.45,0,3.48.1,3.64.1s2.52-.1,3.48-.1c.35,0,.52.06.52.26s-.13.19-.26.19a7.61,7.61,0,0,0-1.06.1c-.94.16-1.19.71-1.26,1.84s-.06,1.93-.06,7Z" transform="translate(-21.33 -15.56)"/><path class="cls-3" d="M241.29,77.49c0,4.74.13,6.8.71,7.38s1.35.74,3.87.74c1.71,0,3.13,0,3.9-1a4.49,4.49,0,0,0,.84-1.93c0-.26.1-.42.29-.42s.19.13.19.48a20.57,20.57,0,0,1-.48,3.22c-.23.74-.32.87-2,.87-4.64,0-6.77-.19-8.64-.19-.13,0-.68,0-1.32,0s-1.35.06-1.84.06-.52-.06-.52-.26.06-.19.26-.19a5,5,0,0,0,1-.13c.64-.13.81-.84.94-1.77.16-1.35.16-3.9.16-7V71.75c0-5,0-5.93-.06-7s-.32-1.61-1.39-1.84a6.07,6.07,0,0,0-1.1-.1c-.13,0-.26-.06-.26-.19s.16-.26.52-.26c1.45,0,3.48.1,3.64.1s2.51-.1,3.48-.1c.36,0,.52.06.52.26s-.13.19-.26.19a7.64,7.64,0,0,0-1.06.1c-.93.16-1.19.71-1.26,1.84s-.06,1.93-.06,7Z" transform="translate(-21.33 -15.56)"/><path class="cls-3" d="M257.67,71.75c0-5,0-5.93-.06-7s-.32-1.61-1.39-1.84a6.07,6.07,0,0,0-1.1-.1c-.13,0-.26-.06-.26-.19s.16-.26.52-.26c1.45,0,3.48.1,3.64.1s6.64,0,7.38,0a8.58,8.58,0,0,0,1.39-.16c.16,0,.29-.16.45-.16s.13.13.13.29-.16.61-.26,1.52c0,.32-.1,1.74-.16,2.13,0,.16-.1.35-.23.35s-.26-.16-.26-.42a3.45,3.45,0,0,0-.19-1.16c-.23-.52-.55-.9-2.29-1.1-.55-.06-4.06-.1-4.42-.1-.13,0-.19.1-.19.32v8.9c0,.23,0,.32.19.32.42,0,4.38,0,5.13-.06s1.22-.13,1.52-.45.36-.42.48-.42.16.06.16.26-.16.74-.26,1.81c-.06.65-.13,1.84-.13,2.06s0,.61-.23.61-.23-.13-.23-.29a3.31,3.31,0,0,0-.13-1.06c-.13-.45-.42-1-1.68-1.13-.87-.1-4.06-.16-4.61-.16a.2.2,0,0,0-.23.23v2.84c0,1.1,0,4.84,0,5.51.1,2.23.58,2.64,3.74,2.64a9.25,9.25,0,0,0,3.1-.35c.84-.35,1.23-1,1.45-2.32.06-.35.13-.48.29-.48s.19.26.19.48a31.54,31.54,0,0,1-.42,3.13c-.23.84-.48.84-1.74.84-4.87,0-7-.19-8-.19-.06,0-.61,0-1.29,0s-1.39.06-1.87.06-.52-.06-.52-.26.06-.19.26-.19a5,5,0,0,0,1-.13c.64-.13.81-.84.93-1.77.16-1.35.16-3.9.16-7Z" transform="translate(-21.33 -15.56)"/><path class="cls-3" d="M292.66,78.55c0-2.61-.16-3-1.45-3.32a6,6,0,0,0-1.1-.1c-.13,0-.26-.06-.26-.19s.16-.26.52-.26c1.45,0,3.48.1,3.64.1s2.19-.1,3.16-.1c.35,0,.52.06.52.26s-.13.19-.26.19a4.8,4.8,0,0,0-.81.1c-.87.16-1.13.71-1.19,1.84s-.06,2-.06,3.35V84c0,1.45,0,1.52-.42,1.74a15.94,15.94,0,0,1-6.84,1.45c-2.45,0-7-.32-10.61-3.45a12.58,12.58,0,0,1-3.84-9.19A12.22,12.22,0,0,1,279,64a15.83,15.83,0,0,1,8.58-2,27.66,27.66,0,0,1,4.93.55,16,16,0,0,0,2.61.32c.32,0,.39.16.39.29a40.76,40.76,0,0,0-.23,4.58c0,.52-.06.68-.29.68s-.19-.19-.23-.48a5,5,0,0,0-.68-2.13c-.81-1.23-3.42-2.61-7.58-2.61a10.3,10.3,0,0,0-6.9,2.13c-1.87,1.48-3.19,4.42-3.19,8.19a13.15,13.15,0,0,0,3.42,8.93,11.73,11.73,0,0,0,8.45,3.45,8.8,8.8,0,0,0,3.68-.68,1.17,1.17,0,0,0,.64-1.13Z" transform="translate(-21.33 -15.56)"/><path class="cls-3" d="M305.13,71.75c0-5,0-5.93-.06-7s-.32-1.61-1.39-1.84a6.07,6.07,0,0,0-1.1-.1c-.13,0-.26-.06-.26-.19s.16-.26.52-.26c1.45,0,3.48.1,3.64.1s6.64,0,7.38,0a8.59,8.59,0,0,0,1.39-.16c.16,0,.29-.16.45-.16s.13.13.13.29-.16.61-.26,1.52c0,.32-.1,1.74-.16,2.13,0,.16-.1.35-.23.35s-.26-.16-.26-.42a3.47,3.47,0,0,0-.19-1.16c-.23-.52-.55-.9-2.29-1.1-.55-.06-4.06-.1-4.42-.1-.13,0-.19.1-.19.32v8.9c0,.23,0,.32.19.32.42,0,4.39,0,5.13-.06s1.22-.13,1.52-.45.35-.42.48-.42.16.06.16.26-.16.74-.26,1.81c-.06.65-.13,1.84-.13,2.06s0,.61-.23.61-.23-.13-.23-.29a3.29,3.29,0,0,0-.13-1.06c-.13-.45-.42-1-1.68-1.13-.87-.1-4.06-.16-4.61-.16a.2.2,0,0,0-.23.23v2.84c0,1.1,0,4.84,0,5.51.1,2.23.58,2.64,3.74,2.64a9.25,9.25,0,0,0,3.1-.35c.84-.35,1.22-1,1.45-2.32.06-.35.13-.48.29-.48s.19.26.19.48a31.5,31.5,0,0,1-.42,3.13c-.23.84-.48.84-1.74.84-4.87,0-7-.19-8-.19-.06,0-.61,0-1.29,0s-1.39.06-1.87.06-.52-.06-.52-.26.06-.19.26-.19a5,5,0,0,0,1-.13c.64-.13.81-.84.94-1.77.16-1.35.16-3.9.16-7Z" transform="translate(-21.33 -15.56)"/><path class="cls-3" d="M322.74,86.35c-.45-.23-.48-.35-.48-1.23,0-1.61.13-2.9.16-3.42,0-.35.1-.52.26-.52s.23.1.23.35a5.67,5.67,0,0,0,.1,1.19c.48,2.39,2.61,3.29,4.77,3.29a4.3,4.3,0,0,0,4.61-4.29c0-2.22-.94-3.51-3.71-5.8l-1.45-1.19c-3.42-2.81-4.19-4.8-4.19-7,0-3.45,2.58-5.8,6.67-5.8a12.52,12.52,0,0,1,3,.32,5.26,5.26,0,0,0,1.13.16c.26,0,.32.06.32.23s-.13,1.23-.13,3.42c0,.52-.06.74-.23.74s-.23-.16-.26-.42a5.66,5.66,0,0,0-.42-1.61c-.19-.35-1.06-1.71-4-1.71a3.67,3.67,0,0,0-4,3.74c0,1.84.9,2.93,3.93,5.42l.9.71c3.8,3,4.71,5,4.71,7.58a6.68,6.68,0,0,1-2.74,5.35,8.48,8.48,0,0,1-4.87,1.35A9.79,9.79,0,0,1,322.74,86.35Z" transform="translate(-21.33 -15.56)"/><path class="cls-3" d="M49.06,125.45c-3.42,0-6.11-2.75-6.11-6.57a5.84,5.84,0,0,1,2.75-5.13A49.75,49.75,0,0,0,49.3,118c.79.86,3.82,3.76,5.53,5.16A7.89,7.89,0,0,1,49.06,125.45ZM48,127.07a10.26,10.26,0,0,0,7.64-3.3c3.36,2.66,4.09,2.87,6.35,2.87h3c.27,0,.52-.09.52-.21s-.15-.21-.43-.21A8.38,8.38,0,0,1,61.43,125a26.82,26.82,0,0,1-4.21-3c1.34-1.65,3-4.73,3-7.21,0-.31-.09-.55-.55-.61A34.17,34.17,0,0,0,56,114c-.24,0-.49.06-.49.21s.18.21.37.21a2.16,2.16,0,0,1,1.5.49,2.08,2.08,0,0,1,.58,1.5,9.32,9.32,0,0,1-1.56,5.07c-1-.82-4.73-4.34-5.77-5.47-3.18-3.45-4.83-5.44-4.83-7.82a3.72,3.72,0,0,1,3.88-4,4.21,4.21,0,0,1,3.05,1.34,3.67,3.67,0,0,1,.95,2.6c0,.46,0,.58.18.58s.21-.06.31-.52a34.28,34.28,0,0,0,.21-3.51.7.7,0,0,0-.4-.76,7.94,7.94,0,0,0-3.7-.76c-4.09,0-6.57,3.21-6.57,5.62a6.84,6.84,0,0,0,1.5,4.22c-2.38,1.4-4.67,3.79-4.67,7.36C40.57,123,42.64,127.07,48,127.07Z" transform="translate(-21.33 -15.56)"/><path class="cls-3" d="M82.15,107.7c0-6.35,0-7.49-.08-8.8s-.41-2-1.75-2.32a7.64,7.64,0,0,0-1.38-.12c-.16,0-.33-.08-.33-.24s.2-.33.65-.33c1.83,0,4.32.12,4.68.12s2.81-.12,4-.12c.45,0,.65.08.65.33s-.16.24-.33.24a6.08,6.08,0,0,0-1,.12c-1.1.16-1.43.9-1.51,2.32s-.08,2.44-.08,8.8v5.7c0,5.86,1.3,8.39,3.05,10.06a8,8,0,0,0,6.15,2.24,8.56,8.56,0,0,0,6.39-2.93c1.87-2.32,2.36-5.78,2.36-10V107.7c0-6.35,0-7.49-.08-8.8s-.41-2-1.75-2.32a7.64,7.64,0,0,0-1.38-.12c-.16,0-.33-.08-.33-.24s.2-.33.65-.33c1.83,0,4.07.12,4.32.12s2.2-.12,3.42-.12c.45,0,.65.08.65.33s-.16.24-.33.24a3.55,3.55,0,0,0-1,.12c-1.1.2-1.43.9-1.51,2.32s-.08,2.44-.08,8.8v4.36c0,4.4-.49,9.28-3.75,12.18a11.93,11.93,0,0,1-8.39,3c-1.38,0-5.5-.16-8.39-2.89-2-1.91-3.54-4.76-3.54-10.71Z" transform="translate(-21.33 -15.56)"/><path class="cls-3" d="M116.38,122.49c.06,2.5.37,3.3,1.19,3.54a6.69,6.69,0,0,0,1.53.18c.15,0,.24.06.24.18s-.18.24-.55.24c-1.74,0-3-.09-3.24-.09s-1.56.09-2.93.09c-.31,0-.49,0-.49-.24s.09-.18.24-.18a4.38,4.38,0,0,0,1.25-.18c.76-.21.92-1.1.92-3.88l0-17.5c0-1.19.09-1.53.34-1.53s.76.67,1.07,1c.46.52,5,5.44,9.71,10.48,3,3.24,6.35,7,7.33,8L132.69,107c0-2-.24-2.66-1.19-2.9A8.14,8.14,0,0,0,130,104c-.21,0-.24-.09-.24-.21s.24-.21.61-.21c1.37,0,2.84.09,3.18.09s1.34-.09,2.6-.09c.34,0,.55,0,.55.21s-.12.21-.34.21a2.69,2.69,0,0,0-.73.09c-1,.21-1.13.89-1.13,2.72l-.06,17.9c0,2-.06,2.17-.27,2.17s-.61-.34-2.23-2c-.34-.31-4.73-4.79-8-8.28-3.54-3.82-7-7.67-8-8.77Z" transform="translate(-21.33 -15.56)"/><path class="cls-3" d="M147,117.79c0,2.93,0,5.35.15,6.63.09.89.28,1.56,1.19,1.68a13.4,13.4,0,0,0,1.37.12c.18,0,.24.09.24.18s-.15.24-.49.24c-1.68,0-3.6-.09-3.76-.09s-2.08.09-3,.09c-.34,0-.49-.06-.49-.24s.06-.18.24-.18a4.74,4.74,0,0,0,.92-.12c.61-.12.76-.79.89-1.68.15-1.28.15-3.7.15-6.63v-5.38c0-4.76,0-5.62-.06-6.6s-.37-1.56-1-1.71a4,4,0,0,0-.95-.12c-.12,0-.24-.06-.24-.18s.15-.24.49-.24c1,0,2.93.09,3.08.09s2.08-.09,3-.09c.34,0,.49.06.49.24s-.12.18-.24.18a4.53,4.53,0,0,0-.76.09c-.82.15-1.07.67-1.13,1.74s-.06,1.83-.06,6.6Z" transform="translate(-21.33 -15.56)"/><path class="cls-3" d="M164.55,122.92c1.77-4.09,5.86-14.75,6.54-17a4.4,4.4,0,0,0,.27-1.16.75.75,0,0,0-.4-.7,3.85,3.85,0,0,0-1.16-.12c-.18,0-.34,0-.34-.18s.18-.24.67-.24c1.22,0,2.63.09,3,.09.18,0,1.5-.09,2.38-.09.34,0,.52.06.52.21s-.12.21-.37.21a2.77,2.77,0,0,0-1.47.37c-.4.27-.85.79-1.68,2.87-.34.85-1.86,4.52-3.42,8.28-1.86,4.46-3.24,7.76-3.94,9.25-.85,1.83-1,2.32-1.28,2.32s-.52-.43-1.1-1.89l-7.48-18.72c-.67-1.71-1.13-2-2.2-2.35a4.74,4.74,0,0,0-1.16-.12c-.18,0-.24-.09-.24-.21s.31-.21.79-.21c1.47,0,3.21.09,3.57.09s1.68-.09,2.84-.09c.55,0,.82.06.82.21s-.09.21-.31.21a3.56,3.56,0,0,0-1.16.15.61.61,0,0,0-.4.61,11.69,11.69,0,0,0,.82,2.53Z" transform="translate(-21.33 -15.56)"/><path class="cls-3" d="M180.58,112.41c0-4.76,0-5.62-.06-6.6s-.31-1.53-1.31-1.74a5.69,5.69,0,0,0-1-.09c-.12,0-.24-.06-.24-.18s.15-.24.49-.24c1.37,0,3.3.09,3.45.09s6.29,0,7,0a8.1,8.1,0,0,0,1.31-.15c.15,0,.27-.15.43-.15s.12.12.12.27-.15.58-.24,1.44c0,.31-.09,1.65-.15,2,0,.15-.09.34-.21.34s-.24-.15-.24-.4a3.29,3.29,0,0,0-.18-1.1c-.21-.49-.52-.86-2.17-1-.52-.06-3.85-.09-4.18-.09-.12,0-.18.09-.18.31v8.43c0,.21,0,.31.18.31.4,0,4.15,0,4.86-.06s1.16-.12,1.44-.43.34-.4.46-.4.15.06.15.24-.15.7-.24,1.71c-.06.61-.12,1.74-.12,2s0,.58-.21.58-.21-.12-.21-.27a3.1,3.1,0,0,0-.12-1c-.12-.43-.4-.95-1.59-1.07-.82-.09-3.85-.15-4.37-.15a.19.19,0,0,0-.21.21v2.69c0,1,0,4.58,0,5.22.09,2.11.55,2.5,3.54,2.5a8.77,8.77,0,0,0,2.93-.34c.79-.34,1.16-.95,1.38-2.2.06-.34.12-.46.27-.46s.18.24.18.46-.24,2.32-.4,3c-.21.79-.46.79-1.65.79-4.61,0-6.66-.18-7.54-.18-.06,0-.58,0-1.22,0s-1.31.06-1.77.06-.49-.06-.49-.24.06-.18.24-.18a4.74,4.74,0,0,0,.92-.12c.61-.12.76-.79.89-1.68.15-1.28.15-3.7.15-6.63Z" transform="translate(-21.33 -15.56)"/><path class="cls-3" d="M201.65,105.08a.37.37,0,0,1,.24-.37,9.22,9.22,0,0,1,2-.18c3.27,0,5.28,2.29,5.28,6.11,0,2.32-.79,4-1.86,4.7a4,4,0,0,1-2.29.58,8.42,8.42,0,0,1-3.21-.49.4.4,0,0,1-.21-.37Zm-2.44,12.71c0,2.93,0,5.35-.15,6.63-.12.89-.27,1.56-.89,1.68a4.73,4.73,0,0,1-.92.12c-.18,0-.24.09-.24.18s.15.24.49.24c.92,0,2.84-.09,2.87-.09s2.08.09,3.76.09c.34,0,.49-.09.49-.24s-.06-.18-.24-.18a13.37,13.37,0,0,1-1.37-.12c-.92-.12-1.1-.79-1.19-1.68-.15-1.28-.15-3.7-.15-6.63v-.73c0-.15.06-.24.21-.24l3.76.06a.49.49,0,0,1,.4.18c.61.79,2,2.84,3.33,4.52,1.74,2.29,2.81,3.79,4.12,4.49a6.21,6.21,0,0,0,3.27.58h2.17c.55,0,.73-.06.73-.24s-.12-.18-.27-.18a7.35,7.35,0,0,1-1.19-.09,6.32,6.32,0,0,1-3.73-2.2c-1.77-1.89-3.85-4.61-6.35-7.82,2.75-2.54,3.7-4.8,3.7-7.06a5.35,5.35,0,0,0-2.11-4.15,9.4,9.4,0,0,0-5.59-1.34c-.95,0-3.27.09-3.6.09-.15,0-2.08-.09-3.45-.09-.34,0-.49.06-.49.24s.12.18.24.18a5.69,5.69,0,0,1,1,.09c1,.21,1.25.7,1.31,1.74s.06,1.83.06,6.6Z" transform="translate(-21.33 -15.56)"/><path class="cls-3" d="M220,126.25c-.43-.21-.46-.34-.46-1.16,0-1.53.12-2.75.15-3.24,0-.34.09-.49.24-.49s.21.09.21.34a5.4,5.4,0,0,0,.09,1.13c.46,2.26,2.47,3.12,4.52,3.12a4.08,4.08,0,0,0,4.37-4.06c0-2.11-.89-3.33-3.51-5.5l-1.38-1.13c-3.24-2.66-4-4.55-4-6.63,0-3.27,2.44-5.5,6.32-5.5a11.86,11.86,0,0,1,2.84.31,5,5,0,0,0,1.07.15c.24,0,.31.06.31.21s-.12,1.16-.12,3.24c0,.49-.06.7-.21.7s-.21-.15-.24-.4a5.38,5.38,0,0,0-.4-1.53c-.18-.34-1-1.62-3.82-1.62a3.47,3.47,0,0,0-3.76,3.54c0,1.74.85,2.78,3.73,5.13l.85.67c3.6,2.84,4.46,4.73,4.46,7.18a6.33,6.33,0,0,1-2.6,5.07,8,8,0,0,1-4.61,1.28A9.27,9.27,0,0,1,220,126.25Z" transform="translate(-21.33 -15.56)"/><path class="cls-3" d="M241.91,117.79c0,2.93,0,5.35.15,6.63.09.89.27,1.56,1.19,1.68a13.41,13.41,0,0,0,1.38.12c.18,0,.24.09.24.18s-.15.24-.49.24c-1.68,0-3.6-.09-3.76-.09s-2.08.09-3,.09c-.34,0-.49-.06-.49-.24s.06-.18.24-.18a4.74,4.74,0,0,0,.92-.12c.61-.12.76-.79.89-1.68.15-1.28.15-3.7.15-6.63v-5.38c0-4.76,0-5.62-.06-6.6s-.37-1.56-1-1.71a4,4,0,0,0-.95-.12c-.12,0-.24-.06-.24-.18s.15-.24.49-.24c1,0,2.93.09,3.08.09s2.08-.09,3-.09c.34,0,.49.06.49.24s-.12.18-.24.18a4.52,4.52,0,0,0-.76.09c-.82.15-1.07.67-1.13,1.74s-.06,1.83-.06,6.6Z" transform="translate(-21.33 -15.56)"/><path class="cls-3" d="M259.29,117.79c0,2.93,0,5.35.15,6.63.09.89.27,1.56,1.19,1.68a13.39,13.39,0,0,0,1.37.12c.18,0,.24.09.24.18s-.15.24-.49.24c-1.68,0-3.6-.09-3.76-.09s-2.08.09-3,.09c-.34,0-.49-.06-.49-.24s.06-.18.24-.18a4.73,4.73,0,0,0,.92-.12c.61-.12.76-.79.89-1.68.15-1.28.15-3.7.15-6.63V104.87l-4.52.06c-1.89,0-2.63.24-3.12,1a5.43,5.43,0,0,0-.52.95c-.09.24-.18.31-.31.31s-.15-.09-.15-.27.61-2.93.67-3.18.18-.58.31-.58a5.72,5.72,0,0,0,1.34.37c.89.09,2,.15,2.41.15H264.3a16.11,16.11,0,0,0,2.17-.15,7.37,7.37,0,0,1,.86-.15c.15,0,.15.18.15.37,0,.92-.09,3-.09,3.36s-.09.4-.21.4-.21-.09-.24-.52l0-.34c-.12-.92-.82-1.62-3.76-1.68l-3.85-.06Z" transform="translate(-21.33 -15.56)"/><path class="cls-3" d="M276.45,117.79c0,2.93,0,5.35.15,6.63.09.89.27,1.56,1.19,1.68a13.39,13.39,0,0,0,1.37.12c.18,0,.24.09.24.18s-.15.24-.49.24c-1.68,0-3.6-.09-3.76-.09s-2.08.09-3,.09c-.34,0-.49-.06-.49-.24s.06-.18.24-.18a4.73,4.73,0,0,0,.92-.12c.61-.12.76-.79.89-1.68.15-1.28.15-3.7.15-6.63v-5.38c0-4.76,0-5.62-.06-6.6s-.37-1.56-1-1.71a4,4,0,0,0-.95-.12c-.12,0-.24-.06-.24-.18s.15-.24.49-.24c1,0,2.93.09,3.08.09s2.08-.09,3-.09c.34,0,.49.06.49.24s-.12.18-.24.18a4.52,4.52,0,0,0-.76.09c-.82.15-1.07.67-1.13,1.74s-.06,1.83-.06,6.6Z" transform="translate(-21.33 -15.56)"/><path class="cls-3" d="M287.33,112.41c0-4.76,0-5.62-.06-6.6s-.31-1.53-1.31-1.74a5.69,5.69,0,0,0-1-.09c-.12,0-.24-.06-.24-.18s.15-.24.49-.24c1.37,0,3.3.09,3.45.09s6.29,0,7,0a8.11,8.11,0,0,0,1.31-.15c.15,0,.27-.15.43-.15s.12.12.12.27-.15.58-.24,1.44c0,.31-.09,1.65-.15,2,0,.15-.09.34-.21.34s-.24-.15-.24-.4a3.29,3.29,0,0,0-.18-1.1c-.21-.49-.52-.86-2.17-1-.52-.06-3.85-.09-4.18-.09-.12,0-.18.09-.18.31v8.43c0,.21,0,.31.18.31.4,0,4.15,0,4.86-.06s1.16-.12,1.44-.43.34-.4.46-.4.15.06.15.24-.15.7-.24,1.71c-.06.61-.12,1.74-.12,2s0,.58-.21.58-.21-.12-.21-.27a3.1,3.1,0,0,0-.12-1c-.12-.43-.4-.95-1.59-1.07-.82-.09-3.85-.15-4.37-.15a.19.19,0,0,0-.21.21v2.69c0,1,0,4.58,0,5.22.09,2.11.55,2.5,3.54,2.5a8.77,8.77,0,0,0,2.93-.34c.79-.34,1.16-.95,1.38-2.2.06-.34.12-.46.27-.46s.18.24.18.46a29.76,29.76,0,0,1-.4,3c-.21.79-.46.79-1.65.79-4.61,0-6.66-.18-7.54-.18-.06,0-.58,0-1.22,0s-1.31.06-1.77.06-.49-.06-.49-.24.06-.18.24-.18a4.73,4.73,0,0,0,.92-.12c.61-.12.76-.79.89-1.68.15-1.28.15-3.7.15-6.63Z" transform="translate(-21.33 -15.56)"/><path class="cls-3" d="M304,126.25c-.43-.21-.46-.34-.46-1.16,0-1.53.12-2.75.15-3.24,0-.34.09-.49.24-.49s.21.09.21.34a5.4,5.4,0,0,0,.09,1.13c.46,2.26,2.47,3.12,4.52,3.12a4.08,4.08,0,0,0,4.37-4.06c0-2.11-.89-3.33-3.51-5.5l-1.37-1.13c-3.24-2.66-4-4.55-4-6.63,0-3.27,2.44-5.5,6.32-5.5a11.86,11.86,0,0,1,2.84.31,5,5,0,0,0,1.07.15c.24,0,.31.06.31.21s-.12,1.16-.12,3.24c0,.49-.06.7-.21.7s-.21-.15-.24-.4a5.36,5.36,0,0,0-.4-1.53c-.18-.34-1-1.62-3.82-1.62a3.47,3.47,0,0,0-3.76,3.54c0,1.74.85,2.78,3.73,5.13l.85.67c3.6,2.84,4.46,4.73,4.46,7.18a6.33,6.33,0,0,1-2.6,5.07,8,8,0,0,1-4.61,1.28A9.27,9.27,0,0,1,304,126.25Z" transform="translate(-21.33 -15.56)"/><path class="cls-5" d="M149.41,147.85" transform="translate(-21.33 -15.56)"/><path class="cls-4" d="M178.78,163.06h.05a252.48,252.48,0,0,0,27.06-1.62v.1L206,163c0,.27,0,.5.08.74a2,2,0,0,0,1.6.67,71.59,71.59,0,0,0,10.89-.79l.4-26.25a40.16,40.16,0,0,1-4.64-.14,9.66,9.66,0,0,1-2.58-.39h0l-.89,24.8,0,.07c-.34.86-2.31,1.49-3.74,1.3l0-.4,0-1.33,1.14-.28c1.24-.17,1.53.41,1.56.43l.84-26.61-.56-.11a238.85,238.85,0,0,0-31.15-1.82h-.35a238.86,238.86,0,0,0-31.15,1.82l-.56.11.84,26.61s.32-.61,1.56-.43l1.14.28,0,1.33,0,.4c-1.43.2-3.39-.44-3.74-1.3l0-.07-.89-24.8h0a9.65,9.65,0,0,1-2.58.39,40.17,40.17,0,0,1-4.64.14l.4,26.25a71.58,71.58,0,0,0,10.89.79,2,2,0,0,0,1.6-.67c0-.24.06-.47.08-.74l.06-1.48v-.1a252.49,252.49,0,0,0,27.07,1.62h.3Z" transform="translate(-21.33 -15.56)"/><path class="cls-6" d="M154.74,147.79c-.08,0-.11-.06-.08-.15l1.94-5.18c0-.08.06-.19.13-.19s.08.11.11.19l1.9,5.2c0,.06,0,.13-.11.13Zm4.28,1.05a.2.2,0,0,1,.21.15l1.69,4.47a.34.34,0,0,1-.19.48c-.21,0-.3.06-.3.19s.25.15.63.17c1.69,0,3.22,0,4,0s1,0,1-.21-.11-.17-.27-.17a4.65,4.65,0,0,1-.88-.08c-.44-.11-1.05-.4-1.85-2.3-1.35-3.2-4.72-11.79-5.22-13-.21-.48-.34-.67-.53-.67s-.34.23-.59.84L151.37,152c-.42,1.05-.82,1.77-1.79,1.9a6.32,6.32,0,0,1-.65,0c-.17,0-.25,0-.25.17s.13.21.4.21c1.09,0,2.25-.06,2.49-.06.65,0,1.56.06,2.23.06.23,0,.36,0,.36-.21s-.06-.17-.32-.17h-.32c-.65,0-.84-.27-.84-.65A4.09,4.09,0,0,1,153,152l1.14-3c0-.13.08-.17.19-.17Z" transform="translate(-21.33 -15.56)"/><path class="cls-6" d="M168.22,144.53c0-3.2,0-3.79,0-4.47s-.21-1.05-.91-1.2a4.31,4.31,0,0,0-.82-.06c-.23,0-.36,0-.36-.19s.15-.19.46-.19c1.12,0,2.44.06,3,.06s1.83-.06,2.65-.06c.3,0,.44,0,.44.19s-.13.19-.38.19a3.14,3.14,0,0,0-.61.06c-.57.11-.74.46-.78,1.2s0,1.26,0,4.47v3.9c0,.9.06,1.92.06,3a11.29,11.29,0,0,1-.51,3.73,8,8,0,0,1-3.58,4,11.58,11.58,0,0,1-1.05.55.94.94,0,0,1-.42.13.17.17,0,0,1-.17-.17c0-.11.11-.19.46-.38a4.42,4.42,0,0,0,1-.8c1.6-1.62,1.58-3.73,1.58-7.86Z" transform="translate(-21.33 -15.56)"/><path class="cls-6" d="M177.29,152.34a8.34,8.34,0,0,1-.15-12c1.52-1.39,3.52-2.23,6.66-2.23a20.82,20.82,0,0,1,3.05.21c.8.11,1.47.29,2.11.36.23,0,.32.13.32.25s-.06.42-.11,1.16,0,1.85-.06,2.27-.06.48-.25.48-.21-.17-.21-.46a3,3,0,0,0-.82-1.94,6.28,6.28,0,0,0-4.28-1.31,5.49,5.49,0,0,0-4,1.31,7,7,0,0,0-1.94,5.46c0,5,3.81,7.5,6.63,7.5,1.87,0,3-.21,3.85-1.18a3.53,3.53,0,0,0,.72-1.39c.06-.34.1-.42.27-.42s.19.15.19.32a20.06,20.06,0,0,1-.46,2.8.75.75,0,0,1-.55.61,12.22,12.22,0,0,1-3.79.48A10.53,10.53,0,0,1,177.29,152.34Z" transform="translate(-21.33 -15.56)"/><path class="cls-6" d="M192.92,144.53c0-3.2,0-3.79,0-4.47s-.21-1.05-.91-1.2a4.31,4.31,0,0,0-.82-.06c-.23,0-.36,0-.36-.19s.15-.19.46-.19c1.12,0,2.44.06,3.07.06s1.83-.06,2.59-.06c.32,0,.46,0,.46.19s-.13.19-.34.19a3.15,3.15,0,0,0-.61.06c-.57.11-.74.46-.78,1.2s0,1.26,0,4.47v2.95c0,3.05.61,4.34,1.64,5.18a3.9,3.9,0,0,0,2.63.86,4.13,4.13,0,0,0,2.91-1.14c1.16-1.16,1.22-3.05,1.22-5.22v-2.63c0-3.2,0-3.79,0-4.47s-.21-1.05-.91-1.2a4.06,4.06,0,0,0-.76-.06c-.23,0-.36,0-.36-.19s.15-.19.44-.19c1.07,0,2.4.06,2.42.06.25,0,1.58-.06,2.4-.06.29,0,.44,0,.44.19s-.13.19-.38.19a3.15,3.15,0,0,0-.61.06c-.57.11-.74.46-.78,1.2s0,1.26,0,4.47v2.25c0,2.34-.23,4.82-2,6.34a6.28,6.28,0,0,1-4.38,1.52,6.77,6.77,0,0,1-4.68-1.45c-1.07-1-1.88-2.53-1.88-5.58Z" transform="translate(-21.33 -15.56)"/></svg>