<?xml version="1.0" encoding="utf-8"?>
<!-- Generator: Adobe Illustrator 21.1.0, SVG Export Plug-In . SVG Version: 6.00 Build 0)  -->
<svg version="1.1" id="Layer_1" xmlns="http://www.w3.org/2000/svg" xmlns:xlink="http://www.w3.org/1999/xlink" x="0px" y="0px"
	 viewBox="0 0 508.5 36" style="enable-background:new 0 0 508.5 36;" xml:space="preserve">
<style type="text/css">
	.st0{fill-rule:evenodd;clip-rule:evenodd;fill:#FFFFFF;}
	.st1{fill:#FFFFFF;}
</style>
<g>
	<path class="st0" d="M21.3,25.2V12.2c0-1.4-0.2-3.6,1.3-4.1V7.9h-5.7V8c1.5,0.6,1.4,2.8,1.4,4.1v11.3c0,1.3,0.2,3.6-1.4,4.1v0.1
		h12.3l1.6-4h-0.1c-1.5,1.3-3.3,2-5.3,1.8L21.3,25.2L21.3,25.2z"/>
	<path class="st0" d="M42.2,7.4C35.9,7.3,31,12,31,17.7c0,6.1,5,10.4,11,10.4c6,0,11-4.4,11-10.6C53,12.2,48.5,7.4,42.2,7.4
		L42.2,7.4z M42,9.6c4.7,0,7.5,4.2,7.5,8.6c0,4.5-2.9,7.8-7.5,7.8c-4.7,0-7.7-4.3-7.7-8.5C34.4,12.9,37.4,9.6,42,9.6L42,9.6z"/>
	<path class="st1" d="M62.1,19l7.4-11.1h-5.3V8c1.7,0.8,1,2.2,0.5,3L61,16.6l-4.8-7.8c-0.4-0.6-1.3-0.8-2.2-0.8h-2.7
		c1.4,0.8,2,1.8,2.9,3.1l5,8v4.4c0,1.4,0.2,3.4-1.3,4.1v0.1h5.8v-0.1c-1.5-1.1-1.5-2-1.5-3.8V19L62.1,19z"/>
	<path class="st0" d="M78.8,7.4C72.5,7.3,67.6,12,67.6,17.7c0,6.1,5,10.4,11,10.4c6,0,11-4.4,11-10.6C89.5,12.2,85.1,7.4,78.8,7.4
		L78.8,7.4z M78.6,9.6c4.7,0,7.5,4.2,7.5,8.6c0,4.5-2.9,7.8-7.5,7.8c-4.7,0-7.7-4.3-7.7-8.5C71,12.9,73.9,9.6,78.6,9.6L78.6,9.6z"/>
	<path class="st0" d="M94.5,25.2V12.2c0-1.4-0.2-3.6,1.3-4.1V7.9H90V8c1.5,0.6,1.4,2.8,1.4,4.1v11.3c0,1.3,0.2,3.6-1.4,4.1v0.1h12.3
		l1.6-4h-0.1c-1.5,1.3-3.3,2-5.3,1.8L94.5,25.2L94.5,25.2z"/>
	<path class="st0" d="M117.9,20.3l1.6,4.2c0.8,2.1,1.1,2.4-0.4,3.1v0.1h6.2v-0.1c-1.7-0.9-2.2-2.5-2.9-4.3l-6.2-15.4h-4.7V8
		c1.4,0.5,0.9,1.7,0.4,2.8l-5,12.5c-0.7,1.7-1.2,3.4-2.9,4.3v0.1h5.5v-0.1c-1.4-0.5-1.2-1.4-0.6-3.1l1.6-4.2H117.9L117.9,20.3z
		 M117.1,18h-5.9l3-7.6L117.1,18L117.1,18z"/>
	<path class="st1" d="M148,27.7h4.4v-0.1c-1.5-0.6-1.3-2.8-1.3-4.1V12.2c0-1.4-0.2-3.6,1.3-4.1l0-0.1h-5.7V8
		c1.5,0.6,1.3,2.8,1.3,4.1v9c0,1.1,0,1.8-0.6,2.7c-1,1.4-2.7,2.1-4.4,2.1c-3.1,0-4.8-1.9-4.8-5.9v-8c0-1.4-0.2-3.5,1.3-4.1V7.9h-5.7
		V8c1.5,0.6,1.3,2.8,1.3,4.1v8c0,2.2-0.1,4.2,1.5,5.9c1.3,1.5,3.4,2.1,5.4,2.1c2.1,0,4.6-0.7,5.9-2.5V27.7L148,27.7z"/>
	<path class="st1" d="M158.2,12.2l10.3,13c1.3,1.7,2.2,2.7,4.4,3.4V11.8c0-1.7,0-2.9,1.6-3.8V7.9h-5.3V8c1.6,0.9,1.6,2.1,1.6,3.8
		v11.4l-11-13.9l-0.4-0.6c-0.2-0.2-0.3-0.4-0.5-0.7v0h-4.4V8c1.6,0.9,1.6,2.1,1.6,3.8v12c0,1.7,0,2.9-1.6,3.8v0.1h5.3v-0.1
		c-1.6-0.9-1.6-2.1-1.6-3.8V12.2L158.2,12.2z"/>
	<path class="st1" d="M177.5,23.5c0,1.3,0.2,3.6-1.3,4.1v0.1h5.7v-0.1c-1.5-0.6-1.3-2.8-1.3-4.1V12.2c0-1.4-0.2-3.6,1.3-4.1V7.9
		h-5.7V8c1.5,0.6,1.3,2.8,1.3,4.1V23.5L177.5,23.5z"/>
	<path class="st1" d="M192.9,24.1l-4.8-13.1c-0.2-0.7-0.8-2.1-0.8-2.8l0-0.4H183V8c1.3,1,1.8,2.8,2.3,4.3l4.5,12.3
		c0.9,2.4,1.6,2.6,3.7,4l7.9-20.6H197V8c1.9,0.7,0.8,3.2,0,5.3L192.9,24.1L192.9,24.1z"/>
	<path class="st0" d="M207.7,18h2.2c0.9,0,2.2,0,2.7,0.8h0.1v-3.2h-0.1c-0.4,0.2-0.8,0.2-1.3,0.2h-3.6v-5.6c1-0.2,2-0.2,3.1-0.2
		c1.4,0,2.6,0.1,3.5,1.2h0.1V7.8h-0.1c-0.4,0.2-0.9,0.1-1.4,0.1h-9.6V8c1.5,0.6,1.4,2.8,1.4,4.1v11.3c0,1.3,0.2,3.6-1.4,4.1v0.1
		h12.5l1.4-3.9h-0.1c-1.5,1.3-3.6,2-5.6,1.8l-3.8-0.4V18L207.7,18z"/>
	<path class="st1" d="M218.2,7.9L218.2,7.9c1.5,0.7,1.3,2.9,1.3,4.2v11.3c0,1.3,0.2,3.6-1.3,4.1v0.1h5.7v-0.1
		c-1.5-0.5-1.3-2.7-1.3-4.1V10c0.7-0.1,1.3-0.2,2-0.2c2-0.1,3.9,1.2,3.9,3.3c0,2.8-2.8,3.9-5.2,4.3l2.8,4.2l3.7,4.5
		c0.9,1.1,1.9,1.5,3.5,1.5h2.8c-1.7-1.1-3.6-2.6-4.9-4.2l-4.3-5.4c2.5-0.6,4.8-2.6,4.8-5.3c0-2.7-2.2-4.8-6.2-4.8H218.2L218.2,7.9z"
		/>
	<path class="st1" d="M247.3,8.1c-1.4-0.5-3-0.7-4.5-0.7c-3.7,0-7.5,1.4-7.5,5.2c0,6.4,10.3,5.5,10.3,10.2c0,2.1-2.6,3.1-4.3,3.1
		c-2.3,0-4.8-1-6.6-2.5l0.9,3.8c1.7,0.6,3.5,0.9,5.4,0.9c4.7,0,8-3,8-6.2c0-5.6-10.3-5.5-10.3-9.6c0-2.1,2.2-2.7,3.9-2.7
		c1.7,0,3.5,0.7,4.7,1.9V8.1L247.3,8.1z"/>
	<path class="st1" d="M251.9,23.5c0,1.3,0.2,3.6-1.3,4.1v0.1h5.7v-0.1c-1.5-0.6-1.3-2.8-1.3-4.1V12.2c0-1.4-0.2-3.6,1.3-4.1V7.9
		h-5.7V8c1.5,0.6,1.3,2.8,1.3,4.1V23.5L251.9,23.5z"/>
	<path class="st0" d="M266.1,10.1h2.7c1,0,2.2,0.1,2.6,1.2h0.1l1-3.6h-0.1c-0.4,0.2-0.9,0.2-1.4,0.2h-11.2H259
		c-0.4-0.1-0.8-0.1-1.1-0.2h-0.1l-1,3.6h0.1c0.9-0.9,2.3-1.2,3.6-1.2h2.6v13.4c0,1.3,0.2,3.5-1.3,4.1v0.1h5.9v-0.1
		c-1.6-0.9-1.6-2.1-1.6-3.8V10.1L266.1,10.1z"/>
	<path class="st1" d="M283.1,19l7.4-11.1h-5.2V8c1.7,0.8,1,2.2,0.5,3l-3.7,5.6l-4.8-7.8c-0.4-0.6-1.3-0.8-2.2-0.8h-2.7
		c1.4,0.8,2,1.8,2.9,3.1l5,8v4.4c0,1.4,0.2,3.4-1.3,4.1v0.1h5.9v-0.1c-1.5-1.1-1.5-2-1.5-3.8V19L283.1,19z"/>
	<path class="st1" d="M303.9,12.2l10.3,13c1.3,1.7,2.2,2.7,4.4,3.4V11.8c0-1.7,0-2.9,1.6-3.8V7.9h-5.3V8c1.6,0.9,1.6,2.1,1.6,3.8
		v11.4l-11-13.9l-0.4-0.6c-0.2-0.2-0.3-0.4-0.5-0.7v0h-4.4V8c1.6,0.9,1.6,2.1,1.6,3.8v12c0,1.7,0,2.9-1.6,3.8v0.1h5.3v-0.1
		c-1.6-0.9-1.6-2.1-1.6-3.8V12.2L303.9,12.2z"/>
	<path class="st0" d="M326.5,18h2.2c0.9,0,2.2,0,2.7,0.8h0.1v-3.2h-0.1c-0.4,0.2-0.8,0.2-1.3,0.2h-3.6v-5.6c1-0.2,2-0.2,3.1-0.2
		c1.4,0,2.6,0.1,3.5,1.2h0.1V7.8h-0.1c-0.4,0.2-0.9,0.1-1.4,0.1h-9.6V8c1.5,0.6,1.4,2.8,1.4,4.1v11.3c0,1.3,0.2,3.6-1.4,4.1v0.1
		h12.5l1.4-3.9h-0.1c-1.5,1.3-3.6,2-5.6,1.8l-3.8-0.4V18L326.5,18z"/>
	<path class="st1" d="M349,13.4l3.3,10.3c1,3.1,1.2,2.9,4,4.8l6.3-20.6h-4.6V8c2.3,0.8,1.4,3.2,0.8,4.9l-3.4,11l-4.2-13
		c-0.4-1.3-0.6-2.3-0.4-3h-4.2V8c1.6,0.8,1,2.8,0.5,4.6L343.5,24L339,10.1c-0.2-0.6-0.5-1.5-0.4-2.2h-4.4V8c1.5,1,2,3,2.5,4.6
		l3.5,11.1c1,3.1,1.3,2.9,4,4.9L349,13.4L349,13.4z"/>
	<path class="st0" d="M380.7,7.4c-6.3-0.1-11.2,4.6-11.2,10.3c0,6.1,5,10.4,11,10.4c6,0,11-4.4,11-10.6
		C391.4,12.2,387,7.4,380.7,7.4L380.7,7.4z M380.5,9.6c4.7,0,7.5,4.2,7.5,8.6c0,4.5-2.9,7.8-7.5,7.8c-4.7,0-7.7-4.3-7.7-8.5
		C372.9,12.9,375.8,9.6,380.5,9.6L380.5,9.6z"/>
	<path class="st1" d="M392.1,7.9L392.1,7.9c1.5,0.7,1.3,2.9,1.3,4.2v11.3c0,1.3,0.2,3.6-1.3,4.1v0.1h5.7v-0.1
		c-1.5-0.5-1.3-2.7-1.3-4.1V10c0.7-0.1,1.3-0.2,2-0.2c2-0.1,3.9,1.2,3.9,3.3c0,2.8-2.8,3.9-5.2,4.3l2.8,4.2l3.7,4.5
		c0.9,1.1,1.9,1.5,3.5,1.5h2.8c-1.7-1.1-3.6-2.6-4.9-4.2l-4.3-5.4c2.5-0.6,4.8-2.6,4.8-5.3c0-2.7-2.2-4.8-6.2-4.8H392.1L392.1,7.9z"
		/>
	<path class="st0" d="M414,25.2V12.2c0-1.4-0.2-3.6,1.3-4.1V7.9h-5.7V8c1.5,0.6,1.3,2.8,1.3,4.1v11.3c0,1.3,0.2,3.6-1.3,4.1v0.1H422
		l1.6-4h-0.1c-1.5,1.3-3.3,2-5.3,1.8L414,25.2L414,25.2z"/>
	<path class="st0" d="M429,18h2.2c0.9,0,2.2,0,2.7,0.8h0.1v-3.2h-0.1c-0.4,0.2-0.8,0.2-1.3,0.2H429v-5.6c1-0.2,2-0.2,3.1-0.2
		c1.4,0,2.6,0.1,3.5,1.2h0.1V7.8h-0.1c-0.4,0.2-0.9,0.1-1.4,0.1h-9.6V8c1.5,0.6,1.4,2.8,1.4,4.1v11.3c0,1.3,0.2,3.6-1.4,4.1v0.1
		h12.5l1.3-3.9h-0.1c-1.5,1.3-3.6,2-5.6,1.8l-3.8-0.4V18L429,18z"/>
	<path class="st0" d="M452.5,20.3l1.6,4.2c0.8,2.1,1.1,2.4-0.4,3.1v0.1h6.1v-0.1c-1.7-0.9-2.2-2.5-2.9-4.3l-6.2-15.4h-4.7V8
		c1.4,0.5,0.9,1.7,0.5,2.8l-5,12.5c-0.7,1.7-1.2,3.4-2.9,4.3v0.1h5.5v-0.1c-1.4-0.5-1.2-1.4-0.6-3.1l1.6-4.2H452.5L452.5,20.3z
		 M451.6,18h-5.9l3-7.6L451.6,18L451.6,18z"/>
	<path class="st1" d="M464,12.2l10.3,13c1.3,1.7,2.2,2.7,4.4,3.4V11.8c0-1.7,0-2.9,1.6-3.8V7.9H475V8c1.6,0.9,1.6,2.1,1.6,3.8v11.4
		l-11-13.9l-0.4-0.6c-0.2-0.2-0.3-0.4-0.5-0.7v0h-4.4V8c1.6,0.9,1.6,2.1,1.6,3.8v12c0,1.7,0,2.9-1.6,3.8v0.1h5.3v-0.1
		c-1.6-0.9-1.6-2.1-1.6-3.8V12.2L464,12.2z"/>
	<path class="st1" d="M493.1,8.1c-1.4-0.5-3-0.7-4.5-0.7c-3.7,0-7.5,1.4-7.5,5.2c0,6.4,10.3,5.5,10.3,10.2c0,2.1-2.6,3.1-4.3,3.1
		c-2.3,0-4.8-1-6.6-2.5l0.9,3.8c1.7,0.6,3.5,0.9,5.4,0.9c4.7,0,8-3,8-6.2c0-5.6-10.3-5.5-10.3-9.6c0-2.1,2.2-2.7,3.9-2.7
		c1.7,0,3.5,0.7,4.7,1.9V8.1L493.1,8.1z"/>
</g>
</svg>
