<svg id="_ÎÓÈ_1" data-name="—ÎÓÈ_1" xmlns="http://www.w3.org/2000/svg" viewBox="0 0 150 150"><defs><style>.cls-1{fill:#e5554f;}</style></defs><title>LUNOMarquetteArtboard 16</title><path class="cls-1" d="M142.73,46.32q-22.2-4.78-44.54-8.88c-1.74-.32-4.14.86-5.7,2-9.3,7.09-17.66,15.85-30.59,16a3,3,0,0,0-.38.05c-2.93.41-4.81,2.09-4.77,5s-1.6,3.89-4,4.62a35,35,0,0,0-18,12.31c-3.16,4.14-7.27,6.6-11.92,8.6s-9.24,4.27-13.7,6.71c-1.5.82-2.49,2.56-4.25,4.45l9.67,3c-3.94,2.75-7.38,5.11-10.75,7.56-.65.47-1.47,1.35-1.41,2s1.11,1.27,1.85,1.5a22,22,0,0,0,4.12.7c3.27.34,6.57.46,9.82.87L24.74,114q7.14,1.32,14.28,2.68,6.43,1.42,12.81,3a62.45,62.45,0,0,0,12.7,1.91c2.41.42,4.59.42,6.57-1.51,2.56-2.5,5.25-4.88,7.86-7.33L70,121.81l9.05-8.31a57.21,57.21,0,0,0,5.61-5.65c1-1.17,1.86-2.44,2.74-3.71L84.58,107c1.19-1.31,2.37-2.62,3.57-3.92l-.72,1,7.92-8A41.12,41.12,0,0,1,99.5,93c13.32-8.47,26.35-17.41,39.39-26.33,4.37-3,4.21-3.47-.31-6.31,2.28-2.12,4.38-4,6.35-6C149.11,50.26,148.54,47.57,142.73,46.32ZM87.64,59.77c-9.95,2.87-19.07,1.8-28.87.74C62.3,56,80.5,55.76,87.64,59.77Zm7.52,14.06c-8.82,2.08-17.66,1.29-26.5.16A7.4,7.4,0,0,1,65,72.43c5.14,0,10.3.33,15.4-.09s10.26-1.62,16.08-2.59ZM57.24,84.34c7.11.33,14.23.56,21.35.81a8,8,0,0,1,3.85.75C79.18,88,75.88,90,72.65,92.19c-4.12,2.74-8.12,5.66-12.31,8.29-1.11.7-3.12,1.31-4,.78C48.19,96.38,39,96.56,30.08,95.39c-.63-.08-1.25-.18-1.87-.3-.08,0-.13-.17-.38-.51a11.56,11.56,0,0,1,1.74-1.2A27.84,27.84,0,0,0,42.2,81.58a14.46,14.46,0,0,1,8.87-7c.28,1.58.85,3,.69,4.28C51.25,83.14,53.83,84.19,57.24,84.34Zm-1.4-2.6c-.76-.11-1.36-1.33-2-2,11.8,2.64,23.2,1.57,34.62.95C77.67,84.28,66.75,83.31,55.84,81.75ZM55,75.52c2.61-2.87,5.47-2.87,8.4-.79a12,12,0,0,0,6,1.83c5.31.3,10.64.19,16,.26.58,0,1.16.11,2,.19C82.64,80.22,59.19,79,55,75.52Zm13.25-6.65c4.52-.38,9.06-.57,13.54-1.21,2.82-.4,5.51-1.62,8.32-2.16a28.32,28.32,0,0,1,5.27-.06l.11,2C86.73,71.1,77.46,69.87,68.22,68.88Zm16.24-3.4c-7.45,0-14.9.06-22.35-.06a3.65,3.65,0,0,1-2.66-2L88,61.86C88.36,64.11,87.22,65.48,84.46,65.48Zm52-.24c-12.25,8.27-24.31,16.86-36.86,24.64-6.9,4.28-12.24,9.85-17.53,15.76-3.81,4.26-8.21,8-12.2,12.07-1.68,1.72-3.37,1.62-5.49,1.21-15-2.93-30-5.82-45.06-8.56-3.72-.68-7.55-.77-11.45-1.62,4.62-3.42,7.75-9.06,15.45-6.35,6.42,2.26,13.5,2.58,20.16,4.27a111.64,111.64,0,0,1,14.76,5.15c2.67,1.09,4.51.41,5.94-1.65C69.83,102.08,78,97.45,86.65,93.52a61.41,61.41,0,0,0,6-3.28c8.2-4.88,16.44-9.69,24.52-14.75,5.6-3.5,11-7.4,16.48-11A17.71,17.71,0,0,1,137,63.1l.45,1.07A6.51,6.51,0,0,1,136.48,65.24Zm-13,4.29c-4.47,2.69-9.35,4.7-13.87,7.31C104.22,80,99,83.43,93.72,86.68a95.64,95.64,0,0,1-10.53,6.13c-8,3.6-15.18,8.28-20.93,15a3.8,3.8,0,0,1-3.4,1C47.6,103.58,35.44,102,23.44,99.65a56.41,56.41,0,0,1-13.6-4.73c4-1.91,7.83-4.09,11.92-5.67,6.08-2.35,11.34-5.54,15.37-10.87C41.48,72.63,47.66,69,54.37,66.85c2.18-.71,5.15,1,7.76,1.55-.38.79-.61,2.13-1.16,2.29a57.31,57.31,0,0,1-8.53,1.79A15.53,15.53,0,0,0,40,80.88c-3.59,6.54-9.21,10.39-16.23,12.47A21.76,21.76,0,0,0,21,94.76c1.67,1,2.69,1.92,3.83,2.12,4.51.79,9.12,1.07,13.58,2.05a142,142,0,0,1,16.06,4.45c2.95,1,4.76.86,7.48-1.15,8-5.91,16.44-11.13,24.7-16.63Q96,79.36,105.4,73.08a6.73,6.73,0,0,0,1.27-1.62l-.77-1L91.14,80.24l-.5-3.82,4.5-2.56,0,0c2.59-.41,4.08-2.24,3.62-4.53s-1.74-5.47-3.22-5.8c-4.24-.94-5.9-4.26-7.06-5.59,3-3.77,5.94-7.63,9.14-11.24.64-.73,2.42-.92,3.53-.68,5.27,1.15,10.49,2.54,15.73,3.84l.51-1.58c-1-.41-2-.9-3.08-1.21-4.4-1.26-8.77-2.64-13.23-3.58a6.23,6.23,0,0,0-4.65,1,86.52,86.52,0,0,0-7.94,7.73c-3.66,3.85-7.92,4.27-12.86,2.47L88,46.11a4.56,4.56,0,0,0,.94-.66c4.64-5.52,10.43-6.31,17.15-4.72,12.51,3,25.1,5.62,37.65,8.42a9,9,0,0,1,1.67.87C139,57.8,131.91,64.46,123.48,69.53Z"/></svg>