<svg id="_ÎÓÈ_1" data-name="—ÎÓÈ_1" xmlns="http://www.w3.org/2000/svg" viewBox="0 0 150 150"><defs><style>.cls-1{fill:#600;}</style></defs><title>LUNOMarquetteArtboard 8</title><path class="cls-1" d="M119.17,46.44a1.08,1.08,0,0,0-.93-.25h0a4,4,0,0,0-.67-.27c0-.1-.05-.21-.07-.28a2.84,2.84,0,0,1,0-.57s0-.09,0-.14a.79.79,0,0,0,.32-.61.93.93,0,0,0-.13-.44,1.42,1.42,0,0,0,.82-.54c1.46-2.22,1.38-5.35-.22-8.37s-4.3-5.09-7-5.39a2.73,2.73,0,0,0-.35-.26l-.18-.12c-.24-.19-.31-.49-.39-1a5.52,5.52,0,0,0-.15-.67.85.85,0,0,0-.09-.18,1.11,1.11,0,0,0,.13-.31c.66-2.82-1.23-6.14-3.33-7.83s-5.26-3-7.74-2.24l-.07-.05A1.17,1.17,0,0,0,98,16.56a3,3,0,0,1-.9-.23c-.14,0-.24-.19-.41-.42l-.19-.25a2.43,2.43,0,0,0,.16-1.72c-.72-2.69-5.36-5.15-7.1-5.56-2.39-.57-5.6-.7-7.87.39v0l-.19.1a1.8,1.8,0,0,1-.34.1V9a4.86,4.86,0,0,0-.84.65,1.23,1.23,0,0,0-.39.92l-.22.08-.06.05-.07,0a.72.72,0,0,0-.34-.25l0,0C78.24,8.07,74.89,7.06,73,6.83A13.56,13.56,0,0,0,63.5,9.45a1,1,0,0,0-.53.88l-.06.08-.14.19h0a3.15,3.15,0,0,0-.27.43l-.09.15a2.42,2.42,0,0,1-.45.58,1.72,1.72,0,0,1-.85.1,2.53,2.53,0,0,0-.31-.33c-1.63-1.39-5.25-1.17-6.38-1-4,.67-6.85,4.23-8.19,7.35a1.2,1.2,0,0,0,.28,1.37c0,.09,0,.18,0,.26a2.92,2.92,0,0,1-.09.7c-.06.19-.17.28-.43.46l-.15,0a1.67,1.67,0,0,0-1.12-.52c-2.43.16-4.88,1.59-7.48,4.36-1.5,1.6-4.74,5.62-2.44,8.32a1.28,1.28,0,0,0,.31.26,3.12,3.12,0,0,0-.09.59,2.12,2.12,0,0,1,0,.37.71.71,0,0,1-.47.54.74.74,0,0,0-.5.47.9.9,0,0,0-.29.69,1,1,0,0,0,.05.27c-2.84.12-4.44,4.5-5.21,6.65l-.06.17c-.41,1.13-1.25,4-.26,6a3.43,3.43,0,0,0,2,1.75,3.6,3.6,0,0,0,.36,1.1,2.66,2.66,0,0,1,.15.36,2.39,2.39,0,0,1,0,1.52,1.81,1.81,0,0,0-1.46.33h0c-2.48,2.33-3.32,7.63-1.81,11.34a5.66,5.66,0,0,0,5.39,3.89H33a1.44,1.44,0,0,0,.65-.16,2,2,0,0,1,.18.73,1.79,1.79,0,0,1-.15.76c0,.12-.08.24-.12.36a.84.84,0,0,0,.17.78c-1.62,2.91-2,7.45,0,10.07,1.68,2.16,4.14,3.23,7.48,3.23a19.1,19.1,0,0,0,2.54-.18,1.64,1.64,0,0,0,.3-.09,1.06,1.06,0,0,1,.89.53,2.36,2.36,0,0,1,.25.8,2,2,0,0,0,.34.95,6.15,6.15,0,0,0,1.82,6.2l-.23.16v0a1.09,1.09,0,0,0-1.24.31c-3.48,4.78-5.46,10.53-7.38,16.09-.4,1.15-.79,2.3-1.2,3.42-.76,2.11-1.59,4.23-2.4,6.28s-1.67,4.24-2.44,6.4c-.4,1.12-.88,2.22-1.34,3.28-1.22,2.8-2.49,5.7-2.32,9.06a1.28,1.28,0,0,0,1,1H30a.77.77,0,0,0,.73-.5l.52-1.28a2,2,0,0,0,2-.47c2.41-3.14,10.6-6.68,14.1-4.51s4.74,5.54,6,9.09a37.14,37.14,0,0,0,2,4.86,1.83,1.83,0,0,0,1.52.79,1.33,1.33,0,0,0,.32,0,1,1,0,0,0,.76-1c0-.09,0-.19,0-.28,1.84-5.47,4.12-10.91,6.34-16.17,3.59-8.53,7.31-17.34,9.24-26.58.14-.65-.52-1.17-1-1.31a.83.83,0,0,0-1.09.47h0c-.8,2.15-1.58,4.3-2.36,6.46-2,5.53-4.06,11.25-6.49,16.7-.58,1.31-1.21,2.62-1.84,3.93a72.41,72.41,0,0,0-4.09,9.77c-1.83-5-5.5-9.64-10.52-10a21.82,21.82,0,0,0-13.31,4.12c1.82-4.58,3.57-9.2,5.29-13.71,1.17-3.09,2.37-6.22,3.59-9.36.07.34.14.69.23,1l-.9,2.37c-1.66,4.41-3.37,9-5.32,13.33l-.21.59.52.24a.71.71,0,0,0,.3.07.68.68,0,0,0,.61-.37c2.48-5.09,4.48-10.48,6.42-15.68l.2-.54.09,0c-1.22,3-2.39,6.1-3.45,9.19l-.14.63.53.2a.73.73,0,0,0,.25,0,.69.69,0,0,0,.65-.42c1.78-4.47,3.38-8.44,4.89-12.13l.13-.05c-.93,2.22-1.88,4.48-2.73,6.76l-.15.63.54.21a.75.75,0,0,0,.27.05.69.69,0,0,0,.65-.42c.24-.6.5-1.2.74-1.8l.48.17a.73.73,0,0,0,.25,0,.68.68,0,0,0,.65-.43c.75-2,1.54-4,2.33-5.94-.35,1-.7,2-1.07,2.93l-.16.62.53.21a.73.73,0,0,0,.28.05.69.69,0,0,0,.64-.41c.69-1.59,1.3-3.22,1.9-4.8l0-.11.26.12a.73.73,0,0,0,.29.06.69.69,0,0,0,.63-.39c.64-1.36,1.31-2.69,2-4a.65.65,0,0,0,.16.12c-.28.58-.55,1.16-.8,1.72l-.2.59.51.24a.7.7,0,0,0,.3.07.68.68,0,0,0,.61-.37l.91-1.79.38.18a.72.72,0,0,0,.31.07.68.68,0,0,0,.61-.37c.27-.54.57-1.07.88-1.6h.09a.67.67,0,0,0,.48-.2l.26-.3c-.28.54-.55,1.08-.79,1.63l-.21.58.52.24a.69.69,0,0,0,.3.07.67.67,0,0,0,.6-.37c.3-.62.63-1.23,1-1.84l-.22.52.5.27a.71.71,0,0,0,.93-.25c.62-1.08,1.21-2,1.79-2.93a10.8,10.8,0,0,0,4,1.88,12.52,12.52,0,0,0,3,.35,12.12,12.12,0,0,0,3.85-.63l.15.56h.09l0,.16a.64.64,0,0,0-.1,1.26c-.16,4.33,1.61,8.68,3.33,12.9.84,2.06,1.64,4,2.2,5.93.73,2.49,1.25,5.13,1.75,7.69.9,4.62,1.83,9.4,4.09,13.64a1.56,1.56,0,0,0,.69.57,4.27,4.27,0,0,0,.55,2,1.76,1.76,0,0,0,1.34.71h.09a.88.88,0,0,0,.77-.57h0c.15-.42.32-.88.5-1.38,1.39-3.9,3.71-10.43,7.55-12A5.28,5.28,0,0,1,102,132a22.66,22.66,0,0,1,4,2.73,17.7,17.7,0,0,0,5.82,3.46c.37.11,1.72.15,2.18-.54a1,1,0,0,0-.14-1.2c-.26-.32-.6-.71-1-1.17a2.21,2.21,0,0,0,1.09.31,1.43,1.43,0,0,0,.45-.07.9.9,0,0,0,.62-1.06c-.94-5.2-2.36-10.44-3.72-15.5l-.78-2.89c-2-7.63-4.88-17.26-8.84-24.1a.94.94,0,0,0-.14-.18,13.37,13.37,0,0,0,5.19-2.28,9,9,0,0,0,3.52-5.81,3.8,3.8,0,0,0-.48-2.15c.07-.18.12-.37.18-.55.21-.69.36-1.13.84-1.37a1.84,1.84,0,0,1,.28-.08,1.59,1.59,0,0,0,1.08-.67c2.38-.94,4.85-3.66,5.79-5,1.85-2.68,2.06-7-.66-9.61v0a2.5,2.5,0,0,1,0-.53,1.76,1.76,0,0,1,.26-.65l.13-.13.07-.06a2.6,2.6,0,0,0,.36,0,.69.69,0,0,0,.54-.67,1,1,0,0,0-.13-.66,1.42,1.42,0,0,0,.19-.07A8,8,0,0,0,122.65,55,10.08,10.08,0,0,0,119.17,46.44ZM44.11,105.76c-.1-.27-.2-.54-.28-.81l.2-.49.25.65,0,.12Zm.86,2.45-.1-.32.23-.6.12.32Zm.85-6.54-.34-.82.32-.76.34.83Zm.71-3.31.18-.43.37.92-.15.31Zm.26,5.62-.19-.45v0l.31-.75.21.5ZM108.37,37h0a.72.72,0,0,0,.15,0,.75.75,0,0,0,.54-.22l.3-.37-.2-.37a3,3,0,0,0-.39-.54l.05,0,.25-.4.11,0,.55,0,.28-1-.12-.07.35-.11c.09,0,.18.07.27.09l.56.08.31-1-.05,0,0,0,.21-.09c.09,0,.18.08.28.1l.16,0a.66.66,0,0,0,.55-.28l0,0A10.9,10.9,0,0,1,114.42,35c1.68,2.52,2.08,5.3,1.06,7.44a1.06,1.06,0,0,0-.1.5,12.63,12.63,0,0,0-4.89,1.2,1.3,1.3,0,0,0-.06-.49l-.16-.43-.23,0c0-.13.08-.26.13-.39l.18-.53L109.8,42l.14-.48.12-.61-.48-.12v0l0-.6-.68-.06,0-.57-.17,0c.1-.21.2-.42.29-.64l.18-.54h0l.08-.24-.94-.46-.09.14v-.24l.18-.49Zm-9-11.8-.09-.3.91-.22-.09-.54c-.07-.41-.15-.87-.25-1.35v0l1.05-.39,0-.18.94-.25-.09-.53a11.69,11.69,0,0,0-.57-2.19,8,8,0,0,1,3.59,1.93,7.54,7.54,0,0,1,1.69,2.63,6.45,6.45,0,0,1,.33,1.2,5,5,0,0,0,.74,2,1.86,1.86,0,0,0,.61.49h0a14.26,14.26,0,0,0-1.94,1.56c-.26.24-.53.48-.79.7s-.41.31-.65.48l-.4.29,0-.1-.49-.17,0-.18-.36-1.06-.67.19c-.06-.15-.11-.29-.18-.44l-.3-.53-.25.11c0-.09,0-.19,0-.28l0-.38-.68-.32-.09.06,0-.18-.09-.38-.55-.19-.11-.43-.59.11v0l-.05-.33a.66.66,0,0,0-.76-.54l-.07,0s0-.08,0-.11v0Zm-4.52-5.29c.09-.23.21-.48.34-.74s.31-.65.44-1a3.94,3.94,0,0,0,.77.26c-.38.46-.72.93-1,1.39l-.37.53c-.14.19-.29.38-.44.57C94.61,20.6,94.7,20.24,94.82,19.94ZM84.56,17.26c-.13-.18-.26-.35-.4-.53l.64-.44-.27-.47-.18-.3.56-.48-.29-.44-.13-.18.47-.36.19.19.89-.68-.3-.46a11,11,0,0,0-.71-1l0-.07-.27-.37a3.51,3.51,0,0,0-.44-.49,8.55,8.55,0,0,1,4-.24,7,7,0,0,1,3.42,1.86A5.91,5.91,0,0,1,93,14.44a7.08,7.08,0,0,0,1.34,1.77,1.44,1.44,0,0,0,0,.32A6.25,6.25,0,0,0,93,18.82l-.3.71a9,9,0,0,0-.72,2.14,38.72,38.72,0,0,0-4-1.59c-.73-.24-1.46-.46-2.19-.67a7.49,7.49,0,0,1-.55-.74l-.36-.45-.59.33,0,0-.08-.14,0-.06.73-.61ZM67.4,10.73A14.9,14.9,0,0,1,68.89,10c2.77-1.14,4.84-.18,7.22.93.49.23,1,.45,1.51.67v0a1.35,1.35,0,0,0,.28.44,11.71,11.71,0,0,0-.28,1.8l-.09.87c-.09.82-.17,1.67-.19,2.52h-.1l0,0,0,0a.93.93,0,0,0-.46.23l0,0-.08,0-.06-.12-.12.05-.09,0h0a1.33,1.33,0,0,0-.26-.07.62.62,0,0,0-.36-.57l-.5-.17-.27.35-.14-.16-.35.24H74.3l0,0,.11-.12L74,16.45a.67.67,0,0,0-.76-.15l-.17-.18-.43.36h0l-.36.32-.4-.31-.41.4-.15.16-.65-.36-.31.49h0l-.11.14-.4-.27-.37.43-.15.18-.23,0H69l-.13,0a.72.72,0,0,0-.19,0l.13-.13-.22-.41a3.27,3.27,0,0,0-.64-.8l.33-.4-.41-.38-.24-.2.55-.76-.4-.36-.13-.11.31-.57-.45-.31-.12-.07.35-.82L67.25,12c-.36-.19-.72-.37-1.08-.56L66,11.4A12.42,12.42,0,0,0,67.4,10.73ZM51.09,17a10.23,10.23,0,0,1,1.66-2.25,6.94,6.94,0,0,1,2.94-1.56,5.52,5.52,0,0,1,3.15.43,13.12,13.12,0,0,0,1.74.49.9.9,0,0,0,.63-.12,9.63,9.63,0,0,0,.48,1.14l.2.43c.28.62.55,1.21.87,1.78,0,.13-.1.25-.14.38h-.18v.58s0,.06,0,.1c-.06.26-.12.52-.17.78A.7.7,0,0,0,62.1,19c0-.18.08-.36.14-.54l.15-.55-1.09-.33-.19.54c0,.12-.06.25-.1.37V18.4l-1.12,0-.05.54a4.77,4.77,0,0,1-.08.49v-.13l-1.05-.05-.1.5c0,.08,0,.17-.06.25v-.13l-1.18,0,0,.56c0,.1,0,.19,0,.28h-.46l-.62,0,0,.57c0,.18,0,.37-.06.55h-1l0,.3-.76-.08-.16-.17-.31.21a3.54,3.54,0,0,0-.39-.3l.25-.74-.51-.22-.42-.15,0-.06-.76-.52L51.87,20l.17-.23-.38-.36a4.37,4.37,0,0,0-.52-.39h0a4.68,4.68,0,0,0-.66-.36l.14-.45-.18-.06C50.64,17.76,50.87,17.4,51.09,17ZM39.5,26.79a15,15,0,0,1,5.92-4.24l.28.16a17,17,0,0,1,2.18,1.4c.32.24.64.51,1,.79l.47.39,0,.22-.51.18.11.51h0c.07.33.17.67.26,1v.07a.67.67,0,0,0-.06.47l-.44.19c0-.14,0-.28,0-.42,0-.3,0-.6.05-.89l0-.57-1.14-.12-.08.56c0,.24-.05.49-.08.73l-.88,0,0,.53c0,.35,0,.7,0,1l-1,0v.56c0,.37,0,.75.05,1.11l-1.08.07v.56a8.67,8.67,0,0,0,.09,1.14l-.68,0,0,.55s0,0,0,.06l-.55,0a.65.65,0,0,0-.52-.24h0v0l-.56,0a.67.67,0,0,0-.27,0l-.08-.5-.86,0,0-.06c0-.08,0-.16,0-.24l-.11-.58-.61,0,0-.13-1,0v-.13l-.7,0a.63.63,0,0,0-.45-.39c0-.12,0-.23-.05-.35l-.11-.62-.29,0A12.53,12.53,0,0,1,39.5,26.79ZM37,34.68q.48.24.92.52a9.64,9.64,0,0,0-1-.29C37,34.84,37,34.77,37,34.68Zm-4.91,7.55a13.8,13.8,0,0,1,1-2A17.58,17.58,0,0,0,34,38.47l0,.45h.57l.68,0,0,.23.31,0,0,.28.37.07a3.53,3.53,0,0,0,.24.42l.34.42.12-.06c0,.06,0,.12,0,.19l.16.53.68-.12c0,.11.07.22.11.33l.25.51.57-.19v0l.19.46-.1.06.25.49h0c.23.44.44.89.65,1.33l.13.28c-.2-.34-.39-.68-.55-1l-.28-.51-1,.45.19.52a13.25,13.25,0,0,0,.71,1.6l-.82.43.25.51h0c.37.77.85,1.6,1.37,2.45a.7.7,0,0,0-.17.29l-.17-.22c-.21-.26-.42-.51-.62-.78l-.36-.45-.91.66.32.48c.16.22.33.44.5.65l-.37.37.39.42c.31.33.59.69.87,1.05l.38.47c-.52-.24-1.07-.43-1.55-.6-.3-.1-.57-.2-.79-.29a13.43,13.43,0,0,0-5.3-1.28s0-.09,0-.13A10.5,10.5,0,0,1,32.11,42.23Zm3.65,10.65H35c-.55,0-1.15,0-1.73.06,0-.07,0-.14,0-.2a4.82,4.82,0,0,0-.12-.78C34,52.25,34.9,52.53,35.76,52.88ZM33.9,67.22a1.65,1.65,0,0,0-.56-.45,4.74,4.74,0,0,1-2.43-3.29,10.49,10.49,0,0,1,.78-6.69l.42.31a.64.64,0,0,0,.36.11.67.67,0,0,0,.38-.14.68.68,0,0,0,.59.35h0l.45-.06,0-.06a.68.68,0,0,0,.37.12h.14l.26-.07a.68.68,0,0,0,.47.21.73.73,0,0,0,.25,0l.08,0,0,.1a.71.71,0,0,0,.58.35A5.09,5.09,0,0,0,36.71,59a.71.71,0,0,0,.59.29.79.79,0,0,0,.3-.06L38,59c.05.13.1.26.15.39l-.16.14.34.46h0a9.2,9.2,0,0,0,1,1.15l-.31.32.15.17-.31.25.34.46h0l.22.32-.4.28.3.47a8.47,8.47,0,0,0,.81,1.08h0l.32.44.13.16H40.6a12.41,12.41,0,0,0-2.13.64l-.55.2-.56.18a7.18,7.18,0,0,0-2.67,1.23A2.25,2.25,0,0,0,33.9,67.22Zm2.39,2.07a7.24,7.24,0,0,0,1-.3l-1,.61A2.94,2.94,0,0,0,36.29,69.29Zm11.53,36.45-.15.35-.07-.16.3-.73.06.15Zm.14-4.43-.24-.54.07-.17.22.59Zm-.15-21.72c-.47.35-.91.68-1.36,1l-.35.21A6,6,0,0,0,44.49,82a1.94,1.94,0,0,0-.24.36,1.72,1.72,0,0,0-.57-.25,18.64,18.64,0,0,0-2.24-.32c-2.06-.21-3.54-.36-4.58-2.57a5.94,5.94,0,0,1-.05-3.88c.09-.45.18-.91.24-1.38a.74.74,0,0,0,.26-.22l.14,0,.24.09.62.13,0-.06.1,0a.74.74,0,0,0,.23,0,.69.69,0,0,0,.32-.23.81.81,0,0,0,.45.15.77.77,0,0,0,.31-.06l.05,0,0,0a.73.73,0,0,0,.59.29.77.77,0,0,0,.23,0,.67.67,0,0,0,.48-.64,2.29,2.29,0,0,0,0-.23.76.76,0,0,0,.23,0l.17-.09a10.08,10.08,0,0,0,.84,1.26.71.71,0,0,0,.56.26.74.74,0,0,0,.34-.08l.32-.22c.22.37.45.75.7,1.13a.73.73,0,0,0,.61.32.8.8,0,0,0,.34-.08.69.69,0,0,0,.33-.33l.09,0h.07a8.6,8.6,0,0,0,1.36,2.48.72.72,0,0,0,.56.26.75.75,0,0,0,.38-.1l.46-.34L48.28,77c-.13-.33-.28-.68-.42-1,.54.3,1.08.6,1.62.92.35.33.7.66,1.06,1a.88.88,0,0,0-.22.06A12.4,12.4,0,0,0,47.81,79.58ZM60.18,95a.79.79,0,0,0-.56-.13c.16-.08.33-.16.38-.12s.17.12.26.19Zm1.54-1.78a3.35,3.35,0,0,0-.64-.31q.54-.77,1-1.56A12.73,12.73,0,0,0,61.72,93.21Zm2.09-7.74,0,0a1.05,1.05,0,0,0-.29-.21.76.76,0,0,0-1,.23,34.25,34.25,0,0,0-4.27,6.95,1,1,0,0,0,0,.7,1.46,1.46,0,0,0-.32.33,7.74,7.74,0,0,0-1.87-.28c-1.82.21-3.82-.92-4.85-1.61a5.54,5.54,0,0,1-1.46-1.34.73.73,0,0,0,.23,0,.68.68,0,0,0,.43-.58,1.93,1.93,0,0,0,0-.26h.1a.68.68,0,0,0,.51-.62c0-.09,0-.18,0-.27a.8.8,0,0,0,.18,0,.75.75,0,0,0,.29-.06l.47-.25-.07-.45a5.25,5.25,0,0,0-.34-1.15.83.83,0,0,0,.29.06.78.78,0,0,0,.3-.06l.45-.26,0-.42a2.61,2.61,0,0,0-.05-.3.91.91,0,0,0,.34.07.82.82,0,0,0,.44-.12.68.68,0,0,0,.27-.81A6.66,6.66,0,0,0,53,83.58l0,0c.1.16.19.33.3.48a.76.76,0,0,0,.61.29.78.78,0,0,0,.33-.07.69.69,0,0,0,.4-.51.67.67,0,0,0,.14,0,.71.71,0,0,0,.3-.07l.06,0,.07.07a.69.69,0,0,0,.45.16.73.73,0,0,0,.35-.1,3.94,3.94,0,0,0,.62.5.76.76,0,0,0,.83,0l.06,0a3,3,0,0,0,.72.43h0l.15.07a.78.78,0,0,0,.24,0,.79.79,0,0,0,.37-.1v.06h.13l.22.16a.72.72,0,0,0,.39.11A.74.74,0,0,0,60,85a6.21,6.21,0,0,0,.54.53.74.74,0,0,0,.48.17l.13,0,0,.1,1.07-.1v-.41l.8-.13V85l.79.26A.66.66,0,0,0,63.81,85.47Zm12.3,10.82,0,0a2.51,2.51,0,0,0-1.47.26c-2.91,1.78-6.78.92-9.44-1v0a.7.7,0,0,0,.21,0,.68.68,0,0,0,.34-.09l.42-.28L66,94.77a3.75,3.75,0,0,0-.25-.64.74.74,0,0,0,.37.11.72.72,0,0,0,.23,0l.44-.2,0-.39a2.33,2.33,0,0,0-.17-1,.7.7,0,0,0,.67,0l.45-.3-.12-.45a4.21,4.21,0,0,0-.19-.5.85.85,0,0,0,.41.11.79.79,0,0,0,.44-.13.65.65,0,0,0,.29-.53l.13,0a.77.77,0,0,0,.36-.09.66.66,0,0,0,.31-.8c-.06-.17-.14-.33-.21-.5a.73.73,0,0,0,.46-.23l.1-.15h.08a.75.75,0,0,0,.47-.16l.27-.26a4.33,4.33,0,0,0,.61.28.74.74,0,0,0,.25,0,.79.79,0,0,0,.66-.32l.17-.35.7.31.14-.24,0,.06.06,0a3.63,3.63,0,0,0,.66.27l.19,0a.7.7,0,0,0,.57-.31l.2.12.07-.09.62.21,0,.16.66.17c-.17.73-.28,1.46-.39,2.21l-.2,1.31C75.4,93.83,75.2,95.15,76.11,96.29Zm1.75,3.12a.71.71,0,0,0-.81-.22.68.68,0,0,0-.22.14H76.7l.51-.33.89.24.2.06c0,.07,0,.13,0,.2ZM78,94.72c0-.68.09-1.37.16-2,0-.31.06-.63.09-.95.07.35.13.71.18,1.09a13.2,13.2,0,0,0,.3,1.65A4.81,4.81,0,0,0,78,94.72Zm.54-11a27.65,27.65,0,0,1-3.46-4.39.7.7,0,0,0-.9-.26l-.52.31.17.5a10.2,10.2,0,0,0,3.5,4.56c-.62,0-1.24.08-1.86.08A35,35,0,0,1,72,79.23a.79.79,0,0,0-1-.35.68.68,0,0,0-.4.85h0a12.77,12.77,0,0,0,2.72,4.77c-.53,0-1.06-.08-1.58-.14l-.2-.33c-1-1.73-1.94-3.45-2.95-5.37a.74.74,0,0,0-1-.29l-.54.34.24.51c.16.34.31.69.46,1a18.85,18.85,0,0,0,2.07,3.82c-.68-.12-1.37-.27-2-.44l-.12-.4a54.55,54.55,0,0,0-3-7.36.78.78,0,0,0-1-.34.67.67,0,0,0-.34.89c.47,1.06.91,2.16,1.33,3.23s.95,2.37,1.48,3.53c-.47-.15-.95-.3-1.42-.47-.36-.7-.72-1.38-1.08-2.05S63,79.3,62.62,78.6a39.92,39.92,0,0,1-1.92-4.68l-.42-1.16a.72.72,0,0,0-.84-.43.66.66,0,0,0-.53.7,19.54,19.54,0,0,0,3.28,8.61L62,81.57a32.86,32.86,0,0,1-9.1-6.38c-.82-3.11-1.84-6.17-2.85-9.13a86.4,86.4,0,0,1-3.9-14,.72.72,0,0,0-.83-.58.67.67,0,0,0-.6.74c.75,6.74,3,13.32,5.27,19.7a31.76,31.76,0,0,1-5.9-12.64,29.06,29.06,0,0,1-.61-4.86v-.52A32.2,32.2,0,0,1,49,35,24.09,24.09,0,0,1,65,24.4a.83.83,0,0,0,.77-.89,2,2,0,0,0-1.57-1.44,36,36,0,0,1,16-1.16c11.24,1.44,20,7.69,24.71,17.59,7.6,16,.76,34-16.27,42.79a29.58,29.58,0,0,1-4.39,1.83,16.33,16.33,0,0,0-2.67-2.25.69.69,0,0,0-.9.14l-.33.46.38.37c.57.54,1.17,1.05,1.77,1.56l.2.17-.68.18-.81-.87a28.13,28.13,0,0,1-2.43-2.8.68.68,0,0,0-.63-.27l-.42.09-.26.67.2.27a24.7,24.7,0,0,0,2.88,3.23c-.6.11-1.2.2-1.8.28l.15-.2Zm3.88,12a.68.68,0,0,0,.21-.19.75.75,0,0,0,.26.05.72.72,0,0,0,.32-.08l.45-.29-.11-.45a4.44,4.44,0,0,0-.53-1.24.65.65,0,0,0,.16-.71c-.06-.17-.14-.33-.21-.49a.71.71,0,0,0,.37-.15l.44-.45-.3-.4a.74.74,0,0,0,.23-.1l.45-.4-.26-.46a15.63,15.63,0,0,0-.87-1.35.64.64,0,0,0,.17-.1l.34-.33h0a.7.7,0,0,0,.56-.3l.19-.36a.68.68,0,0,0,.26-.19l.29-.42,0,0a.67.67,0,0,0,.11-.09l.08,0a.65.65,0,0,0,.36-.11l.48-.36h0l.66-.37.32,0,.4.27.38-.43h0a.7.7,0,0,0,.53-.24l.17-.23.15.1.32-.32.47.13.22-.43s0-.1.06-.14l0,.19,1.09,0,.08-.51.13,0c.23.5.48,1,.73,1.47a20.88,20.88,0,0,1,1,2A8.54,8.54,0,0,1,93,89.92a7.16,7.16,0,0,0,.71,2.24c-.22.28-.42.56-.61.83a8,8,0,0,1-1.21,1.48,11.23,11.23,0,0,1-3.54,1.92A7.48,7.48,0,0,1,82.46,95.74Zm1,14a16.53,16.53,0,0,0-1.41-.89l-.26-.56a14.64,14.64,0,0,1,1.46,1Zm-3.17.83-.26-.74q.21.38.4.78ZM79.82,104l-.08-.18.54.09.19,0,.18.31Zm24,3.32c.68,1.62,1.31,3.16,1.85,4.68a82.61,82.61,0,0,1,2.51,9.36c1,4.52,2.08,9.19,4.19,13.38-3.19-3.34-9.52-8.58-16-6-2.58,1-6.8,5.63-8.7,10a244,244,0,0,0-6.89-26.59l.33.19c1.19,2.83,2.3,5.73,3.36,8.55s2.2,5.81,3.4,8.68a.69.69,0,0,0,.64.41.74.74,0,0,0,.28-.05l.57-.3-.2-.53c-.73-1.89-1.42-3.8-2.11-5.7l-.32-.88c.57,1.26,1.13,2.52,1.66,3.78a.7.7,0,0,0,.66.42.76.76,0,0,0,.28-.05.65.65,0,0,0,.38-.84c-1.22-3.2-2.64-6.34-4.1-9.42a.72.72,0,0,0,.23.05.7.7,0,0,0,.39-.12h0l.74,1.84.88,2.18a.69.69,0,0,0,.65.42.73.73,0,0,0,.26,0l.58-.29-.18-.53a105.35,105.35,0,0,0-4.41-10.75l.11-.14-.36-.4,0,0-.3-.62h0l.09,0,.17.25a52.73,52.73,0,0,1,3.43,5.6.71.71,0,0,0,.65.38.77.77,0,0,0,.33-.07l.55-.34-.24-.52a48.56,48.56,0,0,0-3.66-6.14c-.45-.68-.89-1.34-1.32-2l.85.32,1.11,1.67c1.07,1.59,2.18,3.24,3.12,4.89a.7.7,0,0,0,.92.25l.52-.33-.25-.51A64.72,64.72,0,0,0,86.64,105l0-.07a.67.67,0,0,0,.45-.42l.13-.57.56.73a.67.67,0,0,0,.54.27.68.68,0,0,0,.38-.11l.33-.26c.28.44.57.87.85,1.32a.66.66,0,0,0,.57.31.76.76,0,0,0,.38-.1l.51-.36-.28-.49a55.48,55.48,0,0,0-3-4.75l.68.28A17.31,17.31,0,0,0,90.48,103l.22.26a.7.7,0,0,0,.53.23.71.71,0,0,0,.44-.15l.44-.43-.33-.45-.61-.83c-.3-.4-.59-.79-.86-1.18l.12-.39-.48-.26-.07,0c-.1-.15-.2-.3-.29-.46,3.19-.87,7.11-3,7.91-6.1a1.33,1.33,0,0,0-.81-1.57l-.06,0a2.84,2.84,0,0,1,.15-.46c.11-.25.24-.33.57-.39a3.85,3.85,0,0,0,1.71,1,5,5,0,0,0,1.15.16.81.81,0,0,0-.06.24h0C99.67,97.31,101.79,102.4,103.83,107.33Zm-20.37,4.51c.48.37,1,.75,1.44,1.15l.35.83a12,12,0,0,0-1.53-1.44ZM107,82.58a6,6,0,0,1,0,.62A4.83,4.83,0,0,1,105.7,86a9.51,9.51,0,0,1-3.55,2.56c-1,.46-1.72.14-2.75-.29-.33-.14-.68-.29-1-.41a1.92,1.92,0,0,0-.26-.05v-.06L98,87.14l.13-.15-.3-.38c-.09-.11-.19-.21-.28-.32l.11-.06.4-.4-.28-.43a6.92,6.92,0,0,0-1.05-1.24l.19-.19-.24-.37h0l.34-.4-.27-.4,0,0,.1-.13,0,0a.65.65,0,0,0,.29-.2l.32-.5-.36-.33.26-.22L97.25,81l.15-.16a.7.7,0,0,0,.32.08.72.72,0,0,0,.52-.21l.36-.45-.25-.3.18-.26h.05v.05l1.07,0,.06-.5s0-.06,0-.1l.44,0V79h0l.56,0,0-.35h.34l0-.38h.11l.13-.51v-.06l.23,0,0-.08.68,0,0-.13,0,0h0c0,.06,0,.13.05.18l.22.52.54-.14v0l.25-.08a1.19,1.19,0,0,0,.16.19l.43.31,0,0,.22.33.76-.37a10.4,10.4,0,0,1,1.58,2.08,5.31,5.31,0,0,0,.36.58A4.13,4.13,0,0,0,107,82.58Zm8.9-11.72a10.26,10.26,0,0,1-5.74,5.51,2.64,2.64,0,0,0-.24-.32l-.3-.26-.16,0v0l-.14-.62-.68.09-.07-.06a3,3,0,0,0-.09-.32l-.29-.55-.18.07-.1-.09,0,0,.32-.47-.66-.54c-.21-.17-.43-.35-.66-.52l0-.08a.69.69,0,0,0,.37-.23l.3-.47-.36-.36-.19-.16a.63.63,0,0,0,0-.14.68.68,0,0,0,.48-.27l.27-.46-.35-.33.33-.39-.05-.08a.68.68,0,0,0,.13-.12.65.65,0,0,0,.09-.24l.41-.69.42.18.35-.6.32.11.46-1-.21-.12.28-.42-.28-.22,0-.06.06,0,.18-.29h0l.19-.3.19-.12.05.09.32.46,1-.5-.19-.49c-.05-.14-.12-.28-.18-.42l.08-.05.35.41.92-.61-.16-.29a10.11,10.11,0,0,0,2.73,1.15,15.71,15.71,0,0,0,.44,1.57A4.76,4.76,0,0,1,115.87,70.86Zm-2.52-8.79.6.11,1.1.2h.05a3.79,3.79,0,0,0-.22.48l-.1,0a8,8,0,0,1-.82-.37C113.76,62.35,113.55,62.21,113.35,62.07Zm3.86-3-.68-.64-.45-.4-.44.15-.4-.48-.41-.45-.47.39c-.16-.16-.32-.32-.49-.47l-.41-.41-.26.26-.22-.24-.48-.4-.17.17-.52-.56-.44-.43-.16.15-.3-.2a1.19,1.19,0,0,0,.05-.79l0-.06a1.29,1.29,0,0,0,.07-.16,1,1,0,0,0,0-1,4.67,4.67,0,0,0,.36-.53l.26-.55-.4-.23.06-.08-.17-.14.09-.11-.27-.24h0l.29-.5-.06,0,.41-.45-.4-.41a.64.64,0,0,0-.14-.09l.12-.17.07-.13h0a2.35,2.35,0,0,0,.3-.08.7.7,0,0,0,.49.18l0,0,0,0,.25.19a.67.67,0,0,0,.38.11.7.7,0,0,0,.18,0l.14,0,.18-.14.36.27a.7.7,0,0,0,.85-.08l.34-.39v0a3.32,3.32,0,0,0,.43.2.71.71,0,0,0,.25,0,.76.76,0,0,0,.45-.16l.32.25.38-.37.45-.42.17.07a.76.76,0,0,0,.85-.29h0c.19.38.41.76.63,1.13a5.87,5.87,0,0,1,1,2.29A9.12,9.12,0,0,1,117.2,59.07Z"/><path class="cls-1" d="M87.17,103.94l-.47-.21-.29-.12.29.1a.71.71,0,0,0,.23,0H87Z"/><polygon class="cls-1" points="111.25 52.94 111.24 52.95 111.24 52.94 111.25 52.94"/><path class="cls-1" d="M63.75,18.86l-.09,0v0Z"/><polygon class="cls-1" points="45.88 52.04 45.88 52.04 45.88 52.05 45.88 52.04"/><path class="cls-1" d="M59.15,95.08a.66.66,0,0,0-.13.19l-.1,0,.11-.15Z"/><path class="cls-1" d="M56.54,96.4l-.17.3-.09.15h0l.16-.25.12-.2Z"/><path class="cls-1" d="M58.41,95.71a.64.64,0,0,0,0,.29l-.11-.13-.06,0Z"/><path class="cls-1" d="M54.4,96.56l-.13-.19.32,0A.76.76,0,0,0,54.4,96.56Z"/><path class="cls-1" d="M78.92,96.8l.4.16v0l-.55-.05Z"/><path class="cls-1" d="M81.66,100.42l-.05-.12.54.22,0,.07Z"/><path class="cls-1" d="M48.85,22.25l-.08-.06,0,0Z"/><path class="cls-1" d="M47.38,96.34l0,.11,0-.1Z"/><path class="cls-1" d="M48.75,103.18l0,.12v0l0-.12Z"/><path class="cls-1" d="M78.95,101.32l-.28,0-.07-.18.28.06Z"/><path class="cls-1" d="M85.8,99.68l0,0,.45.7Z"/><path class="cls-1" d="M61.8,99.08h.07c-.19.31-.39.63-.57,1C61.47,99.72,61.63,99.4,61.8,99.08Z"/><path class="cls-1" d="M46.8,108.07l0-.1.31-.75h0l.08,0-.17.41-.21.5Z"/></svg>