<svg id="_ÎÓÈ_1" data-name="—ÎÓÈ_1" xmlns="http://www.w3.org/2000/svg" viewBox="0 0 150 150"><defs><style>.cls-1{fill:#600;}.cls-2{fill:#e5554f;}</style></defs><title>LUNOMarquetteArtboard 4</title><path d="M21.1,38.72a98.89,98.89,0,0,1,13.81-9c-2.61,2.65-7.12,5.17-10.74,7.68-1.54,1.07-4,2.18-3.07,4.17C27.77,37.41,34.21,33,40.83,28.85c-.92-5.7-8.42-7.25-14-4.82C21.82,26.18,19.57,32.6,21.1,38.72Z"/><path class="cls-1" d="M66.43,67.08c-2.77,3.15-2.54,7.36-2,11.84a96.63,96.63,0,0,1,13.81-9c-2.61,2.65-7.12,5.17-10.74,7.68-1.56,1.07-4,2.18-3.07,4.17,6.66-4.15,13.1-8.53,19.73-12.72C82.9,61.34,71,61.88,66.43,67.08Z"/><path class="cls-2" d="M109.41,26.87c-2.77,3.15-2.54,7.36-2,11.84a97.37,97.37,0,0,1,13.81-9c-2.61,2.65-7.11,5.17-10.74,7.68-1.56,1.07-4,2.18-3.07,4.17,6.67-4.15,13.11-8.53,19.73-12.72C125.88,21.14,114,21.68,109.41,26.87Z"/><path d="M25.71,39.58c-1.41,1-3.88,1.75-3.95,3.73,4.94-2.58,9.94-6.71,14.69-9.87,1.68-1.11,3.93-1.79,4.82-3.73-.28,0-.3-.28-.66-.22C36,32.89,30.42,36.39,25.71,39.58Z"/><path class="cls-1" d="M69.06,79.79c-1.4,1-3.88,1.75-4,3.73,4.94-2.58,9.94-6.71,14.69-9.87,1.69-1.11,3.93-1.79,4.82-3.73-.28,0-.3-.28-.66-.22C79.34,73.09,73.78,76.58,69.06,79.79Z"/><path class="cls-2" d="M112,39.58c-1.4,1-3.88,1.75-3.94,3.73,4.94-2.58,9.94-6.71,14.68-9.87,1.68-1.11,3.93-1.79,4.82-3.73-.28,0-.3-.28-.65-.22C122.32,32.89,116.75,36.39,112,39.58Z"/><path d="M41.05,31.92c-6.11,4.42-12.85,8.2-18.85,12.71,1.27.42,2-1.43,3.51-1.53-.77,1.06-2.27,1.39-2.85,2.63.27.46.6.85.88,1.31,6.13-3.73,11.72-8,17.75-11.84C41.24,34.22,42,32.2,41.05,31.92Z"/><path class="cls-1" d="M84.4,72.12c-6.1,4.42-12.84,8.2-18.85,12.71,1.27.42,2-1.43,3.51-1.53-.77,1.06-2.27,1.39-2.85,2.63.27.46.61.85.87,1.31,6.15-3.73,11.72-8,17.77-11.84C84.59,74.42,85.37,72.4,84.4,72.12Z"/><path class="cls-2" d="M127.39,31.92c-6.11,4.42-12.85,8.2-18.86,12.71,1.28.42,2-1.43,3.51-1.53-.76,1.06-2.27,1.39-2.85,2.63.27.46.6.85.87,1.31,6.14-3.73,11.72-8,17.76-11.84C127.57,34.22,128.34,32.2,127.39,31.92Z"/><path d="M41.27,36.3c-5.58,3.78-11.06,7.65-16.67,11.4a7.08,7.08,0,0,0,9,5C39.07,51,41.33,42.67,41.27,36.3Z"/><path class="cls-1" d="M84.62,76.5C79,80.28,73.56,84.15,68,87.91a7.08,7.08,0,0,0,9,5C82.42,91.2,84.67,82.87,84.62,76.5Z"/><path class="cls-2" d="M127.6,36.3c-5.58,3.77-11,7.66-16.66,11.4a7.08,7.08,0,0,0,9,5C125.4,51,127.65,42.66,127.6,36.3Z"/><path d="M25.92,55.81H24.83c.28.67.14,1.76.66,2.19C25.44,57.08,26.06,56.82,25.92,55.81Z"/><path class="cls-1" d="M69.28,96h-1.1c.28.67.14,1.76.66,2.19C68.79,97.28,69.41,97,69.28,96Z"/><path class="cls-2" d="M112.26,55.81h-1.09c.28.67.14,1.76.65,2.19C111.77,57.08,112.39,56.82,112.26,55.81Z"/><path d="M29.21,57.35c0-.43.6-.28.44-.87-.5-.06-.82,0-.88.44C29.07,56.91,29,57.29,29.21,57.35Z"/><path class="cls-1" d="M72.13,97.12c.29,0,.2.38.43.43,0-.43.6-.28.44-.87C72.5,96.61,72.18,96.73,72.13,97.12Z"/><path class="cls-2" d="M115.54,57.35c0-.43.6-.28.44-.87-.5-.06-.82,0-.87.44C115.4,56.91,115.3,57.29,115.54,57.35Z"/><path d="M32.72,59.1h-.66a2.17,2.17,0,0,0,.66,1.32Z"/><path class="cls-1" d="M76.07,99.3h-.66a2.2,2.2,0,0,0,.66,1.32Z"/><path class="cls-2" d="M119.05,59.1h-.66a2.17,2.17,0,0,0,.66,1.32Z"/><path d="M26.58,67.43c.09-.42.47-.55.44-1.1-.42,0-.48-.25-.88-.22C26.09,66.74,26.2,67.23,26.58,67.43Z"/><path class="cls-1" d="M69.93,107.64c.1-.42.48-.55.44-1.1-.42,0-.49-.25-.88-.22C69.45,106.95,69.55,107.43,69.93,107.64Z"/><path class="cls-2" d="M112.92,67.43c.09-.42.47-.55.43-1.1-.41,0-.48-.25-.88-.22C112.43,66.74,112.53,67.23,112.92,67.43Z"/><path d="M34,67.87V69c.57.12.74-1.27.44-1.31C34.43,67.82,34.29,67.9,34,67.87Z"/><path class="cls-1" d="M77.39,108.07v1.1c.58.12.75-1.27.44-1.31C77.78,108,77.64,108.11,77.39,108.07Z"/><path class="cls-2" d="M120.37,67.87V69c.58.12.74-1.27.44-1.31C120.76,67.82,120.63,67.9,120.37,67.87Z"/><path d="M38,66.12c-1.7,1.67-2.73,10.49-5.48,5-.87,1.73-1.54,3.65-2.41,5.47S28.44,80.33,27,81.46c-.66-3.57,4.62-8,5-12.05.07-.66-.41-4.2-1.09-3.73a2,2,0,0,0,0-2.19c-1.38,3.15-2,7.11-4.61,9-.82.42-1.18-1.32-1.31-.21-.84,1.24-1.55,2.58-2.41,3.94-.76,1.19-1.32,3-2.85,3.51.58-3.49,4.7-5.62,5-9.21.24-2.59-1.46-5.43-1.32-8.77-1.9,4.31-4.23,9.35-6.57,12.49,2.05-5.93,7.41-10.6,6.14-18.42a101.66,101.66,0,0,1-10.53,3.95c-4.72,1.36-5,1.13-5.26,6.58C7,71.58,6.23,83,7.73,86.72,18.4,87.81,25,93,36.45,93.29c1.76-.92,3.38-2.36,5.26-3.07,1.17-.43,2.62-.36,3.73-.87,1.35-.63,2.27-2,3.5-2.85,2.43-1.68,5.85-1.95,7.46-4.38-.52-6.2-1.52-11.93-1.1-19.08-.58-.66-1-1.51-1.76-2-5.41-.21-8.15-3.1-12.93-3.95C39.61,60,38,62.29,38,66.12ZM20.66,60.85c.37-.08.42.18.44.44A78.21,78.21,0,0,0,13.65,75.1c.62-3.76,3-7.7,3.07-12.72A8.37,8.37,0,0,0,20.66,60.85ZM12.55,63.7c.84,0,2-.8,2.41-.44-.74,2.78-1,6-2.63,7.9A16.48,16.48,0,0,0,12.55,63.7Zm-2.19,1.76c1.12.49,0,2.21.21,3.28C10.39,68.71,9.92,66.14,10.36,65.46Zm.21,17.75V82.12c1.33,0,1.63,1.83,3.29.87C13.88,84.88,11.65,83,10.57,83.21ZM36,77.73c-1,2.42-1.85,5-3.29,5.7,2-3.74,3.13-8.27,5.49-11.62,0-.07,0-.15,0-.22C38.47,72.51,36.93,75.53,36,77.73ZM44.34,62a31.72,31.72,0,0,1,3.29,1.53,10.4,10.4,0,0,1-1.54,4.17c-.55.43,1.05-2.18.88-3.51-.2-.32-.33-.7-.88-.66-1.87,1.92-2.85,4.75-3.95,7.46C42.53,68.47,43.13,64.32,44.34,62Zm-2.41-.88c.11.69-.31.86-.44,1.31-.62,0,.19-1.35-.43-1.31C41.2,60.42,41.52,61.28,41.93,61.07Z"/><path class="cls-1" d="M51.08,126.93C61.76,128,68.35,133.2,79.8,133.5c1.75-.92,3.38-2.36,5.26-3.07,1.17-.43,2.62-.36,3.73-.87,1.35-.63,2.28-2,3.5-2.85,2.43-1.68,5.86-1.95,7.46-4.38-.53-6.2-1.52-11.93-1.1-19.08-.58-.66-1-1.51-1.75-2-5.42-.21-8.16-3.1-12.94-3.95-1,2.88-2.58,5.17-2.63,9-1.7,1.67-2.73,10.49-5.48,5-.85,1.74-1.54,3.65-2.41,5.47s-1.64,3.69-3.07,4.82c-.66-3.57,4.62-8,5-12.05.07-.66-.42-4.2-1.1-3.73a2,2,0,0,0,0-2.19c-1.38,3.15-1.95,7.11-4.6,9-.82.42-1.18-1.32-1.31-.21-.85,1.24-1.55,2.58-2.42,3.94-.75,1.19-1.32,3-2.84,3.51.58-3.49,4.7-5.62,5-9.21.25-2.56-1.44-5.47-1.31-8.77-1.9,4.31-4.24,9.35-6.58,12.49,2.07-5.91,7.4-10.6,6.14-18.42-2.17.41-3.36,1.66-5.48,2.41-3.2,1.14-9.83,1.44-10.3,4.82-.71,5.06,0,10.07-.22,15.57C50.28,121.85,49.6,125,51.08,126.93Zm36.61-24.77A31.44,31.44,0,0,1,91,103.69a10.27,10.27,0,0,1-1.54,4.17c-.75.49,2.27-3.72,0-4.17a18.23,18.23,0,0,0-3.72,7.24A23.89,23.89,0,0,1,87.69,102.16Zm-2.41-.88c.11.69-.31.86-.43,1.31-.62,0,.18-1.35-.44-1.31C84.55,100.62,84.87,101.48,85.28,101.28ZM81.55,112c0-.07,0-.15,0-.22.27.92-1.26,3.93-2.19,6.14-1,2.42-1.86,5-3.29,5.7C78,119.9,79.2,115.37,81.55,112Zm-27.62,11.4v-1.09c1.33,0,1.62,1.83,3.29.87C57.24,125.09,55,123.2,53.93,123.42ZM64,101.06c.38-.08.42.18.44.44A78,78,0,0,0,57,115.31c.62-3.76,3-7.7,3.07-12.72A8.37,8.37,0,0,0,64,101.06Zm-8.11,2.85c.84,0,2-.8,2.41-.44-.73,2.78-1,6-2.62,7.9A16.45,16.45,0,0,0,55.9,103.91Zm-2.19,1.76c1.12.49,0,2.21.22,3.28C53.75,108.92,53.27,106.34,53.71,105.67Z"/><path class="cls-2" d="M94.06,86.72c10.67,1.09,17.27,6.27,28.71,6.57,1.76-.92,3.39-2.36,5.27-3.07,1.17-.43,2.61-.36,3.72-.87,1.35-.63,2.28-2,3.51-2.85,2.43-1.68,5.85-1.95,7.45-4.38-.52-6.2-1.52-11.93-1.09-19.08-.58-.66-1-1.51-1.75-2-5.42-.21-8.16-3.1-12.93-3.95-1,2.83-2.55,5.2-2.64,9-1.68,1.68-2.71,10.5-5.48,5-.86,1.74-1.53,3.65-2.41,5.47s-1.65,3.69-3.07,4.82c-.66-3.57,4.62-8,5-12.05.07-.66-.42-4.2-1.1-3.73a2,2,0,0,0,0-2.19c-1.38,3.15-1.95,7.11-4.6,9-.83.42-1.18-1.32-1.31-.21-.84,1.24-1.55,2.58-2.41,3.94-.76,1.19-1.33,3-2.86,3.51.59-3.49,4.71-5.62,5.05-9.21.24-2.56-1.44-5.47-1.32-8.77-1.9,4.31-4.25,9.35-6.58,12.49,2.07-5.91,7.4-10.6,6.14-18.42-2.17.41-3.36,1.66-5.48,2.41-3.22,1.14-9.83,1.44-10.3,4.82-.71,5.06,0,10.07-.22,15.57C93.26,81.64,92.58,84.75,94.06,86.72ZM130.67,62A31.26,31.26,0,0,1,134,63.49a10.18,10.18,0,0,1-1.53,4.17c-.54.43,1.06-2.18.88-3.51-.19-.32-.33-.7-.88-.66-1.87,1.92-2.85,4.75-3.95,7.46C128.86,68.47,129.46,64.32,130.67,62Zm-2.41-.88c.11.69-.31.86-.44,1.31-.62,0,.18-1.35-.43-1.31C127.53,60.42,127.86,61.28,128.26,61.07Zm-3.73,10.74c0-.07,0-.15,0-.22.27.92-1.27,3.93-2.19,6.14-1,2.42-1.86,5-3.29,5.7C121,79.69,122.18,75.16,124.53,71.82ZM96.91,83.21V82.12c1.33,0,1.62,1.83,3.29.87C100.22,84.88,98,83,96.91,83.21ZM107,60.85c.37-.08.42.18.44.44A78.62,78.62,0,0,0,100,75.1c.65-3.74,3-7.7,3.07-12.72A8.39,8.39,0,0,0,107,60.85ZM98.89,63.7c.84,0,2-.8,2.41-.44-.74,2.78-1,6-2.63,7.9A16.48,16.48,0,0,0,98.89,63.7Zm-2.19,1.76c1.08.46,0,2.31.21,3.28C96.69,67.88,96.29,66.25,96.69,65.46Z"/></svg>