<svg id="_ÎÓÈ_1" data-name="—ÎÓÈ_1" xmlns="http://www.w3.org/2000/svg" viewBox="0 0 150 150"><defs><style>.cls-1{fill:#600;}</style></defs><title>LUNOMarquetteArtboard 5</title><path class="cls-1" d="M39.36,58.41l-.14.18h.13Z"/><path class="cls-1" d="M110.66,61.19l.19.06a6.32,6.32,0,0,0,.14-.82l-.49,0,.11,0C110.49,60.79,110.63,61,110.66,61.19Z"/><path class="cls-1" d="M39.55,60.91l.21-2.85-.14.11c-.07.87-.22,2-.2,2.73Z"/><path class="cls-1" d="M86.85,63.69c0-.08,0-.21,0-.43l-.13-.09a6.66,6.66,0,0,0,0,1.26,4.24,4.24,0,0,1,.15-.69Z"/><path class="cls-1" d="M133.78,112.11c-3.31-.08-6.62-.12-9.93-.17q-3.31-2.93-6.81-5.62l4.93-.16c5.65-.16,5.67-9,0-8.79l-6,.2q-.63-15.14-.4-30.3a2,2,0,0,0,1.07,0l3.68-1.13a2.2,2.2,0,0,0-1.17-4.24L115.43,63l-.13.05a4.05,4.05,0,0,0-3.53-2.61c0,.78,0,1.61-.09,2.31l.33.09c-.08.24,0,.39.11.63l-.23.28.26.67-.16-.09c-.18.6.32.47.37.61a1.23,1.23,0,0,0-1.36.43l0,.25c0-.18-.15-.17-.25-.19l.08.19-.08.11-.08-.19c-.44-.46-.44.72-.49-.39l-.16-.09a4.8,4.8,0,0,0,.43,2.64l.12-.56c.43,1.44.65,3.18,1,4.71l-.63-.14c.12,5.73-.37,12,.22,16.66h.17a2.47,2.47,0,0,0,0,1.58,12.93,12.93,0,0,0-.79,1.71.56.56,0,0,0-.27.14l.16.33-.36.54,0-.3c-.46,0-.86,1-.62,1.74-.08.29-.27.08-.44.09-.11-1.53-.9-3.35-.6-4.94.52-.38,0-.6-.05-1.39a52.86,52.86,0,0,1-.74-5.89l.19,0,.15-2c1-.71-.29-2.4-.21-3.47-.07-2.24.75-5.46-.05-7.89,0-1.45-.34-3.9.49-5,.41-.39.89-2.07,1.28-1.11,0-.4.28,1,.66.19.18-.37-1.12-2,.1-2.36l.14,0c-.46-4.25-6.57-4.6-8.3-1.05a2.16,2.16,0,0,0-2.28.5,2.24,2.24,0,0,0,0,3.11l1.22,1.22a2.06,2.06,0,0,0,.46.33L99.94,98.18l-8.38.39a281.21,281.21,0,0,0,.53-31,4.37,4.37,0,0,0-.66-2.19l2.33-1.86a2.2,2.2,0,0,0,0-3.11,2.26,2.26,0,0,0-3.11,0l-2.24,1.78.07.28-.12-.09a.82.82,0,0,0,0,.31l.06,0a1,1,0,0,0,0,.11c.08.1.23.1.25.18l-.25,0c0,.12,0,.24,0,.39l-.1.29.09.67-.06-.08c-.08.61.12.47.14.61-.2-.08-.35-.08-.55.46l0,.26c0-.18-.06-.17-.1-.19l0,.19,0,.11,0-.19c-.17-.45-.19.73-.19-.38l-.06-.08a10.55,10.55,0,0,0,.13,2.63l.05-.56c.15,1.44.24,3.19.4,4.72l-.25-.14c.07,5.75,0,12,.35,16.67h.07a6,6,0,0,0,0,1.57c-.09.6-.24,1.11-.28,1.69,0,0-.06,0-.11.13l.07.33-.13.53v-.29c-.18,0-.32.94-.22,1.73,0,.28-.11.07-.17.08-.07-1.53-.43-3.37-.34-5,.2-.37,0-.6-.05-1.39-.12-1.81-.38-3.95-.42-5.89l.08,0,0-2c.39-.69-.15-2.4-.13-3.47s0-2.39.06-3.72c-.13.71-.27,1.41-.41,2.13-.29,1.52-.66,3.09-.9,4.52a34.61,34.61,0,0,0-.08,8.3h.14a3.42,3.42,0,0,0,0,1.67,16.85,16.85,0,0,0-.61,1.81.41.41,0,0,0-.22.15l.13.35-.29.56,0-.31c-.37,0-.68,1-.51,1.82-.07.3-.22.07-.35.08-.06-1.6-.72-3.53-.5-5.21.41-.4,0-.64-.06-1.48a36.85,36.85,0,0,1-.43-6.43l.15.06c.11-.74.22-1.48.4-2.24.93-.65.26-2.56.52-3.67s.61-2.55.94-4a9.41,9.41,0,0,0,.13-4c.05-1.5-.13-4.11.62-5.25.34-.4.89-2.19,1.11-1.15,0-.43.14,1.08.51.22.17-.34-.56-1.92.21-2.37-2.26-2.47-7.62-1.52-7.79,2.89q-.73,19.1-2.55,38.13l-8.09.5q1.29-16.39,2-32.81a1.86,1.86,0,0,0,1.09-1.34c0-.13.06-.25.09-.38l.11-.19,0,0,.1-.1h0l.1-.06.05,0,.33-.09a2.21,2.21,0,0,0,1.54-2.7,2.25,2.25,0,0,0-2.7-1.54,4.93,4.93,0,0,0-2.09,1c0,.39-.08.78-.14,1.13l.12.09a2,2,0,0,0,0,.64l-.12.29,0,.68-.06-.09c-.13.6.08.48.09.62-.19-.09-.35-.11-.58.42l0,.25c0-.18,0-.17-.08-.2v.2l0,.11v-.2c-.13-.47-.24.71-.16-.39l-.06-.09a11.16,11.16,0,0,0-.07,2.64l.1-.55c0,1.46,0,3.21,0,4.76l-.24-.16c-.45,5.74-1.14,12-1.19,16.67h.07A6,6,0,0,0,67,90c-.14.59-.32,1.09-.41,1.67,0,0-.07,0-.12.13l0,.34-.17.52,0-.29c-.19,0-.39.92-.33,1.71,0,.28-.11.07-.18.07a42.65,42.65,0,0,1,0-5c.23-.35,0-.6.07-1.4,0-1.82,0-4,.12-5.93l.07,0,.21-2c.46-.66.07-2.41.19-3.47a76.38,76.38,0,0,0,.66-7.83,22.59,22.59,0,0,1,.66-4.9c.2-.37.56-2,.62-1.1,0-.4,0,1,.25.18a1.63,1.63,0,0,0,0-.43l0,0a4.78,4.78,0,0,0-2-.45c0,.31,0,.6-.09.88l.19.09a1.4,1.4,0,0,0,0,.65l-.15.29.12.69-.09-.09c-.14.61.17.48.19.63-.3-.09-.53-.11-.84.43l0,.26c0-.18-.08-.17-.14-.2l0,.2-.06.11,0-.2c-.24-.47-.3.72-.28-.4l-.09-.09a7.72,7.72,0,0,0,.13,2.67l.1-.56c.19,1.47.24,3.24.41,4.8l-.37-.16c-.18,5.81-.69,12.15-.46,16.87h.1a4.13,4.13,0,0,0-.05,1.59,17.14,17.14,0,0,0-.52,1.7s-.1,0-.17.13l.09.34-.23.53,0-.3c-.28,0-.54.94-.41,1.74-.06.29-.16.07-.26.08a32.65,32.65,0,0,1-.24-5c.32-.36,0-.61,0-1.41-.07-1.84-.32-4-.26-6l.11,0,.16-2c.63-.68-.08-2.43,0-3.51,0-2.26.67-5.48.3-7.95.06-1.46,0-3.92.54-5,.27-.38.65-2.08.83-1.12,0-.41.12,1,.39.19.12-.36-.48-1.8.1-2.3,0-.27,0-.54,0-.81.35-5.28-7.3-5.6-8.61-1a2.48,2.48,0,0,0-1,0,2.2,2.2,0,0,0-.53,4l1.06.8q-1.15,18.6-1.55,37.23l-8.94.67c-.13-11.54,3.33-22.82,2.48-34.38a4.73,4.73,0,0,0-.27-1.23l2-1.39a2.25,2.25,0,0,0,.79-3,2.22,2.22,0,0,0-3-.79l-1,.65c0,.11,0,.22,0,.32-.26,2.75-.88,6.07-1,8.85-.17,3.34-.47,6.94-.61,10.27-.09,0-.22-.29-.27,0-.18,1.1-.36,1.1-.54,1.09s0-.84-.07-.56c0-.84.06-2.23-.07-1.4-.11.27-.06,1.4-.21,1.67s-.26-.29-.41,0l0,1.12c-.1.28-.27-.29-.27,0a26.1,26.1,0,0,0-.1,3.1c-.09,0-.18.28-.22-.28,0-4.94.27-9.94.74-14.91.37-3.83.86-7.64,1.5-11.41-1.54-1.77-4.28-2.35-6-1.1,0,.15.06.16.12.17a34.89,34.89,0,0,0-.22,4.1l.07-1.37c.17.92-.09,3.2-.07,4.58.06,4.54-.08,10.11.16,14.71.29,5.52.48,11.5.64,17-.09,0-.24-.45-.27,0-.08,1.85-.27,1.85-.45,1.86s0-1.38-.12-.92c0-1.38-.15-3.68-.2-2.3-.08.46.07,2.3-.06,2.77s-.28-.45-.41,0l0,1.84c-.08.46-.28-.45-.27,0-.06,1.38,0,3.22,0,5-.09,0-.18.46-.23-.46-.16-8-.57-16.21-.77-24.39-.1-4.09-.17-8.19-.14-12.28,0-2.31.07-4.61.19-6.92l-6.36-3.22C29,57,26.74,60.81,29.27,62.09l8.29,4.19c-1.7,11.88-3,23.81-3.93,35.79,0,.15,0,.29,0,.43-2.89.25-5.77.5-8.66.77-5.59.52-5.64,9.32,0,8.79q11.65-1.08,23.31-2a1.22,1.22,0,0,0,0,1.92c.75.56,1.46,1.16,2.16,1.79l-2.41.14a1.15,1.15,0,0,0-1.63-1.29c-.88.46-1.74,1-2.59,1.46-1.08-.89-2.13-1.8-3.16-2.75s-2.59.59-1.55,1.55c.57.53,1.16,1,1.75,1.56-2,.15-4,.28-6,.44.32-.13.63-.28,1-.4,1.32-.48.75-2.6-.58-2.12a24.42,24.42,0,0,0-5.71,3c-3.34.29-6.69.57-10,.9-5.58.54-5.64,9.34,0,8.79,3-.29,6-.54,9-.81a2,2,0,0,0,1.87,1.08l99-1.68a2.18,2.18,0,0,0,2.05-2.79l2.37,0C139.44,121,139.43,112.25,133.78,112.11ZM65.68,97.76v0h0c0-.55.11-1.1.14-1.64v0l0,.31s.06-.31.08-.08A.65.65,0,0,0,66,96l0,.14s0,0,0,.08c.07.21.18.21.24.29a13.58,13.58,0,0,0-.09,1.55c-.09,0,0,.25,0,.37a1.64,1.64,0,0,1,0,.37v.08c0,.27,0-.22.08-.16l0,.16a.36.36,0,0,0,0,.14s0,.08,0,.06l0-.06,0,.08s0,0,0,0v.31s0,0,0,.06v-.22c0-.11,0-.19,0-.21a1.52,1.52,0,0,0,0,.2c-.07-.06-.16-.23-.23-.18s-.07,0-.1,0v-.51a.81.81,0,0,0,0,.23c0-.27-.07-.08,0-.45,0-.08,0-.06,0-.06a1,1,0,0,0,0-.5Zm-1.89.49v0h0c0-.55.13-1.11.16-1.66l0,0,0,.31s.08-.31.12-.08c0,0,0-.14,0-.23l0,.14s0,0,0,.08c.11.21.28.21.37.29a10.9,10.9,0,0,0-.09,1.57c-.13,0,0,.25-.05.37a1.15,1.15,0,0,1,.07.37l0,.08c.07.27,0-.23.12-.17l0,.17a.25.25,0,0,0,0,.14s0,.08,0,.06l0-.06,0,.08s0,0,0,0v.31s0,0,0,.06,0-.15,0-.22,0-.2-.07-.21a1.07,1.07,0,0,0,0,.2c-.11-.06-.24-.23-.34-.18s-.1,0-.15,0l0-.51a.56.56,0,0,0,0,.23c-.05-.27-.11-.08-.05-.45,0-.08,0-.06-.07-.06,0-.23,0-.41,0-.5ZM53.43,113.61a38.06,38.06,0,0,0-4-3.51l-.16-.1,6.92-.5a1,1,0,0,0,.3.82c1,1,2,2,3.06,2.93Zm9.63-.56-.36,0a42.63,42.63,0,0,1-4.14-3.74l6-.41a1.11,1.11,0,0,0,.27.4c.53.52,1.06,1,1.59,1.54Q64.69,111.89,63.06,113.05ZM87.47,97.78v0h0c0-.54.06-1.09.07-1.63v0l0,.3s0-.31.08-.08a.64.64,0,0,0,0-.22l0,.14s0,0,0,.08c.08.2.19.2.25.28-.08.47,0,1.08,0,1.54-.09,0,0,.24,0,.37a1.61,1.61,0,0,1,.05.36v.08c.05.26,0-.22.08-.16l0,.16a.35.35,0,0,0,0,.14s0,.08,0,.06l0-.06,0,.08s0,0,0,0v.31s0,0,0,.06v-.22c0-.11,0-.19-.05-.21a1.51,1.51,0,0,0,0,.2c-.07-.06-.16-.23-.23-.18s-.07,0-.1,0l0-.51a.79.79,0,0,0,0,.22c0-.26-.07-.08,0-.44,0-.08,0-.06,0-.06a.93.93,0,0,0,0-.49Zm-4.12-.21v0h0c.12-.54.24-1.1.31-1.66l0,0,0,.32c.06,0,.12-.31.17-.08,0,0,0-.15,0-.23L84,96s0,0-.07.08c.14.22.36.23.48.32A13.43,13.43,0,0,0,84.18,98c-.17,0,0,.26-.11.37a.93.93,0,0,1,0,.39l0,.08c.06.29.09-.22.19-.15l0,.18a.21.21,0,0,0-.06.14s0,.09.05.07l0-.06,0,.09s0,0,0,0l0,.32s0,0-.07.05a1.8,1.8,0,0,0,0-.23c0-.11,0-.21-.07-.23a.89.89,0,0,0-.08.2c-.14-.09-.28-.28-.43-.25s-.13,0-.21,0l0-.51s0,.14-.06.22c0-.27-.13-.1,0-.45,0-.08,0-.07-.08-.07.05-.23.1-.4,0-.5Zm-16,15.3.75-.43.42.38Zm8-.35-3.76.17q-2.14-1.93-4.21-3.94l5.15-.33a1.06,1.06,0,0,0,.26.31l3.72,3C76.13,111.94,75.75,112.23,75.37,112.51Zm5.49-.18-.88-.7a1.13,1.13,0,0,0-1.47-1.18l-2.8-2.24,4.6-.26a1,1,0,0,0,.32.85c1.23,1.18,2.51,2.32,3.81,3.43Zm7.28-2.41A15.35,15.35,0,0,0,86.4,111q-1.85-1.56-3.62-3.22l1.43-.08a4.74,4.74,0,0,0,2.71.46c.52.55,1,1.1,1.56,1.62A1.15,1.15,0,0,0,88.13,109.93ZM109,97.8v0h0c.07-.54.19-1.09.22-1.63l0,0,.09.3c.08,0,.13-.31.2-.09.06,0,0-.14,0-.22l.08.14s-.06,0-.08.08c.19.2.47.19.62.27-.22.47,0,1.08-.13,1.54-.22,0,.07.24-.09.37.09.08.09.24.13.36l0,.08c.13.26.07-.22.2-.16l.08.16a.17.17,0,0,0,0,.14s0,.08.08.06l0-.06,0,.08s0,0,0,0v.3s-.06,0-.08.06a1.31,1.31,0,0,0,0-.22c0-.11,0-.19-.12-.2a.71.71,0,0,0-.07.2c-.19-.06-.4-.23-.57-.18s-.17,0-.25,0l-.05-.5s0,.14,0,.22c-.09-.26-.18-.08-.09-.44,0-.08-.07-.06-.11-.06,0-.23.08-.4-.07-.48Zm4.6,8.64.43.33q-1.35.88-2.68,1.78-1.34-.92-2.62-1.94Zm-24.79,5.67.47-.28a1,1,0,0,0,.54-.79c.36.34.72.68,1.09,1Zm4.5-.86c-1.38-1.2-2.7-2.46-4-3.78l3.48-.17c.85,1,1.72,1.88,2.64,2.76Q94.33,110.64,93.27,111.25ZM99.49,107l.79.66q-1.42.65-2.81,1.35c-.64-.59-1.25-1.21-1.85-1.83Zm-3,5,.65-.34.37.33Zm4.48-.06c-.59-.44-1.17-.88-1.74-1.34q1.43-.7,2.89-1.35,1.65,1.34,3.33,2.63C104,111.86,102.48,111.89,101,111.91Zm6.93-1q-1.91-1.43-3.77-2.93a1.15,1.15,0,0,0-.47-1.2l1.77-.07a47.61,47.61,0,0,0,3.93,3.14Zm2.46.91,1-.66,1.06.66Zm6.59,0h0c-1.25-.62-2.47-1.3-3.65-2q1.26-.85,2.54-1.66,2.33,1.8,4.57,3.71Z"/><path class="cls-1" d="M87.71,59.16l0-.08a3.64,3.64,0,0,0-.19-.34c0,.11,0,.22,0,.34Z"/><path class="cls-1" d="M17.38,52.05c.47.33.61,2.26.84,2.84a4.26,4.26,0,0,0,2,2.36c1.52.77,3,.3,4.52-.13,2.19-.62,4.36-1.28,6.54-1.93a2.07,2.07,0,0,0,1.21-.9q41.79-2.41,83.67-1.59a2.12,2.12,0,0,0,.73.54c3.22,1.5,6.94,3.07,10.43,1.48a6.5,6.5,0,0,0,3.94-7.17,1.76,1.76,0,0,0-1.8-1.58A2,2,0,0,0,128,44.86c-9.86-2.44-18.2-8.28-27.35-12.42-5.5-2.49-11.47-3.86-17.21-5.74,1.52-3-.79-7.66-4.92-6.34L73,22.12l-.1-.06a2.05,2.05,0,0,0-3.05,1.07l-24.13,7.7C36,34,26.06,37.24,17.59,43.26a4.64,4.64,0,0,0-1.12,6.42A2.21,2.21,0,0,0,17.38,52.05ZM122.2,47.68c1.53.54,3.08,1,4.68,1.42l.11,0c-.13,1.2-1.79,1.84-2.81,1.89h-.12a2.17,2.17,0,0,0-2.1-2.57q-19.71-.49-39.42-.25,19.71-.29,39.41-.45A1,1,0,0,0,122.2,47.68ZM36,43.51a2.27,2.27,0,0,0,2.56,3.13q5.34-1.31,10.69-2.55a1.77,1.77,0,0,0,2.06,1.52q17-1.8,34.12-2.24l0,0c.76,1,2.45.19,2-.85a2.32,2.32,0,0,0,.43-1c1.12,1.25,2.3,2.46,3.54,3.61,1,1,2.6-.59,1.55-1.55a52.64,52.64,0,0,1-5.89-6.41c-.87-1.12-2.41.45-1.55,1.55l.19.23-.81,0-1.14-1.56c-.83-1.13-2.74,0-1.9,1.11l.4.54c-4.47.15-8.93.35-13.39.64Q73.93,38.65,79,37.64c2.77-.56,1.6-4.79-1.17-4.24q-18,3.6-35.75,7.88c2.45-.83,4.92-1.62,7.39-2.41l29.09-9.28c6.93,2.58,14.33,4,21.06,7.18,5.89,2.78,11.51,6.14,17.42,8.81l-12.5.12a.93.93,0,0,0-.17-1.19,1.17,1.17,0,0,0,1.07-.54,1.12,1.12,0,0,0-.39-1.5,9.16,9.16,0,0,1-2.51-2.61c-.76-1.19-2.66-.09-1.9,1.11a11.81,11.81,0,0,0,2.79,3,20.27,20.27,0,0,1-6.56-5.27c-.9-1.1-2.44.47-1.55,1.55A21.71,21.71,0,0,0,102,45.72l-2.28,0a1,1,0,0,0-.51-.89A35.57,35.57,0,0,1,92,38.68c-.95-1.06-2.5.5-1.55,1.55a37.53,37.53,0,0,0,6.24,5.54Q62.46,46.19,28.26,47A77.86,77.86,0,0,1,36,43.51ZM22,50.85c.75-.53,1.52-1,2.29-1.53q24.82-.62,49.64-1-22.76.44-45.5,1.83a2.19,2.19,0,0,0-2.08,1.92l-1.43.42c-.55.16-1.75.81-2.34.69-.17,0-.25,0-.28,0s-.08-.2-.16-.36a12,12,0,0,1-.64-1.68A5,5,0,0,0,22,50.85Z"/></svg>