<svg id="_ÎÓÈ_1" data-name="—ÎÓÈ_1" xmlns="http://www.w3.org/2000/svg" viewBox="0 0 150 150"><defs><style>.cls-1{fill:#231f20;fill-rule:evenodd;}</style></defs><title>LUNOMarquetteArtboard 15</title><path class="cls-1" d="M122.23,114.39c.26,2.83-.51,6.82.51,9.49.28.72.31,1.55-.51,1.91a1.12,1.12,0,0,1-1.44-.59,2.94,2.94,0,0,1-.15-.72c-1.12-5.41.21-11.28,0-16.75-.12-3,2.5-5.31,1.18-9.44a4.27,4.27,0,0,1,.67-3.77,3.86,3.86,0,0,0,.66-2.76c-.34-3.49.84-12.35.71-12.91-.21-.9-.68-1.19-1.61-.81-2.35.94-8.2,3.13-10.61,3.89-2.24.71-4.3,2-6.91,2-.08,2.4-.17,4.76-.22,7.13,0,1,.12,2,0,2.94a1.39,1.39,0,0,1-2.1,1.24c-9.11-4.42-17.79-2.33-26.36,1.66-2.56,2-3.86,1.78-5.72.67-4.51-2.66-9.07-3.25-14-3.39-4.16-.12-8.05.48-11.61,2.74a.72.72,0,0,1-1.06-.22,4,4,0,0,1-1.12-2.63c.07-2.21,0-4.42,0-6.63-.06-1.83-.27-2-2-2.55-5.38-1.68-10.78-3.3-16.13-5.07-6.05-2-12.31-3.35-18.26-5.69-.67-.26-1.59-.22-1.65-1.17A2.49,2.49,0,0,1,5.59,70.4c1.34-.77,2.67-1.57,4.06-2.25,9.85-4.81,20.11-8.65,30.27-12.73q14.46-5.81,28.88-11.69l.23-.09a30.41,30.41,0,0,0,3.92-2c1.62-1.13,2.62.68,4.06.65a11.66,11.66,0,0,1,4.17,1.22c7.08,2.75,14.25,5.25,21.34,8,4.88,1.86,9.67,4,14.53,5.89q9.58,3.76,19.22,7.34c1.31.48,2.44,1.3,3.81,1.67,1.09.29,2.06.88,3.28.67a1.26,1.26,0,0,1,1.54.92,1.46,1.46,0,0,1-.89,1.79,59.79,59.79,0,0,1-9.26,3.91c-3.54,1.28-3.57,1.35-7.15,2.51-1.33.43-1.25.49-1.56,2.44-.13,4.62-.89,8.78-.43,13.33.08.84-.21,1.87.54,2.32,1.09.65,1.48,2.66,1.16,3.84-.22.82-.72,1.67.14,2.68,2.54,3.11,2.49,9.43,2.59,12.49.13,4.08-.48,5.09-.56,9.18,0,.57-.05,1.14-.07,1.72,0,.84-.49,1.22-1.27,1s-1.57-.34-1.93.46a1.27,1.27,0,0,1-1.74.84c-.78-.23-.87-.91-.89-1.58-.06-2.87-.93-3.4-1-6.27C122.55,118.33,122.33,114.7,122.23,114.39ZM37.92,81.29A2.21,2.21,0,0,0,36,81.19c-.87-1.54-2.61-1.81-3.94-2.67C27.86,75.75,23.58,73,19.32,70.3c-.53-.34-1-.87-1.78-.44,0,.67.58.94,1,1.23,4.34,2.91,8.66,5.85,13.2,8.47a10.84,10.84,0,0,0,4.36,1.55,2.06,2.06,0,0,0,1.86.12c-.15,1.14.67.91,1.4,1A2.5,2.5,0,0,0,37.92,81.29ZM52.66,61.05l1.19.33c-.29-.63-.8-.33-1.22-.34.39-1.44-.84-1.34-1.6-1.69,0-.53-.44-.59-.79-.75,0,0-.11.15-.09.2a.7.7,0,0,0,.94.5C51.24,60.2,52.25,60.36,52.66,61.05Zm76,6.63c0-.45-.35-.63-.72-.74,0,0-.15.24-.12.31.19.33.43.63.89.38a1.31,1.31,0,0,0,1.44,1.52c.26,1.41,1.57,1.92,2.46,2.78.26.25.61,0,.8-.29s-.06-.45-.24-.57a13.38,13.38,0,0,0-3.06-1.88C130.11,68.24,129.32,68,128.68,67.68Zm-30-1.48c0,.14,0,.32.12.41s.46.55.69.26-.16-.5-.43-.62a1.09,1.09,0,0,0-.42,0,5.77,5.77,0,0,0-3.47-3.07C96.46,64.08,96.88,65.9,98.7,66.2ZM76,61.67c1.44.13,2,2,3.93,2A26.43,26.43,0,0,0,73,58.4c.84,1.32,2.53,1.78,3.09,3.35-1,.3-1.68-.84-2.89-.58,1.44.92,2.17,2.57,4,2.59C77.26,62.67,76.08,62.51,76,61.67ZM19.07,74.59a4.87,4.87,0,0,0-3.47-1.7,4.4,4.4,0,0,0,3.51,1.64c.18.58-.38,1.47.52,1.74,1.88.57,3.69,1.43,5.72,1.43C23.26,76.65,21.45,75,19.07,74.59Zm14.8-6.44a5.75,5.75,0,0,0-.47-.47,1.78,1.78,0,0,0-.4-.18.38.38,0,0,0,.27.53,2.3,2.3,0,0,0,.66.06c-.14.49.22.74.51,1,2.17,1.91,4.91,3.1,6.71,5.47a.72.72,0,0,0,.19.14c.39.25.82.73,1.12,0,.21-.53,0-.92-.6-1.05-.84-.18-1.33-.9-2-1.38A60.4,60.4,0,0,0,33.87,68.16ZM51,66.26c1.49.93,2.79.18,4.09-.48,1.23,0,2.58.37,3.32-1.09a2.34,2.34,0,0,0,2.67.14c-2.25-2.24-3.87-3.31-5.43-3.62.74,1.35,2.57,1.82,2.82,3.55-.61.13-1.36-.52-1.6-.33-1.55,1.18-2.36-.24-3.37-.84a55.63,55.63,0,0,1-5.4-4.22c-.55-.42-1.1-1-2-.06,1.17.82,2.29,1.58,3.38,2.39,1.88,1.4,4.07,2.39,5.7,4.12-1.63.29-2.75-1.08-4.66-1.63.62.7.91,1,1.14,1.29.82,1.12-.48.54-.69.85-1.83-2.31-4.33-3.84-6.62-5.62-.39-.3-.8-.6-1.4-.11C45,63.26,48,64.79,51,66.26ZM32.85,70.14a10.61,10.61,0,0,0-6.19-3.51c2.12,1.06,3.77,2.91,6.16,3.54,0,.15,0,.38.12.45Q37.48,74,42,77.26c.3.22.58.25.78-.08a.78.78,0,0,0-.36-.87q-4-2.82-8-5.61A2.17,2.17,0,0,0,32.85,70.14Zm67.3-4.88a1.76,1.76,0,0,0-1.75-1.44c.55.53.83,1.41,1.8,1.4,0,.15,0,.35.13.45,3,3,6,5.93,9.09,8.87a51.05,51.05,0,0,0,3.81,3.78c.56.43.93.54,1.49-.09-2.53-1.77-4.51-4.09-6.72-6.17-1.78-1.68-3.6-3.29-5.29-5.06C102,66.25,101.32,65.36,100.15,65.26Zm18.61-.92c.1-.55.31-1.13-.36-1.47-.2-.1-.57-.07-.57.18a1.44,1.44,0,0,0,1,1.25c1.19,2.08,3,3.56,4.77,5.14,4.15,3.81,4.16,3.78,5.45,3.76a.57.57,0,0,0-.24-.63c-2.58-2.35-5.13-4.73-7.75-7C120.4,65,119.8,64.2,118.76,64.34Zm-54.59-.7a3.57,3.57,0,0,0,3.64.4C65.2,61.63,56.52,55.66,55,55.24c-.16.62.37.84.7,1.15a54.47,54.47,0,0,0,7.36,5.71c.58.39,1.43.61,1.14,1.62-2.48-.8-4.27-2.65-6.33-4.1-1.67-1.18-3.16-2.67-5.23-3.22,3,3,6.8,5,9.73,8.07C63.07,65.17,63.72,64.77,64.16,63.64Zm24.23-2.93.26.73c2.91,2.93,4.2,3.73,6,3.59-5.53-5.77-11.88-10.36-18.3-14.85,2.3,2.28,4.8,4.33,7.24,6.45C85.15,58,87,59.11,88.39,60.72Zm-4,2.51c1.58,1.29,3.44,1,5.68,1.05-.53-.56-.77-.87-1.07-1.12C85,59.81,81,56.49,77,53a31.49,31.49,0,0,0-4.85-3.74c-.39-.23-.76-.66-1.36,0,4.7,3.42,8.75,7.6,13.37,11.09,1.08.81,2,2,3.49,2.09h0a1.55,1.55,0,0,1-2.44.21c-.68-.54-1.23-1.3-2.18-1.44-.17-.15-.34-.32-.53-.46s-.39-.35-.55-.13.07.44.26.55a.81.81,0,0,0,.88,0c-.27.38-.14.81-.13,1.23L78.92,60c.94,1.55,2,2.27,2.67,3.42s1.68.87,2.64.64C84.59,64,84.31,63.51,84.42,63.22ZM76.87,44.81A20.41,20.41,0,0,0,79.26,46c4.62,1.12,8.75,3.52,13.25,5,3,1,5.88,2.42,8.9,3.45,3.78,1.29,7.56,2.6,11.23,4.17,7.93,3.39,15.87,6.74,24.69,8.94a20.48,20.48,0,0,0-4.42-2.19c-10-3.48-19.93-7.29-29.63-11.62-5.46-2.43-11.22-4-16.77-6.15-2.44-.94-4.91-1.78-7.38-2.65-.76-.27-1.52-.69-2.31-.07-.75-1.26-1.81-1.37-3.08-.88-4,1.55-8.11,3-12.1,4.65-2.49,1-5.11,1.67-7.52,2.91S49.38,53.74,47,54.72c-3.71,1.5-7.44,2.95-11.18,4.37s-7,3.27-10.58,4.51c-5.21,1.78-10,4.39-15,6.7-.4.19-.95.33-1,1,.42.34.79,0,1.12-.14,6.26-2.79,12.45-5.75,18.92-8,2.77-1,5.54-2,8.2-3.23,5.89-2.74,11.8-5.39,17.92-7.59,3.68-1.32,7.27-2.87,11-4.06a34.39,34.39,0,0,0,4.09-1.6C72.52,45.67,74.55,44.69,76.87,44.81Zm-26.56,47c.68.54,1.5.23,2.29.2,6.58-.25,13.06.06,19.1,3.12a3.08,3.08,0,0,0,3-.1A43.5,43.5,0,0,1,93.13,90.8c2.48,0,4.84.72,7.28.9,1.73.13,1.74.17,1.88-1.52.39-4.73.15-9.47.29-14.21a5.69,5.69,0,0,0-.79-3.78A11.55,11.55,0,0,0,95.93,68,67.86,67.86,0,0,0,78,65.69a118.14,118.14,0,0,0-17.1,1.2,45.76,45.76,0,0,0-12,3.39,5.57,5.57,0,0,0-3.75,5.13,135,135,0,0,0-.53,14.2,14.19,14.19,0,0,0,.3,4.07c1.68-1.18,3.13-2.22,4.6-3.22.37-.25.84-.76,1.28-.26s-.21.81-.5,1.13C50.22,91.47,50.15,91.58,50.31,91.8Zm71.81-16.21c-7.9-6.13-14-14.19-22.63-19.32,3.4,3.33,7.2,6.22,10.52,9.65a92.43,92.43,0,0,0,10.7,9.95c-3.18-1-5.6-3.07-8-5.22s-4.89-4.39-7.34-6.59a18.63,18.63,0,0,0,2.94,3.6c3,3.06,6.21,5.8,9.4,8.61a1.85,1.85,0,0,0,2.43.39C120.69,76.32,121.47,76.51,122.11,75.59ZM85.67,50.94c2.19,2,4.22,4.08,6.51,5.92,3.31,2.66,6.68,5.26,9.76,8.21,4.25,4.07,8.56,8.08,12.79,12.18,1,.94,1.75,1,2.78,0-1.63-1.41-3.13-2.89-4.82-4.17A87.88,87.88,0,0,1,103.93,66a166.15,166.15,0,0,0-17-15A.85.85,0,0,0,85.67,50.94ZM24.11,67.55c4.73,3.05,9,6.23,13.42,9.34,1.65,1.17,3.42,2.23,3.28,4.68a1.13,1.13,0,0,0,1,1.19c.88.09.7-.73.77-1.23s0-1.31.08-1.95c.16-1.11-.4-1.58-1.33-2a40.55,40.55,0,0,1-6.28-3.75c-2.92-2.08-5.84-4.17-8.93-6C25.62,67.49,25.13,66.95,24.11,67.55Zm80.78-9.5a1.13,1.13,0,0,0,.52.84c6.32,5,12,10.71,18,16.16.22.2.43.31.62.15.49-.42,0-.7-.23-.94-4.53-4-8.54-8.51-12.87-12.71A11.84,11.84,0,0,0,104.9,58.05ZM60,53.85a63,63,0,0,0,8.61,7.23c.73.54,2.41.72,1.7,2.43-.12.28.34.67.63.56.95-.37,2.12.43,3.08-.66C69.33,60.11,65.17,56.21,60,53.85ZM35.55,78.74a86.3,86.3,0,0,0-15.23-9.58C24.9,73.11,30.32,75.74,35.55,78.74ZM50.39,67.39a20.51,20.51,0,0,1-5.09-2.92c-3.41-2.63-3.4-2.64-4.88-2.7l1.27,1a27.84,27.84,0,0,1,4.67,3.86C47.91,68.43,47.87,68.47,50.39,67.39Zm80.45,5.32.31-.45a1.65,1.65,0,0,0-.22-.43c-2-2.06-4.63-3.57-6.08-6.22-.23-.42-.93-.63-1.74,0C125.8,67.95,127.8,70.9,130.85,72.71Zm-18.94,6.58a40.87,40.87,0,0,0-8-8.09C106.54,74,108.53,77.3,111.91,79.29Zm-66.6-9.91c-4.42-.23-6.54-4.25-10.18-5.45a85.67,85.67,0,0,0,8,6.19C44.16,70.84,44.71,70.3,45.31,69.38ZM58.69,56c2.76,2.1,5.5,4.22,8.29,6.28.3.22.9.34,1.36-.42C65,60.11,62.4,57.21,58.69,56ZM89.77,58.4a36.6,36.6,0,0,0-8-6.79A36.84,36.84,0,0,0,89.77,58.4Zm15.45,16.5c.22,1.91,2.78,4.26,4.35,4.75Zm25.41-7.18c1.7,1.21,2.93,2.1,4.18,3a1.26,1.26,0,0,0,.65.25.81.81,0,0,0,.78-.47c.12-.27-.11-.45-.29-.56A11.39,11.39,0,0,0,130.64,67.72Zm-8.34,2.85c1.2,1.25,2.39,2.52,3.62,3.74a.58.58,0,0,0,.85-.18.44.44,0,0,0-.12-.62C125.33,72.4,124.2,71,122.3,70.58ZM10.12,73.1c1.75,1.14,3.38,1.07,4.86,1.55C12.35,72.75,12.35,72.75,10.12,73.1Zm30.58-2.9c.15,1,1.05,1.26,1.45,1.89.26.42.64.48,1,.07s.63-.8.05-1.21A2.64,2.64,0,0,0,40.69,70.2Zm84,28c.69,0,.88-.54,1-1.11s0-1.16-.7-1.28-.94.46-1,1A1.1,1.1,0,0,0,124.67,98.23Zm.89,15.35a26.06,26.06,0,0,0,0-2.74c-.08-.66.32-1.43-.35-2C125.73,110.24,125.1,111.71,125.56,113.58ZM69.25,58.33l.37-.36-3.17-2.35A6,6,0,0,0,69.25,58.33Zm24.13-4c-.11-1.47-.77-1.9-2-1.77A4.13,4.13,0,0,0,93.38,54.31Zm11.93,27.78c.23-.23.79-.39.52-1-.12-.29-.35-.61-.67-.57-.68.09-.48.68-.5,1.11S104.74,82.23,105.31,82.09Zm1-2.77a2.39,2.39,0,0,0,1.4,1.44A1.43,1.43,0,0,0,106.3,79.32Zm21.56,29.83V111C127.87,110.41,128.31,109.83,127.85,109.15ZM80.58,50.84c.05-.92-.62-.93-1.44-1.44A2.74,2.74,0,0,0,80.58,50.84Zm-5.95,4c.37.22.38,1.08,1.15.79A1.18,1.18,0,0,0,74.63,54.81Zm-38.45,12c.36.86.73,1.17,1.4,1.2C37.41,67.32,36.9,67.21,36.18,66.81Zm9.13,1.27a1,1,0,0,0,.93.65.23.23,0,0,0,.19-.36,1,1,0,0,0-.92-.64C45.3,67.76,45.24,67.91,45.32,68.09Zm34.37-9c.24.11.46,0,.43-.12a1.09,1.09,0,0,0-.41-.54c-.06,0-.27.09-.41.14Zm-25,.86c-.19-.27-.38-.54-.73-.51s-.24.19-.08.32a3.28,3.28,0,0,0,.54.38S54.56,60.06,54.65,60ZM40.3,64s-.14.13-.13.14.16.31.29.37.3,0,.19-.21A1.54,1.54,0,0,0,40.3,64Zm2.62,2c-.2-.17-.37-.33-.56-.48s-.44,0-.4.07a1.2,1.2,0,0,0,.52.48C42.57,66.07,42.75,66,42.92,65.93Zm-27,5.45.36.34c.18.16.33.12.31-.09a.53.53,0,0,0-.29-.34C16.2,71.26,16.05,71.35,15.91,71.39ZM71.2,57.26c.29-.1.3-.2.1-.33a2.12,2.12,0,0,0-.36-.27c-.18-.07-.3.05-.2.2A2.36,2.36,0,0,0,71.2,57.26ZM52.74,58.52a2.89,2.89,0,0,0-.45-.5c-.07,0-.25.07-.38.11a5.49,5.49,0,0,0,.45.49C52.51,58.75,52.65,58.7,52.74,58.52ZM92,58.2s-.12.09-.11.1.14.27.25.33.27,0,.18-.15A1.59,1.59,0,0,0,92,58.2Zm31.07,52L123,110c0,.06-.11.11-.12.17s0,.14.07.2Zm4.19,6.4-.06.36c0-.05.1-.1.11-.16A.53.53,0,0,0,127.29,116.64ZM94.57,62.08c.13-.08.16-.22.05-.39s-.09-.15-.15-.16-.31.06-.23.23S94.45,62,94.57,62.08Z"/><path class="cls-1" d="M88.39,60.72c.31.07.68.1.65.55,0,.19-.2.25-.39.18Z"/><path class="cls-1" d="M101.06,76a1.61,1.61,0,0,0-1.31-1.29c-2.59-.69-5-2.14-7.75-2.18a4.24,4.24,0,0,1-3-1.27c4.22-.71,7.73.89,11.44,2.24a2.89,2.89,0,0,0-2-1.63A25.74,25.74,0,0,0,89.22,70c-.08,0-.16,0-.24,0-.6.06-1.29,0-1.29-.72s.7-.54,1.16-.56a19.59,19.59,0,0,1,6.54.82c1.57.49,2.94,1.43,4.44,2,1.78.71,1.45,2.44,2.05,3.71.15.33-.6.42-.91.66Z"/><path class="cls-1" d="M51.46,72.15c1.21.72,2.2-.09,3.18-.54a7.36,7.36,0,0,1,5.1-.19c-1.7,1.81-4.25.74-6.19,1.91,1.5.65,3.09-.89,4.55.4A4.12,4.12,0,0,1,55,75c-2.78-.06-5,1.3-7.2,2.65a5.42,5.42,0,0,1-.64.33c-.05,0-.14,0-.36-.09.57-1.5,2.19-1.82,3.18-3-.91-.55-1.35.79-2.15.46l.33-1.3-.08.06a8.93,8.93,0,0,0,3.53-2Z"/><path class="cls-1" d="M48.11,74.06c-.29-.21-1.26.18-.77-.71a4.85,4.85,0,0,1,3-2.64c.63-.16,1.24-.43,1.88-.56,2.63-.54,5.27-1.08,7.92-1.56a2.67,2.67,0,0,1,1.93.33c-.13.2-.25.57-.38.57-2.13,0-4.06,1-6.17,1.19a6.31,6.31,0,0,0-4.06,1.47l.1-.06a4.25,4.25,0,0,0-3.53,2Z"/><path class="cls-1" d="M94.07,83c2-.87,3.78-.39,5.53.25,1.2.43.93,1.56,1,2.5-1.88.88-3.72.44-5.77,0,1.49-1.22,3.16-.54,5-1.11C97.73,84,95.88,83.87,94.07,83Z"/><path class="cls-1" d="M92.19,76.72A16.48,16.48,0,0,1,100,78c.84.33,1.38.82.8,2C98.24,77.94,95.08,77.74,92.19,76.72Z"/><path class="cls-1" d="M101,75.92l.24.42c.2.34.52.69.09,1.06s-.58,0-.87-.12a29.34,29.34,0,0,0-10.22-3.52c3.65-.44,6.4.91,9.24,1.77.53.16,1,.61,1.6.47Z"/><path class="cls-1" d="M54,80.27c-2.31,1.51-5.17,1.22-7.4,3C48.48,80.33,51.21,79.21,54,80.27Z"/><path class="cls-1" d="M47.12,80.33c1.56-2.81,4.28-4.16,7.83-3.74C52,77.77,49.38,78.68,47.12,80.33Z"/><path class="cls-1" d="M94.59,88.16a6.62,6.62,0,0,1,5.44-.32c.32.12.63.34.59.67s-.57.81-.85.66C98.26,88.38,96.49,89,94.59,88.16Z"/><path class="cls-1" d="M47.08,88.18c1.13-2.63,3.12-3.73,5.3-3.14Z"/><path class="cls-1" d="M47,90.65c1.11-2.42,3.14-3.42,6-4-.83,1.63-2.2,1.58-3.1,2.23S47.92,90.06,47,90.65Z"/><path class="cls-1" d="M93.33,79.73A7.39,7.39,0,0,1,100,81.65C97.73,81.26,95.62,80.18,93.33,79.73Z"/><path class="cls-1" d="M46.81,85.28A7,7,0,0,1,50.91,82c.35-.14.84-.14,1,.39s-.26.57-.53.69C49.84,83.81,48.31,84.45,46.81,85.28Z"/><path class="cls-1" d="M95.5,90c1.68-.73,3.26-.38,4.81-.13a.56.56,0,0,1,.45.72.61.61,0,0,1-.74.45C98.57,90.74,97,90.9,95.5,90Z"/><path class="cls-1" d="M84.48,63.31a1.45,1.45,0,0,1-1.56-1A1.39,1.39,0,0,1,84.48,63.31Z"/><path class="cls-1" d="M87.69,62.47c0,.14,0,.28,0,.42s0,.28,0,.42c-.36,0-.29-.23-.24-.43a2.76,2.76,0,0,1,.18-.42Z"/></svg>