<svg id="_ÎÓÈ_1" data-name="—ÎÓÈ_1" xmlns="http://www.w3.org/2000/svg" viewBox="0 0 150 150"><defs><style>.cls-1{fill:#e5554f;}</style></defs><title>LUNOMarquetteArtboard 14</title><polygon class="cls-1" points="45.84 59.03 46.3 59.01 45.39 58.91 45.84 59.03"/><path class="cls-1" d="M103.81,25.1l0,.06-.07,0Z"/><path class="cls-1" d="M111.78,12.56l0,0h0Z"/><path class="cls-1" d="M80,34.67a3.14,3.14,0,0,1,.62-.16,4,4,0,0,1,1.72.12A18.2,18.2,0,0,1,86.87,37a12.54,12.54,0,0,1,3.61,3.66,6.26,6.26,0,0,1,.82,2.19A8.43,8.43,0,0,0,90.05,41a17.62,17.62,0,0,0-3.71-3.2,33.91,33.91,0,0,0-4.17-2.67A4,4,0,0,0,80,34.67Z"/><path class="cls-1" d="M48.58,59.41c-.15,0,.5,1.6,0,0Z"/><path class="cls-1" d="M99.2,45.82c.24.45-.13-.64,0,0Z"/><path class="cls-1" d="M73.75,38.18h0Z"/><path class="cls-1" d="M73.64,18.27C49,17.74,32,45,40.3,67.2a39.92,39.92,0,0,0,9.83,14.52c4.11,4,8.05,7.9,9.18,13.76,1.28,6.69.35,13.55,2.48,20.14.95,2.93,2.51,5.12,3.94,7.74,1.25,2.27-.1,4.35,2.3,5.88.34.22,1.11.11,1.45.39.86.72.22.61.69,1.28.88,1.26.92,1.67,2.59,2.22a13.33,13.33,0,0,0,7.75.12c5.45-1.79,5.7-8.44,7.16-13-2.55.76-4.9,2.6-7.65,2.52.14-.06-2.43.31-3.92.25a18.79,18.79,0,0,1-5.66-1.19,15.39,15.39,0,0,1-3-1.54s1.18-.13,2.84-.18,3.82.06,5.92.15,4.17.16,5.76.07a17.18,17.18,0,0,0,2-.15c.48-.08,1.28-.13,1.66-.16,2.09-.17,1.79.52,2.72-1.48.65-1.4,1.64-2.59,2.37-3.94,3.35-6.22.75-13.87,1.85-20.6a34.12,34.12,0,0,1,7.59-16.25c4.19-5.25,6.92-10.42,7.79-17.17C110.68,39.25,95.9,18.75,73.64,18.27Zm9.7,107.08c-4.05,2.61-8.32,3.57-12.9,1.35A27,27,0,0,0,83.34,125.34Zm9.3-93.84c1.9-.34,5.11,9.43,5.93,10.47C98.34,41.55,91.24,31.59,92.64,31.51ZM98.2,44.33c2.48-.06,2.22,2.51,3.28,4-1.4,0-1.85-1.76-2.28-2.55a2.22,2.22,0,0,0-1-1.49S99.15,44.9,98.2,44.33ZM88.93,27.49c-1.41-1.32-3.39-1.8-5.31-2.37C85.33,24.64,87.92,26.29,88.93,27.49Zm-9.78-6L75.89,21C77.7,20.34,78.43,20.81,79.14,21.52ZM71.8,23.4c2.28-.18,5.79-1.1,7.72.61-6,0-10.92.34-16.38,3.11-1.35.69-4,1.32-4.88,2.5-.37.47-.3,1.29-.58,1.83A14.62,14.62,0,0,1,55,34.32c.89-1,1-2.57,1.74-3.7a14.7,14.7,0,0,1,4-3.55A22.31,22.31,0,0,1,71.8,23.4C72.66,23.33,72.31,23.36,71.8,23.4Zm-.15,0Zm-5.33-.34c-.17.1.69-.62,0,0Zm0,0q.6-.19,0,0ZM61,25.35c-.14.17-.54.63-.87.67C60.2,25.44,60.49,25.22,61,25.35ZM45.41,60.82a44.57,44.57,0,0,0,.93,7.11c.2.86.71,1.74.28,2.32-4.08-4.75-5.24-12.42-4.95-18.46a28.35,28.35,0,0,1,3.3-12A25.92,25.92,0,0,1,48.26,35c.5-.58,1.19-1.08,1.64-1.69a14.85,14.85,0,0,1,2.27-1.85c-.6,1.06-1.2,2.11-1.77,3.19,2.67-2.49,4.79-5.07,7.6-7.41a75.68,75.68,0,0,0-5.8,6.13c-3.52,3.7-4.78,7.38-5.93,12.26A51.57,51.57,0,0,0,45.41,60.82ZM45.84,59c.05.64-.09.18,0,0Zm3.31-11a1.12,1.12,0,0,1,.76-1.8A14.79,14.79,0,0,1,49.15,48Zm-.06,8.83.39-2.17C49.91,55.43,49.86,55.91,49.09,56.81Zm.59-12.1c.44.23.41.8.25,1.4C49.64,45.65,49.18,45.28,49.68,44.71ZM49,42.37c.75-1.27.12-2.2,1.11-2.9C50.38,40.58,50,41.2,49,42.37Zm-1.24,9.92c-.07-.42.32,0,0,0Zm.77,7.12,1.49,4.74C49.77,63.69,47,59.51,48.58,59.41ZM52.1,69.7c.36.37,0,0,0,0Zm1.6,10.6c0-.24,0,.09,0,0Zm33.08,34s-.29.31-.83.78l-1,.83-.61.51a6.24,6.24,0,0,1-.78.21,34.67,34.67,0,0,1-8.33,1.36,28.37,28.37,0,0,1-8.41-1.32,2.39,2.39,0,0,1-1.39-.83,11.41,11.41,0,0,1-.92-1c-.1-.12-.15-.19-.23-.3a1.91,1.91,0,0,1-.46-.62,1.1,1.1,0,0,1,.93,0H65l1.23-.05a2.32,2.32,0,0,1,1.46.16,25.66,25.66,0,0,0,7.56,1.19,32.14,32.14,0,0,0,7.64-1.27,6.31,6.31,0,0,1,.75-.21l.77.12a14.07,14.07,0,0,0,2.77,0C87,114,86.78,114.26,86.78,114.26ZM73.25,38.52l.5-.34h0c2.54-1.74,4,.82,4.08,3.13.14,3.58-2,7.19-3.25,10.4-2.76-2.8-4.69-10.88-.83-13.53Zm-.07,0ZM77.6,59.24c1.07.4,2.37.85,2.57,1.86.05.25-1,2.71-1.14,3.05-.29,1.11-.52,2.23-.72,3.35,0-.27.06-.36,0,0l-.23,1.31.23-1.31a81.79,81.79,0,0,0-1,11.1l-.16,4.74h0q0-.73.05-1.46c.09-3.34-.26.39-.2,1.67-.44.65-1.48,1.16-1.43,2-.69-1.62-2-1.25-3-.12a76.31,76.31,0,0,0-3-14.66c-1.1-3.42-4-6.27-.32-8.63C71.9,60.44,74.54,58.08,77.6,59.24ZM73.52,92.85v0Zm0,.3c0-1.46-.12-1.63,1.36-2,2.72-.77,1.94,2.54,2.08,4.34a149.45,149.45,0,0,0,2.15,15.73,13.48,13.48,0,0,1-6.66-.54C74.25,105,73.62,99,73.52,93.15Zm23.59-21.9a16.06,16.06,0,0,1-1.06,4.1c-.34.75-1.27,1.61-1.21,2.5.18-1,.31-1.94.51-2.9-2.11,2-1.7,5.54-4.21,7.24,1.59-6.55,4.77-12.53,7.53-18.62C97.6,66,97.52,68.68,97.11,71.25ZM105.8,58c-.93,4.69-2.76,9.54-6.17,13a49.73,49.73,0,0,0,3.17-17.82c-.13.94-1.19,3-.71,3.89a.23.23,0,0,1-.1-.27l-.76,1.76a2.24,2.24,0,0,0-1.71.28,9.5,9.5,0,0,0-1.87,3c-1.2,2.51-2,5.2-3.14,7.75s-2.31,4.9-3.21,7.46c-.84,2.37-.75,4.52-1,6.8s-1.66,5.07-2.13,7.65a34.44,34.44,0,0,0-.78,7.89c.2,3.68,2,8.62-2.43,10.51-1-5.75.24-11.54.27-17.31-.31,1.06-.72,2.09-1.1,3.13a5.11,5.11,0,0,1-.24-2.56l0,.09h0l0-.09c0-.06,0-.11,0-.17s0,.09,0,.14,0,0,0,0c0,2-.94,4.19-.9,6.31,0,2.63.5,5.23.6,7.86.05,1.31,0,4.51-2.27,3.56-1.64-.67-.62-3-.46-4.09.39-2.54-.43-5.67-.67-8.41q-.41-4.7-.39-9.43a91.54,91.54,0,0,1,2-18.78c1-4.43,1.29-8.7,6.07-10S98,57.28,98.75,51.64c.78-6.08-8.66-4.34-11.54-2-2.17,1.76-2.94,5-5,6.63-1.81,1.41-2.88-.16-4.82-.69A21.18,21.18,0,0,0,80.78,45c.17-2.7.46-7.13-1.94-9-5.27-4.23-10.14,5.39-10.13,9.49,0,2.64,1,4.24,2.29,6.42s2.16,3.34.09,5.08a13.69,13.69,0,0,1-3.35,1.71c-1.37.6-1.28.78-2.15-.11s-1.34-2.83-2-3.9a11.62,11.62,0,0,0-3.23-3.55c-1.62-1.08-5.2-2.36-7.11-1.33-2.54,1.38-1.76,5.37-.86,7.6a11,11,0,0,0,6.94,5.86c2.88.92,4.42,0,5.43,3,2.58,7.86,3.15,16.32,5,24.35a39.85,39.85,0,0,1,.66,15.77c-.2,1.18-.55,4.36-2.14,4.62-2.32.37-1.83-3.54-1.82-4.78,0-3.35-.33-6.68-.37-10,0-1.46.39-3.78-.51-5.11-.3-.45-1.78-1.14-1.8-1.44A135.62,135.62,0,0,1,65,108.8c-1-4.41-.78-9-1.35-13.46-.61-4.81-2.59-7.54-5-11.55.31.52,1.48.93,2,1.19a12.42,12.42,0,0,0-3.43-8.44c-1.21-1.22-4.3-2.61-4.65-4.44.08.23,1.16,0,1.18-.11a4.35,4.35,0,0,0-.67-2.53c-.44-.9-2.18-2.83-2-3.9,1.14.23,2.16,2.58,2.68,3.41,1.15,1.8,2.23,3.92,4,5.18-2.9-4.24-5-9-7.85-13.23,1.49.68,1.21.62,1.29,2,.39-.71-.18-2.69-.31-3.48a30.8,30.8,0,0,1-.68-6.58,23.84,23.84,0,0,1,.7-4.28c.22-.94.41-1.89.62-2.84.09-.44,3.22-6.78,4.89-8.62s3.25-3.69,4.75-5.64c-3.21,2.55-7.81,6.2-9,10.27-1.48-1.36,2.72-6.07,3.45-7.07a22.82,22.82,0,0,1,8.82-7c8.55-4.27,21.25-3.88,26.79,5-7.09-7.21-17.08-6.12-25.84-3,11-3.49,22.54-.93,29.15,9a18.94,18.94,0,0,0-11-6.73c.38.38,2.76,3,2.86,1.52,5.34,2.25,7.16,6.7,10,11.28a4.66,4.66,0,0,0,2.24,2.3q-.07-.45.69-.29a3.12,3.12,0,0,0,.82,1.77c1.27,2.77,1.23,4.63.23,7.52a29.28,29.28,0,0,0,2.19-7c.2-2.33-1.31-5.59-2.27-7.69a35.24,35.24,0,0,0-7.27-10C103.6,35.29,108,47.53,105.8,58Zm-19.61-.4c1.3-3.18,2.93-6.61,6.32-8,1.76-.7,3.77.07,3.63,2.39C95.92,55.59,89.07,57.56,86.19,57.57Zm-24,2.92c-4.57-.29-6.93-1.11-8.37-3.72-.5-.91-1.63-3.43.67-4.8S63,56.16,62.18,60.5Z"/><path class="cls-1" d="M78.09,68.82Z"/><path class="cls-1" d="M87.13,37.74A16.56,16.56,0,0,1,85.62,37,1.7,1.7,0,0,0,87.13,37.74Z"/><path class="cls-1" d="M85.07,36.28a2.21,2.21,0,0,1,.05-.26C85.1,36.2,85,36.1,85.07,36.28Z"/><path class="cls-1" d="M85.13,36.41l-.06-.13C85,36.44,85,36.52,85.13,36.41Z"/><path class="cls-1" d="M85.13,36.41c0,.14.53.58.52.56Z"/><path class="cls-1" d="M87.75,38.27l-.62-.53C87.19,37.92,87.64,38.19,87.75,38.27Z"/><path class="cls-1" d="M85.24,92.57c.27-1.83.8-3.73,1.21-5.57A7.54,7.54,0,0,0,85.24,92.57Z"/><path class="cls-1" d="M64.65,87.13c.51-.32-3.11-9.2-3.33-9.15.34-.07-.92-2.8-1.08-3.18-.53.25,0,1.57.07,1.89l-1.59-1C59.15,76.48,64.07,87.5,64.65,87.13Z"/><path class="cls-1" d="M62.85,74.62c-.15,1.59.7,2.57,1.31,4.47A7.11,7.11,0,0,0,62.85,74.62Z"/><path class="cls-1" d="M95.35,74.95Z"/></svg>