<svg id="_ÎÓÈ_1" data-name="—ÎÓÈ_1" xmlns="http://www.w3.org/2000/svg" viewBox="0 0 150 150"><defs><style>.cls-1{fill:#e5554f;fill-rule:evenodd;}</style></defs><title>LUNOMarquetteArtboard 17</title><path class="cls-1" d="M29.67,37.61a1.13,1.13,0,0,1,.41-.77c.18-.16.23-.47.35-.7a3.13,3.13,0,0,1,.36-.61,7,7,0,0,1,1-1.09c.39-.3.65-.7,1-1a2.48,2.48,0,0,1,.74-.44,5.91,5.91,0,0,0,1.3-.94c.15-.12.31-.24.46-.37s.56-.55.87-.79c.47-.38,1-.72,1.44-1.09l.86-.69c.36-.29.73-.56,1.07-.86a5.66,5.66,0,0,0,1.06-.94,2.42,2.42,0,0,1,.63-.52,1.77,1.77,0,0,0,.61-.65A1.91,1.91,0,0,1,43,25.21a1.42,1.42,0,0,0,.36-.22c.05,0,.08-.11.14-.14a6.24,6.24,0,0,0,1-1,2.94,2.94,0,0,1,.64-.51,9.41,9.41,0,0,0,1.46-1A4.59,4.59,0,0,1,47.3,22a2.93,2.93,0,0,0,.31-.23c.06,0,.13-.13.19-.12.3,0,.5-.2.73-.35s.46-.25.68-.38a1,1,0,0,0,.21-.17.41.41,0,0,1,.38-.16.73.73,0,0,0,.55-.15.45.45,0,0,1,.28-.13c.31,0,.52-.28.85-.25.12,0,.28-.14.36-.26a.49.49,0,0,1,.4-.21.87.87,0,0,0,.64-.22s.2,0,.25,0,.44-.12.6-.32a.57.57,0,0,1,.35-.15,11.06,11.06,0,0,0,1.78-.44,3.09,3.09,0,0,1,.54-.07l1-.11.08,0c.36-.21.81-.15,1.18-.38a.42.42,0,0,1,.33-.08c.29.15.56,0,.83,0a.56.56,0,0,0,.35-.15,1.46,1.46,0,0,1,1-.39c.18,0,.37-.15.57,0,0,0,.18,0,.25-.1a1.12,1.12,0,0,1,1-.29.53.53,0,0,0,.37-.09,1,1,0,0,1,.68-.21,8.63,8.63,0,0,0,1.67-.21,7.66,7.66,0,0,0,1.22-.31,4,4,0,0,1,1-.11c.26,0,.51-.07.77-.08s.39,0,.58,0a1.16,1.16,0,0,0,.56-.08,1.73,1.73,0,0,1,.79,0c.18,0,.36.08.54.11a3.07,3.07,0,0,0,.46,0c.07,0,.16,0,.19,0,.23.23.48.1.73.07a4.44,4.44,0,0,0,1-.18,1.67,1.67,0,0,1,.49,0,5.71,5.71,0,0,0,1,0,3,3,0,0,1,1.17.08,4.45,4.45,0,0,0,.94.09,9.91,9.91,0,0,0,1.1-.07c.26,0,.51.11.77,0,0,0,.11,0,.17.07s.39.21.62.11a.17.17,0,0,1,.12,0c.33.18.67,0,1,.06s.7.06,1.05.1.67.1,1,.16a.37.37,0,0,1,.15,0c.3.2.67.15,1,.25a.73.73,0,0,1,.15,0,9,9,0,0,0,2.34.7c.18,0,.34.14.51.18.35.09.71.13,1,.24a6,6,0,0,0,1,.29l.46.08.49.13,1.45.44c.36.11.71.25,1.07.38A.78.78,0,0,0,93,19a1.3,1.3,0,0,1,.79.19c.27.13.53.31.8.46a.55.55,0,0,0,.59.06.32.32,0,0,1,.29,0,5.64,5.64,0,0,0,1.13.5,2.53,2.53,0,0,1,1.07.62.79.79,0,0,0,.42.21,1.59,1.59,0,0,1,.74.31,5.07,5.07,0,0,0,1.58.88c.13,0,.17.2.34.19s.26.14.39.2a2.28,2.28,0,0,1,.46.18.8.8,0,0,0,.43.22c.16,0,.29.2.45.3a5.41,5.41,0,0,0,1,.57,3.29,3.29,0,0,1,.82.37c.41.29.86.53,1.26.84a7.63,7.63,0,0,0,1.33,1,3.48,3.48,0,0,1,.73.59c.21.19.41.41.61.61a1.17,1.17,0,0,0,.19.12,3,3,0,0,1,.42.27,13.79,13.79,0,0,1,1.89,2.11.81.81,0,0,1,.74.36,1.24,1.24,0,0,0,.39.32.57.57,0,0,1,.31.39.55.55,0,0,0,.59.46,1.25,1.25,0,0,1,1,.65,1.88,1.88,0,0,0,.51.63c.09.05.09.24.17.29.45.26.61.78,1,1.11.22.19.41.4.63.58s.14.38.4.3c0,0,.07.07.1.12a2.75,2.75,0,0,0,.68.76,4.58,4.58,0,0,1,1,1.23,3,3,0,0,0,.35.42,6.18,6.18,0,0,1,.55.62c.53.81,1.13,1.55,1.73,2.3.21.27.41.56.63.83s.59.67.88,1a.84.84,0,0,1,.13.19,3.73,3.73,0,0,0,.73,1.06.4.4,0,0,1,.13.19,2,2,0,0,0,.79,1.08.19.19,0,0,1,0,.06c.14.3.41.53.49.88,0,.08.15.12.3.23s-.12.27.12.34c0,0,0,.18,0,.31.17.08.44.15.34.48.32.17.38.31.53,1.22a1.52,1.52,0,0,1,.25.07c.12.06.25.11.16.31s.07.2.09.31a1.18,1.18,0,0,0,.4.83c.08.05,0,.32,0,.55s.39.27.42.46.44.5.35.87a.23.23,0,0,0,.1.19.5.5,0,0,1,.22.44,2.82,2.82,0,0,0,.11.5c.15.43.35.85.46,1.3s.42,1,.54,1.5c0,.18,0,.39.11.56a7.71,7.71,0,0,1,.49.76,6.31,6.31,0,0,1,.56,1.17,9,9,0,0,1,.45,1.6.15.15,0,0,0,0,.08,9.47,9.47,0,0,1,.62,1.64.26.26,0,0,1,0,.15,1.26,1.26,0,0,0,.11.81s.06.09,0,.11c-.19.27,0,.5,0,.75a.74.74,0,0,0,.13.4.45.45,0,0,1,.08.34.68.68,0,0,0,.16.59,1.94,1.94,0,0,1,.22,1.17,2.93,2.93,0,0,0,.05.69c.07.35.15.69.21,1,.11.56.25,1.11.31,1.67a6.75,6.75,0,0,1,0,2,10.08,10.08,0,0,1-.26,1.07,6.53,6.53,0,0,0-.09,1.37c0,.39,0,.79,0,1.18,0,.15,0,.3,0,.5a.66.66,0,0,0-.24.58,1.82,1.82,0,0,1-.07.3,1.3,1.3,0,0,0,0,.24s0,.08,0,.12c-.05.36-.12.72-.16,1.08s-.11.84-.14,1.25a5.34,5.34,0,0,1-.28,1.37,2.55,2.55,0,0,0-.2,1.45,1.16,1.16,0,0,1,0,.47,7.41,7.41,0,0,1-.37,1.61,6,6,0,0,0-.27.76,1.13,1.13,0,0,0,0,.55,2.42,2.42,0,0,1-.14,1.12,4.53,4.53,0,0,1-.3,1c-.21.44,0,.94-.26,1.38-.09.2,0,.47-.06.7s-.18.71-.27,1.06-.11.51-.16.76l-.27,1.31a1.36,1.36,0,0,1-.07.23,12.08,12.08,0,0,0-.58,1.92c0,.14-.11.27-.14.41a2.25,2.25,0,0,0-.2,1c0,.26-.15.55-.22.84-.18.7-.44,1.37-.62,2.07-.09.35-.31.63-.41,1a1.66,1.66,0,0,0-.11.61,2.73,2.73,0,0,1-.17.91l0,0a5.07,5.07,0,0,1-.32.88,2.19,2.19,0,0,0-.21.93.49.49,0,0,1-.2.32c-.14.09-.19.18-.13.32s0,.19-.08.27-.41.42-.29.72a6,6,0,0,0-.39.59c-.38.73-.74,1.46-1.12,2.19-.1.2-.22.39-.34.57s-.43.64-.61,1-.23.57-.36.86-.17.29-.26.43l-.2.36s-.16,0-.21,0a1.09,1.09,0,0,0-.24.38,3.78,3.78,0,0,1-.72,1.26,10,10,0,0,0-1.08,1.25c-.16.26-.4.45-.55.72s-.32.26-.52.4a2,2,0,0,1-1,1.07c-.05,0-.13.07-.14.11-.07.34-.4.49-.55.76a.37.37,0,0,1-.26.14.52.52,0,0,0-.48.4.67.67,0,0,1-.25.34l-.78.69a.63.63,0,0,0-.16.23,4.81,4.81,0,0,1-1.15,1.4c-.27.31-.6.58-.9.87-.15.14-.35.21-.45.43s-.17.1-.26.14-.18,0-.26.09c-.29.16-.29.17-.62,0a1.16,1.16,0,0,1-1.11.6.74.74,0,0,1-.43.54,8.17,8.17,0,0,0-1,.89,6.82,6.82,0,0,1-1.7,1.37,1.12,1.12,0,0,0-.24.13,3,3,0,0,1-1,.41,3.6,3.6,0,0,0-.78.45,4,4,0,0,0-.47.35,1.06,1.06,0,0,0-.16.25.43.43,0,0,0-.51.23,1,1,0,0,1-.75.43,1,1,0,0,0-.77.46.7.7,0,0,1-.47.32,1.27,1.27,0,0,0-.83.38,3,3,0,0,1-.29.19s-.1,0-.1,0c-.07.38-.5.32-.66.57-.36-.21-.39-.21-.7.05a.77.77,0,0,1-.46.19,1.33,1.33,0,0,0-.92.46,2.44,2.44,0,0,1-.66.47c-.31.17-.64.29-.95.47s-.81.53-1.21.8c0,0-.09.07-.13.06-.32,0-.57.17-.84.27-.69.25-1.37.54-2.05.8a3.2,3.2,0,0,1-.57.13,2.42,2.42,0,0,0-1.23.61l-.23-.15c-.07.19-.25.28-.35.45a1.38,1.38,0,0,1-.61.39,6.66,6.66,0,0,1-1.41.37,6,6,0,0,0-1.59.38,3.08,3.08,0,0,1-.74.14c-.45.1-.9.22-1.36.31-.25.05-.48.2-.78.09-.11,0-.29.07-.44.11l-.29-.2c-.13.23-.51-.11-.56.25a2.13,2.13,0,0,0-.53-.07c-.29,0-.57.13-.85.19-.09,0-.2.06-.26,0a.74.74,0,0,0-.57,0,7.3,7.3,0,0,0-1.45.32l0,0-.94,0c-.06,0-.14-.05-.19,0-.38.14-.79,0-1.17.17a.75.75,0,0,1-.3.05,1.56,1.56,0,0,0-.67,0c-.08,0-.21-.07-.31-.13a2.69,2.69,0,0,1-.27-.2c-.14.36-.42.19-.64.2h-.41c-.06,0-.15,0-.19,0-.32-.21-.7-.14-1-.23a5.79,5.79,0,0,1-.82-.35.84.84,0,0,1-.75.29,3.79,3.79,0,0,1-1-.1c-.36-.09-.73-.13-1.1-.19a.89.89,0,0,1-.27-.07,1,1,0,0,0-.68-.08,6.61,6.61,0,0,1-1.12,0c-.16-.23-.45-.19-.67-.32a3.1,3.1,0,0,0-.85-.23c-.06,0-.13,0-.19,0s-.12,0-.15,0c-.29-.24-.58,0-.86,0-.12,0-.26.09-.35-.08s0,0-.06,0c-.21.32-.5-.16-.72.08a2.27,2.27,0,0,1-.5-.19.71.71,0,0,0-.59-.21.79.79,0,0,1-.53-.16,1.33,1.33,0,0,0-.74-.16l-.62-.07-.38,0c-.09,0-.2,0-.26-.07a1.62,1.62,0,0,0-1.06-.35,1.08,1.08,0,0,1-.71-.28.25.25,0,0,0-.14-.07,5.37,5.37,0,0,1-1-.29,7.67,7.67,0,0,0-.8-.19.74.74,0,0,0-.45,0,.57.57,0,0,1-.33-.07l-1-.44a.8.8,0,0,0-.21,0A1.41,1.41,0,0,1,53,132a1.37,1.37,0,0,0-.87-.08.59.59,0,0,1-.38,0,2.57,2.57,0,0,1-.87-.42,1,1,0,0,0-.69-.24,2,2,0,0,1-.87-.2l-1.13-.54a1.18,1.18,0,0,1-.59-.57,4.86,4.86,0,0,1-1.46-.54,5.36,5.36,0,0,0-.82-.37,3.6,3.6,0,0,1-.89-.46,2.56,2.56,0,0,0-.61-.26,2.06,2.06,0,0,1-.87-.43,1.62,1.62,0,0,0-.56-.32c-.33-.11-.61-.36-.94-.49a2.39,2.39,0,0,1-.85-.68,2.8,2.8,0,0,0-1-.53,3.78,3.78,0,0,1-.5-.29c-.19-.12-.37-.26-.56-.37s-.3-.14-.37-.32a.43.43,0,0,0-.24-.19,7.35,7.35,0,0,1-1.45-.94c-.38-.24-.74-.5-1.12-.74a1.84,1.84,0,0,1-.44-.43,3.4,3.4,0,0,0-1.2-1.06,1.31,1.31,0,0,1-.85-1.06c0-.26-.29-.36-.47-.44a2.18,2.18,0,0,1-1-1,1.34,1.34,0,0,0-.2-.24l-.54-.56-.16.14c-.09-.09-.21-.18-.25-.28-.11-.37-.43-.55-.68-.79a1,1,0,0,1-.18-.24c-.15-.27-.28-.54-.43-.8a.48.48,0,0,0-.55-.3.64.64,0,0,0-.41-.63.78.78,0,0,1-.46-.51c0-.12-.15-.21-.23-.32s-.15-.18-.15-.27c0-.52-.41-.81-.73-1.16a3.72,3.72,0,0,1-.51-.76,1.9,1.9,0,0,0-.68-.84c-.13-.08-.2-.27-.3-.41a3.77,3.77,0,0,0-.3-.46,2,2,0,0,1-.47-.9c0-.19-.09-.36-.33-.38a.29.29,0,0,1-.18-.14c-.28-.45-.55-.9-.82-1.35,0-.06-.09-.14-.07-.18.13-.29-.1-.43-.22-.62a1.26,1.26,0,0,1-.23-.41,3.74,3.74,0,0,0-.71-1.4c-.22-.33-.28-.71-.53-1a5.55,5.55,0,0,1-.6-1,1.65,1.65,0,0,1-.15-.92,2.27,2.27,0,0,0-.22-.83,4,4,0,0,0-.26-.62c-.24-.46-.26-1-.48-1.45a.89.89,0,0,1-.06-.23,1.54,1.54,0,0,0-.32-.75,1.87,1.87,0,0,1-.27-.68c-.14-.47-.25-.94-.38-1.41a.19.19,0,0,0-.05-.11c-.39-.25-.29-.67-.38-1,0-.19-.13-.36-.19-.54a.37.37,0,0,1,0-.23c.09-.21,0-.37-.06-.56-.12-.48-.35-.91-.5-1.37s-.25-.72-.34-1.09-.2-.88-.3-1.32a1.68,1.68,0,0,0-.1-.38,3.56,3.56,0,0,1-.31-1.47c0-.09,0-.18-.06-.27,0-.3-.07-.6-.1-.91-.05-.47-.09-.94-.16-1.41a5.75,5.75,0,0,0-.28-1.27A4.45,4.45,0,0,1,15.46,83a16.89,16.89,0,0,0-.29-2.74,1.28,1.28,0,0,1,0-.55,2.56,2.56,0,0,0,.09-1.28.79.79,0,0,1,0-.35c.16-.9.33-1.79.47-2.69,0-.25,0-.53,0-.78s.15-.64.23-1a3.84,3.84,0,0,0,.14-1.22,6.05,6.05,0,0,1,.27-1.91A17.76,17.76,0,0,0,17,67.31c0-.33.1-.65.13-1a1,1,0,0,0-.06-.27.87.87,0,0,1,.19-.74.88.88,0,0,0,.12-1,.73.73,0,0,1,0-.57c.15-.45.29-.91.44-1.36.07-.21.2-.4.14-.64a.24.24,0,0,1,.06-.18,1.49,1.49,0,0,0,.27-.73c0-.05,0-.12,0-.15.27-.27.2-.63.24-1a.76.76,0,0,1,.23-.53.81.81,0,0,0,.28-.62,6.31,6.31,0,0,1,.15-.85c.09-.52.18-1,.27-1.56a3.29,3.29,0,0,1,.43-1.05,1.44,1.44,0,0,0,.31-.76c.27-.15.13-.44.23-.65a5.09,5.09,0,0,0,.23-.71.56.56,0,0,0,0-.19,1.89,1.89,0,0,1,.39-1.3,4.61,4.61,0,0,0,.31-.64,1.93,1.93,0,0,1,.2-.34,1.46,1.46,0,0,0,.32-.62,4.73,4.73,0,0,1,.62-1.18,1,1,0,0,0,.12-.33,1.75,1.75,0,0,1,.39-1,1.34,1.34,0,0,0,.4-.85.41.41,0,0,1,.07-.18c.21-.35.41-.71.63-1,.35-.52.72-1,1.08-1.54a6.51,6.51,0,0,0,.34-.62c.34-.64.74-1.24,1-1.91a5.39,5.39,0,0,1,.65-.92c.11-.16.22-.33.32-.5s.19-.35.31-.5q.47-.61,1-1.2C29.07,37.94,29.24,37.59,29.67,37.61ZM63.15,51.2l-.14,0,0,.21h.06l0-.19c.09,0,.21-.06.1-.25ZM32.16,113c0-.09,0-.17,0-.29-.15.15-.15.15,0,.28s0,.2.16.24l.06-.25c.25,0,.25,0,.11-.3l-.1.31ZM87.39,82.15c.13,0,.23,0,.24-.16s-.05,0-.08-.07l-.15.24c-.13.2-.13.2.1.29Zm-8.14-12c.29,0,.3,0,.14-.28l-.13.29c0,.11-.13.22.09.36Zm7.93-21.92c0-.14.05-.32-.16-.38,0,.27,0,.27.17.38,0,.18.06.28.18.42C87.43,48.42,87.28,48.34,87.17,48.24Zm-.92,57.31c0,.34,0,.34.28.4l-.28-.39c0-.15,0-.3,0-.45.15-.12.15-.12,0-.32l.06.33-.14.05ZM50.37,67.26c-.06,0-.15-.05-.18,0s-.07.22,0,.39l.16-.37,0-.26h-.1ZM95.19,92.91s-.09.06-.1.09,0,.28,0,.43c.17.09.32.13.47-.07-.3-.12-.3-.12-.4-.47,0-.14.13-.28-.12-.45ZM62.51,86.17c0-.17.14-.37-.14-.57l.15.57a.86.86,0,0,0,.22.8.75.75,0,0,0,0-.26C62.73,86.51,62.79,86.25,62.51,86.17ZM104,116.76l-.35-.22c-.14.33,0,.51.39.66,0-.15,0-.3-.05-.46l.13-.11-.23-.15Zm-62.54-43c.1,0,.19,0,.17-.14s0-.31-.06-.45L41,73.05c.13.23.15.51.43.59,0,0,0,.1,0,.14s-.1.13,0,.26C41.5,74,41.49,73.87,41.48,73.78Zm65.2,12.54c.28-.07.28-.07.13-.38l-.15.37-.19-.28-.52.25.11.37.24-.3.09.28h.38ZM46.16,74.58l-.41-.51a.3.3,0,0,0,0,.26c.08.18.26.36.24.52-.05.38.2.32.45.41a4.43,4.43,0,0,0,0-.59c0-.15.11-.39-.19-.46,0,.14,0,.25,0,.37Zm57,33.71c.31-.3.31-.4,0-.71-.33.08-.32.08-.35.38s-.07.76-.11,1.16l.19.17.17.19a.56.56,0,0,0,0-.7,1.8,1.8,0,0,1-.14-.32l.24-.18Zm-53-46.66.49.06-.12-.32c-.07-.16-.23-.36-.19-.49a2.44,2.44,0,0,1,.47-1.14l-.35-.44a3.92,3.92,0,0,0-.23,1.41c0,.09,0,.25-.09.27-.26.09-.24.31-.28.51.12,0,.31-.13.3.13-.36.31-.4.46-.2.89,0-.2,0-.36,0-.53l.22,0ZM35.94,104.79c-.1.28.12.52.1.8s.12.28.3.29.28,0,.43,0v-.22l.33,0a1.83,1.83,0,0,0-.24-.38.89.89,0,0,1-.29-.55.58.58,0,0,0-.11-.24c-.16-.2-.33-.39-.53-.63-.29,0-.29,0-.45.48l.49.44ZM57.7,37a3.81,3.81,0,0,1-1.23.39.83.83,0,0,1-.63-.14.44.44,0,0,0-.28-.08.64.64,0,0,1-.67-.46c-.11-.23-.2-.46-.33-.68s-.36-.62-.56-.91-.4-.55-.6-.83a.46.46,0,0,0-.53-.15,1.47,1.47,0,0,0-.9.66,11.24,11.24,0,0,0-.49,1A6.51,6.51,0,0,0,51,37.07a9.58,9.58,0,0,1-.56,1.22,1.14,1.14,0,0,1-1.17.7.83.83,0,0,0-.87.9,8.8,8.8,0,0,1-.12,1.21.51.51,0,0,1-.38.46,3.46,3.46,0,0,0-.46.21c-.32.15-.43.15-.64-.14a1.15,1.15,0,0,1-.28-.85,4.31,4.31,0,0,0-.08-1.58,2.07,2.07,0,0,0-.56-1.12,5.42,5.42,0,0,1-1-1.72.38.38,0,0,1,0-.16,2.23,2.23,0,0,1,0-.74c.17-.43.25-.88.43-1.29a6.78,6.78,0,0,1,.48-.72.79.79,0,0,1,.58-.36,3.18,3.18,0,0,1,.46-.05,4.43,4.43,0,0,0,2.3-.82,1.79,1.79,0,0,1,1.18-.36c.36,0,.46.09.54.45a3.32,3.32,0,0,1,0,.35c0,.2,0,.4.26.49l.66-.41a3.28,3.28,0,0,1,.59-.37c.21-.07.23-.18.21-.36s-.07-.58-.09-.87.29-.7.53-.72a2,2,0,0,0,.65-.24,2,2,0,0,1,.45-.05,1.6,1.6,0,0,0,.6-.1,4.2,4.2,0,0,1,1-.38A1.29,1.29,0,0,1,56.8,30a1.13,1.13,0,0,1,0,1.19c-.28.37-.58.71-.88,1.06a.44.44,0,0,1-.19.14c-.25.08-.35.31-.46.51a.67.67,0,0,0,.06.85,2.13,2.13,0,0,0,.45.37,11.54,11.54,0,0,1,1.81,1.1,1.82,1.82,0,0,0,.64.31.54.54,0,0,0,.44-.06,1.55,1.55,0,0,0,.46-.62,3.09,3.09,0,0,0,.09-1A6.89,6.89,0,0,0,59,33c0-.29.14-.51.39-.41a3,3,0,0,1,1.19.58.65.65,0,0,0,1,.1,1.48,1.48,0,0,0,.22-.17c.32-.27.32-.43,0-.69s-.9-.65-1.32-1a1.52,1.52,0,0,1-.65-1.08,3.59,3.59,0,0,1,.1-.86c.1-.43,0-.57-.38-.72l-.15,0a1,1,0,0,1-.7-1,.86.86,0,0,0-.23-.63c-.29.09-.65-.13-.91.18,0,0-.07,0-.11,0a1.45,1.45,0,0,1-.79-.3,1.92,1.92,0,0,0-.46-.23c-.19-.1-.31,0-.43.14a12.39,12.39,0,0,0-1,2c-.26.58-.56.88-1.17.5a.56.56,0,0,0-.25-.06.7.7,0,0,1-.74-.82,1.52,1.52,0,0,1,.57-1.1c.31-.26.62-.54.91-.82a.45.45,0,0,0,.16-.53c-.16-.08-.32-.18-.48-.25s-.2-.07-.26,0a2.41,2.41,0,0,0-.79.57,6.4,6.4,0,0,1-1.08,1.39l-.1.11a.7.7,0,0,1-.21,0c-.56-.29-.8-.49-.47-1.08a3.28,3.28,0,0,1,.82-1.06.74.74,0,0,0,.14-.14.36.36,0,0,0-.11-.57c-.13-.07-.27-.11-.39-.18a.44.44,0,0,1-.2-.64c.07-.17.17-.33.25-.5s0-.26-.15-.31a1,1,0,0,0-1.11.39c-.33.51-.61,1-.91,1.57a.25.25,0,0,0,0,.11,2,2,0,0,1-.54,1.12c-.15.21-.29.21-.51.08l-.23-.15a.49.49,0,0,1-.18-.63c.05-.14.11-.27.17-.4a.79.79,0,0,0-.07-.89.51.51,0,0,1,0-.66,2.35,2.35,0,0,0,.26-.44c.08-.2.25-.42,0-.67l-.5.31-.82.55c-.27.19-.55.37-.8.58s-.36.37-.56.54A6.88,6.88,0,0,1,44,25.84a.24.24,0,0,0-.09.08,15.58,15.58,0,0,1-2.19,2l-1.53,1.3L38.9,30.27c-.12.1-.28.16-.38.27a3,3,0,0,1-.93.65,2,2,0,0,0-.39.32,3.13,3.13,0,0,1-.49.37c-.37.18-.38.17-.27.55a.28.28,0,0,1-.08.32,6.55,6.55,0,0,1-.9.76,5.12,5.12,0,0,0-.68.63c-.4.35-.58.93-1.14,1.11,0,0,0,0,0,.06-.22.31-.45.62-.66.94-.11.16-.17.36-.29.51s-.35.52-.52.79-.3.5-.44.76c-.25.48-.52,1-.79,1.43s-.42.7-.64,1a7.16,7.16,0,0,1-.49.66.28.28,0,0,1-.24.08.49.49,0,0,0-.53.19,7.72,7.72,0,0,0-1,1.08,23,23,0,0,1-1.3,1.91.84.84,0,0,0-.15.41c-.07.46-.1.92-.18,1.37a9.53,9.53,0,0,1-.56,2.05,1.61,1.61,0,0,0-.11.3,7.12,7.12,0,0,1-.75,2,.69.69,0,0,0,.35,1.09s.12,0,.15,0a.87.87,0,0,1,.21.3.58.58,0,0,1,0,.35.31.31,0,0,0,.09.42.33.33,0,0,1,.09.4c-.07.23-.16.45-.21.68a18.45,18.45,0,0,0-.5,2.8A6.51,6.51,0,0,1,24.81,58a3.84,3.84,0,0,0-.32,1.48.2.2,0,0,1,0,.08,4.16,4.16,0,0,0-.27,1.36.81.81,0,0,1,0,.15l-.16.68c0,.1,0,.21-.06.31a6.74,6.74,0,0,0-.22,2.28c0,.46.14.91.23,1.36A.8.8,0,0,0,24,66a1.81,1.81,0,0,1,.18,1,1.27,1.27,0,0,0,.13.53,4.69,4.69,0,0,1,.2.43.57.57,0,0,0,.35.35c.12,0,.26.12.3.22a1.9,1.9,0,0,0,.62.7.6.6,0,0,0,.76.07c.46-.26.59-.23,1,.16a1.12,1.12,0,0,1,.27.43c.08.29.12.59.18.89a4,4,0,0,0,.11.51,3.4,3.4,0,0,1,.3,1.47.84.84,0,0,0,.06.27.39.39,0,0,0,.41.33c.05,0,.1,0,.15,0a.89.89,0,0,1,1,.49c.08.15.17.3.26.45a1.21,1.21,0,0,1,.18.84,2.5,2.5,0,0,1-.15.65.63.63,0,0,0,.15.72,1.2,1.2,0,0,1,.15.27c.09.19.16.39.25.57a7,7,0,0,0,.71,1c.11.15.19.31.42.31a.25.25,0,0,1,.19.12c.16.39.51.55.83.75a.62.62,0,0,0,.79,0,2,2,0,0,1,1-.44c.37,0,.52,0,.64.38a2.33,2.33,0,0,1,.13.93,1.15,1.15,0,0,0,.19.82,1.9,1.9,0,0,1,.21.43,1.46,1.46,0,0,1,0,1.13,3.41,3.41,0,0,0-.28,1.38,11.64,11.64,0,0,0,.14,1.54.5.5,0,0,1-.25.6c-.3.24-.75.18-1,.5-.17,0-.26.05-.36.17S34,87,34,87a3.45,3.45,0,0,0-.35.16,2.8,2.8,0,0,0-1,1.35.83.83,0,0,0-.07.5A9.62,9.62,0,0,0,33,90.8a12.71,12.71,0,0,1,.53,1.33c.23.74.41,1.5.63,2.25.18.6.38,1.18.57,1.78s.33,1.14.51,1.71a3.94,3.94,0,0,0,.29.78c.34.61.75,1.17,1,1.81s.69,1.25,1,1.89c.22.45.38.93.58,1.39a1.1,1.1,0,0,0,1,.72,12.18,12.18,0,0,1,1.39.23.51.51,0,0,1,.26.16q.55.61,1.09,1.25a2.64,2.64,0,0,1,.35.52,2.26,2.26,0,0,1,.18,1.31,2.32,2.32,0,0,0,0,.64c.05.37.17.72.21,1.09s.07,1,.11,1.45a2,2,0,0,0,.21.76,8.69,8.69,0,0,1,.44,1.14c.12.38.2.77.28,1.15a1.78,1.78,0,0,1,0,.5c0,.3-.11.59-.12.89a2.53,2.53,0,0,0,.27,1.14,11.75,11.75,0,0,1,.48,1.46c.13.43.27.86.39,1.29a8,8,0,0,0,.24,1c.27.63.59,1.24.89,1.85a1.37,1.37,0,0,0,.4.58.43.43,0,0,1,.14.23,1.51,1.51,0,0,0,.43.6,3.77,3.77,0,0,1,.34.43c.24.4.47.8.69,1.21s.42.79.63,1.19a1.37,1.37,0,0,0,.16.27l.81.87a1.31,1.31,0,0,1,.22.33,1.07,1.07,0,0,0,.48.56,2.13,2.13,0,0,1,.25.19l.9.7a.24.24,0,0,0,.35,0c.16-.13.3-.08.47,0a5.1,5.1,0,0,0,.77.27.37.37,0,0,0,.42-.15c-.06-.51-.45-.74-.82-1s-.71-.31-1.07-.47-.24-.24-.11-.45l.22-.33c.23-.36.21-.41,0-.74a6.59,6.59,0,0,1-.44-.75,3.53,3.53,0,0,0-.74-1.2.81.81,0,0,1,.14-1.25c.23-.15.53-.27.51-.64,0,0,0-.07.05-.1a2.17,2.17,0,0,1,1-.72c.09-.05.28,0,.39.09s.47.34.7.51l.19-.09a4.16,4.16,0,0,1,2-.5,1.14,1.14,0,0,0,.34-.1,1.39,1.39,0,0,0-.44-.73,1.24,1.24,0,0,1-.43-.7,1.23,1.23,0,0,0-.78-.92,1.94,1.94,0,0,1-.56-.43c-.18-.17-.1-.36.14-.44a.64.64,0,0,1,.58.16,2.28,2.28,0,0,0,1.16.44,2.48,2.48,0,0,1,1.2.42l.77.54c.21.15.35.14.49-.09a4.52,4.52,0,0,0,.33-.66,2.48,2.48,0,0,0,.27-1.8.52.52,0,0,1,.11-.47,2.39,2.39,0,0,1,1.09-.51,4,4,0,0,0,1.48-.28c.28-.14.38-.2.38-.52a1.93,1.93,0,0,0-.41-1.14,2.32,2.32,0,0,1-.22-.41,3.35,3.35,0,0,1-.12-.35c0-.17.09-.31.13-.46.09-.37.23-.5.59-.49a2.91,2.91,0,0,1,.58.08c.17,0,.35.18.51.16.65-.08,1.29.12,1.95,0a3.2,3.2,0,0,0,1-.28c.7-.34,1.28-.87,2-1.2a1.22,1.22,0,0,0,.62-.69,1.88,1.88,0,0,1,.46-.86c.1-.08.1-.29.14-.44a2.84,2.84,0,0,1,.12-.61.78.78,0,0,0,0-.56.87.87,0,0,1,0-.7.9.9,0,0,0,.1-.57,1.56,1.56,0,0,1,.94-1.63,1.27,1.27,0,0,0,.75-1,1.43,1.43,0,0,1,.21-.54.94.94,0,0,0,.16-.74.41.41,0,0,1,.14-.46,4.44,4.44,0,0,1,1.18-.91,1,1,0,0,0,.27-.22L74,100.4c.06-.06.15-.11.16-.17,0-.27.23-.41.36-.6s.18-.29,0-.47a.38.38,0,0,1-.05-.27.88.88,0,0,0-.41-.75.79.79,0,0,1-.29-.51h-.19a1.49,1.49,0,0,0-1-1l-1-.4c-.21-.08-.35-.28-.61-.28a.75.75,0,0,1-.56-.3,2.79,2.79,0,0,0-.56-.43c-.19-.12-.27-.38-.54-.4a.94.94,0,0,1-.25-.1c-.16-.07-.29-.15-.24-.36a.17.17,0,0,0-.16-.22.53.53,0,0,1-.46-.42c-.16.19-.28.09-.39,0s-.15-.21-.25-.24a4.81,4.81,0,0,0-1-.26c-.22,0-.37-.06-.42-.3a.62.62,0,0,1-.79-.24c-.17,0-.37.08-.41,0s-.38-.15-.55-.24-.35,0-.52,0a1.33,1.33,0,0,0-.91,0,.48.48,0,0,1-.12,0c-.64,0-1.29,0-1.93,0a1.5,1.5,0,0,1-1-.44,3.51,3.51,0,0,0-.54-.37c0-.25,0-.58-.08-.9a3.44,3.44,0,0,0-.17-.68c-.1-.26-.23-.51-.34-.76a5.51,5.51,0,0,1-.32-.68A5.4,5.4,0,0,1,58,87.11a1.27,1.27,0,0,0-.19-.63,5.21,5.21,0,0,0-1.24-1.22.85.85,0,0,0-.46-.18,5.27,5.27,0,0,1-.76-.19,6.13,6.13,0,0,0-1.42-.26c-.56,0-1.12-.08-1.68-.12a1.82,1.82,0,0,1-.27,0,1.31,1.31,0,0,1-.59-.19,5.49,5.49,0,0,1-.79-.94A5.62,5.62,0,0,1,50,82.33c-.2-.51-.32-1.06-.51-1.58s-.44-1-.64-1.49a.73.73,0,0,0-.74-.51c-.21.45-.41.91-.62,1.35a.38.38,0,0,1-.14.13.78.78,0,0,1-.85.09,1.07,1.07,0,0,0-.43-.18,1.71,1.71,0,0,1-.7-.22c-.4-.18-.8-.34-1.18-.53a2.9,2.9,0,0,1-1.14-.76c-.21-.27-.37-.58-.56-.86s-.47-.67-.7-1a5.35,5.35,0,0,1-.34-.49,1.18,1.18,0,0,0-.76-.53.89.89,0,0,0-.84.32,1.81,1.81,0,0,1-.54.72,3.28,3.28,0,0,0-.91,1.33,1.67,1.67,0,0,1-2,.95c-.62-.26-1.23-.55-1.86-.74a1.9,1.9,0,0,1-1.17-.77A5.17,5.17,0,0,1,33,77a3.19,3.19,0,0,1-.36-1.46,1.78,1.78,0,0,0-.06-.31,3.14,3.14,0,0,1-.1-.58,4.92,4.92,0,0,1,.11-1.7c.08-.23.13-.49.2-.73a1,1,0,0,0,0-.7c-.08-.16-.18-.32-.26-.49a.9.9,0,0,0-1-.51l-.46.12a1.19,1.19,0,0,1-1-.16c-.2-.14-.26-.24-.14-.46a1.14,1.14,0,0,1,.3-.29c.13-.11.27-.2.39-.32a8.12,8.12,0,0,1,.77-.88c.15-.12.25-.34.42-.41.42-.19.43-.59.48-.93a1.49,1.49,0,0,1,.28-.86.41.41,0,0,0,.06-.29.48.48,0,0,0-.59-.44,2.19,2.19,0,0,0-1.52.9,2.06,2.06,0,0,1-1.31.75,1.22,1.22,0,0,0-.8.29c-.3-.11-.55-.19-.8-.29a.84.84,0,0,1-.33-.2,4.33,4.33,0,0,1-.56-1.11.32.32,0,0,1,0-.16c0-.3.05-.6.09-.9a.4.4,0,0,1,.08-.22,2,2,0,0,0,.37-1,1.73,1.73,0,0,1,.1-.38,12.26,12.26,0,0,0,1-1.79c0-.08.11-.15.16-.22a2.45,2.45,0,0,0,.47-.81,3.58,3.58,0,0,1,.36-.74c.08-.15.21-.27.28-.43a5.45,5.45,0,0,1,.73-1.17,1.14,1.14,0,0,1,2,.1,3.09,3.09,0,0,0,.83.82.31.31,0,0,0,.46-.17,4,4,0,0,0,.08-.66c0-.26.1-.44.27-.51a.45.45,0,0,1,.59.16,2.85,2.85,0,0,0,.31.3.41.41,0,0,0,.21.09,5,5,0,0,0,.5,0,.76.76,0,0,1,.76.67c.11.5.19,1,.27,1.52a.56.56,0,0,1,0,.24,3,3,0,0,0,.18,2,3.8,3.8,0,0,0,.6.88.17.17,0,0,0,.28,0c.06-.07.11-.2.08-.26a.49.49,0,0,1,0-.41,5.39,5.39,0,0,0,.46-2,3.27,3.27,0,0,1,.13-1.1.47.47,0,0,0,0-.31,2.21,2.21,0,0,1,0-1.48,3.62,3.62,0,0,1,1.17-1.14l1.18-.27a4.18,4.18,0,0,0,2.07-1,4.72,4.72,0,0,0,1.36-1.69.47.47,0,0,1,.09-.13,6.56,6.56,0,0,0,.87-1.34A2.76,2.76,0,0,1,45.4,52a3.12,3.12,0,0,0,.55-.76,1.5,1.5,0,0,1,.66-.8.46.46,0,0,1,.61,0c.22.18.33.15.56,0a1.92,1.92,0,0,0,.61-.86,1.24,1.24,0,0,1,.87-.8c.35-.09.72-.11,1.09-.17.11,0,.26,0,.32-.11.22-.29.57-.31.85-.48a.32.32,0,0,1,.48.32c-.07.31-.06.68-.41.86a.2.2,0,0,0-.08.29l.7-.09A4.54,4.54,0,0,0,53.63,49c.61-.32,1.32-.14,2-.36.42-.14.45-.09.53-.53a1.91,1.91,0,0,1,0-.2c0-.12.12-.2.27-.13a1.22,1.22,0,0,0,.2.06,1.34,1.34,0,0,0-.44-.73.29.29,0,0,0-.22-.05c-.17,0-.34.12-.51.17l-.94.26c-.15-.15-.26-.27-.38-.36a.87.87,0,0,1-.33-1c.05-.24.19-.51-.07-.78a2.38,2.38,0,0,0-.51.05c-.69.21-.7.21-1-.42l0-.06a.31.31,0,0,1,.09-.42,1.69,1.69,0,0,1,.86-.37A6.14,6.14,0,0,0,54.18,44a2.1,2.1,0,0,1,.92,0c.18,0,.33.2.51.33.39-.19.65.18,1,.29.26-.12.52-.25.78-.36s.26-.08.34-.24a.33.33,0,0,1,.3-.1.43.43,0,0,1,.24.27.62.62,0,0,1-.25.69.83.83,0,0,0-.24.35c-.11.22-.19.46-.3.76l.48.65c.22,0,.44-.1.55,0,.28.2.58.1.86.14a3.85,3.85,0,0,1,1.06.39c.13.05.21.19.38.11s.34,0,.44-.13a.71.71,0,0,0,.29-.66,7.81,7.81,0,0,0-.26-.83.38.38,0,0,0-.32-.31.54.54,0,0,1-.29-.18,1.4,1.4,0,0,1-.38-1.55,1.22,1.22,0,0,0,0-.2c0-.08,0-.18.07-.22a.75.75,0,0,0,.2-.62l.19,0c.09-.59,0-.7-.54-.82a2.6,2.6,0,0,1-.39-.17c.09-.24-.08-.33-.26-.4a.61.61,0,0,1-.39-.46.34.34,0,0,0-.25-.27.47.47,0,0,1-.37-.37c0-.06-.08-.1-.11-.16a1.7,1.7,0,0,1-.36-.95.69.69,0,0,0-.09-.34.72.72,0,0,1,0-.74.28.28,0,0,0,0-.22C57.91,37.41,57.8,37.2,57.7,37ZM91.91,76l.24,1.62s0,0,0,0a1.27,1.27,0,0,0,.41,1.09c.06.06.18.08.22.14A3,3,0,0,0,93.89,80c.3.17.55.41.86.56a5,5,0,0,1,1.31,1.06,4.54,4.54,0,0,0,.7.69,2.54,2.54,0,0,1,.51.54,4.32,4.32,0,0,0,.39.58c.24.21.38.55.74.61a.22.22,0,0,1,.15.12c.1.3.39.38.59.56a2.78,2.78,0,0,0,1.64.59,1.48,1.48,0,0,0,.72-.13,12.17,12.17,0,0,1,1.37-.49c.38-.11.77-.15,1.15-.26a1.76,1.76,0,0,1,1.19.06c.17.07.35.12.51.19a.84.84,0,0,0,1.09-.34c.11-.16.22-.33.31-.5a1,1,0,0,1,.42-.4c.51-.28,1-.59,1.5-.9.69-.43,1-.33,1.45.16a2.77,2.77,0,0,1,.59,1.19.94.94,0,0,0,1.2.74c.19,0,.39,0,.58-.08a2.31,2.31,0,0,0,.37-.11c.15-.06.28-.14.43-.19a.34.34,0,0,1,.26,0,3.35,3.35,0,0,1,.58.52,1.85,1.85,0,0,1,.29,1.78,9.48,9.48,0,0,0-.36,2.58,1.63,1.63,0,0,0,.14.8,7,7,0,0,1,.33,1c.09.27.18.58.46.7a.64.64,0,0,1,.39.5,1.48,1.48,0,0,0,.16.56,5.59,5.59,0,0,1,.78,1.27,3,3,0,0,1,.41,1.48c-.05.53-.12,1.07-.17,1.6,0,.27,0,.55,0,.83a.72.72,0,0,1,0,.23q-.26.68-.53,1.35a1.48,1.48,0,0,1-.16.26c-.22.33-.46.64-.65,1s-.24.84-.56,1.17c0,0,0,.13,0,.19a2.63,2.63,0,0,1-.59,1.55,2.32,2.32,0,0,0-.49,1.1c0,.36,0,.73,0,1.1,0,.09,0,.23-.07.24-.31.08-.29.33-.21.52a6.64,6.64,0,0,1,.22,1.6.78.78,0,0,1,0,.24,2.26,2.26,0,0,0-.07,1.16.83.83,0,0,1,0,.44,8.61,8.61,0,0,0-.12,1c-.08.59-.22,1.17-.33,1.74.07.12.2.25.2.36a2.53,2.53,0,0,1-.18.81,3.55,3.55,0,0,0-.26.72c-.09.44-.26.85-.39,1.28a.36.36,0,0,0,.15.48l1-.63c.63-.4,1.28-.78,1.9-1.21a4.11,4.11,0,0,0,.81-.74c.4-.48.77-1,1.15-1.51a2,2,0,0,1,.72-.59A1,1,0,0,0,119,111a5.29,5.29,0,0,1,.34-1.13,1.86,1.86,0,0,1,1-1,2.51,2.51,0,0,0,1.35-1.51,2.17,2.17,0,0,1,.39-.72,4.58,4.58,0,0,0,.73-1.25,2.3,2.3,0,0,1,.43-.72,1.38,1.38,0,0,0,.31-.38,1.83,1.83,0,0,1,.21-.28c.06-.08.17-.15.2-.24a8.5,8.5,0,0,0,.4-1,4.58,4.58,0,0,1,.33-.8c.33-.84.65-1.69,1-2.53a.33.33,0,0,0,0-.15,1.57,1.57,0,0,1,.26-1.09,2.75,2.75,0,0,0,.23-.5,8.24,8.24,0,0,1,.49-1.38,6,6,0,0,0,.44-1.37c.21-.7.31-1.44.47-2.16,0-.17.09-.33.13-.5a3.91,3.91,0,0,0,.38-1.72.38.38,0,0,1,0-.15c.1-.35.2-.7.29-1.05s.14-.65.22-1a7.61,7.61,0,0,1,.39-1.61.87.87,0,0,0,.07-.35,14,14,0,0,1,.47-2.89,7.5,7.5,0,0,1,.32-1.55.15.15,0,0,0,0-.11,1.66,1.66,0,0,1,0-.85,6.64,6.64,0,0,0,.18-1.69,1.93,1.93,0,0,1,.09-.62c0-.16.13-.31,0-.48a.29.29,0,0,1,0-.26.46.46,0,0,0,0-.29c0-.31,0-.63.08-.93l-.11-.35.22,0c0-.66.08-1.31.12-2l.35,0a8.33,8.33,0,0,1,.13-1,3.57,3.57,0,0,0,.12-1.44,3,3,0,0,1,0-.71,3.25,3.25,0,0,0,0-.86,3.45,3.45,0,0,1,0-.55c0-.36,0-.71,0-1.07s-.16-.4-.49-.35a1.11,1.11,0,0,1-.54,0,2.2,2.2,0,0,1-.57-.46.7.7,0,0,1-.13-.24c-.12-.29-.27-.58-.36-.88s-.35-.39-.49-.61c-.33-.55-.66-1.11-1-1.67-.11-.2-.19-.41-.29-.61-.3-.58-.62-1.16-.92-1.74a5.26,5.26,0,0,1-.39-.86.89.89,0,0,0-.32-.48,5.5,5.5,0,0,1-1.17-1.48,13.16,13.16,0,0,1-.69-1.38s0-.11-.06-.14c-.25-.26-.52-.51-.77-.78a.52.52,0,0,1-.11-.32,1.27,1.27,0,0,1,.08-.39c.07-.25.2-.33.45-.23a3.86,3.86,0,0,1,.64.38c.12.08.22.21.35.25a1.46,1.46,0,0,1,.78.69,7.94,7.94,0,0,0,.8,1.12,1.08,1.08,0,0,1,.4.74c0,.22,0,.44.22.57.06,0,.07.14.11.21a3.06,3.06,0,0,0,.48.9,5.32,5.32,0,0,1,.65.93,8.34,8.34,0,0,1,.61,1.15c.09.18.1.41.36.47.06,0,.12.11.15.17.11.27.17.56.45.72,0,0,0,.07,0,.11a5,5,0,0,0,.78,1.69,2.08,2.08,0,0,0,.15.17l.3-1.32a.19.19,0,0,0,0-.08,4,4,0,0,0-.37-1.36,1.35,1.35,0,0,1-.19-.78,2.87,2.87,0,0,0-.07-1.19c-.08-.23-.12-.47-.21-.69s-.2-.34-.26-.53,0-.44-.09-.64a3.46,3.46,0,0,0-.4-.86,3.73,3.73,0,0,1-.55-1.22c-.09-.34-.19-.69-.29-1,0-.14-.13-.26-.29-.2-.32.12-.52-.07-.73-.26s-.58-.5-.88-.74a.78.78,0,0,1-.28-.92l1.37.18a.46.46,0,0,0,0-.15c-.29-.84-.57-1.67-.88-2.5a1.61,1.61,0,0,0-.2-.28.39.39,0,0,1-.07-.18,1.79,1.79,0,0,0-.32-.75c-.07-.14-.13-.29-.2-.42a5.13,5.13,0,0,0-.8-1.3,2.42,2.42,0,0,1-.58-.84,3.33,3.33,0,0,0-.74-1.25.37.37,0,0,1-.09-.29.71.71,0,0,0-.3-.65,7.28,7.28,0,0,1-.91-1.08c-.24-.33-.47-.66-.7-1-.08-.12-.14-.25-.22-.38-.21-.37-.4-.74-.63-1.09-.35-.55-.74-1.09-1.11-1.63a1.83,1.83,0,0,0-.16-.22,3.76,3.76,0,0,1-.84-.9.26.26,0,0,0-.11-.11c-.49-.27-.63-.84-1-1.23-.08-.09-.09-.26-.18-.33-.31-.23-.45-.64-.81-.82,0,0-.05-.06-.08-.09-.21-.26-.42-.53-.64-.78a6.44,6.44,0,0,1-.54-.6,1,1,0,0,0-.43-.43,2.79,2.79,0,0,0-.54-.24,1.14,1.14,0,0,1-.82-.72.51.51,0,0,0-.15-.22,4.35,4.35,0,0,1-1.43-1.5,1.59,1.59,0,0,0-.61-.55,3.29,3.29,0,0,1-.9-.74c-.3-.34-.63-.66-1-1s-.55-.6-.87-.86-.54-.76-1-.84c0,0-.07,0-.08-.08a.58.58,0,0,0-.54-.32.84.84,0,0,1-.69-.43,2.32,2.32,0,0,0-.55-.42c-.11-.07-.27-.08-.34-.17a3.43,3.43,0,0,0-.71-.63,6.25,6.25,0,0,1-.62-.63,2.3,2.3,0,0,0-.88-.68,2.92,2.92,0,0,1-.67-.49,2.11,2.11,0,0,0-1.39-.49c-.19.38-.18.38.07.66a2.24,2.24,0,0,1,.17.26,1.6,1.6,0,0,0,.21.28,1.23,1.23,0,0,1,.35.6,10.22,10.22,0,0,0,.43,1.1,7.16,7.16,0,0,1,.41.85,1.16,1.16,0,0,1,0,.66.5.5,0,0,1-.36.26,1.24,1.24,0,0,1-1-.41c-.2-.2-.29-.5-.52-.68,0,0-.05-.12-.06-.18a.87.87,0,0,1,.22-.74.39.39,0,0,0,.1-.5,1.24,1.24,0,0,0-.18-.35c-.19-.19-.4-.47-.63-.5a2.63,2.63,0,0,0-1.4.2c-.57.25-1.13.54-1.68.81-.1-.07-.19-.11-.22-.17a.38.38,0,0,0-.45-.23,1.14,1.14,0,0,0-.55.15,2.34,2.34,0,0,0-.49.66c-.18.33-.2.74-.52,1-.05,0-.06.14-.09.22a4.44,4.44,0,0,0-.18.47,1.26,1.26,0,0,0-.09.64c.08.21.11.43.17.64a2.38,2.38,0,0,0,.37.82,2.31,2.31,0,0,1,.5,1.62.48.48,0,0,1-.08.3,2.3,2.3,0,0,0-.37,1.73.55.55,0,0,0,.08.18c.09.2.2.4.27.61s.18.63.28.95a.55.55,0,0,0,.45.39,2.09,2.09,0,0,0,1.38-.17.9.9,0,0,0,.6-.81.77.77,0,0,1,.72-.63,1.94,1.94,0,0,1,1.58.62.87.87,0,0,1,.2,1.06,3.61,3.61,0,0,1,.1.45.24.24,0,0,0,.2.25l.23,0a1.43,1.43,0,0,0,.77-1.28,1.66,1.66,0,0,0-.11-.85,8,8,0,0,1-.47-1.33c-.07-.19-.16-.36-.4-.38a2.29,2.29,0,0,1-.94-.31.72.72,0,0,1-.26-.28.48.48,0,0,0-.43-.33.27.27,0,0,1-.19-.16,3.86,3.86,0,0,1-.09-.55c0-.34,0-.72-.27-1a1.38,1.38,0,0,1-.29-.44c-.11-.25-.21-.51-.3-.77a.61.61,0,0,1,.29-.72.79.79,0,0,1,.78,0,6.22,6.22,0,0,1,.65.94,6.73,6.73,0,0,1,.39.79,13.88,13.88,0,0,0,.73,1.49,1.64,1.64,0,0,0,.51.69,2.36,2.36,0,0,1,.42.48,1.52,1.52,0,0,0,.61-.66,1.7,1.7,0,0,1,1-.85.58.58,0,0,1,.63.89,5.54,5.54,0,0,1-.62.76.52.52,0,0,0-.16.6c.07.26.17.5.24.76a.66.66,0,0,0,.24.38c.32.28.66.55.61,1.08a.87.87,0,0,1-1,.84,2.25,2.25,0,0,0-.39,0,1.29,1.29,0,0,1-.34,0,.53.53,0,0,0-.62.22c-.21.27-.42.53-.61.77l-.73,0a1.31,1.31,0,0,0-.74-.76.76.76,0,0,1-.32-.27,1.37,1.37,0,0,1-.23-.91,1.12,1.12,0,0,0,0-.31c-.5,0-.53,0-.5.47a1.34,1.34,0,0,0,.09.38c.11.28.26.55.34.84a4.8,4.8,0,0,1,0,1.38.3.3,0,0,1,0,.19c-.33.36-.36.88-.69,1.23a.41.41,0,0,0-.09.4.67.67,0,0,1-.22.71,2.55,2.55,0,0,0-.56.74,1.52,1.52,0,0,1-.45.54,12,12,0,0,1-1.86,1.43.49.49,0,0,0-.15.12.48.48,0,0,0-.11.2.94.94,0,0,0,.58,1.06,4.64,4.64,0,0,0,.9.25.93.93,0,0,1,.6.34,3.63,3.63,0,0,1,.71,1c.11.27.18.53-.08.76a.27.27,0,0,0-.09.16c0,.35-.34.46-.48.71a.2.2,0,0,1-.14.06l-.82,0a.55.55,0,0,0-.39.12.49.49,0,0,1-.61.1c-.12.08-.22.21-.3.19a.62.62,0,0,0-.64.28,1.43,1.43,0,0,0-.34.66,3.67,3.67,0,0,0,.1,1.09c.08.35.23.69.34,1s0,.69.18,1c0,0,0,.13,0,.19a.46.46,0,0,0,0,.15,1.15,1.15,0,0,0,1,.88,2.09,2.09,0,0,1,1.53.75A1.88,1.88,0,0,1,98.1,57a2.83,2.83,0,0,1-.26.19,3.23,3.23,0,0,0-.32.13,1.05,1.05,0,0,0-.21.26c-.05.09-.07.21-.14.26a2,2,0,0,0-.8.9.79.79,0,0,1-.22.33.28.28,0,0,0-.11.27c0,.37,0,.73.05,1.1s.14.72.21,1.09a.53.53,0,0,1-.28.63,1.21,1.21,0,0,0-.57.49c-.13.31-.49.25-.61.52a1.56,1.56,0,0,1-.12.2L94,64.43c-.19.26-.45.49-.32.88,0,.05,0,.13,0,.19a6.67,6.67,0,0,1-.5,1.66.93.93,0,0,1-.33.46.74.74,0,0,0-.37.52,1.08,1.08,0,0,1-.48.79.34.34,0,0,0-.13.14,2.1,2.1,0,0,0-.15,1.43,2.49,2.49,0,0,1,.16.92A1.77,1.77,0,0,0,92,72.62l.35.62-.12.21c.1,0,.18,0,.23,0a.2.2,0,0,1,0,.18,1.66,1.66,0,0,1-.11.25s0,0,0,.08h.15a.63.63,0,0,1-.09.46,1.74,1.74,0,0,0-.42,1.17C92.11,75.73,92,75.87,91.91,76ZM75.16,23.21a2.84,2.84,0,0,1-.43.23c-.32.11-.65.2-1,.29a.9.9,0,0,1-.3,0c-.43,0-.86-.08-1.29-.1a1.85,1.85,0,0,1-.86-.11c-.19-.1-.32-.07-.39.16s-.14.17-.28.13a.55.55,0,0,0-.23,0,.56.56,0,0,1-.46-.1c-.18-.13-.29-.07-.42.11l-.18.23a.66.66,0,0,0-.81.16L68.31,24l-.3.33-.25-.4-1,.55c-.41.23-.75.65-1.31.49,0,0-.1,0-.15.05-.39.05-.75.26-1.18.09a.69.69,0,0,0-.75.3,1.88,1.88,0,0,0-.23,1.51h.31a.93.93,0,0,1,.35,0,1.92,1.92,0,0,0,.73.11.86.86,0,0,1,.68.26,2.59,2.59,0,0,1,.62,1.09,1,1,0,0,1-.4,1.21.52.52,0,0,0-.14.14.24.24,0,0,0,.05.38,1,1,0,0,0,.29.1,1.26,1.26,0,0,1,.29.08.89.89,0,0,1,.29.92.75.75,0,0,1-.6.55,1.58,1.58,0,0,0-.63.29.65.65,0,0,0-.24.42,3.13,3.13,0,0,0,.05.9c.13.59.3,1.18.47,1.76s.44,1.44.67,2.16c.12.38.31.47.71.43a3.62,3.62,0,0,1,2,.17c.08,0,.21.06.26,0s.4-.08.59,0c0-.3-.06-.57-.07-.84s0-.32.3-.42.79-.21,1-.57l-.07-.26.26-.16-.19-.33.18-.39c.12-.27.19-.59.57-.62a.24.24,0,0,0,.1-.05,1.48,1.48,0,0,1,1.34-.2.61.61,0,0,0,.75-.27c.07-.11.14-.22.22-.33a.37.37,0,0,0,0-.44,1.16,1.16,0,0,1-.05-.31l.94-.25a.33.33,0,0,0,.13-.09,2.13,2.13,0,0,1,1.14-.57,2,2,0,0,0,1-.45c.07-.07.2-.14.27-.12s.25,0,.37-.06.22-.09.3-.06A2.52,2.52,0,0,0,79.1,31a1.69,1.69,0,0,0,1.06-.48.88.88,0,0,0-.71-.39.52.52,0,0,1-.28-.11c-.12-.09-.14-.35,0-.38s.29-.33.47-.45a.48.48,0,0,0,.2-.44A.7.7,0,0,1,80,28.2a.38.38,0,0,0,0-.53.23.23,0,0,1-.12-.25c0-.59,0-1.17,0-1.76a1.1,1.1,0,0,0,0-.39,1.1,1.1,0,0,1,0-.66.83.83,0,0,0,0-.33c0-.1-.08-.19-.12-.29a.46.46,0,0,0-.71-.26c-.16.12-.28.19-.45,0s-.12,0-.18,0L77.18,24c0-.21-.11-.38-.34-.4,0,0-.07-.07-.11-.11a.27.27,0,0,0-.44,0,1.61,1.61,0,0,1-.94.06.34.34,0,0,1-.1-.12C75.22,23.39,75.19,23.3,75.16,23.21ZM63,21.7a3.31,3.31,0,0,0-.32,1,.66.66,0,0,1-.56.62.81.81,0,0,0-.26.08.62.62,0,0,1-.74,0c-.28-.2-.54-.42-.8-.64s-.41-.13-.49.12-.15.48-.24.71c-.18.5-.53.6-.95.28-.21-.16-.4-.35-.62-.49a.63.63,0,0,0-.39-.1c-.13,0-.38.49-.34.63s.09.22.16.24a1.19,1.19,0,0,1,.49.39,3.81,3.81,0,0,0,.52.4,2.18,2.18,0,0,1,.58.52,6.24,6.24,0,0,0,.57.6,1.71,1.71,0,0,1,.36-.31c.62-.26,1.24-.49,1.86-.75.15-.06.29-.18.44-.23.31-.1.64-.16,1-.26a5.73,5.73,0,0,0,.85-.28,1.49,1.49,0,0,1,.94-.16,5.79,5.79,0,0,0,.7.06c.45,0,.7-.36,1.07-.49a1.49,1.49,0,0,0-.68-.87.64.64,0,0,0-.83-.08.58.58,0,0,1-.22.08,1.43,1.43,0,0,1-1.78-.7A3,3,0,0,0,63,21.7ZM97.43,40.91a.79.79,0,0,1-.25-.09.5.5,0,0,0-.46-.16.59.59,0,0,1-.58-.24,1.49,1.49,0,0,0-.51-.41,2.5,2.5,0,0,1-.69-.42,2.37,2.37,0,0,1-.77-1,2.09,2.09,0,0,0-.23-.45,4.47,4.47,0,0,0-1.36-1,1,1,0,0,0-.38-.2,1.06,1.06,0,0,0-.56,0c-.17.07-.15.28-.11.46s0,.24,0,.36a1.72,1.72,0,0,0,.31.92,3.29,3.29,0,0,0,1.67,1,1.13,1.13,0,0,1,.92,1,2.59,2.59,0,0,1-.07.74,1,1,0,0,0,.25,1c.13.13.29.23.44.34a.51.51,0,0,0,.62,0c.57-.33,1.15-.64,1.71-1a3.1,3.1,0,0,0,.44-.4l-.46-.25.06-.13A.45.45,0,0,0,97.43,40.91ZM34.23,65.26c.17.33.22.38.43.47l.24.12c.16.09.29.18.12.4s0,.26.17.23a2.63,2.63,0,0,1,1.12.08A1.71,1.71,0,0,1,37.82,68a1.14,1.14,0,0,0,.07.27c.36.81.78,1.08,1.61.82a.36.36,0,0,0,.23-.56,1.72,1.72,0,0,0-.45-.49,2.78,2.78,0,0,1-1.16-1.6,2.27,2.27,0,0,0-2.68-1.37A10.34,10.34,0,0,1,34.23,65.26ZM55.43,22.81a2.64,2.64,0,0,0,.35,0,.37.37,0,0,0,.32-.35c0-.2-.14-.23-.3-.22h-.26a7.32,7.32,0,0,1-1.74.19.55.55,0,0,0-.19,0l-.8.21c-.22.06-.27.16-.25.42a2.73,2.73,0,0,0,.54,1.13c0,.05.13.08.2.1a2.74,2.74,0,0,1,1.49.71,1.14,1.14,0,0,0,.23.22.39.39,0,0,0,.24.07c.17,0,.46-.72.39-.88a.26.26,0,0,0-.1-.12,2.24,2.24,0,0,0-.4-.15,1.47,1.47,0,0,0-.39,0,.51.51,0,0,1-.47-.31c-.1-.17,0-.3.14-.41a.3.3,0,0,0,.07-.1A.82.82,0,0,1,55.43,22.81ZM41.52,68.86l-.07.08c.06.16.14.31.19.47s0,.41-.22.5a1.48,1.48,0,0,0-.73.55c-.08.11-.17.2-.07.35s.18.43.4.37.45.08.66.17a1.27,1.27,0,0,0,1,.13,3.51,3.51,0,0,1,1.5-.14.76.76,0,0,0,.06-.25,1.38,1.38,0,0,0-.35-.74.71.71,0,0,0-.56-.2,1.07,1.07,0,0,1-.7-.41,10.34,10.34,0,0,0-.74-.75A1,1,0,0,0,41.52,68.86ZM89.37,22.43c-.46,0-.83,0-1.2.09a7.72,7.72,0,0,0-1,.2,1.07,1.07,0,0,0-.35.25c-.14.11-.1.22,0,.33l.5.5s.08.12.13.13a1.51,1.51,0,0,1,.71.59.7.7,0,0,0,.61.3,4.37,4.37,0,0,0,.71-.16,2.37,2.37,0,0,0,.42-.24,1.8,1.8,0,0,1-.23-1A6.92,6.92,0,0,0,89.37,22.43ZM83.79,32.85c-.14.1-.28.19-.41.3a1.85,1.85,0,0,1-2,.16,6.23,6.23,0,0,0-.55-.31.46.46,0,0,0-.56.19.4.4,0,0,0,0,.33c.11.18.31.3.39.49s.36.25.52.37a4.46,4.46,0,0,0,.75.36,1.46,1.46,0,0,1,0-.17c0-.06,0-.15,0-.17a.28.28,0,0,1,.21,0,.38.38,0,0,1,.21.17c.05.13.1.25.25.26a1.14,1.14,0,0,0,.39,0c.26-.08.49-.23.74-.34a2.18,2.18,0,0,0,.72-.65.37.37,0,0,0,0-.51A1.09,1.09,0,0,0,83.79,32.85ZM23.52,53.76c0,.08.07.14.07.19a6.62,6.62,0,0,1-.33,1.15.84.84,0,0,0,0,.46,1.34,1.34,0,0,1,0,.5c-.08.55-.18,1.09-.26,1.63a.76.76,0,0,0,0,.19,1.1,1.1,0,0,1,0,.23c-.06.62-.14,1.23-.19,1.84a.31.31,0,0,0,.13.21s.15,0,.2-.06a.42.42,0,0,0,.15-.18,5.13,5.13,0,0,0,.26-.87q.26-1.73.36-3.47a1.12,1.12,0,0,1,.11-.52.43.43,0,0,0,0-.38.58.58,0,0,1,0-.45c0-.23.14-.45.2-.68a3.42,3.42,0,0,0,.05-.37C23.95,53.37,23.91,53.83,23.52,53.76ZM91.38,43.6c.17-.21.4-.37.44-.57a.75.75,0,0,1,.31-.47,3.7,3.7,0,0,0,.45-.38A.34.34,0,0,0,92.7,42a3.63,3.63,0,0,0-.15-.77.79.79,0,0,1-.07-.45c0-.15,0-.32-.2-.39-.11.12-.22.29-.42.19l-.68-.35a1,1,0,0,0-.32.94,1.87,1.87,0,0,1,0,1.21C91.22,42.66,91.12,43.17,91.38,43.6ZM58.47,26.33a6.29,6.29,0,0,1-1.11-1.11c-.27-.45-.75-.68-.93-1.2-.09.14-.23.26-.21.35.06.31-.11.66.13,1a.66.66,0,0,1,.13.33,1,1,0,0,0,.5.72c.11.07.21.21.32.21A2.14,2.14,0,0,0,58.47,26.33Zm49.17,83a4.38,4.38,0,0,0,.08-.52.15.15,0,0,0-.21-.16l-.21.07.25-.95.35.14c0-.08,0-.16,0-.17a1.09,1.09,0,0,0-.64-.33c0-.25,0-.47,0-.69.25.14.3-.14.55-.23-.47-.25-.29-.59-.16-.86a.76.76,0,0,0,.07-.55s.07,0,.08,0a.44.44,0,0,0,0-.53c-.12-.08-.24-.06-.29.08s-.23.36-.18.59a.26.26,0,0,1-.07.2c-.2.17-.05.42-.15.62s.08.15.17.21,0,.13,0,.22l-.26-.09c0,.2.1.4,0,.52a.92.92,0,0,0,.05.91c-.06.06-.14.09-.16.16a.51.51,0,0,0,.12.48c.1.12.21.24,0,.37s-.13.24,0,.38a1.13,1.13,0,0,0,.5.4l-.06-.43Zm-19.41-5.49c0,.27,0,.44.06.62l-.29,0c0,.45.08.87.12,1.3a6.08,6.08,0,0,1,.08.94c0,.21,0,.38.16.5-.25.45-.23.55.11.8a.85.85,0,0,0,.18-.78c0-.07,0-.16,0-.23a1.2,1.2,0,0,0-.06-.43,1.57,1.57,0,0,1-.12-1.22.5.5,0,0,0,0-.27c0-.1-.06-.19-.1-.31l.22.12C88.52,104.56,88.59,104.21,88.23,103.88Zm-2.36,8.18.63-.15c.14-.27-.1-.37-.18-.46a5.39,5.39,0,0,0-.06-.73c-.05-.24-.16-.27-.46-.16a2,2,0,0,0,0,.53,2.31,2.31,0,0,0,.29.51l-.44.05a4.72,4.72,0,0,0,0,.72,12.37,12.37,0,0,0,.12,1.44c0,.14.05.25.21.28a2.15,2.15,0,0,0,0-1.19c0-.07-.07-.18,0-.23C86.06,112.46,85.93,112.28,85.87,112.06Zm-48-40.67c.2,0,.43,0,.49-.19s-.06-.35-.1-.53l0,0c-.17-.2-.35-.4-.51-.61a.27.27,0,0,0-.41-.07c-.23.14-.32.29-.24.48s.21.45.32.68A.42.42,0,0,0,37.88,71.39Zm7.78.39a.8.8,0,0,0,.75.82,5.42,5.42,0,0,0,.82-.11.23.23,0,0,0,.1-.42,1,1,0,0,0-.74-.3C46.3,71.8,46,71.78,45.67,71.78Zm61.14,42c.12-.25.3-.49.19-.8a.13.13,0,0,1,0-.11c.22-.25.08-.56.11-.84,0-.09-.08-.2-.14-.32l-.6.73c.05.15.13.38.21.6,0,0,0,.06,0,.09l-.07.06-.13-.31-.09.07c.09.18-.17.39.06.57l.21-.11C106.46,113.77,106.46,113.77,106.81,113.76ZM38.87,63.92c-.23.14-.46.35-.46.59a1.45,1.45,0,0,0,.28,1c.15.17.22.16.37,0A1.18,1.18,0,0,0,38.87,63.92Zm41.9,52.14c.07-.39.15-.77.19-1.16s.13-.49.16-.72-.15-.46-.21-.69a2.64,2.64,0,0,1-.07-.55c0-.21,0-.42,0-.63a2,2,0,0,0-.06-.29H80.7C80.55,113.38,80.79,114.73,80.77,116.06ZM77.34,36l-.1.33-.43-.64-.32.15-.23-.27a1.17,1.17,0,0,0-.18.92.28.28,0,0,0,.17.19,1.5,1.5,0,0,0,.37,0l.06-.39.16.23.14-.2.14.28C77.44,36.39,77.44,36.39,77.34,36Zm-58,51.85c.14-.53.13-.52-.17-.92a.38.38,0,0,1,0-.25c0-.07.08-.14.1-.21a.54.54,0,0,0-.53-.75,4.25,4.25,0,0,1,.12.66A6.33,6.33,0,0,1,19,87.55C19,87.81,19.05,87.84,19.36,87.81Zm61.44,32.56a.5.5,0,0,0,0-.17,12.6,12.6,0,0,0,0-1.58.65.65,0,0,1,0-.39,2.53,2.53,0,0,0,0-1.66.86.86,0,0,0-.12-.2l-.08,0a11.38,11.38,0,0,1,0,2A13.48,13.48,0,0,0,80.81,120.38Zm-8-9.69-.26.15c0-.16,0-.29,0-.42.25-.19.25-.2.08-.48a1.24,1.24,0,0,0-.26.88.25.25,0,0,0,.2.25.42.42,0,0,1,.29.53,1.59,1.59,0,0,0,.06.45c0,.15,0,.31.24.35a2.25,2.25,0,0,0,.07-.31,1.94,1.94,0,0,1,0-.71c0-.09,0-.25-.1-.35A2.38,2.38,0,0,0,72.81,110.68Zm20.58,6.05c-.19.47-.2.32-.13.81a1.14,1.14,0,0,1,0,.43,6.13,6.13,0,0,0-.13,1.58,1.33,1.33,0,0,0,0,.24h.08c0-.19.06-.37.06-.56a14.7,14.7,0,0,1,.31-1.51,3.1,3.1,0,0,0-.07-.91S93.44,116.77,93.39,116.74Zm17.37-5.29c-.06-.16-.17-.38-.28-.26s-.24,0-.39,0c0,.2.06.39.1.6l-.23-.08,0,.27-.26-.09a.89.89,0,0,0,.39.91,6.09,6.09,0,0,1,.23-.73A1,1,0,0,1,110.77,111.45ZM92.87,110c0-.31.09-.59.12-.87l-.09-.06-.1.34c-.21-.46-.53-.32-.81-.44,0,.23,0,.41,0,.6s.06.28.2.24S92.65,109.94,92.87,110ZM64.38,49.33,64,48.71l-.4.44.23.32-.2.14.09.59H64C64.23,49.9,64,49.5,64.38,49.33Zm17.31,65.86h.08a1.59,1.59,0,0,0,.07-.48,6.64,6.64,0,0,1,.09-1.66,2.18,2.18,0,0,0-.14-1c-.09.89-.13,1.78-.16,2.67A2.63,2.63,0,0,0,81.69,115.18Zm5.33-71a2.78,2.78,0,0,0-.14,1.21c0,.14,0,.36.3.35a1,1,0,0,1,0-.39,2.23,2.23,0,0,0,.18-.79C87.4,44.14,87.42,44.13,87,44.14Zm-21.2-23.4a2.78,2.78,0,0,0,1.24-.57l.39.12c-.07-.24-.24-.34-.41-.3s-.41.19-.64.07a.2.2,0,0,0-.17.06.72.72,0,0,1-.62.29Zm40.81,67.73c.06.16.13.29.17.43a.35.35,0,0,0,.51.26,1.66,1.66,0,0,1,.18-.07c.32-.07.32-.07.3-.43a.65.65,0,0,0-.76,0C106.85,88.63,106.86,88.32,106.63,88.47ZM31.21,99.23h.1a1,1,0,0,0,0-.35,2.15,2.15,0,0,1-.06-.69c0-.34-.11-.44-.5-.4,0,.07,0,.15,0,.22s.09.28.05.38a.52.52,0,0,0,.21.68A.61.61,0,0,1,31.21,99.23ZM99.41,101c0-.22.13-.38.08-.49a.53.53,0,0,1,.12-.58c-.24-.13-.43-.36-.72-.13A1.32,1.32,0,0,0,99.41,101ZM70.6,39l-.25,0-.24-.08c.07.36-.12.71.2,1-.23.33-.22.45.1.68a1.38,1.38,0,0,0,0-.85c0-.08,0-.22,0-.24C70.7,39.35,70.63,39.19,70.6,39ZM81.46,20.84a2.84,2.84,0,0,0,1.17.07.2.2,0,0,0,.2-.25c0-.15-.1-.19-.25-.16a.74.74,0,0,1-.35,0C81.88,20.35,81.67,20.55,81.46,20.84Zm-11,59.46-.26-1.07-.4.72c.11.48.11.48.36.69C70.07,80.31,70.38,80.49,70.49,80.3Zm15-24.21c.53-.14.2-.52.3-.77l-.53-.19.11.37a.77.77,0,0,1,.06.21c0,.41,0,.81-.06,1.22a2,2,0,0,0,0,.23c.18-.14.18-.14.17-.24C85.53,56.66,85.51,56.39,85.49,56.1ZM96.84,24.5c-.33-.33.13-.68-.08-1l-.43.17.18.3-.54.46.16.27Zm6.6,81.65a1.27,1.27,0,0,1-.16.28c-.4.43-.41.43-.06.87l.07.07.48-.75Zm-4.36-2.74.11,0a.9.9,0,0,0,0-.27.59.59,0,0,1,0-.6.31.31,0,0,0,0-.22.48.48,0,0,1,0-.43.37.37,0,0,0,0-.47l-.24.36a.68.68,0,0,0-.08.73c.17.28.2.51-.07.74Zm-27.76-49a2.71,2.71,0,0,1-.15-1.51c0-.16,0-.32-.15-.36l-.25.76c.21.28.15.71.23,1.12ZM25.93,81.71a1,1,0,0,0,.35,0,.53.53,0,0,0,.19-.8l-.28-.39ZM67,49.23c-.09.11-.16.15-.17.2a2.56,2.56,0,0,0,0,.55,1,1,0,0,1-.07.65.43.43,0,0,0,.08.55c.08-.1.18-.18.21-.28.12-.45-.11-.92.07-1.37C67.08,49.47,67,49.38,67,49.23Zm39,71.34a1.44,1.44,0,0,0,.25,1.24v-.58c.34.2.34.2.45,0Zm-80-19.33c-.2.16-.44.26-.36.56s.07.46.38.45C26.27,101.92,26.13,101.6,25.89,101.24Zm10.95,14a1.26,1.26,0,0,0-.28-1.24l-.39.19A7.75,7.75,0,0,0,36.84,115.2ZM54.39,60.59l.28-.62a.86.86,0,0,0-.28-1,2.45,2.45,0,0,0,0,.6.5.5,0,0,1,0,.41A.75.75,0,0,0,54.39,60.59Zm-23.79,31c0,.51-.11,1,.42,1.42,0-.26-.08-.49-.1-.73A.64.64,0,0,1,31,92C31.07,91.72,31,91.58,30.61,91.57ZM89.85,42.84h-.06c0,.64-.09,1.27-.13,1.91a.93.93,0,0,0,0,.24s0,.06.07.09c.22-.18.24-.2.17-.54a4.13,4.13,0,0,1,0-1.5C89.92,43,89.87,42.92,89.85,42.84Zm-9.61,65.68c-.23.64-.07,1.34-.33,2a.44.44,0,0,0,0,.19,1.26,1.26,0,0,0,.05.18h.1A9.35,9.35,0,0,0,80.25,108.53Zm20.09-19.29c.25-.62.12-1.12-.29-1.35a2.74,2.74,0,0,1,0,.79A.51.51,0,0,0,100.34,89.23ZM82.5,54.66A2.37,2.37,0,0,0,82.25,53a.37.37,0,0,0,0,.27,2.2,2.2,0,0,1,.06.61C82.27,54.12,82.13,54.44,82.5,54.66Zm3.37,3.25-.23.38-.23-.84a10.18,10.18,0,0,0,0,1.24c0,.17.07.28.3.19a.54.54,0,0,1,.1-.51C85.84,58.26,86,58.15,85.87,57.91ZM23.58,89.85a1.17,1.17,0,0,0-.17-.84l.24-.26c-.18-.14-.19-.44-.53-.42a8.55,8.55,0,0,0,.32,1.38S23.52,89.8,23.58,89.85Zm36.74-53.4a.57.57,0,0,0-.08.62,4.65,4.65,0,0,1,.18.64.72.72,0,0,0,.12.18A2.26,2.26,0,0,0,60.33,36.45Zm-30,78.21c0-.07,0-.11-.06-.12a.63.63,0,0,1-.52-.54c0-.13-.18-.25-.29-.35a.8.8,0,0,0-.27-.09c.09.58.68.71.8,1.19ZM29.28,88.54c0,.09,0,.17,0,.2a1.5,1.5,0,0,1,.31.94c0,.05.13.1.26.19a8.07,8.07,0,0,0-.06-.86A.52.52,0,0,0,29.28,88.54Zm41-45.44h.14c0-.21.13-.46.05-.63a.93.93,0,0,1,.07-.82c0-.05,0-.12,0-.19A1.87,1.87,0,0,0,70.33,43.1Zm12.44,63.57c.05-.3.13-.6-.08-.72a2.78,2.78,0,0,1-.65-.55c.1.42.37.68.41,1C82.46,106.51,82.63,106.57,82.76,106.67Zm20.54,10.48c-.41.44-.42.53-.09.87,0-.17,0-.3,0-.46a1.16,1.16,0,0,1,.27,0,1,1,0,0,1,.23.1C103.85,117.31,103.85,117.31,103.31,117.15Zm-35.36,1.5a2.19,2.19,0,0,0,.24-.36c.06-.15-.06-.42-.19-.43a.45.45,0,0,0-.34.12.33.33,0,0,0,0,.44A2.83,2.83,0,0,0,67.94,118.65ZM49,54.62c-.21-.39.13-.77-.15-1.12-.28.22-.31.29-.27.67C48.62,54.39,48.7,54.54,49,54.62Zm50,50.48a1.93,1.93,0,0,1,0-1c.07-.2,0-.28-.25-.24l-.14,0c0,.16,0,.31.06.46s0,.14,0,.16c-.21.15-.14.24.05.33A1.61,1.61,0,0,1,99,105.11ZM94.32,83.92c.08-.26.2-.47,0-.61a.6.6,0,0,1-.22-.51.84.84,0,0,0-.11-.24c-.27.44.05.75.08,1.1C94.09,83.73,94.21,83.8,94.32,83.92Zm-18.16,1.9c.1.07.2.18.26.16s.13-.14.17-.23a.31.31,0,0,0,0-.19.44.44,0,0,1,.2-.54l-.45-.34c0,.18.07.33,0,.36-.22.2,0,.27.1.35Zm-7.87,2.57c.24-.35,0-.7.14-1,0-.12,0-.24-.14-.34-.19.56-.19.61,0,.8l-.34.12Zm42.83,14.51c.17.17.17.45.44.49.08-.13-.08-.35.18-.34l.18.32c.07-.44-.16-.6-.47-.71l-.11.1Zm-6-2.11a.47.47,0,0,0,.2-.64c-.06-.14-.11-.29-.17-.44s-.07-.07-.11-.11C105.15,100,104.82,100.4,105.13,100.79ZM51.42,67.64h-.08a6,6,0,0,0-.22.86,2.83,2.83,0,0,0,.19.93c.12-.27-.09-.51.16-.65a.21.21,0,0,0,0-.11.78.78,0,0,1,0-.8C51.51,67.83,51.44,67.72,51.42,67.64Zm34.55,39a1.21,1.21,0,0,1,.4,1h.19c0-.27,0-.51.06-.76C86.4,106.84,86.3,106.52,86,106.66ZM81.74,43c-.15-.34-.49-.28-.68-.47-.19.34,0,.53.21.75ZM50.43,66.14l.44.38-.33-.72.29-.13-.25-.82c0,.23,0,.43,0,.53A1.11,1.11,0,0,0,50.43,66.14Zm-8-8.15c.12-.26,0-.62.35-.66-.08-.3-.34-.21-.51-.3-.19.3.08.55,0,.82C42.3,57.87,42.38,57.92,42.44,58ZM26.69,94.17c.35-.07.53-.23.54-.57a.6.6,0,0,0-.68.09ZM68,86.47c-.07.18-.16.37.06.58l.14-.26.2.09c0-.16,0-.27,0-.39s0-.28,0-.37-.2-.08-.31-.12L68,86c0,.11,0,.2,0,.29l.25-.11C68.28,86.46,68.28,86.46,68,86.47ZM78.28,75.86h.09a3.8,3.8,0,0,0-.09-1.62c-.2.29-.16.29-.15.52s.3.59.1.93C78.21,75.72,78.26,75.8,78.28,75.86ZM81.83,22.2a4.43,4.43,0,0,0-.17.44c-.05.17.12.19.2.27s.06.17.19.14.14-.13.16-.24C82.24,22.54,82.08,22.4,81.83,22.2Zm17,96.59A2.1,2.1,0,0,0,99,117.4,1.78,1.78,0,0,0,98.79,118.79ZM88.38,83.22c0,.25,0,.54.08.64s-.22.4.08.53c.2,0,.14-.26.27-.35-.07-.16-.13-.3-.2-.45s.19-.25.21-.4C88.63,83,88.55,83.34,88.38,83.22ZM85.8,115l.21.32a3.4,3.4,0,0,0-.14-.85c0-.11-.18-.13-.21,0s-.31.38-.16.66ZM28.2,76.64c0,.16-.06.27,0,.33.17.25.11.61.42.9C28.56,77.4,28.68,77,28.2,76.64Zm52.05,5c.06.41-.27.67-.26,1.11a1,1,0,0,0,.53-.74C80.55,81.89,80.51,81.78,80.26,81.68Zm-56.17,16a1.88,1.88,0,0,0,.37,1.15v-.7ZM63.43,50.52c0,.53,0,.6.22.86.3-.23-.06-.54.15-.8Zm-20.89,75,.73.46c.07-.22.21-.39,0-.58C43,125.59,42.75,125.26,42.53,125.54ZM88.06,90.28a1,1,0,0,0,.16-1c-.15,0-.26,0-.26.22s0,.32,0,.47A1.24,1.24,0,0,0,88.06,90.28ZM57.14,82c.33-.35.24-.65-.25-1A2.3,2.3,0,0,0,57.14,82Zm17.57,4.8.12,0c.12,0,.22-.11.17-.25s-.13-.15-.28-.11a2.2,2.2,0,0,1-.58,0l.13.44C74.37,86.5,74.37,86.5,74.71,86.77Zm-49.5,8c.23.32.27.69.51,1a.53.53,0,0,0,0-.3c0-.09-.06-.17-.08-.26C25.64,94.89,25.65,94.89,25.21,94.79ZM59.4,56c-.36.38-.38.63-.06.88C59.37,56.6,59.64,56.35,59.4,56ZM49.84,79.15c0,.25,0,.5-.06.76l.32,0C50.21,79.35,50.17,79.22,49.84,79.15ZM66,84.27c.07,0,.13.05.15.09a.19.19,0,0,0,.29.09c.13-.07.13-.18.1-.3a1.69,1.69,0,0,1-.05-.35,3.55,3.55,0,0,1,0-.41C66.39,83.68,66.46,84.09,66,84.27ZM37.22,113.14a.89.89,0,0,0-.42-.78.41.41,0,0,0-.08.46C36.8,113,37,113,37.22,113.14ZM81.28,45.68a1.44,1.44,0,0,0,.6-1A1.68,1.68,0,0,0,81.28,45.68ZM38.56,109.32c-.21.28.23.37.12.61,0,.07.09.2.14.28l.33-.16ZM90.41,60a1.73,1.73,0,0,0,0,1.27A2.29,2.29,0,0,0,90.41,60ZM19.46,87.91c-.21.14-.47.16-.42.41s.29.2.49.32C19.51,88.38,19.49,88.18,19.46,87.91Zm74.38,15.28c-.4-.1-.46-.06-.44.25,0,.14,0,.29,0,.43s.11.14.2.12C93.71,103.71,93.5,103.41,93.84,103.19ZM60,36.56c.08-.15,0-.21-.08-.29s-.1-.11,0-.27,0-.14,0-.25l-.39.14C59.62,36.31,59.62,36.31,60,36.56ZM58.45,79.62l.1-.07A1,1,0,0,1,58.3,79a.17.17,0,0,0-.07-.13,1.06,1.06,0,0,0-.24,0c0,.07-.06.17,0,.21C58.12,79.21,58.29,79.41,58.45,79.62Zm8,3.62.12-.06a1.93,1.93,0,0,0-.13-.55c-.1-.17.18-.44-.17-.53a.3.3,0,0,0,0,.1c0,.27,0,.54.05.8C66.3,83.09,66.39,83.16,66.44,83.24Zm6.68,3.22h.17c.16-.32,0-.65,0-1-.17,0-.22.06-.17.2a.81.81,0,0,1,0,.2C73.12,86.07,73.11,86.26,73.12,86.46ZM108,88c0,.24,0,.38,0,.53s.05.29.37.26A1,1,0,0,0,108,88ZM85.82,22.7c0,.33-.06.64-.1,1A.89.89,0,0,0,86,23,.26.26,0,0,0,85.82,22.7ZM53,124.2a.84.84,0,0,0,.21.83A.57.57,0,0,0,53,124.2ZM68.18,84.85c.34.27,0,.51,0,.78.32-.25.23-.55.15-.84s-.19-.22-.32-.13,0,.39,0,.62ZM89,87.17c.45-.26.26-.54.18-.82h.25L89.32,86A5.32,5.32,0,0,0,89,87.17ZM45.16,72.41c-.19.39-.17.43.27.74L45.6,73Zm-15,15c.1-.11.26-.2.25-.27,0-.23-.21-.32-.42-.39C29.8,87,29.93,87.14,30.11,87.39ZM62,34.72l.12,0a1.42,1.42,0,0,0-.12-.95c-.06.09-.12.14-.12.18C62,34.2,62,34.46,62,34.72ZM86.71,61.53c0-.29,0-.5,0-.72s0-.39,0-.59A1.63,1.63,0,0,0,86.71,61.53Zm-14.09,7c-.2.11-.39.16-.47.28s0,.31,0,.54A1.15,1.15,0,0,0,72.62,68.56Zm2.93-52c-.25,0-.3.32-.56.18,0,.15,0,.26,0,.37.29,0,.33-.3.56-.34C75.55,16.72,75.55,16.59,75.55,16.51ZM26.18,91.68c0,.42.1.48.4.45V91.6Zm62.53-52c-.29.17-.19.42-.22.62s.05.13.08.19.14-.07.17-.12A.81.81,0,0,0,88.71,39.71Zm-10.19,53,.09.05.53-.39c-.3,0-.53,0-.58-.32a2.14,2.14,0,0,0,0,.36A1.43,1.43,0,0,1,78.52,92.67ZM59.05,57.87l-.1,1,.08,0a1.31,1.31,0,0,0,.18-.13c-.14-.29,0-.6-.06-.89ZM79.4,73.31l-.45-.74-.05,0v.62C79.12,73.14,79.12,73.14,79.4,73.31ZM66.3,76.09c0-.65,0-.65-.36-.7A2,2,0,0,0,66.3,76.09Zm-22-2.19a1.21,1.21,0,0,0-.14-.91C44,73.22,44,73.39,44.33,73.9Zm37.45-3.4c0-.18,0-.26-.16-.29s-.17-.12-.23-.21a.71.71,0,0,1-.06-.24.65.65,0,0,0,.08.72Zm-7,17.79c.13-.27.13-.27,0-.4l-.12.18-.25-.36c-.24.33.12.42.13.62C74.57,88.08,74.7,88.38,74.77,88.29Zm6.41,39.5.36-.17c-.09-.31-.14-.34-.48-.29ZM67,90.36l.11,0A9.56,9.56,0,0,1,66.81,89l-.15.05Zm21,26.36a.6.6,0,0,0-.05.62h.31C88.22,117.08,88.07,116.91,87.92,116.72ZM43.5,60.3l-.26-.4-.36.56C43.18,60.66,43.26,60.34,43.5,60.3ZM70.69,73.36v-.68c-.1-.05-.11-.28-.38-.29C70.56,72.66,70.39,73,70.69,73.36ZM62.76,87.23c-.14.21-.26.37-.16.59s.1.21.21.16a.25.25,0,0,0,.1-.21A5,5,0,0,0,62.76,87.23ZM85.05,45.59c0-.25,0-.47,0-.68s.19-.4,0-.7c-.06.48-.12.88-.16,1.28C84.93,45.51,85,45.54,85.05,45.59Zm20.8,53.34.28.16a.62.62,0,0,0,.06-.76ZM93.17,122.78l-.18-.32c0,.07-.06.21-.15.27s-.21.15,0,.39Zm-15.36-47c.37-.16.41-.33.2-.6l-.31.37ZM50.43,69.26l-.34-.46c-.3.24-.07.5-.11.74C50,69.31,50.12,69.13,50.43,69.26ZM64.73,130c-.51.11-.51.11-.38.47C64.71,130.51,64.59,130.14,64.73,130Zm1.75-75.74c.11.18,0,.48.3.56.14-.06.21-.21.13-.3S66.75,54.13,66.48,54.25ZM81.11,18.92v-.46c-.35.1-.49.31-.35.46ZM37.89,74.5h-.1a.75.75,0,0,0,0,.84c.18,0,.15-.15.12-.25s-.08-.21,0-.32S37.9,74.59,37.89,74.5ZM87.21,84.85c-.17.23,0,.34,0,.48s.15.25.33.2C87.62,85.2,87.36,85.08,87.21,84.85Zm3.43-55.18c-.34.08,0,.39-.22.53L90.26,30c-.12.33.14.29.28.4C90.61,30.11,90.79,29.91,90.64,29.67ZM31,62.47c-.3.41-.31.55,0,.77C31,63,31.16,62.77,31,62.47Zm64.62,55.78c.27-.28.12-.64.21-.94C95.74,117.63,95.3,117.85,95.58,118.25Zm-19.76-3.63c-.28.28-.28.36,0,.73C75.81,115.1,76.12,114.88,75.82,114.63ZM62.66,57.14c-.14.13.08.37-.17.43a1.29,1.29,0,0,0,.09.29.19.19,0,0,0,.17,0,.38.38,0,0,0,.08-.25A3.68,3.68,0,0,0,62.66,57.14ZM21.43,68.88l.09,0c-.06-.24.12-.35.2-.51a.94.94,0,0,0,.06-.27c-.18,0-.33,0-.35.19S21.43,68.69,21.43,68.88Zm74,13.38c-.21,0-.37-.31-.59,0l.25.36ZM72.2,46.32c-.15.35-.15.35.12.61C72.5,46.54,72.5,46.54,72.2,46.32Zm7.5-25,.46-.53-.66.13ZM62.49,85.51c0-.08.09-.14.09-.18s-.11-.27,0-.41,0-.1-.07-.16-.16.06-.17.11A.65.65,0,0,0,62.49,85.51Zm.34-24.31-.11,0a1,1,0,0,0,0,.69l.24-.3Zm3.45,19.87c-.22.34.12.56,0,.91C66.54,81.63,66.54,81.63,66.27,81.07ZM99,127.51l.07,0,.29-.34L99,126.9l-.07,0Zm-10.65-16-.09,0c0,.12.08.24.12.4l-.3-.14.1.29.44-.09Zm5.52,10.85c.3-.24.31-.44.08-.92C93.9,121.76,93.88,122,93.85,122.35Zm16-4.53c-.1.46-.07.5.47.76ZM66.22,58.55c.2-.38.16-.56-.19-.86,0,.14.14.31.1.37C66,58.27,66.16,58.39,66.22,58.55ZM44.47,56.23c-.12.58-.12.58,0,.74C44.69,56.57,44.69,56.57,44.47,56.23ZM81.5,117a1.73,1.73,0,0,0,0,1A1.66,1.66,0,0,0,81.5,117Zm5.59-70.65c-.31.09-.23.36-.28.56s0,.14,0,.2h.09C86.84,46.79,87.27,46.64,87.09,46.32Zm8.85,69.62c.3-.35.32-.66,0-.86C96,115.38,96,115.64,95.94,115.95ZM89.5,94.68c-.17.45-.17.45,0,.64C89.73,95.06,89.74,94.92,89.5,94.68ZM81.2,23.53c-.12.07-.22.09-.24.15-.11.26.1.36.29.52C81.24,24,81.22,23.79,81.2,23.53ZM66.55,113.7h-.09c0,.07-.09.2-.09.2-.27-.1-.19.09-.21.19l.48.06ZM64.09,82.61c-.15.24-.46.43-.24.7l.36-.48ZM73,108.11h-.1c0,.2-.43.18-.21.49l.44-.13ZM53.19,63c-.24.63-.24.63,0,.72Zm48.41,38.78-.28-.53c-.15.24-.18.47-.05.59ZM54,83.41l.06-.05c-.05-.08-.1-.22-.17-.23a1.5,1.5,0,0,0-.42.06C53.48,83.66,53.83,83.26,54,83.41ZM107.64,97c0-.3-.22-.35-.45-.37l.08.51Zm4,5.27,0-.09-.53-.38C111.16,102.22,111.24,102.28,111.66,102.26Zm-30-30.81h0c-.09.22-.18.45-.27.67a.16.16,0,0,0,0,.11s.07.1.09.1.12-.06.13-.1C81.61,72,81.63,71.71,81.66,71.45ZM63.81,63.92c.09.14.14.29.2.29.22,0,.26.17.31.34C64.31,64,64.22,63.91,63.81,63.92ZM44.68,60.43c-.18.25-.08.48-.1.74C44.93,60.86,44.93,60.86,44.68,60.43Zm38.2,62.63c-.2.09-.36.17-.35.36s.16.2.31.2C82.86,123.45,82.87,123.28,82.88,123.07Zm3.2-18.59c0-.52,0-.52-.15-.73C85.77,103.93,85.81,104.17,86.08,104.48Zm2.18,9.07c-.24.14-.24.33-.15.61a1.4,1.4,0,0,0,.23-.2A.29.29,0,0,0,88.26,113.55Zm1,3.22c-.26.35-.26.41.06.55C89.35,117.13,89.45,116.93,89.22,116.76ZM66.09,56.67h.12c-.06-.31.19-.62-.07-1C66.12,56.06,66.11,56.37,66.09,56.67Zm32.06,71.44c0,.16,0,.33.17.35s.22-.18.31-.35Zm-18.27-2.7a.85.85,0,0,0,0,.81A.93.93,0,0,0,79.88,125.42ZM90.94,98.47l.4.43v-.54C91.13,98.22,91.07,98.47,90.94,98.47ZM71.85,48.8c.2-.19.07-.36.06-.52l-.41-.09ZM35.36,102.64c-.08.2-.39.35-.1.63C35.21,103,35.64,102.92,35.36,102.64ZM28.83,85.13c.24-.06.26-.22.31-.43h-.34C28.82,84.84,28.83,85,28.83,85.13ZM67.95,42.78c-.12.12-.24.18-.25.24a.53.53,0,0,0,.29.47C68,43.25,68,43.06,67.95,42.78Zm19.34,4.83-.19-.51H87c0,.18,0,.36-.07.56ZM90.45,93.4c.16,0,.27,0,.27-.21s0-.32-.2-.36C90.5,93,90.47,93.19,90.45,93.4ZM78.26,18.71c0-.11,0-.21,0-.31l-.53.18C77.78,19,78.08,18.54,78.26,18.71ZM99,113.33a.94.94,0,0,0,0,.73C99.28,113.76,99,113.55,99,113.33Zm-.17-89.41c0-.3-.3-.27-.51-.4v.37C98.47,23.87,98.65,23.72,98.79,23.93ZM52.54,57.75c0,.45,0,.45.2.53C52.82,57.89,52.82,57.89,52.54,57.75ZM87.06,95.38c.24-.17.22-.33-.1-.63A.79.79,0,0,0,87.06,95.38ZM76.77,72.62c.28-.08.35-.17.25-.28l-.3-.31Zm7,13,.26-.65-.49.35a.86.86,0,0,0,.06.16A1,1,0,0,0,83.79,85.65ZM37.67,72.33c-.2.51-.2.51,0,.63C37.83,72.56,37.83,72.56,37.67,72.33Zm44.69.37c0-.15,0-.25-.05-.35s-.06-.2-.1-.34C82,72.32,82.06,72.49,82.36,72.69ZM26.58,87.51l.42-.19c-.2-.19-.32-.23-.45-.12S26.5,87.42,26.58,87.51Zm62.81-7.32-.08-1.11C89.29,79.44,89.14,79.8,89.39,80.19Zm5.73,29.37c-.1.43-.1.43.08.53C95.35,109.79,95.35,109.79,95.12,109.56ZM105.74,122a.45.45,0,0,0-.17-.61A.67.67,0,0,0,105.74,122ZM62.2,91.44c-.25,0-.43-.27-.74-.2C61.64,91.6,62,91.37,62.2,91.44ZM70.45,109c.14-.33.14-.33,0-.57C70.17,108.65,70.4,108.83,70.45,109ZM27.24,98.55a.68.68,0,0,0-.18-.62C26.91,98.22,26.93,98.31,27.24,98.55ZM73.46,38.77c-.06.28-.17.51,0,.8A.79.79,0,0,0,73.46,38.77Zm.39,41.51-.11.05.11.29c.21-.14.25.11.44.23C74.22,80.51,74,80.43,73.85,80.27ZM72.12,41.94c0,.19,0,.38-.05.63C72.36,42.28,72.36,42.28,72.12,41.94ZM54,59c.21-.26.21-.28,0-.49A.29.29,0,0,0,54,59ZM99.9,108.53c.18-.06.23-.15.17-.31s-.06-.11-.1-.17l-.27.18Zm-10.72,5.72c-.13.19,0,.34,0,.51l.37,0ZM59.73,19.5l-.38.11c.06.25.26.25.49.27Zm32.83,96.71a.61.61,0,0,0,.07.68C92.56,116.64,92.92,116.41,92.56,116.21ZM68.05,51.69c-.15.26,0,.43.1.64-.06-.21.06-.3.25-.32ZM73.13,114c0-.17.28-.19.17-.4a.24.24,0,0,0-.23,0C72.92,113.71,73,113.85,73.13,114ZM66.69,53.59c-.24,0-.32.11-.24.3a.21.21,0,0,0,.18.09C66.84,53.89,66.75,53.74,66.69,53.59ZM84,92.23a.27.27,0,0,0-.07.41c.06.11.09.29.26.2ZM42.67,59l-.28.21.19.51h.05C42.64,59.51,42.65,59.29,42.67,59ZM90.93,91.94c-.25-.17-.16-.46-.43-.57-.09.26.08.41.17.58S90.78,91.94,90.93,91.94ZM80.69,120.84c0,.28,0,.48,0,.68C80.88,121.31,81,121.11,80.69,120.84Zm1.86-74.53c.23-.44.23-.5,0-.68C82.57,45.86,82.35,46.07,82.54,46.31ZM69.13,60.38c0-.26,0-.48-.08-.8C68.83,60,68.83,60.06,69.13,60.38Zm3.46,70.87h-.07a1.42,1.42,0,0,0-.11.32c0,.05.08.11.12.17s.15-.1.15-.14A1.71,1.71,0,0,0,72.59,131.25ZM28.25,66.5,27.78,66C27.8,66.36,27.91,66.47,28.25,66.5Zm48.93,3.34-.43.29a.17.17,0,0,0,.26.13C77.15,70.17,77.29,70,77.18,69.83ZM56.45,80.5c-.12.41-.11.46.13.62A.63.63,0,0,0,56.45,80.5ZM42.1,72.31l.05-.09-.32-.37-.09.46Zm58.24,22.12c0,.2.17.42-.08.58,0,0,0,.2.17.16C100.49,94.57,100.49,94.57,100.34,94.43ZM73,94.71l.4.36a.53.53,0,0,0,0-.34c0-.06-.1-.16-.14-.16S73.14,94.65,73,94.71Zm4.57,8c-.07.08-.16.12-.16.17a.63.63,0,0,0,.33.55Zm23.72,1.57-.29.31c.06.16.18.21.31.12S101.41,104.46,101.33,104.31Zm-9.68,2.85c.21-.37.21-.37-.07-.57A.61.61,0,0,0,91.65,107.16Zm7.55,2.54h.08v-.88l-.21.18s.07.06.07.09C99.16,109.3,99.18,109.5,99.2,109.7Zm-23.61,3.67-.17-.4c-.24.15-.21.31-.1.5ZM98.3,85.27c0,.43,0,.47.42.31Zm-54.89-27c-.21.2-.11.35,0,.51l.25-.1Zm12.09.54c0,.24-.15.48,0,.77A.65.65,0,0,0,55.49,58.76Zm34,55.34c.06-.21.06-.36-.14-.44C89.18,113.93,89.18,113.94,89.5,114.09ZM82.29,67.58a.65.65,0,0,0,.32.7ZM61.11,84.41c-.07-.19,0-.45-.25-.58C60.9,84.08,60.85,84.3,61.11,84.41Zm-2.66-7.2c0-.31-.3-.26-.45-.49C58.12,77.19,58.12,77.19,58.45,77.21Zm36.87,8a2.19,2.19,0,0,0-.19.27,3.16,3.16,0,0,0,.38.3ZM72.18,109.32h.29c0-.21-.06-.39-.29-.49Zm6.57-88.39c0,.42.41.18.51.4l-.09-.44-.18.17ZM60,52.92c.27-.2.26-.36,0-.52C60,52.58,60,52.74,60,52.92Zm20.7,2.27c-.27.19-.3.3-.16.6ZM68.19,88.78c0-.28-.11-.38-.35-.44C67.86,88.59,67.89,88.78,68.19,88.78Zm11.38,38.59.07,0a.62.62,0,0,0,0-.67C79.6,126.94,79.59,127.16,79.57,127.37Zm4.65-14.6c0-.11-.06-.21-.07-.32s.08-.26-.08-.34C84,112.51,84,112.61,84.22,112.77ZM75.62,86.4l.05.06c.18-.24.25.15.43,0-.06-.14-.06-.35-.28-.33S75.69,86.32,75.62,86.4ZM85.7,46.57c.23-.36.22-.47,0-.76Zm7.84,68.27c.14-.27.14-.27,0-.58C93.27,114.47,93.55,114.65,93.54,114.83Zm-29.62,3.06a.52.52,0,0,0,0-.62C63.77,117.4,63.77,117.4,63.92,117.89ZM75,103.21c-.16.2-.07.33,0,.48C75.3,103.45,75.3,103.45,75,103.21Zm-.57-44.92h-.09c-.16.25-.16.26-.07.66Zm10,35.83c.33-.33.33-.35.06-.53C84.46,93.75,84.36,93.89,84.44,94.11Zm-6.21-15.8c-.06-.15-.13-.27,0-.43s0-.14-.07-.22h0c0,.12,0,.23,0,.34l-.23,0Zm6.18,37.62a.63.63,0,0,0-.16-.63A.87.87,0,0,0,84.42,115.93ZM57.78,81.56l.07-.06a.72.72,0,0,1-.31-.6.6.6,0,0,0-.05.41C57.53,81.42,57.67,81.48,57.78,81.56ZM53.49,60.34c.16-.38.16-.38,0-.49A.34.34,0,0,0,53.49,60.34ZM84.7,117c.12-.6.12-.6,0-.7C84.59,116.71,84.59,116.71,84.7,117ZM26.8,88.25a.48.48,0,0,0,.06.51s.13,0,.24,0Zm50.15-17c.07.58.07.58.37.63Zm2.55,31.22.26.5C79.85,102.5,79.85,102.5,79.5,102.43ZM67.74,44.73c.19-.4.19-.45,0-.73ZM46.93,57.68c-.19-.1-.31-.14-.41,0s-.05.2.08.28Zm22,13.15-.38-.69C68.58,70.67,68.61,70.75,68.95,70.83Zm-41.55,31a2,2,0,0,0-.21.3s.06.12.11.13.26-.09.24-.18A1.07,1.07,0,0,0,27.4,101.82ZM64.19,83.89l.07,0-.06-.52-.24.32ZM28.12,75.3c0-.23-.2-.24-.4-.37,0,.21.08.34.11.48Zm77.1,16.16.34.39c.05-.19.08-.31.12-.47ZM62.4,68l.27,0,.06-.37C62.63,67.81,62.31,67.66,62.4,68ZM64,65.54c0-.2.25-.39,0-.65C63.92,65.15,63.8,65.34,64,65.54Zm45,33.37c-.25-.37-.25-.37-.53-.25ZM93.52,116.53c.06-.26.12-.44-.08-.6A.44.44,0,0,0,93.52,116.53Zm-41-61.7c-.1.37.14.31.34.29ZM48,77.43a.88.88,0,0,0-.05.29c0,.06.09.11.14.15s.09,0,.09,0a.37.37,0,0,0,0-.2C48.21,77.59,48.14,77.54,48,77.43ZM30.34,103.22c-.09-.16-.19-.21-.32-.13a.16.16,0,0,0,0,.16C30.09,103.38,30.2,103.33,30.34,103.22Zm3.89-32.33c0-.2.23-.32,0-.53C34.34,70.54,33.88,70.63,34.24,70.89Zm8.78-9c-.2.34-.2.34.05.57C43,62.22,43.28,62,43,61.85Zm3.58-3.19-.1,0a.61.61,0,0,0,0,.23c0,.06.1.1.15.15s.14-.15.13-.2S46.66,58.74,46.6,58.66ZM87.32,99.9c.2-.3-.13-.39-.21-.59,0,.08,0,.21,0,.22C87.27,99.59,87.27,99.75,87.32,99.9Zm-21-28.38c-.16-.06-.28,0-.32.12s.05.21.2.24ZM87.44,50c-.18,0-.23.07-.23.19s.07.19.23.17Zm-20-11.45a.33.33,0,0,0,0-.45C67.12,38.28,67.12,38.28,67.39,38.56ZM56.13,72.22c.26-.34.26-.34.12-.53A.43.43,0,0,0,56.13,72.22Zm2.16,6,.19.65.07,0C58.5,78.61,58.7,78.34,58.29,78.19Zm10-32.68c-.25.46-.25.52,0,.73ZM46.17,75.85c.15-.25.12-.33-.25-.55Zm37.58-32h.08V43.2A.92.92,0,0,0,83.75,43.85ZM67,48.92l-.16-.41H66.8l-.1.47ZM82.31,76.29c0-.26.11-.54-.1-.79C82.32,75.76,82.09,76,82.31,76.29ZM70.53,49.22h-.09c0,.22,0,.45,0,.67h.1C70.57,49.67,70.55,49.44,70.53,49.22ZM19.67,66.75c-.16-.24-.3-.32-.37-.24v.23ZM90.59,90.84c0,.17,0,.28,0,.39s.06.05.09,0,.09,0,.09-.06S90.84,90.92,90.59,90.84ZM72.08,40.43c.21-.26.22-.34.05-.58Zm-7.66,7.92c-.08.35-.08.35.26.64l-.12-.29Zm-7,14.29c-.28.1-.31.29-.12.49ZM95.52,84.86c-.12-.07-.21-.15-.24-.13a.94.94,0,0,0-.18.21s.11.11.14.1A1.48,1.48,0,0,0,95.52,84.86Zm-42.84-8c-.07.37-.07.37.25.33ZM74.35,90.28H74.2c.28.23-.18.46.14.75Zm14-5.73-.07.61.27-.26ZM52.58,80.13h.07l.22-.74s-.07,0-.08,0c-.16.17,0,.47-.26.6A1.16,1.16,0,0,0,52.58,80.13Zm35.52,35.25.13,0a3.91,3.91,0,0,0-.15-.42s-.1,0-.24-.09ZM19.91,93c0,.16,0,.31,0,.53l.29-.31Zm77.35,24c0,.15,0,.31,0,.46C97.44,117.25,97.44,117.25,97.26,117ZM77.56,102.26c.18-.32.18-.32-.26-.37Zm-51,3.43c0-.34-.27-.25-.44-.32C26.15,105.65,26.32,105.67,26.55,105.68ZM43.48,57.54a1,1,0,0,0-.09.21.49.49,0,0,0,0,.21s.11,0,.13,0a.32.32,0,0,0,.06-.2C43.6,57.71,43.54,57.65,43.48,57.54ZM68.11,54c0-.19-.08-.28-.26-.28v.36Zm.25-35.64,0,.09h.35l-.11-.31ZM80.09,41.47c-.16.26-.16.26.14.42ZM46.77,79.15c.17,0,.34.24.52,0C47.1,79.15,46.94,79,46.77,79.15ZM78,71.91c-.15.31.05.33.21.41C78.38,72,78.13,72,78,71.91Zm4.39-15.25h-.14a.34.34,0,0,0,.1.47Zm-9.51,60.81c.06-.17.09-.32-.13-.44C72.74,117.23,72.61,117.4,72.92,117.47ZM64.57,66.52c.23-.31.23-.31,0-.53ZM43,61.66l.1,0L43,61.08l-.12,0C43,61.28,42.8,61.51,43,61.66ZM103,103l-.19.45.39-.11ZM85.8,97.19l-.08,0,.09.6C85.92,97.42,85.92,97.42,85.8,97.19ZM78,78.52c0,.5,0,.5.3.47C78.06,78.95,78.13,78.7,78,78.52ZM89,36.53c.1-.34.1-.34,0-.54A.54.54,0,0,0,89,36.53ZM72.15,39.09c-.13.31-.13.31.07.55C72.19,39.4,72.17,39.24,72.15,39.09Zm12.39-6.48-.05.08.38.3C84.85,32.63,84.85,32.63,84.54,32.61Zm-16-10-.24-.23c-.09.29-.09.29,0,.49ZM64,77.37c0-.17.1-.35,0-.54C63.72,77,63.87,77.21,64,77.37Zm19.47,35.58.13.52C83.7,113.27,83.71,113.08,83.44,112.95Zm-29-47.74c.17-.18.25-.31.08-.48C54.41,64.95,54.41,64.95,54.49,65.21ZM47.64,52c0-.16-.13-.26-.28-.19s-.12.17,0,.29Zm64,68c.23-.31.2-.37-.14-.42Zm-85-34.82c-.19-.11-.19-.11-.33.16C26.52,85.44,26.52,85.44,26.67,85.19Zm61-2.06-.17,0c.33.19-.17.46.17.68ZM48.39,52.65c0-.32,0-.32-.3-.48Zm31-33.79c.2-.3.2-.3,0-.5Zm19.66,93.31a.48.48,0,0,0,0-.57C98.94,111.79,99,112,99.08,112.17ZM78.54,87.63c.12-.06.22-.08.24-.13s0-.22-.16-.26,0,0-.08,0Zm-2.06,29.59c-.09.07-.15.09-.16.13a.43.43,0,0,0,0,.21s.11.06.12,0a.56.56,0,0,0,.1-.19S76.49,117.32,76.48,117.22Zm9.84-93.79-.06,0v.35l.32,0Zm-6.1.16h-.07c0,.24.07.47.1.71h.07C80.28,24.06,80.24,23.83,80.21,23.59Zm.11,0,.24.45C80.69,23.78,80.69,23.78,80.32,23.61Zm13.33,95.06.11,0,.1-.45-.1,0Zm-34-31.32a2,2,0,0,1,.13.19,1.51,1.51,0,0,1,.08.21C60.07,87.51,60.06,87.48,59.7,87.36Zm9.87,1.94c-.06.07-.14.12-.14.16a.67.67,0,0,0,.09.24s.08,0,.1,0,0-.16,0-.24Zm-6.13-46c0-.25-.08-.31-.24-.36C63.1,43.23,63.23,43.29,63.44,43.34ZM77.55,88.59l.13.06.15-.28a.84.84,0,0,0-.16,0A1.86,1.86,0,0,0,77.55,88.59ZM64,76c-.08-.17.32-.41-.06-.6C63.94,75.65,64,75.84,64,76Zm18.78-6.48c-.13-.07-.19-.13-.27-.14s-.12.1-.11.15a.2.2,0,0,0,.15.12C82.58,69.69,82.64,69.62,82.75,69.55Zm-17-6.1h.13l-.1-.65h-.07C65.69,63,65.7,63.24,65.71,63.46ZM23.58,78.27l.12,0c0-.11.09-.21.12-.32s-.09-.07-.12-.06C23.5,78,23.63,78.16,23.58,78.27ZM89.2,30.91,89,30.29C88.9,30.71,88.9,30.71,89.2,30.91ZM81.34,72.52c0,.14,0,.25,0,.44.12-.09.21-.12.23-.18S81.52,72.57,81.34,72.52Zm-57.24.9c-.1-.29-.13-.29-.49,0ZM90.6,31v.51C90.7,31.34,90.82,31.17,90.6,31ZM82.94,80.14c0-.19.3-.32.13-.56C83.08,79.79,82.75,79.89,82.94,80.14Zm-52.29-.59c0-.3-.16-.35-.36-.39C30.3,79.41,30.46,79.46,30.66,79.55ZM58,74.8c.16-.34.16-.34-.15-.39ZM99.4,98.14c.16-.17,0-.31,0-.5C99.23,97.85,99.17,98,99.4,98.14ZM52.09,76.4c-.26.29-.25.36.06.47Zm53.64,22.87c0,.19-.09.34.08.47C105.86,99.57,106,99.42,105.73,99.26Zm-18.3,1.31c-.32.14-.32.18-.1.46ZM71,90l-.1,0c0,.19,0,.32.27.39Zm37.32-4.38.27-.18c-.13-.1-.2-.26-.39-.13ZM80.94,55.68h-.09c0,.2-.13.39,0,.64C80.92,56.07,80.93,55.87,80.94,55.68ZM35.77,110.35c0,.39,0,.41.29.33ZM88.31,85.47c-.32.29-.32.3-.11.47ZM103.89,96c.15-.27.14-.33-.11-.48Zm-13.16.16c.1-.22,0-.32-.15-.42C90.5,95.92,90.51,96,90.73,96.15ZM66.18,60.5c.1-.07.29,0,.27-.23,0,0-.07-.11-.1-.1S66.1,60.29,66.18,60.5ZM64,50.65c0,.14-.18.28,0,.44C64.2,51,64,50.79,64,50.65Zm4,.64.1,0c.12-.1.18-.21,0-.43ZM52.52,75.89l.18-.06-.19-.34A.51.51,0,0,0,52.52,75.89Zm24.33,25.34.16.44C77.15,101.45,77.07,101.31,76.85,101.23ZM70.29,46.4l.07,0c.06-.08.12-.16.17-.25s0-.07,0-.12l-.28,0Zm8,24.62h.06l.15-.38-.21,0Zm11-42.32h.1c0-.16.22-.31,0-.5Zm2.21,75.84c-.11.26-.11.26.12.35C91.79,104.75,91.69,104.66,91.56,104.55ZM77.64,101l0,.09A2.85,2.85,0,0,0,78,101a1,1,0,0,0-.06-.21Zm4,6.09c0-.11.09-.18.08-.23s-.09-.08-.14-.13a.6.6,0,0,0-.07.19S81.57,107,81.64,107.09Zm27.92,5.68c.1.37.2.5.44.54ZM19.67,89.17c-.12-.13-.22-.2-.34-.06a.17.17,0,0,0,0,.17C19.49,89.42,19.56,89.28,19.67,89.17Zm39.07-12.4-.09.37C59,77,59,77,58.74,76.77ZM56.15,79h.08a.5.5,0,0,0-.08-.49ZM96.88,91.15l-.33-.24-.06.05.14.35Zm-9.54,10.73.1.52C87.6,102.18,87.5,102,87.34,101.88ZM61.16,44h-.07v.64h.07ZM82.48,67.39a.27.27,0,0,0,.2.35s.09-.06.15-.11ZM16.64,77.79c-.08-.19-.15-.3-.35-.29C16.36,77.66,16.35,77.85,16.64,77.79ZM89,37.24l-.11,0,.09.46C89.16,37.49,89.21,37.35,89,37.24ZM67.65,119.18c.29-.23.19-.34,0-.49ZM79,76.86l-.09,0-.2.19,0,.08c.09,0,.19,0,.25,0S79,76.94,79,76.86Zm7.48,2.06.41.13-.23-.37ZM35.25,69.1a3.55,3.55,0,0,0-.12-.35.17.17,0,0,0-.13,0c-.1.14,0,.21.1.29Zm55.66,8.47-.1,0c-.07.12-.25.23,0,.39Zm-.55-19.09c-.05.17-.16.3.06.36,0,0,.1,0,.18-.09ZM97.3,84.34l-.06.05.26.4C97.59,84.51,97.43,84.44,97.3,84.34Zm-31-9.91h-.09v.63h.06ZM74.2,63.24c.08.21.2.17.3.11s0-.11,0-.19Zm-8,67.09c.21.06.2.29.51.22C66.5,130.43,66.52,130.18,66.16,130.33Zm29.92-20.61c.17-.22.2-.34-.06-.47ZM85.06,47l.41-.28C85.17,46.7,85.06,46.76,85.06,47Zm3.66.08c.2-.19.2-.19,0-.38C88.7,46.87,88.71,47,88.72,47.12Zm22.21,40.46c-.33.1-.33.14-.08.39ZM52.37,76.42c0-.25-.06-.36-.34-.36ZM78.75,46.19a.43.43,0,0,0,0-.48A.36.36,0,0,0,78.75,46.19ZM73.29,94.34c.08-.27-.06-.3-.27-.26Zm9-36.09c.12-.29.12-.29,0-.45C82.24,58,82.24,58.12,82.25,58.25ZM16.58,77.06c0-.28-.15-.22-.29-.31C16.3,77,16.39,77,16.58,77.06Zm7.57,2.19c-.12-.06-.21-.13-.24-.11a1.22,1.22,0,0,0-.21.22l0,0Zm82.58,17.37c0-.14,0-.29,0-.51C106.58,96.32,106.51,96.46,106.73,96.61Zm-47.88-28c-.14.11-.15.21-.07.31a.09.09,0,0,0,.1,0C59,68.8,59,68.71,58.85,68.59Zm45.22,37.62c.2-.13.18-.21-.1-.38ZM73.24,84.82h-.12c0,.15-.05.31.15.5C73.25,85.11,73.24,85,73.24,84.82ZM44,68.56l.14-.05L44,68.16l-.1,0Zm7,3.28.07,0-.07-.4C50.84,71.64,51,71.73,51,71.84ZM27.79,102.26l.14.37.08,0C28,102.47,28.09,102.32,27.79,102.26ZM79.13,78.43c-.19.23-.19.23,0,.51C79.11,78.78,79.12,78.62,79.13,78.43ZM20.71,62.14h-.1c-.09.11-.08.22.1.38ZM80.35,34.41a.71.71,0,0,0,0-.22.5.5,0,0,0-.17-.12s-.08.06-.07.07a.4.4,0,0,0,.08.16A1,1,0,0,0,80.35,34.41ZM81,129c.29-.12.16-.26.06-.4ZM65.43,38.93c0-.2,0-.26-.18-.24s-.1.07-.09.1S65.29,39,65.43,38.93ZM90.44,77v.11l.34,0C90.66,76.78,90.55,76.95,90.44,77Zm-9.85,7.94c-.12.32-.12.32.07.51ZM49,76.23c-.09.16-.15.29,0,.44C49.21,76.52,49.13,76.39,49,76.23ZM61.2,34.05l0,.39C61.44,34.26,61.43,34.15,61.2,34.05Zm20.64,50.5c-.24.2-.22.29,0,.36Zm-5.59,4.78-.11,0c0,.12,0,.25.19.32ZM68,77.55c-.23.14-.25.28-.07.49Zm16.15,3.71.06-.41h-.09C84.15,81,83.83,81,84.16,81.27ZM52.61,77.82H52.5a.28.28,0,0,0,.16.37C52.65,78.08,52.63,78,52.61,77.82ZM32,101.1c-.25.21,0,.27.07.37C32.2,101.31,32.12,101.21,32,101.1ZM78,69.19l.2.29C78.35,69.2,78.35,69.2,78,69.19Zm15.15,35.07L92.9,104C92.89,104.35,92.89,104.35,93.17,104.27Zm1.3-45.34h.09c0-.13.09-.26-.11-.4C94.46,58.69,94.47,58.81,94.48,58.93ZM89.42,63.2c-.17.17-.12.29,0,.45A.35.35,0,0,0,89.42,63.2Zm-35.64.9h.1l0-.46h-.08C53.77,63.79,53.77,63.94,53.78,64.09Zm-3.5,0c.17-.16.17-.16-.06-.35Zm35.81,45.63-.13.07.2.36.08,0ZM39,73.2c0,.26,0,.26.19.4C39.19,73.45,39.26,73.3,39,73.2ZM25.46,84.12l.3-.19-.32-.12C25.44,83.9,25.45,84,25.46,84.12Zm-2.11-8.18c.31-.17.1-.26.08-.36h-.08Zm73.33,37.63c0-.12.14-.29-.08-.38C96.51,113.41,96.51,113.41,96.68,113.56ZM60.05,49.89c-.11.08-.18.17-.08.29a.15.15,0,0,0,.15,0C60.24,50.06,60.16,50,60.05,49.89ZM20.44,67.43c-.17.14-.15.28,0,.41Zm43-28.68-.11.09.22.27.09-.07Zm14.42,78c-.07.34-.07.34.1.51Zm37.6-19.8c-.11.07-.2.09-.22.14a.18.18,0,0,0,.15.27C115.42,97.19,115.43,97.08,115.46,96.9Zm-47.21-48-.2.24.33.22ZM104.31,89c.23-.22.23-.22,0-.36C104.34,88.82,104.33,88.94,104.31,89ZM71,72.22c-.22.13-.25.22-.15.33s.14,0,.14,0S71,72.37,71,72.22Zm14.94,52.29a.23.23,0,0,0,.07.35C86.14,124.69,86.11,124.59,85.89,124.51Zm8.53-35.44c.15.3.19.31.39.1ZM65,38.8c-.12.23-.12.23.09.4ZM60.61,76.16c.19-.19.11-.28-.1-.39ZM95.48,20.66c-.17.06-.26.15-.12.38ZM50.34,62.06c0,.16,0,.37.26.28C50.55,62.21,50.56,62.08,50.34,62.06ZM82,83.57H82c.06.12,0,.29.18.46C82.1,83.83,82.07,83.7,82,83.57Zm-.13-15.39c.09-.22.18-.36-.09-.41Zm6.85,45.13.11,0c0-.13,0-.26-.23-.31Zm-48.9-.11c0,.16,0,.28.14.38C40,113.42,40.09,113.29,39.87,113.2Zm38.33-9.64c.14-.06.16-.16.09-.26a.14.14,0,0,0-.14,0C78,103.37,78.1,103.45,78.2,103.56Zm-.27-18.72-.06,0c0,.07,0,.15.06.22s0,.13.08.19l.08,0Zm-19-20.57.29.2s.07-.06.06-.08S59.16,64.18,58.91,64.27Zm24.46,1c-.1.2-.1.2.07.37C83.41,65.47,83.39,65.36,83.37,65.25Zm-19-13.94c.11-.17.11-.17.08-.33C64.25,51,64.23,51.14,64.32,51.31ZM53,64.55l-.11,0,.13.27.12-.05ZM74.37,80.77l.37-.08-.37-.23ZM28.24,87.58l.1,0a.24.24,0,0,0-.2-.31ZM56.31,74.69l-.24.39C56.37,75.05,56.38,74.92,56.31,74.69Zm33.41,9.48c0-.09,0-.18-.08-.27s-.09,0-.1,0S89.55,84.13,89.72,84.17ZM103,86.12l-.3-.1s0,.08,0,.1S102.77,86.27,103,86.12ZM33.47,114.82c-.11.21-.11.33.11.42Zm36.91-76c.24-.07.24-.16,0-.31ZM19.54,92.52l.11.33.26-.1ZM81.8,69.42l-.17.35h.25ZM67.18,116.17c.13-.12.24-.23,0-.3,0,0-.07,0-.13,0Zm9.7-46.56c.16-.08.22-.2,0-.33C76.91,69.39,76.89,69.5,76.88,69.62ZM27.31,89.56c-.3,0-.3,0-.19.26ZM54.08,53.31l-.1,0,.08.3C54.27,53.47,54.15,53.39,54.08,53.31ZM58,77.83c-.2,0-.25.09-.2.2s.08,0,.13.05ZM45.46,62.95l-.1,0,.07.4C45.59,63.17,45.57,63.05,45.46,62.95Zm28.62,39.3c0,.18,0,.28,0,.45C74.25,102.52,74.35,102.42,74.08,102.25ZM73.5,89.93l-.08-.36C73.26,89.7,73.22,89.8,73.5,89.93ZM72.45,43.38c-.22,0-.3,0-.27.16s0,.07.09.14ZM94.37,88.44c-.06.2-.06.2,0,.35C94.48,88.64,94.48,88.64,94.37,88.44Zm7.38,29.13c.2-.19.18-.33,0-.51ZM77.11,33.68c.06.21,0,.41.27.41Zm.74,43,.23.26c0-.15,0-.26,0-.42Zm16.47,7.61h-.06c0,.14,0,.28,0,.42h0Zm-28-25.2.07.35C66.55,59.32,66.57,59.21,66.31,59.14ZM99,110.83l0,.37C99.2,111.06,99.23,110.93,99,110.83ZM69.37,16.91c0-.17-.06-.26-.21-.17s-.06.09-.11.17ZM50.63,59l.09-.31C50.49,58.78,50.48,58.89,50.63,59Zm43.44,61.61c.14-.2.14-.2,0-.36C94.08,120.44,94.07,120.55,94.07,120.66Zm-1.13.52c0,.35,0,.35.22.34ZM75.3,48h.1l-.1-.36-.09,0ZM85,74l.12,0c0-.08,0-.17.06-.26l-.09,0C85,73.88,85,74,85,74ZM58.14,122c0-.23,0-.23-.4-.2ZM90.93,29.82l-.1,0,0,.41h.06ZM55.38,123.47c0-.19,0-.31-.06-.51C55.19,123.18,55.14,123.31,55.38,123.47ZM94.07,30.11c.14-.2.14-.2,0-.36ZM20.29,98.54c.08-.31.08-.31-.15-.37ZM85.73,25.14c-.1.19-.1.19,0,.43C85.72,25.4,85.72,25.29,85.73,25.14ZM54.57,53.77c-.12.23-.17.35.12.47ZM63.94,66,64,66c0-.19,0-.19-.17-.31ZM21.62,74.78c-.14.14-.17.24,0,.32a.47.47,0,0,0,.13,0Zm10.09,32c0-.21-.1-.36-.31-.16ZM82.4,55.45l0-.35C82.23,55.24,82.23,55.24,82.4,55.45ZM93.84,24.39c-.3,0-.21.19-.11.4ZM85.29,45.58l.05,0,0-.28h-.07ZM28.88,64.37c-.22,0-.25.1-.19.25s0,0,.1,0ZM58.6,68.23h.07c0-.09,0-.17,0-.26s-.05,0-.11-.06Zm11.22,47.94h.1l0-.33h-.07ZM62.87,64.54l.11,0-.11-.32-.09,0Zm36,45-.24-.21a.61.61,0,0,0-.11.17s.08.09.13.1A.78.78,0,0,0,98.83,109.58ZM67.12,68.45l-.1,0,.07.34C67.26,68.63,67.22,68.54,67.12,68.45Zm6,48.57-.09-.36C72.82,116.85,72.89,116.93,73.14,117ZM20.22,69c-.09.13,0,.2.08.23a.1.1,0,0,0,.09-.05C20.42,69.08,20.32,69.06,20.22,69Zm90.23,41.2h-.07a2.05,2.05,0,0,0,0,.25s0,.06.07.09l.05,0ZM63.15,49.06l-.08,0c0,.12,0,.26.18.39Zm9.31,32.13H72.4c0,.11,0,.23.05.35l.09,0ZM56.2,71.36c.15-.16.14-.27-.08-.36Zm51.47,39.09-.11.07.16.21.08-.05C107.77,110.6,107.72,110.53,107.67,110.45Zm-67.7.23h-.08l0,.42.11,0ZM89.55,84.3l-.14,0c0,.09,0,.18,0,.26l.13,0C89.52,84.47,89.54,84.38,89.55,84.3ZM58.13,80l.42-.11C58.34,79.66,58.29,79.86,58.13,80ZM55.3,75.07c-.15.13-.14.23,0,.37C55.32,75.28,55.31,75.18,55.3,75.07ZM65.78,91.46h.09c0-.09,0-.19,0-.28h-.11C65.76,91.28,65.77,91.37,65.78,91.46Zm37.42,0,0-.1-.23.1a.09.09,0,0,0,0,.07C103.07,91.57,103.14,91.52,103.2,91.43ZM81,48.39c.21-.21.21-.21.08-.41Zm13.42,70.06.1,0,.06-.33-.09,0ZM62.72,58.62l-.1,0,.09.35C62.87,58.81,62.8,58.72,62.72,58.62ZM46.31,37.75c-.06-.2-.07-.34-.26-.42A.39.39,0,0,0,46.31,37.75ZM104,86.29l-.32-.22C103.71,86.3,103.74,86.4,104,86.29ZM69,58.91h.12l-.05-.33H69ZM93.94,85.28H94c0-.1,0-.19,0-.28s-.06,0-.12,0S93.93,85.19,93.94,85.28ZM68.36,83l-.1,0c0,.1,0,.2.16.28Zm20.83,30.3.1-.43C89.11,113,89,113.1,89.19,113.32Zm24.35-14.5c.14-.13.22-.21.15-.36C113.54,98.61,113.54,98.61,113.54,98.83ZM66.92,76.25l.06,0-.2-.38-.06,0ZM93.48,24.09l-.14,0c0,.08,0,.17-.06.26l.09,0C93.42,24.26,93.45,24.17,93.48,24.09Zm-7.14,99.11.09,0c0-.13,0-.25-.2-.32ZM86.94,91H87c0-.16,0-.32,0-.48h0C87,90.67,86.95,90.83,86.94,91Zm26.61,8.64-.26-.27C113.24,99.65,113.36,99.68,113.55,99.63ZM83,27.48l.19-.33C82.92,27.15,82.92,27.27,83,27.48Zm2.37,4.07c.22-.12.22-.12.15-.32Zm.37,56.06-.1,0,.1.35C85.88,87.8,85.81,87.71,85.71,87.61Zm-8.25-55-.39.09C77.24,32.89,77.24,32.89,77.46,32.65ZM63.52,38.19c-.15.14-.22.26,0,.43ZM87,45.83c-.19.06-.26.14-.15.29s0,0,.1,0Zm-14.55.06-.13,0a2,2,0,0,0,0,.23l.09,0C72.42,46,72.44,46,72.47,45.89ZM60.92,38.68l.1,0c.11-.1.07-.2,0-.31Zm-14.56,38c-.09-.05-.15-.1-.2-.1s-.08.07-.12.12.09.09.14.09S46.27,76.76,46.36,76.7ZM64.34,57c.22-.2.22-.2.1-.36ZM82.92,45.73l.11.06c0-.07.07-.13.09-.2L83,45.53Zm11.34-2.36c.18-.17.18-.17.05-.39Zm-72,58.85.26-.21-.38-.19Zm70.32,13.35-.12,0,.1.28.09,0Zm18.27-27.32-.26-.11-.06.22ZM89.44,97.17c-.15.14-.1.23,0,.32s0,0,.11,0ZM76.5,89.38h-.06l0,.33.08,0C76.54,89.59,76.52,89.49,76.5,89.38ZM72,90.19h-.08l0,.25H72Zm-8.85-40.5H63l0,.23h.13A1.8,1.8,0,0,0,63.18,49.69ZM27,90.12c0,.31,0,.31.22.25ZM58.93,53H59L59,52.7l-.07,0Zm39.16,56.79.13,0-.13-.26-.08,0Zm-7.3-78.92h.08s.07-.08.07-.12,0-.08-.08-.12,0,0-.1,0Zm-4.34-4.07c-.1.3-.1.3.14.31ZM96.74,90.74c0-.14,0-.22,0-.35C96.62,90.48,96.57,90.55,96.74,90.74ZM79.08,78c-.12.12-.13.23,0,.36Zm13.46,6.6.35.07-.13-.23Zm-2.42-5.91H90a1.91,1.91,0,0,0,0,.24s.05,0,.13.08C90.13,78.84,90.12,78.75,90.12,78.66ZM58,74.1l.21.36C58.27,74.2,58.19,74.11,58,74.1ZM78.48,18.67c.12-.14,0-.21,0-.27s0,0-.09,0Zm7.76,84.82a1.33,1.33,0,0,0-.1-.21s-.07,0-.13-.06C86,103.37,86,103.5,86.23,103.49Zm-54,7.68a.69.69,0,0,0-.13-.15s-.1,0-.1.07a.26.26,0,0,0,.07.15S32.15,111.2,32.23,111.17ZM64.16,73H64v.29h.07ZM63.07,52.33c.09-.16.1-.26,0-.32s-.07,0-.13,0ZM60.91,80.22l-.1,0a.92.92,0,0,0,0,.18.66.66,0,0,0,.07.14l.06,0Zm50.25,37.25-.11,0,.1.29C111.35,117.62,111.25,117.55,111.16,117.47ZM83.38,48.29l-.08-.08-.13.17,0,0Zm3.09,14.26,0,.31C86.69,62.7,86.64,62.61,86.47,62.54Zm-12.29-8h.11c0-.11.21-.2-.07-.37Zm3.7,23,.19-.15-.31-.13ZM50,63.28l.08,0L50,62.88l-.09,0Zm26.05,49.24h.08c.05-.17.05-.17-.05-.33ZM27.47,92c.25.08.2-.07.22-.16s0,0-.06-.08Zm42.89-44-.06,0,.12.23.08,0Zm-35.57,53c-.07-.23-.07-.23-.24-.18ZM57.59,83l.09,0-.07-.25c-.08.06-.11.11-.11.17S57.56,83,57.59,83ZM78,16.46a1.55,1.55,0,0,0,0,.24.58.58,0,0,0,.07.15C78.16,16.7,78.1,16.61,78,16.46Zm9.36,84.8-.08,0a1,1,0,0,0,0,.18.72.72,0,0,0,.08.14l0,0ZM37,77h.12c.11-.12,0-.19-.17-.28Zm35.6,28.7-.07.06c0,.12,0,.21.27.19ZM45,67.53l-.08,0,.07.37H45C45,67.77,45,67.65,45,67.53ZM106.9,96.94h.1c0-.1.09-.23-.15-.33ZM77.61,101.3c-.08.18-.08.18.09.26ZM31.66,64.92c.14.11.24.13.29,0s0-.1-.07-.15Zm57.17,36.4-.11,0,.12.24.08,0ZM51.31,56.24c-.16.19-.16.19,0,.35C51.29,56.46,51.3,56.35,51.31,56.24Zm35.6,45.47c.17-.19.18-.28,0-.38C86.89,101.45,86.9,101.53,86.91,101.71ZM66.43,85.36l.06,0a.92.92,0,0,0-.08-.16,1.09,1.09,0,0,0-.14-.13l0,.05ZM20,65h.08a.35.35,0,0,0,0-.15s-.07-.07-.18-.16ZM76.94,53s0,0,0,0h0a1.49,1.49,0,0,0-.12.2s0,.06,0,.14Zm-10.26.14c0-.17,0-.29-.26-.32Zm-.29,33,.14,0-.09-.26-.1,0Zm42.85,13.1-.09.05c0,.13,0,.21.24.3ZM26.73,78.35l-.08,0c0,.11-.07.26.21.27Zm1,1,.11-.11c0-.11-.06-.2-.29-.09Zm46,2.23h-.09v.39Zm-3.85,0-.11,0,.09.23.08,0Zm21.58.18h-.12c0,.1,0,.2,0,.29h.08ZM72.25,84.65l-.17.32C72.27,84.93,72.31,84.85,72.25,84.65Zm-10.66.44c.1-.16.1-.16-.09-.29Zm44.19,1.29a.58.58,0,0,0-.13-.09s-.06,0-.09,0l.12.13Zm-7.26.17a.65.65,0,0,0,0,.16.78.78,0,0,0,.06.16C98.66,86.71,98.64,86.63,98.51,86.54ZM75.58,99.31a1.08,1.08,0,0,0-.21-.06s0,0-.07.07a.54.54,0,0,0,.14.09S75.5,99.37,75.58,99.31Zm33.13-12.64,0-.08a.36.36,0,0,0-.11-.08.57.57,0,0,0-.16,0v.05ZM94.05,115.84c0,.13,0,.19,0,.25a1.07,1.07,0,0,0,.05.13C94.26,116,94.17,116,94.05,115.84ZM77.83,86.71h-.07a.41.41,0,0,0,0,.14s0,.09.11.2ZM88,88.33l-.05,0,.06.19.14-.1Zm-5.56.76h.12v-.27h-.09C82.51,88.91,82.5,89,82.49,89.09ZM68.1,116.59h.1l0-.26h-.08C68.09,116.42,68.1,116.5,68.1,116.59ZM78,89.39h-.09l0,.25H78ZM64.47,20.33a.26.26,0,0,0,0,.41ZM23.44,100l.11-.05-.14-.19-.07,0Zm64.37.36-.12-.45C87.65,100.12,87.59,100.24,87.81,100.37Zm2.78.08v.43C90.73,100.72,90.76,100.62,90.59,100.45ZM51.35,21.74h-.12l.06.22h.08C51.36,21.89,51.36,21.82,51.35,21.74ZM83,22.35c-.1-.09-.13-.14-.17-.14s-.1.07-.09.08a.21.21,0,0,0,.1.13S82.91,22.38,83,22.35Zm16.75,1.82-.22-.23C99.44,24.13,99.48,24.2,99.73,24.17Zm2,76.88c-.16.14-.11.22.07.34ZM83.07,31.18c.14-.16.16-.26,0-.43C83.09,30.91,83.08,31,83.07,31.18Zm.24-.16h.09v-.22h-.06C83.33,30.87,83.33,30.95,83.32,31Zm8.49,2.71h-.09V34h.06ZM60.68,34h-.1v.26h.08Zm25.58,7.84h.05s0-.07,0-.1a.76.76,0,0,0,0-.16h-.07Zm20.07,50.3-.1.08.19.19,0-.06ZM66.2,41.89h-.08l0,.29h.06C66.21,42.09,66.2,42,66.2,41.89Zm19.63,75.59h-.05s0,.1,0,.14.08.06.12.1l0,0Zm6.32-71.15.11,0L92.19,46l-.08,0ZM62.78,51.38l-.08.32C62.77,51.61,63,51.56,62.78,51.38Zm19.81.6.07-.07-.15-.14-.06.08Zm-21.45.21,0,0,.09-.14s0,0,0-.06Zm21.26.55c0-.19.07-.32-.15-.35a.68.68,0,0,0,0,.16A1.36,1.36,0,0,0,82.41,52.74Zm-23.6.48h-.05a.36.36,0,0,0,0,.13.45.45,0,0,0,.08.12l.05,0Zm29,49.21h.08c0-.09.07-.19-.12-.27ZM66.64,54.94l-.12,0,.05.26.1,0ZM85.55,94.17h.1c0-.07,0-.14,0-.21h-.07ZM66.47,57.09,66.4,57l-.14.23.06,0ZM26.12,102.7h0c0,.1,0,.19.06.29h.09ZM86.86,59.79l0,0a.21.21,0,0,0,.06-.26h-.06Zm-33,.14-.08.05.13.24.07,0Zm1.64.31c-.14.18-.14.28.05.43C55.49,60.5,55.48,60.41,55.46,60.25ZM75.3,62.59l-.08,0,.08.21.08,0Zm13.44,50a.83.83,0,0,0-.06.21s.08,0,.12.06.05-.09.05-.13S88.81,112.61,88.75,112.54Zm-54.4-49.3c.11-.14.11-.14,0-.3Zm31.78,2h-.05c0,.09,0,.18,0,.27h.06Zm-35.69.07a.48.48,0,0,0-.13-.09s-.07.06-.07.08a.26.26,0,0,0,.1.09S30.39,65.33,30.44,65.29Zm-.07.32c-.06,0-.1-.1-.13-.1s-.07.06-.11.1.06.09.1.09S30.3,65.66,30.37,65.61ZM27.74,96.75h0l.06-.21-.06,0Zm5.16,6.73h-.08s0,.1,0,.15.07.09.11.13l0,0ZM53.59,128l.08,0-.13-.2-.06,0Zm9.2-62,.16-.2C62.77,65.79,62.77,65.79,62.78,66Zm1.88,1.59.06,0,.12-.15-.12-.07ZM51.17,70h-.06v.2h.05C51.17,70.15,51.17,70.09,51.17,70Zm25.93.84h.11l0-.31H77.1Zm12.24,6.87h-.09v.36h0Q89.32,77.91,89.34,77.73Zm4.31,26.94,0-.35C93.51,104.42,93.53,104.51,93.65,104.67Zm-9-6c0-.18,0-.27-.2-.29ZM82,82.78l-.08,0,0,.2H82Zm1.88-33.15h-.09l0,.23h.06ZM41,65.15l.09,0L41,64.89l-.09,0Zm9.74-1.23-.09,0a.57.57,0,0,0,0,.13.52.52,0,0,0,0,.12h.06ZM87.35,52.43l-.08.1.24.14,0,0Zm-17-9.1c-.15.15-.09.19.07.23Zm8.51,2.1H79l-.08-.25-.07,0ZM89.25,61.66h-.09l0,.19h.06ZM59,83.68H59L59,84l.09,0Zm24.46,4,.11,0-.08-.23-.08,0ZM64.21,61.16l-.09,0,.07.21.07,0ZM78.4,104.63h-.06v.31h.06ZM22.88,60.86s-.09.08-.09.1a.43.43,0,0,0,.06.12s.08,0,.08-.07A.55.55,0,0,0,22.88,60.86Zm24.18-.11h.09c0-.06,0-.12,0-.18h-.05ZM29,86.14l-.1,0,.06.17.06,0Zm65.34.43.08-.07-.14-.13,0,0ZM86.64,87.8h0l.06-.27h-.06C86.66,87.62,86.65,87.71,86.64,87.8Zm-42-27.6.09,0a1.49,1.49,0,0,0,0-.19h-.09Zm39.2-8.35.07-.07-.12-.15-.08.07Zm2-5h-.09c0,.09,0,.17,0,.26h.11ZM59,59.42l-.06,0,0,.19.07,0Zm2.37-14.68-.09.05.14.23.07,0Zm11,31.18-.07,0,.08.2.07,0Zm18.56,25.67-.06,0,.13.19.06,0ZM43.5,59.09c-.12.22-.12.22,0,.43C43.47,59.37,43.48,59.27,43.5,59.09Zm22.61-.25c-.06.14-.09.26.15.23ZM64,75l.08-.07-.16-.2-.06.05Zm.54-16.69h-.07s0,.09,0,.13,0,.08.1.15ZM79,76.28h-.1v.22h.07C78.95,76.42,79,76.35,79,76.28Zm-.69-32.12.07,0-.08-.19-.07,0ZM51,58.33h.06l0-.26-.09,0ZM76.36,88.67c-.11.2-.11.2.05.28ZM51.12,57.38l-.07,0,.06.26.07,0ZM61.63,76l.07,0,0-.19-.1,0Zm-27.4-.62a1.4,1.4,0,0,0-.15-.11s-.05,0-.08.06a1,1,0,0,0,.12.13S34.17,75.4,34.23,75.36ZM77.9,102.47c-.05.08-.08.11-.08.14s0,.05.06.08.06-.06.07-.1S77.92,102.52,77.9,102.47Zm.51.36h.07v-.24h-.09Zm2.65-45.7-.1,0a1.47,1.47,0,0,0,0,.2s.06,0,.09,0Zm1.17,18,.06,0c0-.06,0-.12.05-.18l-.09,0C82.24,75,82.23,75,82.22,75.09Zm11.87,31.74.11,0-.06-.24h-.07C94.07,106.67,94.08,106.75,94.08,106.83ZM93.25,46c-.1.13-.17.2,0,.33ZM71,56.41c-.18.08-.18.17,0,.31Zm33.69,32.27.07,0,.06-.18-.11,0ZM67.8,42.25l-.06,0,.07.19.08-.06A1.77,1.77,0,0,0,67.8,42.25ZM86,107.34h.09l0-.22H86ZM44.9,54.48l.07,0-.06-.21-.08,0Zm45.48-1.16h-.09l0,.17h0ZM78,85.73l-.09,0L78,86l.07,0ZM68.39,52.79l0-.05-.15,0,0,.09ZM66.81,79h-.09c0,.08,0,.16,0,.24h.08C66.82,79.18,66.81,79.11,66.81,79ZM52.23,50.64h-.09l0,.3h.05Zm15.71,2c-.14.19-.1.26.1.32ZM97.85,89.08c-.11.06-.23.14-.1.31ZM65.1,39.6c-.16.16-.17.25,0,.33Zm-1.51,0c-.17.11-.1.18,0,.3C63.61,39.73,63.6,39.65,63.59,39.55Zm19-2.28-.06,0a.35.35,0,0,0,0,.12.82.82,0,0,0,0,.15h.07ZM25.28,79.14c0,.17,0,.17.09.21Zm53.3,10.25-.09,0,.06.2.07,0Zm-8.46,23.84-.1,0,.09.23.07,0ZM91.88,35.36H92v-.23h-.06C91.9,35.21,91.89,35.28,91.88,35.36ZM77.65,34.5l.07,0a.77.77,0,0,0,0-.13,1.11,1.11,0,0,0,0-.19C77.68,34.36,77.67,34.43,77.65,34.5Zm12.68-3.61.09,0c0-.07,0-.13,0-.2h-.07ZM88,114.49h.07l0-.22H88C88,114.35,88,114.42,88,114.49ZM82.35,22.13l-.08,0,.07.19.07,0C82.39,22.24,82.37,22.19,82.35,22.13ZM23.65,77.29l-.1,0,.11.2.06,0ZM84.21,91.22c.13-.11.15-.18,0-.28C84.19,91,84.2,91.11,84.21,91.22ZM64.12,114.88H64l.05.23h.07C64.14,115,64.13,114.95,64.12,114.88Zm17.13-40.3-.05.06.19.16.05-.06ZM64.19,91.39l.12-.1s-.07-.08-.09-.07-.07.05-.09.09S64.16,91.36,64.19,91.39ZM56.24,74.17l.13-.12-.3-.13Zm30.27,42.11a1.21,1.21,0,0,0-.12-.14.57.57,0,0,0-.11.08s.05.09.09.1S86.45,116.29,86.51,116.27ZM76.21,73.7l.1,0-.07-.22-.08,0Zm26.92,18.51.1,0-.06-.22-.07,0C103.11,92.06,103.12,92.13,103.13,92.21ZM99.2,116.26h-.08l0,.22h.07ZM87.89,79.86c0-.06.07-.1.06-.12a.37.37,0,0,0-.09-.11s-.06.06-.06.07A.66.66,0,0,0,87.89,79.86Zm-6.36-6.68h-.08c0,.07,0,.14,0,.22h.08C81.51,73.33,81.52,73.25,81.52,73.18Zm-5.17,43.64h.07c0-.06,0-.13,0-.19h-.1C76.35,116.7,76.36,116.76,76.36,116.82ZM58.17,73.27h0l-.07.27h.06Zm51.94,19.3.06-.07-.2-.17c0,.1,0,.15,0,.17S110.07,92.55,110.11,92.57ZM68.58,121.34h-.09c0,.08,0,.16,0,.24h.06ZM86.67,117l.09-.05-.13-.17-.06,0ZM57.1,80.38l.1-.12a.5.5,0,0,0-.14-.07s-.08.07-.07.1S57,80.34,57.1,80.38ZM75.78,93.11l-.07,0,.06.21.07,0ZM55.19,72h.09c0-.07,0-.15,0-.23h-.07Zm50.19,21.43-.06.08.18.1,0-.05Zm-34.44.86-.08.06.14.14,0,0Zm36.27.2-.09,0,0,.23.08,0Zm-34.28.15-.09,0,.08.22.05,0Zm21-13.6L94,81l-.18-.12,0,.06ZM67.12,70.75h.07v-.22h-.05Zm21.79,50.56-.09,0,.08.26.09,0ZM26.8,96.88l-.24-.25C26.55,96.83,26.57,96.92,26.8,96.88ZM87.86,81.51c-.15.12-.12.19,0,.28C87.87,81.69,87.87,81.62,87.86,81.51ZM84.17,97.45c0,.1-.15.21,0,.27a.47.47,0,0,0,0-.15A.34.34,0,0,0,84.17,97.45ZM74.5,81.82l.08.32C74.7,82,74.64,81.87,74.5,81.82ZM80,68.08l-.09,0,.05.22H80C80,68.22,80,68.15,80,68.08Zm-15.82-.2h.1a1.12,1.12,0,0,0,0-.16h-.09Zm-17,60.3H47l0,.21H47ZM80.24,67.55l-.06.34C80.35,67.78,80.41,67.71,80.24,67.55Zm-36,.15-.07,0-.06.22h0Zm19.93-1.32h.08l0-.19h-.06C64.15,66.26,64.16,66.32,64.17,66.38ZM76.9,133l0,.09.21-.12,0-.07Zm-8-89.47-.08,0,.08.21.07,0ZM39,110.83h.09l0-.2H39ZM63.75,43.64c.05-.06.09-.08.08-.09l-.07-.11C63.75,43.49,63.75,43.55,63.75,43.64Zm43.41,67.19-.06,0,.05.19.07,0Zm0,.8.06,0-.11-.16,0,0ZM71.35,41.79h0l-.08.22.06,0Zm-2.46-.52h0v.18h0C68.9,41.39,68.89,41.33,68.89,41.27Zm18.7,17.45.06,0,0-.22-.09,0ZM78.27,40.48c0-.05,0-.08,0-.09l-.08-.06ZM108.52,89l-.06,0-.07.18.1,0C108.5,89.08,108.51,89,108.52,89Zm-36-23.06-.08,0-.06.18.06,0Zm10.62,46.71.08-.07-.08-.15ZM50,63.9l.08-.05L50,63.68l-.06,0ZM64,63.17l-.07,0,.07.21.07,0ZM53,62.29l.08,0s.06-.08.05-.12-.05-.08-.12-.18C53,62.15,53,62.22,53,62.29ZM85.81,89.46h.07a.39.39,0,0,0,0-.13s-.05-.05-.08-.08l0,0ZM67.46,39.19l-.07,0,.07.19.07,0Zm0-.54c0,.09,0,.14,0,.16s.05.05.08.08l0,0Zm-.56-.21h-.06l0,.22h0C66.92,38.58,66.91,38.51,66.9,38.44ZM60.13,61.33l-.08,0,.11.16.05,0Zm9.67-.15-.09-.12s-.09.06-.08.09.05.07.09.1S69.76,61.22,69.8,61.18Zm21,39.81.07.06.13-.15-.08-.06ZM82.62,36.65h0l0-.23-.08,0ZM57.39,60.3l-.07,0,.07.19.06,0Zm13.55.12H71l0-.19H71Zm39.23,24.2.08,0-.08-.22-.08,0ZM76.49,33.94h-.06c0,.07,0,.14,0,.21h.07ZM46.58,60.11c-.09-.24-.18-.17-.31-.09ZM86.69,26.83h.06v-.23h0C86.7,26.68,86.7,26.76,86.69,26.83Zm.51-1.75.05.1s.06,0,.07-.07,0-.06,0-.09Zm-3.9-.31h.06v-.22h-.07C83.29,24.63,83.29,24.7,83.3,24.78Zm26.58,88.85s-.07.08-.07.1a.53.53,0,0,0,.07.12s.09-.06.09-.09S109.92,113.69,109.88,113.63ZM19.45,90.71l.07,0-.08-.18-.06,0Zm36-31-.07,0,.05.22.07,0ZM85.79,90.47c0,.05-.07.09-.06.11a.41.41,0,0,0,.08.12s.08-.08.07-.11S85.83,90.52,85.79,90.47ZM66.44,76.77l-.09.06.13.17.06,0Zm8.91,37.82h.07a1,1,0,0,0,0-.15s0,0-.06,0S75.35,114.52,75.35,114.59ZM65.62,59.37l.09,0,0-.2h-.05C65.61,59.24,65.62,59.3,65.62,59.37Zm25,42h-.1l.06.2h.06ZM103.17,91l0,.05.17.09c0-.08,0-.12,0-.13A.29.29,0,0,0,103.17,91ZM91.87,58.32h.05v-.17h-.05Zm13.52,44.19.05,0-.08-.17-.06,0ZM97.6,115l0,0,.05.19.07,0ZM103,102.54h.09l0-.18-.07,0C103,102.43,103,102.49,103,102.54ZM87.25,57.18h-.07l0,.28h.07C87.24,57.37,87.25,57.28,87.25,57.18ZM75.36,115.6h-.06l0,.18s.06,0,.07,0A1.32,1.32,0,0,0,75.36,115.6Zm-2.64.27h.05c0-.06,0-.12,0-.19h-.07ZM77.09,74l.09,0-.08-.24h0Zm-31.32-.41c-.06,0-.09-.08-.12-.08s-.07,0-.1,0,0,.08,0,.08A.73.73,0,0,0,45.78,73.63Zm44.4,5.78-.08,0,.1.21.07,0Zm-61.37.37h.09l-.07-.17-.06,0Zm54.6,36.3-.09,0,.1.16.06,0Zm8.44-58.83h.06c0-.05,0-.11,0-.17l-.1,0Zm-26.41-.41h0a.43.43,0,0,0,0,.13s.05.05.08.08l0,0Zm20.3-.49-.08.1.13.11s0-.07,0-.1S85.77,56.4,85.74,56.35Zm-12.14-.18c0,.08-.06.11-.06.12l.08.08Zm11.62,36,.1,0c0-.06,0-.12-.06-.18h-.06C85.19,92.08,85.2,92.15,85.21,92.21ZM54.36,55.5l0,0,.06.19.06,0ZM88.54,85.79l.05,0,0-.22-.08,0Zm23.11.12-.09,0,.07.17.06,0Zm-34.89,18-.06,0,0,.16.06,0Zm17.29,12.75-.08,0,.1.17.06,0Zm-11.4-12.21a.62.62,0,0,0-.12-.11s-.05,0-.08,0a.41.41,0,0,0,.09.11S82.59,104.45,82.65,104.43Zm-31-52.11a.73.73,0,0,0,0-.15s-.07,0-.08,0a.13.13,0,0,0,0,.09S51.65,52.27,51.69,52.32Zm4.79,28,0-.05-.15.08,0,.07ZM101,86.1s0,0,0-.06h-.24v0ZM90.26,51.93l.05,0,.12-.15-.09-.05Zm17.07,40.79c0,.16,0,.16.13.19ZM68.8,72.54l0,.06.15-.07,0-.06ZM39.11,72c0-.05,0-.1-.06-.11s-.06,0-.09,0,0,.08,0,.1S39.06,72,39.11,72Zm-8.29,33.22.07-.06a1,1,0,0,0-.08-.14l-.09,0Zm41.82-.09h-.08c0,.08,0,.17,0,.25h.07ZM61.25,51.52h0a.26.26,0,0,0,0-.1.36.36,0,0,0-.07-.09l0,0ZM53,80.47l-.07,0,.06.18.06,0Zm5-8.87-.07,0,0,.16h.05Zm18.2-.2h-.07l.05.22.06,0ZM64.91,80.72l-.08,0,.06.16.08,0A1,1,0,0,0,64.91,80.72ZM64.8,68.55l.09,0-.08-.21-.06,0ZM88,117.89l.08,0,0-.18-.07,0ZM67.08,71.24l-.06,0,.13.13.05,0Zm26,15.45.06,0-.07-.19-.06,0ZM76.93,81c-.05,0-.1-.08-.11-.07a.59.59,0,0,0-.09.1s.06.07.08.06S76.88,81,76.93,81ZM73.92,51l-.09,0,.09.18,0,0Zm-.87,67.37c0-.15,0-.15-.22-.15ZM59,71.21a.37.37,0,0,0,0,.11s0,0,.06,0a.52.52,0,0,0,0-.11S59,71.23,59,71.21Zm21.49,36-.05,0s0,0,0,.05,0,0,0,0Zm-49.81-12,0-.07s-.09-.05-.13,0-.05.07-.08.1a.6.6,0,0,0,.14,0A.29.29,0,0,0,30.69,95.23ZM54.88,50.89l.07,0-.06-.23h-.05ZM58.83,70h0v-.21h-.06C58.81,69.83,58.82,69.91,58.83,70Zm48.56,22.44-.09.05.12.17.07,0ZM84.56,81.32h.08c0-.06,0-.13,0-.19h-.06Zm-25.71,0-.09,0,.1.21.07,0ZM72.27,48.53h0l0,.16h0ZM91,78.31a.64.64,0,0,0-.11-.11s-.05,0-.08.05a.68.68,0,0,0,.08.11S90.92,78.34,91,78.31Zm6.46,44.45.07,0-.08-.19-.06,0ZM58.15,78.56l.07,0-.06-.21-.06,0Zm27-31.31-.1,0,.07.2.07,0Zm3.31,50.08.07,0-.06-.19-.07,0ZM82.84,124h.05l0-.14-.09,0Zm28.53-27,0,.06.14.09s0-.06,0-.07ZM82.55,69.12l.08,0-.09-.23-.06,0Zm-1.23,8.47-.06,0,.08.17.05,0Zm-8.75,31.05-.09,0,.08.21.07,0Zm8-62.19h-.06l0,.26c.07-.06.11-.08.12-.11A.42.42,0,0,0,80.57,46.45ZM93.91,81.83s0,.05,0,.07l.22,0s0,0,0-.07ZM77.71,88l.05,0-.09-.17-.08.06Zm9.71-41.59-.06,0,.06.21.06,0ZM69,109.75c0-.05.07-.09.07-.11a.52.52,0,0,0-.08-.12s-.07.07-.07.11S68.93,109.7,69,109.75ZM79.76,45.81l.09.06s0,0,0-.06a.34.34,0,0,0,0-.08ZM59.7,88.21h.06a.6.6,0,0,0,0-.12,1,1,0,0,0-.12-.17C59.68,88.08,59.69,88.15,59.7,88.21Zm23.16-5.92-.06.06.16.13,0,0Zm-17-14.93H66a.63.63,0,0,0,0-.14s0-.06-.13-.16Zm26-21.71-.07,0,.07.21.05,0ZM82.79,99.32l.06,0-.1-.2-.06,0Zm-4.5-10.89.08,0-.07-.17,0,0Zm-7.22,45.73.11-.05a.36.36,0,0,0-.09-.09s-.06,0-.07.06S71,134.13,71.07,134.16Zm-38.37-22.5-.07,0,.08.15.06,0A1.36,1.36,0,0,0,32.69,111.65Z"/><path class="cls-1" d="M42,45a4,4,0,0,1-1.08-.36,1.87,1.87,0,0,0-.93-.32.41.41,0,0,1-.36-.45,1.29,1.29,0,0,1,.91-1.37.5.5,0,0,1,.3,0A3.5,3.5,0,0,1,42,42.9c.26.22.54.42.81.63a1,1,0,0,1,.21.23.42.42,0,0,1-.07.6l-.48.44.76.62.1,0c.42-.25.68-.17.87.28a1.49,1.49,0,0,1,.12.5,1.14,1.14,0,0,1-.1.4c0,.07-.1.13-.12.2,0,.24-.19.29-.4.26a.62.62,0,0,0-.3,0c-.31.12-.62.26-.92.4a.29.29,0,0,1-.45-.2,1.41,1.41,0,0,1,0-.44,3.37,3.37,0,0,0,0-1.18,1.57,1.57,0,0,1,.06-.5C42,45.07,42,45,42,45Z"/><path class="cls-1" d="M41.5,48.67a1,1,0,0,1,.32-.19c.54-.07.82-.49,1.14-.85a.7.7,0,0,1,.95-.25c.17.07.32.17.49.25a.93.93,0,0,0,.39.16c.29,0,.43.15.59.39l-.34.55c-.31,0-.62-.07-.92-.13a.46.46,0,0,0-.41,0,4.69,4.69,0,0,1-1.2.64A.72.72,0,0,1,41.5,48.67Z"/><path class="cls-1" d="M41.55,46a.43.43,0,0,1-.35.34,1.18,1.18,0,0,0-.69.7c-.14.27-.26.55-.38.82a.38.38,0,0,1-.43.26,3.73,3.73,0,0,0-.44,0,.64.64,0,0,1-.2-.61c-.29-.49,0-.91.17-1.34a.83.83,0,0,1,.65-.45l.73-.11A.77.77,0,0,1,41.55,46Z"/><path class="cls-1" d="M106.79,45.52l.43-.3a5.29,5.29,0,0,1,.59.28c.26.16.49.36.74.52s.76.46,1.12.72a2.14,2.14,0,0,0,1,.35,1.4,1.4,0,0,1,1,.42c0,.06.11.11.16.17.21.28.44.56.64.86a.88.88,0,0,1,.26.65.24.24,0,0,0,.09.17L114,50.43c.1.09.18.17.34.09a.45.45,0,0,1,.33,0,.34.34,0,0,0,.44-.15c.09-.12.1-.31.3-.32a1.76,1.76,0,0,0,0-.25l-.28.13s-.07,0-.09-.07a1.25,1.25,0,0,1-.31-.79,2.18,2.18,0,0,0-.14-.73,1.24,1.24,0,0,0-.27-.43.49.49,0,0,1,0-.81,3.23,3.23,0,0,1,.29-.21A1.58,1.58,0,0,1,115,46a1.33,1.33,0,0,0-.45-1.91,1.21,1.21,0,0,0-.39-.05,2.17,2.17,0,0,1-.51-1.45c0-.16,0-.32,0-.48a.59.59,0,0,1,.36-.61.56.56,0,0,1,.68.12c.26.25.49.51.75.76a3,3,0,0,0,.28.22,1.38,1.38,0,0,1,1.25-1,1.38,1.38,0,0,0,.19,0,1.16,1.16,0,0,1,1.17.54,2.2,2.2,0,0,0,.24.26,1.55,1.55,0,0,1,.42,1c-.54.18-1.05.35-1.55.54a.45.45,0,0,0-.24.24,3.75,3.75,0,0,0-.18.77.93.93,0,0,1-.69.9l-.08,0a1.39,1.39,0,0,0-.5,1.59c.24.6.77.92,1.17,1.37.13.15.28.28.43.42a.66.66,0,0,0,.93.08c.27-.19.52-.4.79-.6.05,0,.09-.11.15-.13.22-.08.47-.25.65-.19a1.14,1.14,0,0,1,.71.64c.11.26.26.51.38.77s.14.69.32,1a3.08,3.08,0,0,1,.13.37,1.2,1.2,0,0,1,0,1,.69.69,0,0,0,0,.74.12.12,0,0,1,0,.11c-.16.34-.25.74-.7.85a.76.76,0,0,0-.31.16,1.51,1.51,0,0,1-.8.29,1.11,1.11,0,0,0-.4.08c-.21.13-.46.19-.67.3a1.51,1.51,0,0,1-.88.14c-.35,0-.69-.13-1-.21a.57.57,0,0,1-.21-.11c-.32-.24-.56-.11-.69.27a1.49,1.49,0,0,0,.31,1.39c0,.07.08.16.13.25a1.77,1.77,0,0,1-1.21.26h-.54a.27.27,0,0,1-.13,0,1.84,1.84,0,0,0-.81-.31.19.19,0,0,1-.11,0,1.76,1.76,0,0,0-1-.34.9.9,0,0,0-.52.07,3.5,3.5,0,0,1-.92.12c-.13,0-.28-.05-.38,0a.37.37,0,0,1-.46-.11,1.73,1.73,0,0,1-.56-.92,1.75,1.75,0,0,1,.05-.45c-.14-.19-.14-.19.06-.46l-.22-.37-.3,0-.22-.54c-.18-.1-.36,0-.52.11a9.77,9.77,0,0,0-1.22.85,3.57,3.57,0,0,1-.93.51c-.1,0-.26-.06-.42-.1a.71.71,0,0,1-.64.22,7.59,7.59,0,0,0-.81,0,.34.34,0,0,0-.19.06c-.24.21-.64.19-.8.53-.24.06-.36.29-.56.4a1.5,1.5,0,0,1-.56.15,1.69,1.69,0,0,0-.73.27,3.14,3.14,0,0,1-1.7.44.65.65,0,0,1-.68-.78c0-.24.05-.48.08-.71a1.32,1.32,0,0,1,.8-.85l.12,0c.44,0,.67-.28.85-.58a1.57,1.57,0,0,0,.32-1.19,1.33,1.33,0,0,1,.08-1.11c-.05-.44.37-.61.54-.92.07-.14.21-.15.32,0a1.66,1.66,0,0,1,.24-.17.33.33,0,0,0,.19-.39,3.34,3.34,0,0,0-.19-.64,1.44,1.44,0,0,1,0-1.23c.13-.26.32-.29.54-.1l1,.84a1.65,1.65,0,0,0,.24-.33,1,1,0,0,0,.09-.46c0-.34.19-.56.28-.83a.33.33,0,0,1,.49-.15,1.28,1.28,0,0,1,.61.93,8.17,8.17,0,0,0,1,3.3.65.65,0,0,0,.63.4c.17,0,.27-.09.28-.27s0-.42,0-.64a.58.58,0,0,0-.1-.29c-.14-.2-.31-.39-.44-.59a3.84,3.84,0,0,1-.21-.5,4.76,4.76,0,0,0-.32-.7.8.8,0,0,1-.12-.66c.18,0,.37-.11.55-.14a.32.32,0,0,1,.21.09l.68.58s.1.1.16.11a4.32,4.32,0,0,1,1.09.42,6.61,6.61,0,0,0,.71.21c.27.07.54.19.59.46a.83.83,0,0,1-.24.84.79.79,0,0,0-.25.89.74.74,0,0,0,.66.44,3.44,3.44,0,0,0,.78,0,.49.49,0,0,0,.38-.71c0-.14-.07-.28-.12-.42a1.2,1.2,0,0,0-.35-.6,1.83,1.83,0,0,1-.39-.63c-.09-.19.06-.38.28-.43l.46-.12a3.25,3.25,0,0,0-.19-.44.67.67,0,0,0-.56-.36,3.73,3.73,0,0,1-1.45-.29,4.27,4.27,0,0,1-.62-.41c-.21-.17-.41-.37-.62-.55s-.21-.12-.15-.28-.05-.13-.1-.14c-.21-.06-.34-.32-.6-.26a.12.12,0,0,1-.11,0C107.13,46.07,106.73,45.94,106.79,45.52Zm9.86,7.57c-.21.31.16.44.16.67C116.8,53.53,116.87,53.29,116.65,53.09Zm-5.27.7.25-.39-.48,0Zm6.23-3.9c-.11-.14-.2-.25-.41-.19C117.29,49.88,117.37,50,117.61,49.89ZM104,49.57l-.09.06c0,.14.06.21.28.27Zm8.68,2.55c.15-.06.24-.11.17-.3Zm-4.3.49h-.11l0,.22h.08Z"/><path class="cls-1" d="M116.37,40.7c0,.11,0,.14,0,.16a.92.92,0,0,1-.78.68.85.85,0,0,1-.77-.46,1,1,0,0,1,0-1.16.51.51,0,0,1,.82-.09,5,5,0,0,1,.55.55A1.14,1.14,0,0,1,116.37,40.7Z"/><path class="cls-1" d="M36,104.76l.32.21c-.23.17-.24.17-.36-.18Z"/><path class="cls-1" d="M86,110.86l.06.2-.08,0-.08-.2Z"/><path class="cls-1" d="M103.15,108.28c-.26,0-.12-.22-.21-.31l.08,0,.12.36Z"/><path class="cls-1" d="M46.15,74.59c.11.15.11.15,0,.36-.18-.11-.12-.24,0-.36Z"/></svg>