<svg id="_ÎÓÈ_1" data-name="—ÎÓÈ_1" xmlns="http://www.w3.org/2000/svg" viewBox="0 0 150 150"><defs><style>.cls-1{fill:#231f20;}</style></defs><title>LUNOMarquetteArtboard 22</title><path class="cls-1" d="M125.17,84.86c0-.11,0-.23,0-.34s0-.2,0-.29a2.29,2.29,0,0,0-.1-1,2.17,2.17,0,0,1-.11-.67,3.46,3.46,0,0,0-.12-.77,3.25,3.25,0,0,1-.07-1c0-.18,0-.35,0-.53v-.1a2.57,2.57,0,0,0,0-.49c-.09-.39-.18-.78-.28-1.16-.16-.64-.32-1.29-.43-1.94a9.11,9.11,0,0,0-.22-.9,8,8,0,0,1-.21-.84,6.16,6.16,0,0,0-.8-2.21,7.75,7.75,0,0,1-.41-.81,7.27,7.27,0,0,0-.58-1.09,6.49,6.49,0,0,1-.7-1.53,6.39,6.39,0,0,0-1.1-2.08.84.84,0,0,0-.17-.15.7.7,0,0,0,0-.17.82.82,0,0,0-.07-.57,1.28,1.28,0,0,1-.11-.59,2.36,2.36,0,0,0-.13-.81,2.13,2.13,0,0,1-.08-.82,4.62,4.62,0,0,0,0-.67l0-.25a11.74,11.74,0,0,0-.29-1.68,14.81,14.81,0,0,0-1.93-4.12c-.1-.16-.21-.31-.33-.46a2.78,2.78,0,0,1-.56-1,.59.59,0,0,0-.18-.31l-.74-1.2a4.58,4.58,0,0,0-1.34-1.39c-.17-.11-.25-.17-.3-.27a1.52,1.52,0,0,0-1.62-.87H112a1.28,1.28,0,0,1-.29,0,1.17,1.17,0,0,1-.37-.09l-1.9-1.27a.6.6,0,0,0,.31-.24l.2-.37-.3-.35a1.22,1.22,0,0,0-.4-.37l-.47-.25a12.6,12.6,0,0,0-2.46-1.08l-.18,0a7.72,7.72,0,0,1-2.13-.82c-.35-.22-.38-.32-.36-.52a4.18,4.18,0,0,0,0-.45,2.07,2.07,0,0,1,0-.37,4.32,4.32,0,0,0,.59-.37l.06.1.2.21.21,0a.67.67,0,0,0,.51-.23c.41-.39.79-.82,1.15-1.24l.31-.36c.87-1,1.54-1.81,2.13-2.61a13.13,13.13,0,0,0,1.48-2.4A2.78,2.78,0,0,0,110,35.8l-.12-.18a3,3,0,0,0-.41-.52.74.74,0,0,1-.28-.62,1.26,1.26,0,0,0-.58-1.06,2.69,2.69,0,0,0-.43-.25l-.18-.09a3.37,3.37,0,0,1-1.18-.87A4.79,4.79,0,0,0,105.51,31l-.42-.3a1.29,1.29,0,0,0-.72-.2.75.75,0,0,0-.71.36.71.71,0,0,0,0,.75l.06.09-.2.11h0a.82.82,0,0,0-.66,0,1.91,1.91,0,0,0-.45.27,2,2,0,0,0-.67,1.36c0,.13,0,.14-.14.16a2.82,2.82,0,0,0-.95.43,11.2,11.2,0,0,0-2.15,1.72l-.29.3a4.32,4.32,0,0,0-.76.93,1.2,1.2,0,0,1-.2.22l-1.19,1.2a4.35,4.35,0,0,0-.38.43,1.39,1.39,0,0,0,0,1.93,5.2,5.2,0,0,0,.36.4c.09.09.18.18.26.28a1,1,0,0,1,.15.2,2.54,2.54,0,0,1-.13,1.26,1.4,1.4,0,0,0-1,1l-.25-.07-.19-.06a3.64,3.64,0,0,0-1.34-.27c-.1,0-.16,0-.23-.19a1.18,1.18,0,0,0-.3-.51.37.37,0,0,1,.07-.09.74.74,0,0,0,.18-.51l0-.26-.14-.13a4.84,4.84,0,0,1-.51-.6,4.35,4.35,0,0,0-.87-.92,12,12,0,0,1-1.56-1.46l-.5-.52a4.81,4.81,0,0,1-.4-.49L89,37.48a.3.3,0,0,1-.07-.24v-.1a2.92,2.92,0,0,0,0-.35,1,1,0,0,0-.42-.78.89.89,0,0,0-.79-.14l-.17,0a2.9,2.9,0,0,0-1,.44,8.43,8.43,0,0,0-1.26,1.13,7.15,7.15,0,0,1-.84.75.14.14,0,0,1,0-.09.75.75,0,0,1,.17-.46,5.71,5.71,0,0,1,.72-.84,2.06,2.06,0,0,0,.45-.74,1.8,1.8,0,0,1,.21-.41,6.3,6.3,0,0,0,.76-1.28L87,34a.75.75,0,0,0,.08-.54c0-.13-.14-.49-.47-.57a1.92,1.92,0,0,0-2,.46c-.49.52-1,1-1.51,1.52l-.49.48a1.75,1.75,0,0,1,.25-.37l.09-.1a3,3,0,0,0,.63-.94,4.38,4.38,0,0,1,.64-1.08l.07-.09a3.54,3.54,0,0,0,.33-.61A.84.84,0,0,0,84.2,31a1.36,1.36,0,0,0-1-.18,1.73,1.73,0,0,1-.5-.77c0-.07.13-.27.22-.39l.09-.12a1.08,1.08,0,0,0,.15-.26.69.69,0,0,0,0-.56,1.54,1.54,0,0,1-.09-.31,1.27,1.27,0,0,0-.61-1,2,2,0,0,0-1.27-.1l-.28,0-.53.09a.5.5,0,0,0,0-.11l-.11-.32A2.6,2.6,0,0,1,80,25.93a.71.71,0,0,0-.18-.57,1.69,1.69,0,0,1-.32-.62,2.84,2.84,0,0,0-.43-.85,3.74,3.74,0,0,1-.67-1.15,3.89,3.89,0,0,0-.9-1.42,10.89,10.89,0,0,1-.7-.9l-.26-.35a4.83,4.83,0,0,0-.77-1.5l-.26-.39a8.45,8.45,0,0,1-.79-1.92c-.14-.42-.28-.84-.43-1.26l-.16-.47a.77.77,0,0,0,.38-.49,1.45,1.45,0,0,0-.45-1.43c-.35-.31-.67-.64-1-1l-.14-.14a1.11,1.11,0,0,1-.2-.25l-.14-.32a5.92,5.92,0,0,1-.39-1.1,10.51,10.51,0,0,0-.53-1.65c-.13-.35-.27-.69-.37-1a1.19,1.19,0,0,0-.86-.79.77.77,0,0,0-.73.17.79.79,0,0,0-.24.66,3.11,3.11,0,0,0,.17.57l.21.57c.21.56.4,1.1.55,1.65l-.09-.18a11.47,11.47,0,0,1-.5-1.08,1,1,0,0,0-.37-.44c-.26-.18-.53-.34-.8-.5a.89.89,0,0,0-.53-.08,1,1,0,0,0,.26-.25,1.94,1.94,0,0,0,.33-1.25c0-.27,0-.36,0-.37A.73.73,0,0,1,69,5.75a.6.6,0,0,0,.42-.2.76.76,0,0,0,.18-.31,3.87,3.87,0,0,1,.86.91.65.65,0,0,0,.27.25l.39.13.23-.27a.55.55,0,0,0,.13-.48l0-.14a2.53,2.53,0,0,0-.39-1,.73.73,0,0,0,.08-.72.63.63,0,0,0-.29-.29.84.84,0,0,0,0-.38.91.91,0,0,0-.5-.52,1.06,1.06,0,0,1-.4-.26,2.14,2.14,0,0,0-1.34-.74l-.15,0a.7.7,0,0,0-.62.16.78.78,0,0,0-.28.68s0,.06,0,.09l0,0a.79.79,0,0,0-.65-.31c-.22,0-.29-.08-.33-.17a2.18,2.18,0,0,0-1.21-1A3.81,3.81,0,0,0,63.08.78a3.6,3.6,0,0,0-2.41,1.43,2,2,0,0,0-.41.95,4.07,4.07,0,0,0,.09,1.35,2.58,2.58,0,0,1,.11.76.9.9,0,0,0,.4.81c.17.12.35.23.53.34a2.47,2.47,0,0,1,.86.69,1,1,0,0,0,.68.38l.13,0a.71.71,0,0,0-.66.22.75.75,0,0,0-.19.73c.08.23.18.46.27.69l.18.44.09.21a1.4,1.4,0,0,1,.14.41,15.23,15.23,0,0,1,0,1.61.81.81,0,0,1-.13.15,1,1,0,0,0-.21.11,1.37,1.37,0,0,0-.67,1,1.33,1.33,0,0,0,.61,1c.05,0,.13.09.18.06a.37.37,0,0,1,0,.1v.43a11.17,11.17,0,0,0,0,1.34,2.25,2.25,0,0,1-.53,1.88.58.58,0,0,0-.16.49,1.15,1.15,0,0,0,.12.39.68.68,0,0,0,.55.34.48.48,0,0,0,.21,0l.21-.06a1,1,0,0,0,.93-.76l.13-.16a1.72,1.72,0,0,1,.37-.38,11.39,11.39,0,0,1,1.15-.59l.07,0c0,.12,0,.24,0,.35a.63.63,0,0,0,.29.46.53.53,0,0,0,.7-.09,1.93,1.93,0,0,0,.27-.38l0,.26c0,.26.09.53.11.79a.55.55,0,0,0,.24.4l.25.16.21-.05a.7.7,0,0,0,.47-.38,1.59,1.59,0,0,0,.14-.53,9.91,9.91,0,0,0-.13-1.91l0-.17a15.93,15.93,0,0,0-.66-3,9.29,9.29,0,0,1-.37-1.39,10.39,10.39,0,0,0-.93-2.78,2.54,2.54,0,0,0-.39-.57l.09,0a2.43,2.43,0,0,0,.64-.68,2.08,2.08,0,0,0,.26.21,1,1,0,0,0,.68.15.56.56,0,0,0-.2.32,1,1,0,0,0,.34.87,1.14,1.14,0,0,0,.31.27,1.75,1.75,0,0,1,.7,1l.46,1.17.49,1.27a9.16,9.16,0,0,1,.61,2.11,15.38,15.38,0,0,0,.48,2.21c.06.23.12.46.18.69l.06.24a3.2,3.2,0,0,1,.16.91,2,2,0,0,0,.16.73l0,.11c.07.19.14.38.22.58a7.78,7.78,0,0,1,.34,1,5.79,5.79,0,0,0,.68,1.84h0l-.08.07c-.46.42-.36.78-.19,1a.93.93,0,0,0,.66.33,1.6,1.6,0,0,0,.32,0h.13a.37.37,0,0,1,.16.08,1.35,1.35,0,0,1,.12.24,2.35,2.35,0,0,0,.19.37,1.24,1.24,0,0,0,.29.29,1.27,1.27,0,0,0,.29.54.86.86,0,0,1,.11.15,1.2,1.2,0,0,0,.81,1,.66.66,0,0,0,.57.1,1.14,1.14,0,0,0,.49-.38,3.56,3.56,0,0,1,1.15-.86,1.34,1.34,0,0,1,0,.85,3.36,3.36,0,0,0-.18.75c0,.1,0,.2-.05.3s0,.19-.05.28c-.07.42-.11.6-.33.71a.77.77,0,0,0-.4.64c0,.18-.1.31-.32.56a1,1,0,0,0-.26,1,1,1,0,0,0,.84.61.84.84,0,0,0,.62-.13,1.8,1.8,0,0,0,.26.35,1.42,1.42,0,0,1,.48,1,.87.87,0,0,0,.37.72.65.65,0,0,1,0,.17,1.69,1.69,0,0,1-.07.24,3,3,0,0,0-.09.31.81.81,0,0,0,.61,1c.29.07.47.28.74.61l.26.31v.06a3.74,3.74,0,0,1,0,.45,3.72,3.72,0,0,0,.82,2.56l.41.54c.28.36.55.72.85,1.06a4.43,4.43,0,0,1,1.12,2.74,3.08,3.08,0,0,0,.4,1.46l.15.24c.26.44.54.89.85,1.32l.05.07a8.35,8.35,0,0,1,.87,1.38c.16.36.34.71.52,1.06l.07.14a1.75,1.75,0,0,1,.12.4,1.89,1.89,0,0,0,.41.93V51a1.74,1.74,0,0,1-.08.77,1.18,1.18,0,0,0,0,1,4.8,4.8,0,0,1,.63,1.69.64.64,0,0,0,.08.2.8.8,0,0,0,.6.48h.32l0,0c0,.3-.09.59-.14.87l-.12.15a7.43,7.43,0,0,1-1.13,1l-.58.45A6,6,0,0,0,85,59.27a.75.75,0,0,0-.09.36,1,1,0,0,0,.33.87,1,1,0,0,0,1,.18,2.17,2.17,0,0,0,.82-.36,3.65,3.65,0,0,1,.59-.34l0,0,.14.32h.31a.62.62,0,0,0,.53-.21,3,3,0,0,0,.25-.4,2,2,0,0,1,.86-1,1.77,1.77,0,0,0,.59-.5l.13-.15a.54.54,0,0,0,.13-.5l0-.48-.48,0H90l.25-.2,1-.7L92,55.7l.27-.19.43-.27c.48-.3,1-.59,1.44-.86.3-.16.58-.34.87-.52a8.64,8.64,0,0,1,1.79-.93,4.44,4.44,0,0,0,.69-.32,2.13,2.13,0,0,1,.87-.32.78.78,0,0,0,.45-.19,3.72,3.72,0,0,1,1.26-.59c.23-.08.47-.16.7-.25l-.18.25-.21.3a2.89,2.89,0,0,1-.34.46,17.66,17.66,0,0,1-3.53,3,5.2,5.2,0,0,0-1.22.94,3,3,0,0,1-.53.4l-.11.08L94.1,57A8.67,8.67,0,0,0,93,57.8c-.78.67-1.64,1.27-2.46,1.86l-.15.11a15,15,0,0,0-2.4,2,3,3,0,0,1-1.11.84.72.72,0,0,0-.44.46.87.87,0,0,0,.12.74,1,1,0,0,0,1.23.45,2.88,2.88,0,0,0,.75-.37l.42-.31a16.69,16.69,0,0,0,1.6-1.28,9.19,9.19,0,0,1,1.09-.84,7.73,7.73,0,0,0,1.5-1.25l.09,0,.17-.09.13-.08a4.16,4.16,0,0,0,.42-.27l1.48-1.13,1.34-1c.28-.21.55-.43.84-.62l.91-.58.7-.44.46-.32a7.52,7.52,0,0,1,.68-.45c.47-.27,1-.52,1.44-.77l1.31-.7.4-.19a1.92,1.92,0,0,0-.08.61,1.22,1.22,0,0,1-.51,1c-.2.17-.38.36-.57.55L102,56l-.16.16c-.22.23-.35.35-.55.37a1,1,0,0,0-.64.44,2.44,2.44,0,0,0-.18.33,1,1,0,0,1-.15.25,1.13,1.13,0,0,1-.31.14l-.3.12a.76.76,0,0,0-.35.38c-.06.13-.2.19-.46.31a6.75,6.75,0,0,0-1.63,1,3.47,3.47,0,0,1-1,.6,7.51,7.51,0,0,0-2,1.23l-.31.24-.61.47a11.92,11.92,0,0,1-2,1.39,1.83,1.83,0,0,0-.74.55,1.38,1.38,0,0,1-.5.38l-.15.08a25,25,0,0,0-3.18,2.24l-.2.16a3.83,3.83,0,0,0-.9.91,1.18,1.18,0,0,1-.43.34,4.84,4.84,0,0,0-1.22,1,4.78,4.78,0,0,1-.91.78c.1-.19.21-.37.33-.55a16.35,16.35,0,0,0,1.22-2,6.78,6.78,0,0,1,1.14-1.71,1.77,1.77,0,0,0,.32-.59.58.58,0,0,0-.18-.62.59.59,0,0,0-.62-.12.93.93,0,0,0-.38.17,7,7,0,0,0-1.58,1.89l-.05.09a3.44,3.44,0,0,1-.63.85,1.64,1.64,0,0,0-.61,1h0a1,1,0,0,0-.18.26,7.39,7.39,0,0,1-.45.82,4.47,4.47,0,0,0-.77,1.92l-.05.09a3.68,3.68,0,0,0-.52,1.65l0,.15a2.26,2.26,0,0,0,0,.43,1,1,0,0,1,0,.29,4.31,4.31,0,0,0-.17,1.67c0,.36-.07.5-.22.61a1.1,1.1,0,0,0-.3.41.93.93,0,0,0,.09.93,1,1,0,0,0,1,.39,3,3,0,0,0,1.22-.72,10.88,10.88,0,0,1,1.27-1l.37-.25c.32-.22.62-.45.93-.68l.77-.57a9.45,9.45,0,0,0,1.23-1l.09-.09s.08-.09,0-.09a1.63,1.63,0,0,0,1-.55l.17-.16.28-.2a2.63,2.63,0,0,0,.57-.47,1.8,1.8,0,0,1,.67-.55,2.91,2.91,0,0,0,.6-.38,3.45,3.45,0,0,1,.29-.21,5.75,5.75,0,0,0,.63-.46,2.5,2.5,0,0,1,1-.59.83.83,0,0,0,.55-.42.93.93,0,0,0,.07-.72h0a2.42,2.42,0,0,1,.55-.19.77.77,0,0,0,.58-.33.62.62,0,0,0,.08-.3A.58.58,0,0,0,94,68a.53.53,0,0,0,.36-.52,2.54,2.54,0,0,0,1.51-1.18.94.94,0,0,0,.23-.26.63.63,0,0,0,.57-.23.59.59,0,0,0,.52-.27c.09-.14.21-.22.54-.31a1.59,1.59,0,0,0,.61-.39,1.5,1.5,0,0,1,.23-.18c1.16-.68,2.4-1.39,3.64-2a.63.63,0,0,1,.12.12l-.36.35a6.85,6.85,0,0,0-.79.85,2.35,2.35,0,0,1-.59.58l-.11.07a4.24,4.24,0,0,0-1,.84,3.13,3.13,0,0,1-.39.39,5.11,5.11,0,0,0-.37.35,1.82,1.82,0,0,1-.19.17,2,2,0,0,0-.42.44,1,1,0,0,0-.78.36l-.07.07a1.44,1.44,0,0,1-.64.41,1.89,1.89,0,0,0-1.22,1,.8.8,0,0,1-.2.24c-.22.17-.45.33-.68.49a7.36,7.36,0,0,0-1.11.86,3.52,3.52,0,0,0-1.35,1l-.22.23a1,1,0,0,1-.23.19,5.65,5.65,0,0,0-1.66,1.11l-.22.19a2.29,2.29,0,0,1-.58.4,6,6,0,0,0-.95.55l-.39.25a8.85,8.85,0,0,0-1.46,1.21l-.29.28a2.88,2.88,0,0,1-1.13.79A2.17,2.17,0,0,0,84,77l-.2.18c-.21.19-.42.39-.63.58l-.17.16a2.38,2.38,0,0,0-1.07.68,2.36,2.36,0,0,1-.48.39.7.7,0,0,0-.35.5,1,1,0,0,0,0,.36,4.87,4.87,0,0,0-1.06-.14h0l.07-.19a.54.54,0,0,0-.23-.6l-.42-.23-.26.32-.89,1.08a.87.87,0,0,0-.21.89.82.82,0,0,0,.71.49l.21,0a1.69,1.69,0,0,1,.32.05.63.63,0,0,0,0,.2V82a5.51,5.51,0,0,0,.1,1.8.85.85,0,0,1,0,.26.74.74,0,0,0,0,.56c0,.08.05.15-.06.33a1.91,1.91,0,0,0-.14,1.48l0,.2.12.09-.07.15a1.92,1.92,0,0,1-.31.53,2,2,0,0,0-.46,1c0,.09,0,.19-.06.27a1.3,1.3,0,0,0-.37.74,1.18,1.18,0,0,1-.06.21,1.27,1.27,0,0,0-.08.46.93.93,0,0,1,0,.14,1,1,0,0,1-.13.19,1.94,1.94,0,0,0-.23.34,3.31,3.31,0,0,0-.21,2.16,4.93,4.93,0,0,1,0,2.29,2.6,2.6,0,0,0,0,1.45,2.32,2.32,0,0,1,.09.89l-.19,0a1.67,1.67,0,0,1-.33.06,3,3,0,0,0-.4.07,1.08,1.08,0,0,0-.56.4.77.77,0,0,0-.08.67.6.6,0,0,0,.32.37l.27.08.19-.07a.49.49,0,0,1,.1.11,3.21,3.21,0,0,0,.67.63l.22.18.1.07c-.24.07-.36.29-.48.52l-.16.31-.18.36c-.28.11-.58.26-.65.59a.84.84,0,0,0,.27.73l.21.22-.06,0v.26s0,.1,0,.15a1.19,1.19,0,0,0,.06.63,1.62,1.62,0,0,1,.1.52v.12c.06.62-.09.68-.35.74a.55.55,0,0,0-.42.48.61.61,0,0,0,.33.63l.12.06a1.15,1.15,0,0,0,.65.2h.12a1,1,0,0,0-.25.63c0,.81,0,1.62,0,2.44v.3a.7.7,0,0,0,.32.6,1,1,0,0,0,0,.57c0,.32.07.64.09,1,0,.13,0,.26,0,.4a2.69,2.69,0,0,0,0,.57l-.07.09a1.25,1.25,0,0,0-.22.36h0a.82.82,0,0,0-.48.14.57.57,0,0,0-.23.51.76.76,0,0,0,.39.61l.17.1a1.62,1.62,0,0,0,.83.3,1.28,1.28,0,0,0,.22.44l0,.05a1.18,1.18,0,0,0,0,1,1.09,1.09,0,0,0,.09,1.36c.26.36.35.55.28.8a.69.69,0,0,0,.22.7,1.14,1.14,0,0,1-.12.29,1.92,1.92,0,0,0-.16.77,6.74,6.74,0,0,0,.32,2.12l0,.1a2.35,2.35,0,0,1,0,1.25,4.12,4.12,0,0,0-.15,1.34v.19a2,2,0,0,0,.15.88.75.75,0,0,1,0,.13,1,1,0,0,0-.09.64l0,.1c0,.11,0,.21.08.32a1.91,1.91,0,0,1,0,1.26,4.41,4.41,0,0,0-.33,1.85c0,.18,0,.35,0,.53a7.21,7.21,0,0,0,0,1,3.67,3.67,0,0,1,0,.56,2.62,2.62,0,0,0,.19,1.41,2,2,0,0,0,0,1.07,2,2,0,0,1,0,.44V136a1.1,1.1,0,0,1,0,.17,1.81,1.81,0,0,0,0,1.66s0,.09,0,.08a1.17,1.17,0,0,0,0,.88l.08.31c0,.15.07.3.11.52l-.14.17c-.05.06-.12.17-.21.15l-.2-.1-.2.1a1.64,1.64,0,0,1-.29.1,1.69,1.69,0,0,0-.83.45,1.73,1.73,0,0,1-.45.31,5,5,0,0,0-.7.47,3,3,0,0,1-.76.45l.1-.1c.16-.16.31-.33.46-.5a7.3,7.3,0,0,1,.83-.83,1.47,1.47,0,0,0,.34-.43,1.07,1.07,0,0,1,.12-.18,2,2,0,0,0,.43-1.9l0-.14-.1-.1a.91.91,0,0,1,.06-.18c0-.07.06-.14.1-.27a1.8,1.8,0,0,0-.05-1.54,4.25,4.25,0,0,1-.36-1.89,1.56,1.56,0,0,0,0-.49l0-.12c0-.1,0-.21-.05-.31a3.28,3.28,0,0,1-.07-.52c0-.76,0-1.51,0-2.27v-1.1c0-.16,0-.32,0-.49a.78.78,0,0,0-.65-.83L76,127.5l-.24-.08a.72.72,0,0,0-.66.13.66.66,0,0,0-.14.16,3.28,3.28,0,0,0-.7-1.43.51.51,0,0,1-.11-.16c0-.14-.08-.28-.12-.43l-.09-.32c0-.15-.1-.3-.15-.45a3,3,0,0,1-.24-1.05,1.07,1.07,0,0,0-.36-.72,1,1,0,0,0-.26-.21l-.06-.13a3.51,3.51,0,0,1-.3-.89,4.26,4.26,0,0,0-.37-1.39.45.45,0,0,1,0-.12l.31.1a.77.77,0,0,0,.63,0,1.12,1.12,0,0,1,.48-.09,3.13,3.13,0,0,0,.45-.05v.06a3.39,3.39,0,0,0,.08,1,6.06,6.06,0,0,1,.16,1,7.65,7.65,0,0,0,.15,1,9.4,9.4,0,0,1,.19,1.47c0,.26,0,.51.07.77a.85.85,0,0,0,.31.6,3.47,3.47,0,0,0,.75.48,1,1,0,0,0,1.46-.9v-.25a3.38,3.38,0,0,0-.07-1.21,8.4,8.4,0,0,1-.33-2.45,2.59,2.59,0,0,0-.33-1.41.88.88,0,0,1-.06-.44c0-.66,0-1.33,0-2v-.45a1.23,1.23,0,0,0-.06-.55,2.74,2.74,0,0,1-.14-1v-.25c0-.17,0-.33-.05-.49a1.88,1.88,0,0,1,0-.83,2,2,0,0,0,0-1l-.06-.27c0-.19-.06-.31,0-.38a1.12,1.12,0,0,0-.21-1.39l-.12-.12,0,0a.84.84,0,0,0,.16-.92,1.2,1.2,0,0,1-.1-.56,2.77,2.77,0,0,0-.07-.61.59.59,0,0,0-.3-.36l-.23-.07-.19.08a.68.68,0,0,0-.38.35.81.81,0,0,0-.1.7c0,.09,0,.15-.06.37a2.14,2.14,0,0,0-.21,1.94,1.37,1.37,0,0,0,0,.25,2.3,2.3,0,0,1-.1.85A4.74,4.74,0,0,0,74,114l-.08,0-.23.09,0,0a.59.59,0,0,0-.54-.13l-.11,0-.4.12.05-.08.12,0c.51-.23.73-.46.73-.83h0a.62.62,0,0,0,.45-.27,1.19,1.19,0,0,0-.2-1.51l-.19-.14a2.18,2.18,0,0,1-.25-.2,1.23,1.23,0,0,0-1.43-.24l-.16.06-.33.15a1.24,1.24,0,0,0,0-.44.69.69,0,0,0-.24-.43h.09a1.13,1.13,0,0,0,.38,0l0,.24.28.1a.52.52,0,0,0,.18,0,1.18,1.18,0,0,0,.76-.47,3.64,3.64,0,0,0,.28-.32.94.94,0,0,0-.1-1.35,1.84,1.84,0,0,0-1-.55l-.27-.09a1.55,1.55,0,0,0-1.36.16,1.37,1.37,0,0,1-.25.09,2.36,2.36,0,0,0-.39.14A1.48,1.48,0,0,0,69,109a1.53,1.53,0,0,0-.37-.08h-.1a2.68,2.68,0,0,0-.19-.64l-.07-.18a.77.77,0,0,0,.54-.28,1,1,0,0,0,.13-.23,1.43,1.43,0,0,0,.79-.19,1.46,1.46,0,0,0,.22-.13l0,0a.9.9,0,0,0,.94-.22,1.15,1.15,0,0,0,1.21-.74.6.6,0,0,0,1-.07.7.7,0,0,0,0-1,1.63,1.63,0,0,0-.44-.34l-1-.49a.3.3,0,0,1,.12-.1,2,2,0,0,0,.61-.48,1.4,1.4,0,0,0,.29-1.1,1,1,0,0,0-.42-.7,4.28,4.28,0,0,0-1.22-.57,1.52,1.52,0,0,0-1.29.48l-.15.09a3.67,3.67,0,0,1-.36.14,3.69,3.69,0,0,1-.19-.35c-.05-.11-.1-.23-.14-.35a4.38,4.38,0,0,0-.21-.51.53.53,0,0,1,0-.51,1,1,0,0,0,.65-.09.61.61,0,0,1,.24-.07l-.05.1a.63.63,0,0,0,0,.51.8.8,0,0,0,.49.43,1.19,1.19,0,0,0,.29.12.64.64,0,0,0,.43-.07l.45-.17-.1-.25a1.83,1.83,0,0,0,1.05-.67l.13-.12.14-.14a1.06,1.06,0,0,0,.15-1.4,3.39,3.39,0,0,1-.46-.86L72,97.55a3,3,0,0,0-.43-1,3.09,3.09,0,0,0-.19-1.67,12.6,12.6,0,0,1-.45-2.59l0-.38a2.55,2.55,0,0,1,0-.41v-.18a1.4,1.4,0,0,0,.35-.29,1,1,0,0,0,.27-.78,1,1,0,0,0-.48-.72,2.16,2.16,0,0,1-.61-.87c-.17-.35-.14-.53,0-.69a1,1,0,0,0,.15-.36l.19.16L71,87.2l.15-.06a1.68,1.68,0,0,0,.31-.14,1.06,1.06,0,0,0,.45-1.19A1,1,0,0,0,71,85h-.3a1.31,1.31,0,0,1-.26,0,2.45,2.45,0,0,1-.33-.08.84.84,0,0,1,0-.35,1.62,1.62,0,0,1,.15-.35l.16-.31.17-.31a.64.64,0,0,0-.51-1l0-.09.05,0,.56-.15.6-.16a3.29,3.29,0,0,0,.66-.31,2.6,2.6,0,0,1,.41-.21,5.64,5.64,0,0,0,2.13-1.5.69.69,0,0,0,.21-.53.69.69,0,0,0-.27-.49l-.1-.09h0a.9.9,0,0,0,.2-.25l.09-.16a3.59,3.59,0,0,0,.26-.52,1.71,1.71,0,0,0-.22-1.78c-.23-.28-.43-.57-.64-.86s-.14-.22-.11-.27a.8.8,0,0,0-.33-.92,3.26,3.26,0,0,0-.85-.38.46.46,0,0,1-.33-.24c-.14-.28-.26-.57-.39-.86l0-.05.18-.16a1.49,1.49,0,0,1,.45-.33.67.67,0,0,0,.22-.13A1.05,1.05,0,0,0,73.12,71a.93.93,0,0,0-1-.79,1.32,1.32,0,0,1-.48-.09,1.59,1.59,0,0,0-.61-.1A.42.42,0,0,1,71,70a2.07,2.07,0,0,1-.08-.28l0-.16-.11-.4a6.89,6.89,0,0,0-.31-1,1.72,1.72,0,0,1-.18-.85A3.66,3.66,0,0,0,70,65.75L70,65.54c-.13-.43-.29-.86-.45-1.29s-.32-.84-.45-1.27a6,6,0,0,0-.8-1.65c-.11-.16-.22-.3-.34-.45a4.55,4.55,0,0,1-.41-.57,1.87,1.87,0,0,0-.27-.35c-.05-.06-.14-.14-.15-.12a1.21,1.21,0,0,1,.2-.17l.24-.19.32-.3a.86.86,0,0,0,.18-.76.84.84,0,0,0-.54-.61,2.35,2.35,0,0,0-2-.17c-.28-.51-.59-1-.88-1.45a9.53,9.53,0,0,1-.81-1.74,5.73,5.73,0,0,1-.37-1.34c0-.26-.08-.51-.13-.76a5.47,5.47,0,0,1-.14-1.46c0-.41.06-.58.23-.69a.54.54,0,0,0,.19-.21l.23-.45-.45-.23a.92.92,0,0,0-.24-.09,1.13,1.13,0,0,0-.68.06,2.52,2.52,0,0,0,.23-.41,2.69,2.69,0,0,1,.48-.7,10,10,0,0,0,2.07-3.52A7.82,7.82,0,0,1,66,42.89a6.67,6.67,0,0,0,.79-2.45c.13-.77.34-1.54.51-2.2l0-.12a1.76,1.76,0,0,0,.1-.61,6,6,0,0,1,.22-1.76,8.21,8.21,0,0,0,.21-1.9v-.12s0-.11,0-.12a3.8,3.8,0,0,0,.2-1.5c0-.15,0-.3,0-.45v-.12a1.39,1.39,0,0,0-.3-1.13,2.12,2.12,0,0,0,.05-.32c0-.15,0-.23.06-.26a1.39,1.39,0,0,0,.35-.77l0-.17a4.62,4.62,0,0,1,.33-1.06A4.14,4.14,0,0,0,69,26.58l.05-.31a.61.61,0,0,0-.2-.58.68.68,0,0,0-.65-.12.57.57,0,0,0,0-.5.88.88,0,0,0-.19-.22l.06-.1a1.13,1.13,0,0,0-.41-1.43l-.22-.13h0l.17-.42.18-.45a.9.9,0,0,0-.26-1.12,1.47,1.47,0,0,0-.74-.34l-.24-.06a1.94,1.94,0,0,0-1.7.11,10.15,10.15,0,0,1-1.35.47c-.4.11-.79.24-1.18.39a.69.69,0,0,0,.08,1.32,1.57,1.57,0,0,0,.81,0c.32-.1.64-.22,1-.34l.66-.24.89-.28.23-.07h0A7.67,7.67,0,0,1,65,24.31a4.48,4.48,0,0,1-.6.78l-.35.41-.41.52c0-.05,0-.1,0-.16a2.51,2.51,0,0,0,0-1.45A.69.69,0,0,0,63.2,24a.55.55,0,0,0-.43.08l-.23.17,0,.19c0,.19-.07.38-.1.58s-.11.65-.2,1c-.23.86-.5,1.73-.78,2.57a3.37,3.37,0,0,0-.18.9,4.24,4.24,0,0,1-.77,2.29l-.2.27a4.37,4.37,0,0,0-.83,1.5,1.13,1.13,0,0,1-.13.15,5.54,5.54,0,0,0-1.08,2c-.12.34-.24.67-.38,1,0,.09-.08.15-.06.14a1.58,1.58,0,0,0-.83.84l-.05.1c-.12.22-.26.42-.4.63l-.07.1a.45.45,0,0,1-.19.05,1.66,1.66,0,0,0-.37.09.9.9,0,0,0-.51.7s0,.12,0,.11a1.22,1.22,0,0,0-.82,1.31,1.26,1.26,0,0,0-1-.36c-.15,0-.21,0-.23-.06-.07-.24-.13-.47-.19-.71s-.18-.7-.29-1a2.61,2.61,0,0,1-.09-.65,3,3,0,0,0-.15-.93c-.1-.26-.18-.53-.26-.8a5.81,5.81,0,0,0-1.17-2.36.84.84,0,0,1-.08-.14,1.93,1.93,0,0,0-.13-.24c-.07-.11-.15-.22-.23-.32L50.64,33a1.88,1.88,0,0,0-1.81-.81.81.81,0,0,0-.68.46.75.75,0,0,0,0,.56.66.66,0,0,0-.45-.12.79.79,0,0,0-.43.2l-.75.65c-.92.8-1.84,1.59-2.75,2.4a8.64,8.64,0,0,0-1.53,1.78c-.14.22-.29.43-.44.63l-.36.52a1,1,0,0,0,.18,1.34c.16.15.22.22.22.28a1.7,1.7,0,0,0,.66,1.42c.09.08.18.18.26.27l.21.22,0,.09a1.26,1.26,0,0,0-.13.44.79.79,0,0,0,.64.94l0,.07a1,1,0,0,0,.1.81,1,1,0,0,0,.74.34c.15,0,.17,0,.19.09l.12.21.2.36c.27.5.53,1,.82,1.57a.57.57,0,0,0-.26.4.65.65,0,0,0,.21.56,1.65,1.65,0,0,0,.38.27l-.18.14-.66.56a.69.69,0,0,0-.17-.37.63.63,0,0,0-.73-.15l-.1.05a2.08,2.08,0,0,0-.84.69,4.05,4.05,0,0,1-.36.44,3.61,3.61,0,0,0-.62.86h0a19.58,19.58,0,0,0-2.08,2.81,1.27,1.27,0,0,1-.33.38,4.47,4.47,0,0,0-.9.94,3.53,3.53,0,0,1-.74.78l-.12.13a14.17,14.17,0,0,1-1.45,1.76l-.52.57a8.39,8.39,0,0,0-1.05,1.47,6.33,6.33,0,0,1-.42.63l-.28.39a.82.82,0,0,0-.24.51,2.88,2.88,0,0,1-.77,1.63,3.8,3.8,0,0,0-.84,1.74,14.24,14.24,0,0,1-.32,1.51,12,12,0,0,0-.38,2.07,7.05,7.05,0,0,1-.21,1.19l0-.13a1.5,1.5,0,0,0-.09-.25l-.24-.38-.42.15a.75.75,0,0,0-.36.23,2,2,0,0,0-.18.27,1.06,1.06,0,0,1-.09.15,1.58,1.58,0,0,0-.34.64l-.06.07a1.36,1.36,0,0,0-.19.23,1.06,1.06,0,0,0-.14.6,4.54,4.54,0,0,0,.12,1.14,1.67,1.67,0,0,1-.1,1.31,1,1,0,0,0-.16.69,4.33,4.33,0,0,0,.29.83.75.75,0,0,0,.35.34l.15.07.15,0a.71.71,0,0,0,.55-.28.6.6,0,0,0,.08-.66c-.12-.23,0-.47.11-.86a2.74,2.74,0,0,0,.16-1.18,1.07,1.07,0,0,1,0-.11,1.47,1.47,0,0,0,.07.22v1.15c0,.75,0,1.5,0,2.24a11.36,11.36,0,0,1-.1,1.53,11.77,11.77,0,0,0-.1,1.72l0,.07a1,1,0,0,0-.55.8v.33a4.7,4.7,0,0,0,.09,1.51c.06.23.13.46.2.69s.17.56.24.84l.14.51a9.38,9.38,0,0,1,.33,1.55,6.27,6.27,0,0,0,.65,2.38,1.11,1.11,0,0,1,.13.63,2.78,2.78,0,0,0,.19,1.09l.08.25a1.42,1.42,0,0,0,.63.79.79.79,0,0,0,.74.06H34l.11,0a1,1,0,0,0,1.11-.63l.07-.14a2,2,0,0,1,.34-.58.86.86,0,0,0,.23-1.11,13.28,13.28,0,0,1-.54-1.25A7.36,7.36,0,0,1,34.87,85c0-.45,0-.9,0-1.35V83a2.27,2.27,0,0,1,.13-.74c.15-.46.3-.93.44-1.4.2-.67.41-1.37.66-2a8.31,8.31,0,0,0,.65-2.62,33.63,33.63,0,0,0,.83-5l.11-1a4.55,4.55,0,0,1,.74-1.94,7.79,7.79,0,0,1,1.87-2,3.86,3.86,0,0,0,.61-.61,2.09,2.09,0,0,1,.63-.57l.12-.06.07-.11a8.11,8.11,0,0,1,.59-.76,6.4,6.4,0,0,0,.91-1.32,1.5,1.5,0,0,1,.19-.33,8.35,8.35,0,0,0,.93-1.33l.23.35c.31.48.63,1,1,1.45a3.14,3.14,0,0,1,.62,1.13c0,.18,0,.19,0,.21a.87.87,0,0,0,.16,1.12.64.64,0,0,1,.12.25c0,.07.06.15.09.22a2.11,2.11,0,0,1,.11,1V67a1.6,1.6,0,0,0,.54,1.34,1,1,0,0,0,0,1l.12.23a1.12,1.12,0,0,1,.14.31,3.17,3.17,0,0,0,.5,1.59c.07.13.14.26.2.39a1.55,1.55,0,0,0,.44.56,3.84,3.84,0,0,0,0,2.09,1.93,1.93,0,0,1,0,.56v.1a21.54,21.54,0,0,0,.12,2.41c.05.61.11,1.23.12,1.84a2.59,2.59,0,0,0,.07.49,7,7,0,0,1,0,2.44,8.91,8.91,0,0,0-.06,1.25c0,.17,0,.34,0,.52v.09l0,.09a8.29,8.29,0,0,1,.36,1.29c.07.3.13.6.22.9l0,.06a.54.54,0,0,0-.17.18,3.54,3.54,0,0,0-.66,2.6,1.11,1.11,0,0,1,0,.26,1.29,1.29,0,0,0,.67,1.34v0a1,1,0,0,0,.81,1.07,1.27,1.27,0,0,1,.67.46,1.46,1.46,0,0,1,.13.71,1.58,1.58,0,0,0-.31.45c-.11.22-.13.22-.19.22a.77.77,0,0,0-.59.39.81.81,0,0,0-.66.1.71.71,0,0,0-.29.55,1,1,0,0,0,.8,1,1.11,1.11,0,0,0,.55-.08s.06,0,.05,0a.8.8,0,0,0,.49.1,2.46,2.46,0,0,0,0,.29,1.47,1.47,0,0,1-.53,1.09.54.54,0,0,0-.22.52.84.84,0,0,0,.15.45.89.89,0,0,0,.23.2,3.67,3.67,0,0,0-.1.88c0,.14,0,.28,0,.41-.07.63-.22.75-.54.78a.59.59,0,0,0-.51.4.88.88,0,0,0-.1.55,1,1,0,0,0,.4.59l.13.09.19-.06.08.08a1.12,1.12,0,0,0,.36.3,2.74,2.74,0,0,0,.37,1.36l0,.08-.08.08-.08.06a1.12,1.12,0,0,0-.31.27.84.84,0,0,0-.1.65l.07.24.21.08a.57.57,0,0,1,.11.18,1.2,1.2,0,0,0,.42.53.92.92,0,0,1,.41.9V107a.67.67,0,0,0-.48,0,.69.69,0,0,0-.46.55,4.09,4.09,0,0,0-.07.79.46.46,0,0,1-.28.49,4,4,0,0,1-.5.25,4.34,4.34,0,0,0-.67.34.77.77,0,0,0-.31.56.59.59,0,0,0,.52.63l.11,0A6.56,6.56,0,0,0,48,113.58l0,.11a16.73,16.73,0,0,0-.33,2.58c0,.26,0,.51-.06.77l0,.18c-.06.72-.13,1.47-.26,2.18l-.12.68a13.5,13.5,0,0,1-.53,2.31,1.44,1.44,0,0,0-.12.68,1.09,1.09,0,0,1-.25.7l-.13.23-.1.12a.9.9,0,0,0-.29.72.79.79,0,0,0,.25.46c0,.13-.07.25-.1.38a3.47,3.47,0,0,0-.18,1.41,1.44,1.44,0,0,0,.11.36L46,128l.5-.37a.7.7,0,0,0,.35-.38,4.55,4.55,0,0,1,.42-.84l.47-.81a5,5,0,0,0,1.72-.63c-.24.73-.43,1.38-.59,2a2.92,2.92,0,0,1-.19.49,3.41,3.41,0,0,0-.27.76,1.77,1.77,0,0,1-.16.4,2.19,2.19,0,0,0-.26.84.7.7,0,0,0-.13.16l-.16.26a3.38,3.38,0,0,0-.43.89l-.05.2a9.49,9.49,0,0,1-.3,1,5.86,5.86,0,0,0-.31,1.52,7,7,0,0,1-.15,1,1.2,1.2,0,0,0,0,.59l0,.24a3.71,3.71,0,0,0,.15.7.7.7,0,0,0-.38.57.68.68,0,0,0,.31.61,5,5,0,0,1,.4.31l.28.23-.17.06a5.17,5.17,0,0,1-.73.08,1.47,1.47,0,0,0-1.07.65l-.12.13a.83.83,0,0,0-.14.9,1.46,1.46,0,0,1-.33.08,5.44,5.44,0,0,0-2.07.67c-.36.18-.73.34-1.11.49l-.53.23-.47.2a9.55,9.55,0,0,0-1.14.53,3.16,3.16,0,0,0-1.69,2,.7.7,0,0,1-.17.3,7.78,7.78,0,0,1-1.13,1,10.7,10.7,0,0,0-2.08,1.77.62.62,0,0,0-.17.56.51.51,0,0,0,.09.2l-.74.69.62.67.34-.31,24.55.78.23.39a1.68,1.68,0,0,0,.61-.54,2.34,2.34,0,0,1,.82-.83,2.48,2.48,0,0,0,.55-.49l.13-.14A7.53,7.53,0,0,1,63.81,146a.68.68,0,0,0,.31-.29,1.85,1.85,0,0,1,.63-.62,4.46,4.46,0,0,0,.52-.42,7.08,7.08,0,0,1,1.82-1.17l.15-.08A9.63,9.63,0,0,0,69,142.29l.25-.17a2.16,2.16,0,0,0,.62-.54c.06-.08.16-.12.35-.18a2,2,0,0,0,.5-.22l.09-.06a7.74,7.74,0,0,1,1.38-.8,8.85,8.85,0,0,0,1.17-.6l.56-.31.61-.31s.06,0,.06,0c0,.17,0,.27,0,.32a1.77,1.77,0,0,0-.4.73h0a3.45,3.45,0,0,0-1.17,1.54,6.15,6.15,0,0,1-.34.65.44.44,0,0,0,0,.35,1.15,1.15,0,0,0-.39.39l0,0a1.45,1.45,0,0,0-.64.34.93.93,0,0,1-.21.15.9.9,0,0,0-.37.25h-.39l-.14.27a1.38,1.38,0,0,1-.45.42,1.83,1.83,0,0,0-.77.84.79.79,0,0,1-.24.11,1.87,1.87,0,0,0-.77.51,1.31,1.31,0,0,1-.34.27.66.66,0,0,0-.37.59c0,.12,0,.16-.09.17a.56.56,0,0,0-.47.52l-.22,0a1.66,1.66,0,0,0-1.65,1.12l-.12,0,0,.45,0,.46a.49.49,0,0,0,.27-.06.57.57,0,0,0,.67-.4l33.45.17,0,.08.12-.08,11.44.06c.24.37.35.42.5.45l.4-.09-.34-.43.31-.29a26.29,26.29,0,0,1-1.36-2.53,10,10,0,0,0-.48-.92.44.44,0,0,1-.08-.29q0-.5,0-1a1.45,1.45,0,0,0-.58-1.28l-.15-.11a1.82,1.82,0,0,0-1-.44.24.24,0,0,1-.15-.15l.07-.37a3.71,3.71,0,0,1,.53-1.54l.14-.19c.18-.24.36-.49.52-.74a1.75,1.75,0,0,0,.12-1.9,1.53,1.53,0,0,1-.16-.83v-.34a5.17,5.17,0,0,0-.08-1.39,5.55,5.55,0,0,1-.14-1.66,6.89,6.89,0,0,0-.31-2.22l0-.19a2.28,2.28,0,0,0-.29-.8,3.87,3.87,0,0,1-.67-1.75l0-.12a10.29,10.29,0,0,1-.54-2.71c0-.38-.08-.76-.14-1.14a17.33,17.33,0,0,0-.59-2.82c-.24-.74-.53-1.46-.83-2.19a10.86,10.86,0,0,0-1.06-2,3.72,3.72,0,0,1-.54-2,6.47,6.47,0,0,1,.09-1.22,7.69,7.69,0,0,0,.1-1.33,1.75,1.75,0,0,0,.18-.89c0-.07,0-.13,0-.2s0-.21,0-.31a1.41,1.41,0,0,1,.09-.61,1,1,0,0,0,0-.77,1.94,1.94,0,0,1-.09-.81c0-.1,0-.21,0-.31s0-.4,0-.6a9.11,9.11,0,0,0-.08-1.7c-.16-.92-.33-1.85-.52-2.77-.11-.51-.22-1-.33-1.54s-.29-1.32-.42-2c0-.21-.06-.31,0-.39a1,1,0,0,0-.15-1.11c.06-.17.1-.35.15-.52l.12-.44-.13-.18s0,0,0-.23a1.64,1.64,0,0,0,.09-.44,4.68,4.68,0,0,0,0-.64l0-.21a2.09,2.09,0,0,0,0-.23,1.56,1.56,0,0,0-.06-1.28s0-.13,0-.35a1.55,1.55,0,0,0,.1-.69A5.53,5.53,0,0,0,103,92.5c-.13-.35-.08-.48.07-.65a1.28,1.28,0,0,0,.21-1.16,1,1,0,0,0-.53-.7h.58a1.59,1.59,0,0,0,.76-.3.8.8,0,0,0,.4-.61,1.91,1.91,0,0,1,.1-.46,2.76,2.76,0,0,0,.14-.72c0-.7.09-1.41.15-2.11l.07-.68a1,1,0,0,0,.08-.25c.1-.63.19-1.26.27-1.9a1.41,1.41,0,0,0-.08-.58,2.29,2.29,0,0,1,0-1.16,9,9,0,0,0,.29-2.09V79a1.61,1.61,0,0,1,0-.5,4.46,4.46,0,0,0,.18-1.53v-.32c0-.21,0-.43,0-.64v-.48a2,2,0,0,1,.38-1.33.77.77,0,0,0,.15-.62.86.86,0,0,0-.41-.57,1.46,1.46,0,0,0-1.2-.22l-.63.13a7,7,0,0,0-1.15.29,1.86,1.86,0,0,0,.21-.33l.05,0,.13-.07a8,8,0,0,0,1.54-1.31,4.5,4.5,0,0,1,.76-.65,4,4,0,0,0,.79-.73l.16-.18a.73.73,0,0,0,.06-.81,1.3,1.3,0,0,0-.88-.58l-.32-.1-.16.08a1.87,1.87,0,0,1-.64.12,3.26,3.26,0,0,0-.78.13l-.63.23c.58-.52,1.12-1.05,1.64-1.57A7.32,7.32,0,0,1,106.49,66a1.3,1.3,0,0,0,.65-.8,1.29,1.29,0,0,1,.11-.21l.09-.15a.77.77,0,0,0,0-.72.73.73,0,0,0-.58-.38l-.44,0a2.55,2.55,0,0,1-.66-.07,1.4,1.4,0,0,0-1.11.17,1.39,1.39,0,0,1-.26.11,7.18,7.18,0,0,0-1.44.56l.25-.2a2.45,2.45,0,0,0,.48-.52,1.09,1.09,0,0,1,.41-.4l.14-.06.08-.13a3.2,3.2,0,0,1,.94-.88l.35-.26a2.51,2.51,0,0,0,.7-.85.75.75,0,0,0-.07-.89,3.27,3.27,0,0,0,.69-.44l.19-.14c.32-.23.38-.16.51,0l.13.11a.81.81,0,0,0,1.13-.16l.06-.08a1.86,1.86,0,0,0,.41-.67,1.12,1.12,0,0,1,.89-.77l.07,0-.27.47-.32.54c-.18.29-.35.59-.51.89a1.14,1.14,0,0,1-.64.66,1.4,1.4,0,0,0-.72.55h-.06a.65.65,0,0,0-.5.14,9.17,9.17,0,0,0-.74.76.72.72,0,0,0,0,.76.63.63,0,0,0,.64.32,1.24,1.24,0,0,0,.45-.14l.6-.33.72-.4.26-.14a3,3,0,0,1,.72-.33l.09,0a.89.89,0,0,0,.18.79l0,0c-.21.19-.4.38-.6.58a2.92,2.92,0,0,0-.24.29c-.15.2-.21.27-.32.29l-.21.06-.11.16a.87.87,0,0,0-.11.59.74.74,0,0,0,.54.56,1.38,1.38,0,0,0,1.46-.42l0,0,.1.1c.2.21.41.41.59.64.32.39.26.54.13.71a.8.8,0,0,0-.16.45.6.6,0,0,0,.46.61l.26,0h.17l.16,0c.3.52.57,1,.78,1.5a.69.69,0,0,1,0,.11.75.75,0,0,0,.15.64.67.67,0,0,1,.13.4,2.85,2.85,0,0,0,.06.35,6.22,6.22,0,0,0,.81,2,11.51,11.51,0,0,1,1.13,1.91c.25.59.53,1.16.81,1.73l.28.57a5,5,0,0,0,.33.56c.09.13.17.26.25.4a1.14,1.14,0,0,0,.63.55,1.45,1.45,0,0,0,.12.59.76.76,0,0,1,.06.22,1.26,1.26,0,0,0,.33,1,2,2,0,0,1,.15.22,2.61,2.61,0,0,0,.27.37,1.63,1.63,0,0,1,.47.81,1.12,1.12,0,0,0,.57.76,1.32,1.32,0,0,0,.28.54c0,.05.1.13.09.16a.66.66,0,0,0,0,.71c0,.09.07.18.11.27a1.15,1.15,0,0,1,.11.34,3,3,0,0,0,.21.95l.07.2c.14.44.22.7.08,1a.86.86,0,0,0,0,.57l0,.16a4.09,4.09,0,0,0,.12.59c.11.36.25.72.38,1.08l0,.13a.57.57,0,0,0-.22.47,2,2,0,0,1-.32,1l-.16.31a2,2,0,0,0-.1.19.85.85,0,0,0,.36,1,1.47,1.47,0,0,0,.78.28,1,1,0,0,0,.31-.05.88.88,0,0,0,.57-.57,3.12,3.12,0,0,0,.05-.81,1.49,1.49,0,0,1,.12-.83l.14-.23-.21-.37a2.84,2.84,0,0,0-.26-.43l0,0a2.47,2.47,0,0,0,.15-1.48,1.58,1.58,0,0,1-.1-.72v-.17c0-.07,0-.14,0-.2a3.19,3.19,0,0,0,0-.45,1.18,1.18,0,0,0-.27-.73c-.14-.14-.16-.28-.09-.71a.84.84,0,0,0,0-.54,4.92,4.92,0,0,1-.23-.92,6.07,6.07,0,0,0-.25-1l-.09-.26a3.8,3.8,0,0,0-.49-1,3.22,3.22,0,0,0-.82-1.43.86.86,0,0,0-.09-.32,3.83,3.83,0,0,1-.39-1.1,2.33,2.33,0,0,0-.78-1.39,1.46,1.46,0,0,1-.38-.46,6.62,6.62,0,0,1-.27-.69c-.06-.17-.11-.33-.18-.49a1,1,0,0,0-.51-.59.6.6,0,0,0,.19,0,2.25,2.25,0,0,1,.67-.11,4.73,4.73,0,0,0,.53-.06,7.85,7.85,0,0,0,1.19-.35l.68-.22,0-.32a.64.64,0,0,0-.35-.63,1.68,1.68,0,0,0-.55-.18,7.57,7.57,0,0,0-2.53.31c-.16,0-.2,0-.25,0a2,2,0,0,1-.49-.51,6.23,6.23,0,0,1-.74-1.9.34.34,0,0,1,.06-.28.41.41,0,0,1,.31-.14h.2a3,3,0,0,0,.57-.06l1.32-.33.6-.16a2.32,2.32,0,0,0,.65,1.22.82.82,0,0,0,.06.21l.08.18a2.71,2.71,0,0,0,.32.62,7.82,7.82,0,0,1,.95,1.86,2.09,2.09,0,0,0,.62.93.46.46,0,0,1,.21.47,4.53,4.53,0,0,0,.1,1.48A4.38,4.38,0,0,1,121.8,77a1.07,1.07,0,0,0,.14.52c.08.29.16.58.25.87a7,7,0,0,1,.43,2.23,1.41,1.41,0,0,0,0,.3l.29,1.45a2.25,2.25,0,0,0,0,1.07A2.22,2.22,0,0,1,123,84c0,.43,0,.86,0,1.29,0,.19,0,.37,0,.56a5.17,5.17,0,0,0,.19,1.52,1.1,1.1,0,0,1,0,1.06,4,4,0,0,0-.18,1.68,1.25,1.25,0,0,1-.39,1.08,1.18,1.18,0,0,0-.42.78,2.46,2.46,0,0,1-.09.39l-.07.24a.84.84,0,0,0,.62,1,1.42,1.42,0,0,0,1.08-.15,1.68,1.68,0,0,0,.77-1l.06-.22c.05-.19.1-.38.15-.59a6.56,6.56,0,0,0,.21-2,1.35,1.35,0,0,1,0-.56,2.38,2.38,0,0,0,.17-1.08v-.67a14.09,14.09,0,0,1,0-1.6A4.54,4.54,0,0,0,125.17,84.86ZM67.64,2.94a.23.23,0,0,1,0,.32A1,1,0,0,0,67.64,2.94ZM65.72,5.84a1.32,1.32,0,0,1-.16.68l-.09.2c-.1-.41-.06-.53.08-.65A.78.78,0,0,0,65.72,5.84Zm-.25,5.95a3.5,3.5,0,0,0-.93-.26l0-.09.14.05.19.08.19-.09a.63.63,0,0,0,.3-.37l0-.09q.11.41.23.83Zm.79,3.57a3.58,3.58,0,0,0-2.17.38,2.88,2.88,0,0,0-.05-.95,2.78,2.78,0,0,1,.13-1.23l0-.19a1,1,0,0,1,.7-.13.5.5,0,0,1,.34.19,4.23,4.23,0,0,1,.22.38l.11.2a.64.64,0,0,0,.46.36.54.54,0,0,0,.34-.06l.28.83.08.21.07.19A1.31,1.31,0,0,0,66.26,15.36ZM88,48.51h0ZM73.14,19.67l-.05-.12-.08-.2.24-.05.18,0a.62.62,0,0,0,.43-.48.67.67,0,0,0-.26-.67,1.33,1.33,0,0,0-.46-.26,1.89,1.89,0,0,0-.42-.06A3.44,3.44,0,0,0,72.31,16a1.51,1.51,0,0,0,0-.2l0-.16c0-.21-.09-.43-.15-.64L72,14.75a1.63,1.63,0,0,1-.12-.65,1.23,1.23,0,0,0-.2-.78,4,4,0,0,1-.5-1.16l0,0a1.32,1.32,0,0,1,.14.28c0,.1.08.19.13.28l.19.36a7.24,7.24,0,0,0,.6,1,7.2,7.2,0,0,1,1.14,2.76,1.26,1.26,0,0,0,.25.58,1.83,1.83,0,0,1,.31.68,2.76,2.76,0,0,0,.44.94,13.39,13.39,0,0,0,1.17,2.21,3.56,3.56,0,0,0-1.89,1c-.05-.23-.13-.44-.2-.66a3.09,3.09,0,0,1-.24-1.25A1.29,1.29,0,0,0,73.14,19.67Zm.17-.85h0Zm2.61,4.09a1,1,0,0,1,.29-.13l.23,0s0,.08,0,.13,0,.29,0,.44a2.5,2.5,0,0,1-.15,1.15,1.44,1.44,0,0,1-.91.78l-.09,0-.18-.12a2.64,2.64,0,0,0-.35-.81,1.18,1.18,0,0,1-.15-.36A5.46,5.46,0,0,1,75.92,22.91Zm2.83,5.56h0a.91.91,0,0,1,0-.12,1.62,1.62,0,0,0,.1-.52.6.6,0,0,1,0-.26l.07-.12.15.28.13.22A2.54,2.54,0,0,0,78.76,28.47Zm.13,2.19a5.17,5.17,0,0,0,1.17-.78,1.14,1.14,0,0,0,.26-.17.54.54,0,0,1,.22,0l.17,0a1,1,0,0,0,.12.48c.09.21.06.28,0,.37A10.76,10.76,0,0,0,80,31.73l-.27.44a2.47,2.47,0,0,0-.87-1.24.14.14,0,0,1-.07-.12A.21.21,0,0,1,78.89,30.65Zm21,18.53a1.45,1.45,0,0,1-.23.22,1.22,1.22,0,0,1-.24.12l-1,.42c-.84.37-1.68.74-2.54,1.07a9.76,9.76,0,0,0-1.85,1l-.14.09c-.41.27-.81.57-1.21.87l-.45.33a6.39,6.39,0,0,0-2,1.09,6.46,6.46,0,0,0,0-.65v-.29h.09c.26,0,.53,0,.79,0h.26a.5.5,0,0,0,.34-.15l.39-.28-.3-.38a.55.55,0,0,0-.38-.28l-.19,0a.8.8,0,0,1,.12-.2c.44-.48.93-.95,1.39-1.4l.07-.07.11,0,.17-.06a.94.94,0,0,0,.31-.13l.8-.57.75-.54a3.93,3.93,0,0,1,.46-.28,20,20,0,0,1,3-1.19,2.08,2.08,0,0,1,.48-.07h.38a2.51,2.51,0,0,0,.46,0h.07v.09c0,.15-.08.3-.13.53A.88.88,0,0,0,99.89,49.19Zm-8.42-5.51c.07.15.14.29.2.44l0,.08-.13.14-.24.23-.28-.23L91,44.24a1.17,1.17,0,0,0-.4-.31c-.28-.12-.33-.31-.42-.81l0-.1v-.06s0-.07,0-.09a5.83,5.83,0,0,1,.35-.53.93.93,0,0,0,.53.18A4.58,4.58,0,0,0,91.47,43.67Zm8.33,2.14a1.64,1.64,0,0,0,0-.3s0-.08,0-.1a.71.71,0,0,0,.38-.14,1.72,1.72,0,0,0,.44.48l-.29,0a1.51,1.51,0,0,1-.48,0Zm-10.08.82a.79.79,0,0,0,.15.32,2.08,2.08,0,0,0-.13.29l.4.23h0l-.45-.12-.15,0a1.85,1.85,0,0,0-.33-.53A.63.63,0,0,0,89.72,46.63Zm.83-.8-.09.16a.58.58,0,0,0-.57.13.66.66,0,0,0-.09-.27,1,1,0,0,0-.49-.44.41.41,0,0,1,0-.21.23.23,0,0,1,.1-.18h0a.26.26,0,0,1,.13,0,7.38,7.38,0,0,1,.75.57Zm-2.07.78.41-.22a.33.33,0,0,1,0,.12l-.42.11Zm7.83-.68a1.42,1.42,0,0,0,.28.18,2.09,2.09,0,0,0-.48.86,13.37,13.37,0,0,0-1.92.88L94,48a4.28,4.28,0,0,0-1.34,1l-.12.07-.22.13-.29.2a9,9,0,0,0-.76.56,3.74,3.74,0,0,0,0-.78,1.2,1.2,0,0,1,.43-1l.66-.65.06-.06a1.54,1.54,0,0,0,.34-.44.67.67,0,0,0-.19-.79.84.84,0,0,1,0-.3,3.51,3.51,0,0,1,.16-.49l0,0a1,1,0,0,0,.9.2l.25-.1a1.33,1.33,0,0,1,1,.11l.28.14.17.08A.94.94,0,0,0,96.3,45.93ZM81.15,34.78l.11-.05v.1l-.1.09-.08-.09Zm2.47,5.86.08,0H84l.43.09a5.78,5.78,0,0,0,.76.08,1.37,1.37,0,0,0,.41,0,4.35,4.35,0,0,0,.12,1.31,1.32,1.32,0,0,1,0,.74,11.8,11.8,0,0,0-.38,1.49l0,.21a4.76,4.76,0,0,1-.78-1.44c-.12-.32-.23-.63-.34-1-.17-.47-.33-.95-.51-1.41l0,0Zm31.6,26.31a.77.77,0,0,0,0,.49.41.41,0,0,0,0,.07.91.91,0,0,0-.13-.11,1,1,0,0,1-.53-.69.59.59,0,0,0-.24-.4l.34-.12a4.41,4.41,0,0,0,1-.48,1.91,1.91,0,0,0,.88-.29,1,1,0,0,0-.05.23.63.63,0,0,0-.37.11A2.72,2.72,0,0,0,115.23,66.94Zm-2.3-5.88c-.13.19-.19.26-.25.28l.26-.36a2.37,2.37,0,0,1,.42-.45A4.46,4.46,0,0,0,112.93,61.07Zm.11,2.65a2.15,2.15,0,0,1,.6-.3,5.51,5.51,0,0,0,1-.38l.52-.22.51-.17a.59.59,0,0,0-.25.52,2.5,2.5,0,0,0-1.33.77c-.3.29-.61.57-.91.82,0,0-.07,0,0,0l-.69-.76A3.85,3.85,0,0,0,113,63.72Zm4.78-.18a4.93,4.93,0,0,0-.55,0,2,2,0,0,0-.43.07.41.41,0,0,1,.12-.08,2.17,2.17,0,0,0,.86-.63l.08.53v.09Zm-1.14-2.72a1.53,1.53,0,0,0-.48-.08,1.44,1.44,0,0,0-.51.09l-.27.08a1.62,1.62,0,0,0,.25-.27,1.63,1.63,0,0,1,.75-.63.68.68,0,0,0,.18-.1l0,.06a5.26,5.26,0,0,1,.62,1A1.63,1.63,0,0,1,116.67,60.81ZM110.8,56a6.65,6.65,0,0,1,.7-.78c.3-.3.3-.3.61-.31h0A2.38,2.38,0,0,1,110.86,56Zm-5.68-5.25-.3.15a3.45,3.45,0,0,0-1.32.36l-.33.13.17-.17a1,1,0,0,1,.74-.38,1.47,1.47,0,0,0,1.23-.6,2.74,2.74,0,0,0,.44.19Zm4.31,3.14,0,.08a1.86,1.86,0,0,0-.4.14,4.25,4.25,0,0,1,.72-.93s0,.1,0,.06A4.3,4.3,0,0,1,109.44,53.93ZM103.87,56a2.18,2.18,0,0,0,.24-.23.77.77,0,0,1,.17-.06,1.1,1.1,0,0,0,.71-.42l.47-.68.08-.07a7,7,0,0,1,.72-.64l.38-.31.13-.12a13.87,13.87,0,0,0-1.13,2c0,.1-.08.15-.25.17a9.35,9.35,0,0,0-1.89.63A4.78,4.78,0,0,1,103.87,56ZM83.17,72a.94.94,0,0,0,.52-.21,6.8,6.8,0,0,1,.91-.64,5,5,0,0,0,1.59-1.34,1.47,1.47,0,0,0,.73-.39l.1-.08.37-.31a4.66,4.66,0,0,1,.54-.43l.23-.13a2.1,2.1,0,0,0,.81-.68h0a1.43,1.43,0,0,0,1-.47,1.71,1.71,0,0,1,.29-.23,1.71,1.71,0,0,0,.69-.76h0a8.32,8.32,0,0,0,2.07-1.47.64.64,0,0,1,.23-.15,1.35,1.35,0,0,0,.81-.6,1.71,1.71,0,0,1,.36-.41c.81-.58,1.64-1.14,2.47-1.69a5.71,5.71,0,0,1,.53-.29,5.82,5.82,0,0,0,.7-.41,16.94,16.94,0,0,1,1.87-1.1l.69-.37,1.43-.79a2.26,2.26,0,0,1,.29-.16c.68-.28,1.35-.56,2-.82l0,0a2.27,2.27,0,0,0-1,1.23.58.58,0,0,0,.17.58l0,0-.18.13s-.08.06-.06.08a1.08,1.08,0,0,0-1.33.19,7,7,0,0,1-1,.69c-.22.12-.45.21-.68.31a8.39,8.39,0,0,0-.79.36c-.48.26-1,.54-1.42.82l-1,.6-.52.29a27,27,0,0,0-2.79,1.72c-.39.29-.8.55-1.21.81s-.88.57-1.29.88L91,67a11.09,11.09,0,0,0-1.22,1,2.66,2.66,0,0,1-.42.29l-.08.05a1.33,1.33,0,0,0-.38.39.52.52,0,0,1-.14.16,11.74,11.74,0,0,0-2,1.36l-.3.24L84.57,72l-.26.21a7,7,0,0,0-.93.83,4.75,4.75,0,0,1-.53.49c-.18.15-.36.28-.55.42a8.43,8.43,0,0,0-.84.68A2.43,2.43,0,0,0,81.6,74a2.36,2.36,0,0,1,.27-1.06,1.37,1.37,0,0,0,.13-.49l0-.12c0-.06,0-.13,0-.2a.91.91,0,0,1,0-.15l.22-.41,0,0A.92.92,0,0,0,83.17,72Zm32.31-3.75a.7.7,0,0,0,0-.45h0l.12.12h.18l.24,0a2.34,2.34,0,0,0-.48.29Zm.75-.53.13-.23a1.39,1.39,0,0,1,.18-.28,1,1,0,0,1,.17-.11,1.7,1.7,0,0,0,.35-.25.5.5,0,0,0,.13-.23.75.75,0,0,0,.65-.28c.13-.18.26-.37.38-.57l.14-.21.06,0,.08,0a1,1,0,0,0,.21,1.1,1.07,1.07,0,0,1,0,.13,2.21,2.21,0,0,0,.07.22.55.55,0,0,0,.09.14,2.48,2.48,0,0,1-1.36.42,4,4,0,0,0-1.44.24Zm-8.7,78.69h-.14a3,3,0,0,1-2.7-1.67l-.1-.19a.9.9,0,0,0,.27-.43.75.75,0,0,0,0-.54,10.82,10.82,0,0,1-.66-2.31l0-.2c-.06-.29-.11-.58-.19-.88a2.49,2.49,0,0,0,1.51-.16c.45-.18.91-.35,1.37-.52l.46-.17a2,2,0,0,1-.16.3,6.62,6.62,0,0,0-.48.85,7.3,7.3,0,0,1-.35.65,3.49,3.49,0,0,0-.46,1.3,1.71,1.71,0,0,0,1.15,2l.3.11a.61.61,0,0,0,.35.06A2.89,2.89,0,0,0,107.53,146.36Zm-7.26,1.29a1.22,1.22,0,0,0,.14-.16,3.19,3.19,0,0,0,.26-.39,1.25,1.25,0,0,0-.17-1.54l-.17-.17-.11-.11-.12-.16a1.5,1.5,0,0,0-.45-.46,2.13,2.13,0,0,0-.71-.23l-.18,0a1.13,1.13,0,0,0-.51,0l-.35.08a8,8,0,0,0-1.15.32A3.81,3.81,0,0,1,96,145c-.21,0-.42.07-.63.12a7.62,7.62,0,0,0-1.08.37l.1-.17.18-.3a1.29,1.29,0,0,0,.12-1,1.64,1.64,0,0,0-.24-.56l.26,0,.52,0h.9a.9.9,0,0,0,.88-.69,1.07,1.07,0,0,0-.2-.85A6.3,6.3,0,0,0,95,140.42a.74.74,0,0,0-.82.11.89.89,0,0,0-.31.73,1.22,1.22,0,0,0,0,.19c-.26-.09-.53-.17-.79-.24a6.27,6.27,0,0,1-1.5-.57l-.42-.24a11.68,11.68,0,0,1-1-.62,5.19,5.19,0,0,0-.56-.35.77.77,0,0,0-.61-.1.62.62,0,0,0-.37.33,1,1,0,0,0,0,.72,2.27,2.27,0,0,0,.2.37,2.38,2.38,0,0,0-2.66-.43.81.81,0,0,0-.2.12,3.41,3.41,0,0,0-1.68.59l-.35.2-.1.07a2.62,2.62,0,0,0-.56.11,3.43,3.43,0,0,0,.61-.93.83.83,0,0,0-.51-1.22l-.18-.08A1.87,1.87,0,0,0,81.8,139l-.13,0,.1-.21,0-.09a1.1,1.1,0,0,0,.14-.84,1.27,1.27,0,0,0,.29-1c0-.14,0-.28-.06-.42a1.68,1.68,0,0,1,0-.53,5.69,5.69,0,0,0,.08-1.09,1.76,1.76,0,0,0-.14-.68.93.93,0,0,0,.44-.33,5.14,5.14,0,0,0,.23,1.18c.07.25.13.5.18.76s.15.68.25,1a7.58,7.58,0,0,0,.5,1.16l.05.11a.72.72,0,0,0,.59.39A.79.79,0,0,0,85,138a1.71,1.71,0,0,0,.39-1.52.58.58,0,0,1,0-.13,1.59,1.59,0,0,0,0-.26c0-.16,0-.31,0-.47a5.4,5.4,0,0,0-.07-.85c0-.16-.06-.32-.09-.48a4.33,4.33,0,0,1-.15-1.29,1.27,1.27,0,0,0-.09-.54,1,1,0,0,1,0-.16,1.36,1.36,0,0,1,0-.37,2.21,2.21,0,0,1,0-.25,2.57,2.57,0,0,0,.07-.47c0-.58,0-1.16,0-1.74v-.6c0-.05,0-.11,0-.17a.94.94,0,0,1,0-.12,7.45,7.45,0,0,0,.18-2.4c0-.28,0-.56,0-.84s0-.34,0-.52,0-.33,0-.5a1.25,1.25,0,0,1,.17-.56l.22-.45a9.58,9.58,0,0,1,.6-1.1,2.62,2.62,0,0,0,.43-1.62c0-.22,0-.44,0-.66a7.45,7.45,0,0,0,0-.87,9.49,9.49,0,0,1,.3-2.76L87,116a6.25,6.25,0,0,0,.2-2,3.85,3.85,0,0,0,.26-1.26,4.65,4.65,0,0,1,.09-.69,5.77,5.77,0,0,0,.12-1.31q0-1.83,0-3.65v-.21a2.86,2.86,0,0,1,.26-1.61,1.18,1.18,0,0,0,0-1.09,1.09,1.09,0,0,1,0-.78,3.41,3.41,0,0,0,.13-1.1,2.18,2.18,0,0,1,.09-.93.68.68,0,0,0,0-.58,1.08,1.08,0,0,1,0-.66,3.4,3.4,0,0,0,.06-.51,1.13,1.13,0,0,1,.28-.81.92.92,0,0,0,.26-.69.78.78,0,0,0-.31-.56,1.5,1.5,0,0,1,0-.25A5.41,5.41,0,0,1,89.07,95a1,1,0,0,1,.17-.17l.11-.08a1.08,1.08,0,0,0,.29-.22,1.82,1.82,0,0,0,.43-.65c.11-.34,0-.63-.43-.9a9.8,9.8,0,0,1,.58-2.07,2.38,2.38,0,0,1,.69-1.05.77.77,0,0,0,.36-.58h0l.1,0,.32,0,.38-.31,0-.15c0-.13.06-.26.09-.4a2.76,2.76,0,0,1,.19-.66c.05-.1.11-.2.17-.3a3.15,3.15,0,0,0,.4-.87.51.51,0,0,1,.17-.24.63.63,0,0,1,0,.28,6.19,6.19,0,0,0,.09,2.6l-.26.26c-.22.23-.45.46-.67.69a.89.89,0,0,0-.24.73,1,1,0,0,0,.35.63,1.14,1.14,0,0,0,1,.31,1.83,1.83,0,0,0-.07.8l0,.14a4.57,4.57,0,0,1,.1.68,9.84,9.84,0,0,1,0,1.16,3.2,3.2,0,0,0,.16,1.14,3.84,3.84,0,0,1,.12.53l0,.18.21.11a.93.93,0,0,1,0,.16,2.27,2.27,0,0,0-.06.26,2.56,2.56,0,0,0,.05,1.13c.09.32.12.44,0,.59a1,1,0,0,0,0,.76,1,1,0,0,1,0,.88.86.86,0,0,0,.1.87,2.27,2.27,0,0,1,.44,1.42,1.44,1.44,0,0,0,.14.57.81.81,0,0,1,0,.77,1,1,0,0,0,.1.91,1.9,1.9,0,0,0,.28.36,1.24,1.24,0,0,1,.32.73,3.1,3.1,0,0,0,.09.34,1.12,1.12,0,0,1,.07.34l-.1.2c-.17.34-.32.64-.6.76a1.87,1.87,0,0,0-.84.79,1,1,0,0,0,.3,1.26,1.25,1.25,0,0,0,1.3.13,3.51,3.51,0,0,1,.6-.21l.12,0c0,.36,0,.72,0,1.09V111a1.64,1.64,0,0,1,0,.49,1,1,0,0,1-.14.17,2.36,2.36,0,0,0-.21.24c-.24.33-.47.67-.7,1a.73.73,0,0,0,.12.92,1.11,1.11,0,0,0,1.44.34l.12,0c.05.48.12.87.2,1.25a2.32,2.32,0,0,1-.22,1.3,2.84,2.84,0,0,1-.16.32l0,.08a.84.84,0,0,0,.1,1,2,2,0,0,0,1,.74l0,.08.16.23a.62.62,0,0,0-.13.26.79.79,0,0,0,.24.74.67.67,0,0,0-.07.23,1,1,0,0,0,.09.53,1.52,1.52,0,0,1,.09.79c0,.13,0,.26,0,.35a.54.54,0,0,1-.11.16,1.06,1.06,0,0,0-.18,1.28c.06.09.06.11,0,.29a1,1,0,0,0-.15.78,1,1,0,0,0,.64.51h0c.07.44.13.89.19,1.33a4.41,4.41,0,0,1-.25,1.7l0,.13a2.56,2.56,0,0,0-.1.42,1.59,1.59,0,0,0,.87,1.84c.11.05.14.1.15.18a.82.82,0,0,0,.13.32l.39.65.44-.66.11-.17,0,0a.77.77,0,0,1,.49,0,.15.15,0,0,1,0,.11.22.22,0,0,1-.06.16,1.84,1.84,0,0,1-.23.19l-.21.16a.88.88,0,0,0-.3.93,1.15,1.15,0,0,0,.35.51.65.65,0,0,0,.43.16l.18,0v.18a2.77,2.77,0,0,0,.27,2.32c0,.08.06.17.09.25a3,3,0,0,0,.17.43l.05.12a1.34,1.34,0,0,0,.26.45c0,.21,0,.42,0,.64a.87.87,0,0,0,.2.58,3.55,3.55,0,0,0,.22,1.45,5.52,5.52,0,0,1,.32,1.75v.17a10.91,10.91,0,0,0,.55,2.57c.07.22.09.28.06.37a1.31,1.31,0,0,0,.09.89,7.21,7.21,0,0,0,.69,1.41,2.41,2.41,0,0,0-1.49.26,9.93,9.93,0,0,1-1.36.6l-.62.24-.1,0-.08,0ZM89,143.34a1.42,1.42,0,0,0-.59.11l.08-.11a5.5,5.5,0,0,1,.35-.49,4.29,4.29,0,0,0,.48-.75l0-.09a.75.75,0,0,0,0-.72,1.89,1.89,0,0,0,.22.2c.43.26.92.56,1.43.81.19.09.39.17.58.26a1.84,1.84,0,0,0-1.61.43A1.31,1.31,0,0,1,89,143.34Zm5.56-65.24h0Zm8,7.4v.23a4,4,0,0,1-.11,1.17,2.73,2.73,0,0,0-.07,1.41c-.3-.12-.59-.22-.88-.33l-.83-.3a4,4,0,0,1-.92-.55,1.24,1.24,0,0,0-1.17-.19.79.79,0,0,0-.35,1.35,1.3,1.3,0,0,0,.51.33l.2.07-.14.09a4.48,4.48,0,0,1-.93.51,4.22,4.22,0,0,0-2,1.24,3,3,0,0,0,0-.37A6.66,6.66,0,0,0,95.66,89c-.07-.28-.07-.41,0-.54a.71.71,0,0,0,0-.61.55.55,0,0,0,.51,0l.16-.08a2.3,2.3,0,0,0,.63-.42,5.23,5.23,0,0,1,1.65-1l.39-.18a1.27,1.27,0,0,1,.43,0l0,.08c0,.08,0,.15-.06.24a.54.54,0,0,0,.37.61.56.56,0,0,0,.56-.17,1.34,1.34,0,0,0,.45-1.22,3.91,3.91,0,0,0,1-.65,4.4,4.4,0,0,1,.56-.41.75.75,0,0,0,.29-.33l0,.15A6.2,6.2,0,0,0,102.56,85.49Zm-5.5,31.76h0ZM90.87,88.61l0,0v0ZM82.32,131c0,.2,0,.41,0,.62-.09-.16-.19-.31-.29-.47l0-.07a1.2,1.2,0,0,0,.37-.45C82.34,130.81,82.33,130.93,82.32,131Zm0,1.63-.07-.06.06-.08S82.33,132.63,82.34,132.68Zm21.15-54.25c0,.09,0,.18,0,.27a1.12,1.12,0,0,1,0,.3c-.09.54-.22,1.1-.34,1.61a3.56,3.56,0,0,0-2.51-.07c-.23.07-.47.12-.71.16l-.35.07a.69.69,0,0,0-.34.1,3.53,3.53,0,0,1-.55.29c.15-.12.29-.26.42-.39a1.17,1.17,0,0,1,.22-.15l.21-.12a1.24,1.24,0,0,0,.65-.61l.15-.05a1.48,1.48,0,0,0,.61-.33c.31-.3.64-.57,1-.85A13.05,13.05,0,0,0,103.71,77l.29-.35c0,.16-.08.32-.12.47a1.83,1.83,0,0,1-.29.79A.68.68,0,0,0,103.49,78.43Zm0,2.68-.32-.3.06-.07h0l.22.38Zm-.82,28.2,0,.11,0,0Zm3.45,23.27-.27,0h0a1.18,1.18,0,0,1,.2-.2,1.61,1.61,0,0,0,.33-.36,1.45,1.45,0,0,1,0,.17c0,.11,0,.32,0,.34A1.08,1.08,0,0,1,106.14,132.57Zm-7.86-12.83a.21.21,0,0,1,0-.18h0a.34.34,0,0,0,.09.16h0ZM86.59,82.94l.34-.14.06,0a1.08,1.08,0,0,0-.1,1.2,1.09,1.09,0,0,0,1.08.56l.25,0a2,2,0,0,0,.33-.09l.08,0,0,.13.06.13a2.3,2.3,0,0,1-1.16.55,1.78,1.78,0,0,0-1,.51,4.82,4.82,0,0,0-1.52.14l-.12,0a1.08,1.08,0,0,0-.58.36,4.75,4.75,0,0,1-1.81,1l-.32.11A2.68,2.68,0,0,0,81.1,88a.24.24,0,0,1-.1,0h-.17c.18-.49.35-1,.54-1.45l.14-.13a.83.83,0,0,0,.3-.75s0-.09.13-.23l.09-.09a1.92,1.92,0,0,1,.29-.25,11,11,0,0,1,2-1A10.47,10.47,0,0,0,86,83.22,4.23,4.23,0,0,1,86.59,82.94Zm-2.79,40a1.23,1.23,0,0,0-.43-1l-.09-.1a1.05,1.05,0,0,0-.57-.33l.12-.15a3.84,3.84,0,0,1,.65-.67,4.64,4.64,0,0,0,.79-.83,1.13,1.13,0,0,1,.28-.21h0a6,6,0,0,0,.31,1.49c.08.26.05.32,0,.43-.34.43-.66.86-1,1.3Zm-2.11-10.4h0Zm.7-3.14s0,.08,0,.12a.5.5,0,0,0-.17-.09.63.63,0,0,0-.61.21l-.07.07a2.12,2.12,0,0,0-.57.74.52.52,0,0,0-.46.12,5.83,5.83,0,0,0-.45.49l-.22.27a1,1,0,0,0-.21-.12.52.52,0,0,1,0-.2v-.15a4.15,4.15,0,0,0,0-.74.76.76,0,0,1,.23-.66l.17.08a.94.94,0,0,0,.74-.16l.24-.11a2.12,2.12,0,0,0,.54-.31.48.48,0,0,1,.39-.15,1,1,0,0,0,.61-.12.73.73,0,0,0,.24.1A1.54,1.54,0,0,0,82.38,109.4Zm-1.19,2-.21.34h0Zm-1.7-8.84c.16-.08.32-.16.49-.23a5,5,0,0,0,1.15-.64,1.2,1.2,0,0,0,.24-.25l.32-.44h0a.65.65,0,0,0,.89-.38l.1,0a.72.72,0,0,0,.4-.13l.19-.16a1.26,1.26,0,0,1,.41-.27,1.25,1.25,0,0,0,.57-.46.65.65,0,0,0,.87.19l.1,0s0,.09,0,.12a.85.85,0,0,1,0,.11.75.75,0,0,0,0,.39l0-.06a.68.68,0,0,0-.86-.06,1.41,1.41,0,0,0-.35.35l0,0,0,.18a1.21,1.21,0,0,0-.08.16.53.53,0,0,0-.3,0l-.52,0,.26.25,0,.07a.75.75,0,0,0,1.05,1l0,0,.19.18-.09.25,0,.08a1.07,1.07,0,0,0-1.29-.06,2.33,2.33,0,0,1-.37,0,3.07,3.07,0,0,0-.55,0,.8.8,0,0,0-.59-.43.7.7,0,0,0-.63.25c-.35.43-.56.61-.92.59a.64.64,0,0,0-.49.21l-.16.13a3.07,3.07,0,0,0-.49.46.6.6,0,0,1-.3.18,2.33,2.33,0,0,0-.12-.55c0-.09,0-.16.08-.37l.08-.21A5.19,5.19,0,0,0,79.5,102.54Zm1.15,12.11-.18.16a1.57,1.57,0,0,1-.11-.42v-.15a.78.78,0,0,0,.44,0l.23-.08.08,0,.06,0a.71.71,0,0,0,0,.17l0,.35v.08Zm4.17,2.75h0Zm-.08.11-.08.11v0l.09-.09Zm-2.93,4.4-.06.07-.06.06,0-.13ZM81,119.21c0-.15,0-.29,0-.44v0a1.62,1.62,0,0,0,.84-.24l.11-.06a14.14,14.14,0,0,1,1.59-.65l.17-.07.08.14a2.32,2.32,0,0,0-.18.49.56.56,0,0,0-.21,0,.63.63,0,0,0-.53.43,1.36,1.36,0,0,1-.48.53,3.93,3.93,0,0,0-.4.35s0,0,0,0a1.2,1.2,0,0,0-.94.29v-.72Zm4.36-18.05a.55.55,0,0,0,0-.45.75.75,0,0,0,.15.13s0,.08,0,.13a4,4,0,0,1-.06.46l-.1.05-.32.18L85,101.6A2.14,2.14,0,0,0,85.35,101.16Zm-2.6,5.43a2.68,2.68,0,0,0,.61-.31l.22-.13a1.53,1.53,0,0,0,.73-.72l.11-.26a1.09,1.09,0,0,0,.2-.17.49.49,0,0,0,.1-.25,1,1,0,0,0,.37-.08,3.59,3.59,0,0,0,.12,1.27.85.85,0,0,0,.05.16,3.1,3.1,0,0,0-.1.88c0,.05,0,.11,0,.16a1.47,1.47,0,0,0-1.09-.49l-.23,0a1.71,1.71,0,0,1-.47,0,2.59,2.59,0,0,0-.7,0Zm-1.51-6.08.11-.05a.91.91,0,0,0,.12.34l-.36-.13-.13,0A1.69,1.69,0,0,0,81.24,100.51Zm.45,12v0l.06,0,.32.27Zm-1.18,4.28s.07-.08.06-.08a1.07,1.07,0,0,0,.66-.54.93.93,0,0,0,0-.62.82.82,0,0,0,.06-.14.81.81,0,0,0,.15.13.59.59,0,0,0,.27.07.56.56,0,0,0,.28-.08.62.62,0,0,0,.35-.41c0-.09,0-.19,0-.29l.31-.16a.81.81,0,0,0,.24-.16,3,3,0,0,0,.29-.35.62.62,0,0,0,.07-.6.61.61,0,0,0-.13-.16l0,0-.08,0-.07-.05a1.26,1.26,0,0,1,.72-.36l.14,0s.11.1.11.16a4.2,4.2,0,0,0-.09.71l0,.22a2.42,2.42,0,0,1-.08.4,1.93,1.93,0,0,0,0,1.24.85.85,0,0,0,0,.12.8.8,0,0,1-.25.31l-.21.21c-.08.09-.11.09-.14.09a2.35,2.35,0,0,0-1.17.27,2,2,0,0,1-.63.2.85.85,0,0,0-.56.32l-.08.08-.2.14,0-.1a2.12,2.12,0,0,0-.12-.42ZM83.59,95h0a.76.76,0,0,0-1.27-.11,1,1,0,0,0-.14.34.53.53,0,0,0-.35.14,3.26,3.26,0,0,0-.31.34.73.73,0,0,0-.74.25l-.34.4a.54.54,0,0,1-.38.21c-.35,0-.59.08-.74.34a.53.53,0,0,0-.06.14h0c0-.17,0-.34,0-.51,0-.35,0-.71,0-1.06,0-.19.06-.28.29-.38a1.64,1.64,0,0,0,.63-.4h0a1,1,0,0,0,.52,0,2.66,2.66,0,0,0,.79-.48c.09-.08.11-.09.14-.1a5.55,5.55,0,0,0,2.29-1,1.7,1.7,0,0,1,.42-.2l.49-.19a3.9,3.9,0,0,1-.6.64A1.58,1.58,0,0,0,83.59,95Zm3.27-2.77h0Zm-6.14-2a1.85,1.85,0,0,0,.69-.39,1.18,1.18,0,0,1,.44-.2l.11,0a4.88,4.88,0,0,0,1.6-.75,6.08,6.08,0,0,1,1.9-.93l.48-.17c.32-.12.62-.26.93-.41l.47-.22.12-.06.15-.07a2.06,2.06,0,0,0,.8-.13l-.15.22-.13.2A2.06,2.06,0,0,1,87,88a.77.77,0,0,0-.51.6.54.54,0,0,0,0,.13,2,2,0,0,0-.71.26.68.68,0,0,0-.34.44.49.49,0,0,0-.3,0,.8.8,0,0,0-.51.39,2.81,2.81,0,0,0-.15.28l-.09.18a1,1,0,0,0-.1.22.78.78,0,0,0-.55.09l-.09.06a1.73,1.73,0,0,0-.61.54l0,.06-.14-.08-.21.09-.18.07a2.23,2.23,0,0,0-.54.27l-.22.18a.89.89,0,0,1-.48.27.84.84,0,0,0-.58.37c-.08.12-.18.2-.47.18a1.14,1.14,0,0,0-.78.29h0v0l.11-.38c.12-.44.25-.88.4-1.31A1.23,1.23,0,0,1,80.72,90.19Zm.74,15.12a1.57,1.57,0,0,0,.76-.35.81.81,0,0,0,.35-.49h0a.7.7,0,0,0,.5-.3l.09.08a.48.48,0,0,0-.18.34s0,.06,0,.09a.75.75,0,0,0-.7.56,1.17,1.17,0,0,0-.72.29.52.52,0,0,0-.17-.12.57.57,0,0,0-.45,0A1.15,1.15,0,0,1,81.47,105.31Zm-2,2.29h0l.09.39-.1,0Zm.89,4.43h.14a1,1,0,0,0,.63-.25h.13a.65.65,0,0,0,.54-.12c.29-.24.56-.51.83-.77a.57.57,0,0,0,.15-.43.6.6,0,0,0,.26.05.69.69,0,0,0,.5-.33l.21-.19a.78.78,0,0,1,.27-.21,1.93,1.93,0,0,0,.69-.38l-.17.72c0,.1,0,.15,0,.16a2.08,2.08,0,0,0-.6.57l-.12,0a.79.79,0,0,0-.64.12l-.21.13a2.08,2.08,0,0,0-1.18,1.35.53.53,0,0,0-.32,0,1.65,1.65,0,0,0-.24.14l-.07.05a1,1,0,0,1-.23,0l-.22,0a.61.61,0,0,0-.29,0l-.14.06c0-.05,0-.1,0-.15s0-.26,0-.38a1.27,1.27,0,0,0,0-.16A.66.66,0,0,0,80.31,112ZM101,106.94h0l0-.14.14.06Zm.31,1.37a1.48,1.48,0,0,0-.36,1,.21.21,0,0,1-.08.06l-.1.05a1,1,0,0,1-.18.08,1.93,1.93,0,0,0-1.26.59,6.41,6.41,0,0,1-.7.52c.22-.33.4-.67.59-1a7.28,7.28,0,0,1,1.07-1.61,5.33,5.33,0,0,0,.37-.41.6.6,0,0,0,.1.24A.62.62,0,0,0,101.3,108.3Zm-3.38.33c.09-.31.15-.48.31-.6l.46-.34.3-.23a1.54,1.54,0,0,1-.21.32,2.79,2.79,0,0,0-.48.8,1.9,1.9,0,0,1-.31.55,1.66,1.66,0,0,0-.1-.39ZM100,98.08l-.14.28a4.69,4.69,0,0,1-.33.55l-.17.26-.07.13s0,.06,0,.06a4.87,4.87,0,0,0-.87.85,5.82,5.82,0,0,1-.5.53,4.73,4.73,0,0,0-1.17,1.43.94.94,0,0,0-.05-.15.87.87,0,0,0,.16-.91,2.14,2.14,0,0,1-.07-.48.25.25,0,0,1,.08-.21l.43-.51.29-.34.07-.08a7.13,7.13,0,0,0,1.77-1.27c.21-.18.41-.37.62-.54l.21-.16A2.56,2.56,0,0,1,100,98.08Zm-.17-2.93a.76.76,0,0,0,0,.13l-.07.05c-.26.18-.53.34-.8.5l-.13.08a1.44,1.44,0,0,0-.58.54.42.42,0,0,1-.16.13,2.68,2.68,0,0,0-1.15,1,1.71,1.71,0,0,1-.64.62l0-.2a3.87,3.87,0,0,0-.18-.65.88.88,0,0,1,0-.48c0-.09,0-.18,0-.27a.3.3,0,0,1,.15-.24,10.12,10.12,0,0,0,1.85-1.66l.23-.24a10.54,10.54,0,0,1,1.46-1.29,1.18,1.18,0,0,1,.07.33.82.82,0,0,0,.12.41C99.71,94.2,99.69,94.48,99.88,95.16Zm-2.37,9a6.06,6.06,0,0,0,.71-.53,3.65,3.65,0,0,1,.87-.59,1.85,1.85,0,0,0,.61-.48l.08-.09c-.29.37-.53.77-.77,1.15l-.31.48a1.21,1.21,0,0,0-.22.62.88.88,0,0,0-.89.35s-.05,0,0,0a1.22,1.22,0,0,1-.3-.48C97.33,104.36,97.39,104.21,97.51,104.14Zm.9,9c0-.12,0-.15,0-.16a1.34,1.34,0,0,0,.47-.39l.24-.31a1.57,1.57,0,0,1,.77-.67l.36-.2a.75.75,0,0,0,.24-.26l.11,0,.11,0a1.33,1.33,0,0,1-.31.62c-.11.13-.23.24-.35.35a3.69,3.69,0,0,0-.71.83,6.87,6.87,0,0,1-.74,1l-.12.14-.18.19a4.12,4.12,0,0,0,.09-1.06Zm2.13-9.65v.08c0,.12,0,.24,0,.36a.5.5,0,0,0,.16.33,3.36,3.36,0,0,0-.82.17A3.33,3.33,0,0,1,100.55,103.48Zm1.06,3.29h0a.77.77,0,0,0,.14-.13l.05.15ZM104.9,136c0-.18,0-.36,0-.54s0-.13.1-.16l.33-.16A8.76,8.76,0,0,1,104.9,136Zm-3.1-15.25a.54.54,0,0,0,.09.23.44.44,0,0,0-.1.24l-.15,0-.29.09c-.24.07-.48.15-.73.25l.54-.56a.69.69,0,0,0,.14-.92,1.35,1.35,0,0,0,.33-.18,3.2,3.2,0,0,0,.1.49A2.55,2.55,0,0,1,101.8,120.78Zm-.69,4.83a1.09,1.09,0,0,0,.19-.86s0-.15.26-.4a.87.87,0,0,0,.22-.88l.19-.12q0,.12,0,.24a.64.64,0,0,0,.35.51,3.49,3.49,0,0,1-.12.38,2.77,2.77,0,0,0-.16.58,1.79,1.79,0,0,1-.18.18l-1.11,1.05A3.07,3.07,0,0,1,101.11,125.61Zm-.82-6.36a.92.92,0,0,0-.33.7c0,.17-.06.28-.28.52a3.61,3.61,0,0,0-.25.3,2.55,2.55,0,0,0-.07-.43.91.91,0,0,0-.31-.44l.06-.08,0-.12a.73.73,0,0,0-.26-.66h0a.42.42,0,0,0,.07-.11c.06-.2.09-.23.24-.26.55-.12,1.09-.28,1.62-.43l.15,0A3,3,0,0,1,100.29,119.25Zm2.46,12.89s0,.08,0,.11v.29a1.27,1.27,0,0,0,0,.52,1,1,0,0,1,0,.73,1.2,1.2,0,0,1-.35.48c-.07-.25-.09-.36,0-.46a.75.75,0,0,0,0-.7c-.13-.29-.05-.5.3-.93Zm-4.11-12.75a.13.13,0,0,1,0,.13h0a.36.36,0,0,0-.19-.19h0A.24.24,0,0,1,98.64,119.39Zm3.78,8.38c.07.09.06.11,0,.15a.85.85,0,0,0-.07.42,1.6,1.6,0,0,1-.62,1.39l-.12.13a2.89,2.89,0,0,0-1.11-.67.84.84,0,0,0,0-.32A4,4,0,0,0,102.42,127.78Zm.39,8.7a2.07,2.07,0,0,0,.77-.22l.12-.05,0,.08a.88.88,0,0,1,0,.14,2,2,0,0,0,.07.22.55.55,0,0,0,.29.3l0,0a1.31,1.31,0,0,0-.1.25l-.66.94a2.63,2.63,0,0,0-.23-.55.55.55,0,0,0-.14-.15A1.21,1.21,0,0,0,102.81,136.48Zm-2.75-46.37-.35.55c-.17.27-.34.54-.51.81a.83.83,0,0,1-.32.32,2.33,2.33,0,0,0-.46.37l-.15.14-.32.31a2.53,2.53,0,0,1-.58.47,1.81,1.81,0,0,0-.68.66,1.33,1.33,0,0,1-.69.49c0-.08,0-.17,0-.25v-.67h0v-.09a.44.44,0,0,1,.23-.5,11.19,11.19,0,0,0,1-.81c.21-.18.42-.36.63-.52a8.89,8.89,0,0,1,2.19-1.3Zm6.11,47.62a5.87,5.87,0,0,0,.63-.92v.44a1,1,0,0,1,0,.26Zm-1-9.18-.2.05-.17,0a2.46,2.46,0,0,1,.24-.43l.07-.11.06.19a.62.62,0,0,1,0,.13v.11ZM103.41,121h-.09a.67.67,0,0,0,.09-.48l-.06-.24-.19-.1c-.06,0-.1-.06-.09-.37,0-.12,0-.25,0-.37.08.23.18.48.29.73s.22.56.32.85Zm-.82-6.32c0,.13,0,.26,0,.38a.6.6,0,0,0-.22-.21.58.58,0,0,0-.54,0,.73.73,0,0,0-.41.68,4.69,4.69,0,0,0,.11.56v.25h-.89a2.33,2.33,0,0,0-1.62.53.47.47,0,0,1-.34.09h0a2.54,2.54,0,0,1,.36-1.26l.1-.17a2.85,2.85,0,0,1,.82-1,1.15,1.15,0,0,0,.43-.52,3.17,3.17,0,0,1,.76-1l.13-.13.05.2a1.15,1.15,0,0,1,.07.41.55.55,0,0,0,.27.54.74.74,0,0,0,.78,0,1.14,1.14,0,0,0,.19-.17A3.7,3.7,0,0,1,102.59,114.73ZM95.4,87.23v0a2.46,2.46,0,0,0-.3-1.29,3.39,3.39,0,0,1-.19-.47,1.38,1.38,0,0,0-.71-.76.68.68,0,0,0-.33-.08,1.47,1.47,0,0,0-.32,0l-.1,0-.1,0a1.07,1.07,0,0,0-.76.05l-.09,0a2.45,2.45,0,0,0,0-1.25.75.75,0,0,0-.59-.58l-.37-.08-.41-.09,1.36-1.07a2,2,0,0,1,.29-.17l.28-.16.26-.15a2.54,2.54,0,0,0,.94-.78l.12-.07.26-.13a2.21,2.21,0,0,0,.7-.44,3.82,3.82,0,0,1,.87-.61,7.24,7.24,0,0,0,.65-.41,7,7,0,0,1,.8-.48l.56-.31c.14-.09.28-.19.42-.29l.33-.23.32-.17a3.84,3.84,0,0,0,.49-.27c.22-.15.45-.28.68-.41a6.51,6.51,0,0,0,1.18-.79,3.42,3.42,0,0,0,1.12-.43l0,.06a1,1,0,0,0-.26.34,3.87,3.87,0,0,1-1.12,1.35c-.24.21-.47.42-.68.66a.59.59,0,0,1-.17.12,5.36,5.36,0,0,0-1.86,1.37,1.71,1.71,0,0,0-1,.67l-.13.15a3.67,3.67,0,0,1-1,.74l-.1.05a3.26,3.26,0,0,0-1.49,1.2,2.47,2.47,0,0,0-.54.51A1.59,1.59,0,0,1,94,83a.7.7,0,0,0-.34.48.69.69,0,0,0,.15.57,5.83,5.83,0,0,0,.61.62.72.72,0,0,0,.89,0,1.6,1.6,0,0,1,.58-.28,3.26,3.26,0,0,0,.61-.26l.09,0A1.09,1.09,0,0,0,97,83.9l0,0a.93.93,0,0,0,.67-.19,3.46,3.46,0,0,1,1.47-.6,3.21,3.21,0,0,0,1.32-.47,3.33,3.33,0,0,1,1-.33l.08,0-.27.37a14.83,14.83,0,0,1-1.1,1.38,2.14,2.14,0,0,1-.26.22,2.2,2.2,0,0,0-.56.57,3.09,3.09,0,0,0-2.35.82,8.69,8.69,0,0,0-.83.75c-.21.21-.41.41-.64.6A.51.51,0,0,0,95.4,87.23Zm7.75-6.46h0v0Zm-6.47,1.67h0l0-.11.06,0Zm-14-.57h.14c.23,0,.46,0,.68,0a3,3,0,0,1,.92.1l-.06,0a.76.76,0,0,0-.58.57,2.52,2.52,0,0,0-1.29.3.48.48,0,0,0-.14-.2,2.15,2.15,0,0,0-.42-.28c-.06,0-.11-.06-.11-.25s0-.23,0-.28h.83Zm-4,18a3.35,3.35,0,0,1,1.16-1.08l.16-.11a3.44,3.44,0,0,0,1.24-.59l.41-.26c.4-.22.77-.48,1.13-.73l.32-.22a.56.56,0,0,0,.17-.18.84.84,0,0,0,.56-.06l.56-.27.62-.3.1,0c0,.06,0,.12,0,.22s0,.1,0,.14a.65.65,0,0,0,.27.48.67.67,0,0,0,.44.1,2.91,2.91,0,0,1-.53.43.47.47,0,0,0,0-.24.87.87,0,0,0-.64-.53.93.93,0,0,0-.85.16.63.63,0,0,0-.22.54h0l-.3,0a.9.9,0,0,0-.6.38,1,1,0,0,1-.69.44,1.12,1.12,0,0,0-.72.43,1.66,1.66,0,0,1-.44.41,3.42,3.42,0,0,0-.46.39,1.21,1.21,0,0,0-.18.27l-.05,0a.58.58,0,0,0-.54.13.73.73,0,0,0-.26.31c-.11.29-.23.3-.38.29a.92.92,0,0,0-.45.1h0a2.31,2.31,0,0,0-.32-.27A.68.68,0,0,0,78.7,99.91Zm2.18,28.86.07.09a3.61,3.61,0,0,1-.15.76A2.74,2.74,0,0,1,80.88,128.77Zm19.25-53.91v0h0ZM79.35,106.23a1.68,1.68,0,0,1,.77-.28h0a1,1,0,0,0,.21,0,2,2,0,0,0-.78.75.69.69,0,0,1-.43-.06l-.26-.15.25-.11Zm26.3,22.28h0Zm-2.81-57.18h0a1.07,1.07,0,0,0-.43.26l-.44.43-.46.45a1.22,1.22,0,0,1-.24.2l-.26.1a2.23,2.23,0,0,0-.51.23,1.93,1.93,0,0,0-.39.35,1.4,1.4,0,0,1-.2.19l-.15.1a1.69,1.69,0,0,0-.67.64.48.48,0,0,1-.34.22A1.52,1.52,0,0,0,98,75a2.09,2.09,0,0,0-.26.33,1.14,1.14,0,0,1-.15.19,1,1,0,0,1-.18.07l-.25.1a.79.79,0,0,0-.35.36c-.07.15-.2.26-.55.31a2.92,2.92,0,0,0-1.52.85,5.52,5.52,0,0,1-.43.36.64.64,0,0,0-.23.37,1.66,1.66,0,0,0-.77.36l-.11.07-.29.21a3.5,3.5,0,0,1-.79.47,4.1,4.1,0,0,0-1.17.8l-.11.09a2.72,2.72,0,0,1-1.65.66h-.1l-.64.06a3.3,3.3,0,0,1,.3-.23c.9-.61,2-1.36,3.07-2.12.24-.17.47-.36.7-.55a7.69,7.69,0,0,1,1.51-1l.1,0,.07-.09a3.91,3.91,0,0,1,1.36-1,9.35,9.35,0,0,0,.84-.47,1.28,1.28,0,0,0,.54-.59A2,2,0,0,0,98,74.18c.61-.36,1.33-.79,2-1.27a12.64,12.64,0,0,1,1.82-1.1l.43-.22c.21-.11.42-.22.62-.31Zm.09-4.14a4,4,0,0,1-.38.31,2.68,2.68,0,0,0-.88.93,2.16,2.16,0,0,0-.75.58l-.19.19-.24.25a1.51,1.51,0,0,1-.33.3,2.72,2.72,0,0,0-1.07,1,.84.84,0,0,0-.73.34l-.22.11a1.39,1.39,0,0,0-.76.64.81.81,0,0,1-.2.07,1,1,0,0,0-.69.43c0,.05-.08.08-.25.14a1.47,1.47,0,0,0-.5.27l-.19.16a9.37,9.37,0,0,1-1.08.87,4.27,4.27,0,0,0-.44.34,1.6,1.6,0,0,1-.67.41,2,2,0,0,0-1.07.73,2.26,2.26,0,0,1-.57.46l-.1.06c-.56.37-1.1.76-1.65,1.16l-.09.07L87.05,79.1a2.75,2.75,0,0,0-.51.51,4.63,4.63,0,0,1-1,.94.58.58,0,0,1-.51,0,5,5,0,0,0-.7-.13,3.37,3.37,0,0,1-.65-.13l-.15,0a12.29,12.29,0,0,0,2.12-1.74,2.23,2.23,0,0,1,.65-.51,6.25,6.25,0,0,0,1.15-.79,6.41,6.41,0,0,1,.84-.6,1.72,1.72,0,0,0,.42-.35,2.94,2.94,0,0,0,.2-.26,1.16,1.16,0,0,1,.18-.21,5.6,5.6,0,0,0,.75-.43l.1-.06c.18-.11.35-.22.52-.35a10,10,0,0,0,.81-.67,1.34,1.34,0,0,1,.23-.15,1.43,1.43,0,0,0,.68-.66,2.14,2.14,0,0,0,1-.56l.18-.15c.26-.21.52-.42.78-.64l.54-.45a1,1,0,0,1,.2-.14,5,5,0,0,0,1.64-1.09,8.93,8.93,0,0,1,1.37-1c.49-.29,1-.56,1.49-.83l.78-.42.4-.24.22-.14.38-.24a4.15,4.15,0,0,1,.76-.44c.59-.23,1.17-.49,1.77-.78A5.69,5.69,0,0,1,102.94,67.19ZM88.17,52.65s-.08-.06-.07-.25v-.17a1,1,0,0,0,.14.18.6.6,0,0,1,.15.5A1.56,1.56,0,0,0,88.17,52.65Zm-9.94,63.27a.26.26,0,0,1,0-.11l.37-.22ZM53.9,141.81a1.32,1.32,0,0,0-.83-1.44l-.09,0a1.28,1.28,0,0,0-1.12-.13,1.46,1.46,0,0,0-.55.06,1,1,0,0,1-.23,0,1,1,0,0,0-.74.22,1.06,1.06,0,0,1-.58.23,2.87,2.87,0,0,0-.58.16l-.71.28a2.17,2.17,0,0,0,.15-.71.26.26,0,0,1,.06-.09,3.24,3.24,0,0,1,1-.61,1.61,1.61,0,0,0,.95-1.53,1.08,1.08,0,0,0-.21-.48,2.3,2.3,0,0,0-.88-.69,2.9,2.9,0,0,1-.62-.39,1.84,1.84,0,0,1-.41-.42,1.38,1.38,0,0,1,.08-.27c0-.08.06-.17.08-.25s.08-.26.12-.39a8.13,8.13,0,0,0,.22-.79,1.67,1.67,0,0,0-.07-.82,1.65,1.65,0,0,1,.4-1.7,3.15,3.15,0,0,0,.39-.61l.31-.55c.26-.46.51-.91.75-1.38l.15-.28a3.47,3.47,0,0,0,.57-1.92.64.64,0,0,1,0-.11l0-.14.19-.63a10.43,10.43,0,0,1,.76-2,1.38,1.38,0,0,0,.16-.4,10.6,10.6,0,0,1,.58-1.85c.18-.47.36-1,.49-1.42a.65.65,0,0,0,.1-.33,4.1,4.1,0,0,1,.55-1.72l.08-.16a13.06,13.06,0,0,0,.57-1.46l.13-.37a1.75,1.75,0,0,1,.5-.88.84.84,0,0,0,.18-1.22s0,0,0-.21c.13-.48.25-1,.36-1.44s.21-.86.32-1.29a.46.46,0,0,1,.25-.33.91.91,0,0,0,.49-.91c0-.19-.06-.22.19-.39a2.19,2.19,0,0,0,.87-1.65,3.79,3.79,0,0,1,.2-.84,4.74,4.74,0,0,0,.24-1,.93.93,0,0,1,.37-.53.83.83,0,0,0,.24-1.1s0-.07,0-.22.09-.29.13-.43a5.55,5.55,0,0,1,.23-.68,7,7,0,0,0,.59-2.82,1.82,1.82,0,0,1,.07-.55A11.76,11.76,0,0,0,61,97.64a.62.62,0,0,1,.1-.25.82.82,0,0,0,0-1,.86.86,0,0,1-.05-.65,12.79,12.79,0,0,0,.1-1.83v-.25c0-.65,0-1.3,0-1.95V90.47a3.57,3.57,0,0,1,0-.41.77.77,0,0,0,.6-.07h0l.24.64c.11.3.23.6.35.89s0,.19,0,.22a2.58,2.58,0,0,0-.15.5,1,1,0,0,1-.2.49,1.33,1.33,0,0,0-.19,1.23l0,.13c.07.39.52.51.57.52a1.61,1.61,0,0,0,.38,0c.06,0,.09,0,.08,0a3.26,3.26,0,0,1,.43,1.17,1.31,1.31,0,0,0-1,.67,1,1,0,0,0-1.06.49.61.61,0,0,0,0,.51l.13.24.21.05.31.11a2.43,2.43,0,0,0,1.78,0,3.27,3.27,0,0,0-.08.39,1.28,1.28,0,0,1-.12.44.74.74,0,0,0-.1.58,1,1,0,0,0,.54.57.79.79,0,0,0,.65.15h0a2.08,2.08,0,0,0,.12.48l0,.12-.07,0a6.63,6.63,0,0,0-.74.38.82.82,0,0,0-.32,1,.85.85,0,0,0,.89.6,1.45,1.45,0,0,0,.35,0,.65.65,0,0,1,.11.25.54.54,0,0,1,0,.16,1.2,1.2,0,0,0,.33.8,1.72,1.72,0,0,0-.25.42.69.69,0,0,0-.12,1.32,3,3,0,0,0,.39.1,2,2,0,0,1,.28.07c.06,0,.19.07.22.13a1.14,1.14,0,0,0,.16.46c0,.08,0,.17.07.25a1.33,1.33,0,0,1,.09.42,1.18,1.18,0,0,1-.18.21,3,3,0,0,0-.2.23.67.67,0,0,0-.09.66.63.63,0,0,0,.51.38c.19,0,.25.09.29.22a2.61,2.61,0,0,0,.15.32l.08.16a.67.67,0,0,1,.08.42.65.65,0,0,1-.35.23c-.23.09-.45.19-.68.3a.64.64,0,0,0-.3.41l-.05.26.12.17a.68.68,0,0,0,.63.36,5.35,5.35,0,0,1,.79,0,2.23,2.23,0,0,1,.39,0,.68.68,0,0,1,.09.2c.1.26.2.52.32.77s.06.33,0,.44a.87.87,0,0,0-.27.48,1,1,0,0,0,.16.71,1.38,1.38,0,0,0,.38.3l.1.07a.85.85,0,0,0,0,.61,3.62,3.62,0,0,1,.16,1.16,5.27,5.27,0,0,0,.13,1.18,3.76,3.76,0,0,1,.05,1v.36a5.39,5.39,0,0,0,.24,1.52c.07.25.13.49.19.74s.13.54.21.81.22.73.33,1.09l.2.64,1.12,3.65.05.16a1.54,1.54,0,0,1,.08.32,3.1,3.1,0,0,0,.35,1.11A6.3,6.3,0,0,1,72,131.7a2.46,2.46,0,0,0,.18,1.21,1.45,1.45,0,0,1,0,.24l.07.68c0,.44.09.88.14,1.33a1.62,1.62,0,0,0,.24.65.93.93,0,0,0,.84.5,1,1,0,0,0,.8-.59l0,0c.1.32.2.65.3,1a.38.38,0,0,1-.09.36l-.06.06-.36.08a3.46,3.46,0,0,0-.65.18,3.22,3.22,0,0,0-1.18.73,1.8,1.8,0,0,1-1.28.59,1.4,1.4,0,0,0-1.32.82h-.11a1.34,1.34,0,0,0-1.25.69c-.38.61-.45.64-1,.76l-.06,0a1.64,1.64,0,0,0-.73-1.32,1.06,1.06,0,0,0-1.14-.23,1.93,1.93,0,0,1-.55.07,2.14,2.14,0,0,0-1.17.46,5.14,5.14,0,0,0-.6.49,1.34,1.34,0,0,1-.89.5,1.15,1.15,0,0,0-.74.39,2.62,2.62,0,0,1-.93.59h0a5.8,5.8,0,0,0,.34-.56.94.94,0,0,0-.15-1.12h.47a1.7,1.7,0,0,0,1.36-.8,4.62,4.62,0,0,1,.49-.59l.25-.28a1.69,1.69,0,0,1,1.21-.53h.27a6.49,6.49,0,0,0,1.09-.13l.18,0,.62-.13a4.42,4.42,0,0,1,1.26-.17,2.28,2.28,0,0,0,.64-.08,1.9,1.9,0,0,1,.37-.06h0a3.14,3.14,0,0,1,.58.08l.34.06h.22l0-.46v.46h.56a1.08,1.08,0,0,0,.44-.19.54.54,0,0,0,.27-.57c-.08-.36-.28-.47-.43-.5s-.56-.08-.84-.1a4.43,4.43,0,0,1-1.31-.25l-.11,0-.75.08-1.55.17-.37.06a2.71,2.71,0,0,1-.47.06,11.71,11.71,0,0,0-2.6.21,2.46,2.46,0,0,0-.89.36,8.33,8.33,0,0,0-1.13,1l-.36.34c-.1.1-.15.13-.11.13h-.37a4.49,4.49,0,0,1-1.75-.18l-1.49-.59L55.72,137a3.26,3.26,0,0,0-.67-.2.77.77,0,0,0-.71.31.72.72,0,0,0,.07.82,3.83,3.83,0,0,0,2,1.34,5.5,5.5,0,0,1,.78.25l.21.08.3.13.26.11-.11,0a2,2,0,0,1-.7.19,2.41,2.41,0,0,0-1.53.68,1,1,0,0,1-.23.14l-.44.25C54.63,141.4,54.27,141.61,53.9,141.81Zm-8.18.71a1,1,0,0,0-.87-.43h0a5.42,5.42,0,0,0-3.36,1.13,8,8,0,0,1-1.55.94l-.74.35a4.8,4.8,0,0,1,2.47-1.72c.36-.13.71-.28,1.06-.43.56-.24,1.08-.46,1.63-.63l.61-.18a9.94,9.94,0,0,0,1.44-.48h.06c.09,0,.25,0,.37,0a.31.31,0,0,1,0,.1c0,.11,0,.22,0,.35v.26a1,1,0,0,1-.41.85.41.41,0,0,1-.17.06A2.32,2.32,0,0,1,45.73,142.52Zm1.33-2.86a2.12,2.12,0,0,0,.14-.35.27.27,0,0,1,0-.1l.09,0a3.6,3.6,0,0,0,.37-.19c.48-.25.51-.57.45-.8l.19.05.14.08.09.05a.34.34,0,0,1,.16.28.37.37,0,0,1-.18.33,7,7,0,0,0-.74.57l-.3.27a2.6,2.6,0,0,1-.42-.13Zm2.49-68.35a1.18,1.18,0,0,0-.06-.18,5.26,5.26,0,0,1-.43-1.4l0,0a.86.86,0,0,0,.75.35.78.78,0,0,0,.57-.54c0-.05.06-.09.16-.17l.12-.1a1.92,1.92,0,0,1,.27-.19,1.86,1.86,0,0,0,.68-.62,4,4,0,0,0,1.52-1,6.78,6.78,0,0,1,.57-.49l.16-.13.13-.11a1.91,1.91,0,0,0,1-.55l.08-.06a1.68,1.68,0,0,0,1-.44,1.52,1.52,0,0,1,.32-.21l.1,0,.07-.08a5,5,0,0,1,1.18-.92l.41-.26.45-.28a5.93,5.93,0,0,0,1.09-.78l.13,0-.12.14a5.08,5.08,0,0,1-1,.82,5.67,5.67,0,0,0-1.24,1l-.07.08a1.72,1.72,0,0,0-1,.59l-.11.1a7.83,7.83,0,0,1-1.4,1l-.51.31c-.29.19-.57.4-.85.61a7.23,7.23,0,0,1-1.26.83,1.41,1.41,0,0,0-.51.46.72.72,0,0,1-.21.21,4.31,4.31,0,0,0-1.39,1.11c-.13.14-.27.28-.41.42A.69.69,0,0,0,49.55,71.32Zm.06.19h0l0-.1ZM33.47,74.66v-.24a1.42,1.42,0,0,1,.09-.65l0,0a1.41,1.41,0,0,1-.1,1.26v0C33.47,74.89,33.47,74.77,33.47,74.66ZM34.33,69s0,.09,0,.14v.14a.74.74,0,0,1-.11.49l-.17.28C34.13,69.7,34.23,69.36,34.33,69Zm7-11.65h0l.38.12ZM37,61.58a1,1,0,0,0,.07-.18c.08-.29.2-.37.39-.37a6.35,6.35,0,0,0-.42.51ZM69.62,98.44l-.15.08-.14,0h-.07a1.43,1.43,0,0,0,.14-.27.57.57,0,0,0,.56-.32s0,0,.22-.09l.17,0a1.87,1.87,0,0,0,.28.55A1.87,1.87,0,0,0,69.62,98.44Zm1.18,11.51-.27.13a.68.68,0,0,0-.26.2,2.66,2.66,0,0,0-.15.22l-.08.12,0,.05-.09-.06a.59.59,0,0,0-.53,0l-.16.11a.82.82,0,0,1,.12-.19,1.36,1.36,0,0,0,.14-.22.72.72,0,0,0,.46-.15,3.29,3.29,0,0,0,.75-.91l.06.07,0,0a.74.74,0,0,0-.08.3A.45.45,0,0,0,70.8,109.95ZM63.14,33.14,63.2,33a.74.74,0,0,1,.41-.46l.74-.36a.67.67,0,0,1,.32-.06h.21c0,.06,0,.12,0,.18a1.29,1.29,0,0,0,.42,1v0c0,.08,0,.15,0,.23h0v.59c0,.08,0,.17,0,.26s0,.08,0,.12l-.19,0a3.06,3.06,0,0,0-1.74.09l-1.32.56a4,4,0,0,0,.29-.55,2,2,0,0,1,.38-.61A1.74,1.74,0,0,0,63.14,33.14Zm1.41,8.41h0Zm3.87,29.55a1.59,1.59,0,0,1,.46-.32L69,70.7l.12-.06.07.11Zm-1.57,30.58h0l0,0c.07.13.13.27.19.4s.18.47.28.69a2.19,2.19,0,0,0-.29.33l-.06.07h0c-.12-.12-.12-.16-.12-.19,0-.19,0-.39,0-.58ZM50.62,72l.18,0-.13.09,0-.06Zm.79-.37,0,0a1.14,1.14,0,0,1,.3-.21l.16-.1A1.8,1.8,0,0,1,51.41,71.6Zm1-.85a3,3,0,0,0,.72-.25l-.16.11-.18.13c-.11.09-.16.13-.22.14a1,1,0,0,0-.33.1A1.14,1.14,0,0,0,52.41,70.75ZM58.74,44h0l-.31.2a5.24,5.24,0,0,0-.73.52,1.38,1.38,0,0,1-.44.19h0a4.44,4.44,0,0,1,.54-.68A1.54,1.54,0,0,1,58.74,44Zm-1.38,3.43a.64.64,0,0,0,.24,0l-.31.12Zm0,11.85-.12.11a1.16,1.16,0,0,1-.26.21l-.1.05a.79.79,0,0,0,.19-.19Zm-.71.48-.39.21.09-.12.13,0ZM53.7,55.82c.32-.64.4-.72,1.19-1.15l.08,0a3.19,3.19,0,0,0,.78-.53,4.42,4.42,0,0,1,1.45-.86l.37-.16a1.78,1.78,0,0,0,.5-.29,3.9,3.9,0,0,1,.61-.44,1.47,1.47,0,0,0-.07.48v0a.82.82,0,0,0-.77.32,3.81,3.81,0,0,1-.56.54,4.32,4.32,0,0,0-.72.73.65.65,0,0,1-.35.21A6.11,6.11,0,0,0,54,56a2.2,2.2,0,0,1-.5.36,2.24,2.24,0,0,0-.32.18A2.84,2.84,0,0,0,53.7,55.82Zm4.22.5.15-.07,0,.07Zm-4.58,5.49.66-.47.19-.09.09,0,0,0,0,0a.68.68,0,0,0-.06.13.56.56,0,0,0-.44.17,5,5,0,0,1-.69.57,4.52,4.52,0,0,0-1.09,1,3.21,3.21,0,0,0-1.42.69l-.34.24,0-.06h0l.78-.55c.36-.26.73-.53,1.11-.77S52.92,62.1,53.33,61.81ZM49,46.57a.57.57,0,0,0,.45-.16l0,0a2.07,2.07,0,0,0,0,.25l-.59.25-.4.16a.28.28,0,0,1-.19,0,.19.19,0,0,1-.07-.09l.56-.48A.52.52,0,0,0,49,46.57Zm1.57,8.62a1,1,0,0,1,.31-.47,1.92,1.92,0,0,0,.5-.56,1,1,0,0,0,.37-.2,1.16,1.16,0,0,1-.42.64Zm2.17-2.75Zm-3.31-9.73h0v0Zm-1.94,9c.12-.22.24-.45.34-.68a1.57,1.57,0,0,1,.54-.66c.53-.35,1.07-.68,1.62-1l.09-.06c0,.09,0,.18,0,.26v.25a3.18,3.18,0,0,1-.35,1.53l0,0a.69.69,0,0,0-.4-.18c-.17,0-.34,0-.51,0a1.18,1.18,0,0,0-1.2.68,1.23,1.23,0,0,1-.46.47C47.31,52.14,47.42,51.92,47.53,51.71Zm12.78-8.94-1,.69-.1.09-.05.07a.93.93,0,0,0,0-.13.54.54,0,0,0-.33-.59l-.24-.09A2.83,2.83,0,0,0,59.86,42c.16-.15.33-.28.51-.41l.22-.17h0a1.93,1.93,0,0,0,1.19-.51l.22-.16a11,11,0,0,1,2.77-1.31.27.27,0,0,1-.05.08c-.71.59-1.47,1.15-2.12,1.62ZM49.74,61.37s.06-.06,0-.07a2.39,2.39,0,0,0,1.09-.61,2.62,2.62,0,0,1,.46-.33,13.14,13.14,0,0,0,1.42-.86,4.23,4.23,0,0,0,.46-.38,2.93,2.93,0,0,1,.39-.32c.55-.35,1.11-.68,1.68-1l.55-.32.19-.1a1.69,1.69,0,0,0,.69-.53l.42-.14a1,1,0,0,0-.06.19,1.3,1.3,0,0,0-.66.39,2.6,2.6,0,0,1-1,.74,2,2,0,0,0-.59.36,2.2,2.2,0,0,1-.24.18L54,58.9a6.24,6.24,0,0,1-.79.47,3.5,3.5,0,0,0-.75.52l-.29.23a1.51,1.51,0,0,0-.3.31c-.11.14-.13.15-.18.16a1.09,1.09,0,0,0-.61.37,1,1,0,0,1-.16.14,2.82,2.82,0,0,0-.4.25,1.34,1.34,0,0,1-.39.22,1.72,1.72,0,0,0-.72.49l-.16.15-.19.17,0,0-.16-.09-.09,0A7.17,7.17,0,0,0,49.74,61.37Zm.95,5.17c0-.12,0-.13.08-.19a3.39,3.39,0,0,0,.66-.56,2.13,2.13,0,0,1,.6-.49,2.5,2.5,0,0,0,.37-.22,1.52,1.52,0,0,1,.23-.14,4.13,4.13,0,0,0,1.42-1,5.89,5.89,0,0,0,1.7-1.15l.39-.33a1.33,1.33,0,0,1,.25-.13,13.4,13.4,0,0,0,2.76-1.66,2.8,2.8,0,0,1,.77-.4,1.94,1.94,0,0,0-.67.76,1.31,1.31,0,0,0-.63.37c-.1.09-.17.15-.21.15a1.13,1.13,0,0,0-.91.55c-.13.29-.37.42-.76.62a5.09,5.09,0,0,0-.47.26l-.36.23a6,6,0,0,0-1.22.91,2.24,2.24,0,0,0-.9.54,2.36,2.36,0,0,1-.36.27,8.15,8.15,0,0,0-1,.68l-.31.24-.32.26-.3.24-.79.56C50.73,66.79,50.71,66.67,50.68,66.54ZM61.31,82.65l0-.13h.24A1,1,0,0,1,61.31,82.65Zm3.06-15.57.16,0-.15.15-.2,0,.08-.12,0,0A.68.68,0,0,0,64.37,67.08Zm-.55,18.29a.78.78,0,0,0-.47-.68,1,1,0,0,0,.26-.34l.06,0,.11,0L65,83.85l.71-.26.15-.05a2.7,2.7,0,0,0,.87-.14,2.91,2.91,0,0,0,.11.66,1.57,1.57,0,0,1,.08.56v.1c0,.31-.06.32-.15.36a1.74,1.74,0,0,0-.48.34l-.1.09-.16.15-.12.11a1.46,1.46,0,0,1-.33.15,1.54,1.54,0,0,0-.79.53,1.14,1.14,0,0,1-.35.28,3.06,3.06,0,0,0-.32.22A.36.36,0,0,1,64,86.7C64,86.25,63.9,85.81,63.82,85.37Zm3.34-2.5h0Zm-2.35,5.95a4.47,4.47,0,0,0,1.25-.74l.37-.27a6,6,0,0,1,1-.51l.12-.05a6,6,0,0,0,.35.94.91.91,0,0,1,0,.15,2.15,2.15,0,0,0,0,.22l0,.21a3.08,3.08,0,0,0,.11.65,1,1,0,0,0-.27.32l0,.05a1.17,1.17,0,0,0-.9.11,2.06,2.06,0,0,0-.42.25.72.72,0,0,1-.33.18,1,1,0,0,0-.71.55c0,.06-.11.1-.26.18l-.11-.3c-.13-.43-.26-.86-.38-1.29a1.23,1.23,0,0,1,0-.25v-.09A.31.31,0,0,1,64.81,88.82Zm1.94,3.95.62-.41,1.11-.72.07.1h0c0,.05,0,.11,0,.11a.75.75,0,0,0-.26.68.68.68,0,0,0,.33.44,1.47,1.47,0,0,0,.1.6,1.69,1.69,0,0,0-1,.13,2.64,2.64,0,0,1-.44.13l-.15,0a.7.7,0,0,0-.18-.14l-.4-.29-.31.52v0c-.09-.2-.17-.4-.24-.6l0-.06Zm0,2.37,0,0,0,.05.34,0h-.34a.21.21,0,0,1,0,.08v0h0a.22.22,0,0,1-.07-.07l0,0h0v0ZM51.4,78.31a3.13,3.13,0,0,1-.12-1.11c0-.18,0-.36,0-.57a2.77,2.77,0,0,0,1.55-.53,2.17,2.17,0,0,0,.93-.52,1.65,1.65,0,0,1,.47-.32l.17-.11A4.39,4.39,0,0,1,56,74.27,5.17,5.17,0,0,0,57,73.8l.45-.25a1.48,1.48,0,0,0,.55-.62.8.8,0,0,0,.1-.49l.29,0h.13A1.84,1.84,0,0,0,60,71.74a.54.54,0,0,1,.33-.2,1.35,1.35,0,0,0,.53-.27l.12-.09.22-.12a1.84,1.84,0,0,0,.65-.46c.07-.09.18-.12.38-.17l.2-.05a2.52,2.52,0,0,0,.73-.39,2.86,2.86,0,0,1,.3-.19.54.54,0,0,0,.21-.2,1.29,1.29,0,0,0,.95-.27,2.16,2.16,0,0,1,.57-.29l.36-.15-.06.05a1.6,1.6,0,0,0-.58.83l-.1,0a1.3,1.3,0,0,0-.61.35,1,1,0,0,0-.93.28l-.1.08a8.42,8.42,0,0,1-1.22.74l-.1,0a1.31,1.31,0,0,0-.54.37.44.44,0,0,1-.22.13,1.65,1.65,0,0,0-.81.4,1.09,1.09,0,0,1-.31.2l-.14,0-.09.11a3,3,0,0,1-1.06.73,6.65,6.65,0,0,0-.75.42,3.62,3.62,0,0,1-.33.19,2.59,2.59,0,0,0-.75.52l-.12.05-.11,0a.69.69,0,0,0-.43.22,3.87,3.87,0,0,1-.84.67c-.21.14-.41.27-.6.42l-.32.27-.36.3h-.14a.7.7,0,0,0-.47.12l-.45.37-.33.27c-.19.15-.5.39-.45.77s.4.52.64.63a.89.89,0,0,0,.44.11,5.35,5.35,0,0,0,1.07-.2l.54-.13a.8.8,0,0,0,.54-.48,5.62,5.62,0,0,0,2.14-1.24l.16-.17c.17-.19.2-.23.33-.24h.19l.13-.13a4.89,4.89,0,0,1,1.68-.92l.14-.05L60.3,75a.76.76,0,0,1,.36-.22,2,2,0,0,0,.54-.3l.1,0-.25.18a.6.6,0,0,0-.36.52c0,.07,0,.1-.21.26a2,2,0,0,0-.31.29c-.08.09-.18.11-.44.13h-.11A1,1,0,0,0,59,76l-.34.3a2.13,2.13,0,0,1-1.09.66l-.18,0-.11.13s-.06.07-.06.09a.73.73,0,0,0-.72.22l-.37.35-.33.31a1.16,1.16,0,0,0-1,.57,1.34,1.34,0,0,1-.2.22l-.05,0a1.42,1.42,0,0,0-1,.41,1.75,1.75,0,0,1-.23.16,2.05,2.05,0,0,0-1,1l-.06,0a1.7,1.7,0,0,1-.27-.26l-.06-.1a1.14,1.14,0,0,0-.26-.36.81.81,0,0,1-.28-.78A1.55,1.55,0,0,0,51.4,78.31Zm1.84-5.61a1,1,0,0,0,.66-.22c.13-.1.26-.2.38-.31l.25-.21.11-.09s.08-.09.05-.08a2.41,2.41,0,0,0,1.26-.52,3.26,3.26,0,0,1,.43-.26L56.5,71l.07-.13s.07-.07.36-.11a.83.83,0,0,0,.73-.75l.1,0a10.52,10.52,0,0,0,2.1-1.28,1.4,1.4,0,0,0,.16-.23,1.22,1.22,0,0,0,.49-.15l.26-.15c.16-.1.32-.2.49-.28l.79-.41-.06,0a2,2,0,0,0-.27.27.6.6,0,0,0-.08.67,6.07,6.07,0,0,0-.81.53l-.16.12-.15.14a1.37,1.37,0,0,0-.56.17l-.07-.17-.46.19a.64.64,0,0,0-.42.28l-.09.16a2.73,2.73,0,0,1-.51.71c-.07.06-.11.08-.11.09a1.09,1.09,0,0,0-1.27.46l-.08.1c-.2.25-.27.3-.37.29l-.2,0-.16.13-.25.2a4.66,4.66,0,0,0-.63.54,1.27,1.27,0,0,1-.74.47,2.72,2.72,0,0,0-1.31.69,4.88,4.88,0,0,1-.4.3l-.17.12a.81.81,0,0,1-.4.2,2,2,0,0,0-1,.54c0-.17,0-.34,0-.52a1.27,1.27,0,0,1,.29-.15,2.37,2.37,0,0,0,.79-.51,1.5,1.5,0,0,1,.52-.35A.57.57,0,0,0,53.23,72.7Zm1.82,11.24,0,0a.13.13,0,0,1,.11-.06h0l0,0Zm3.94,0-.13.1a2.65,2.65,0,0,0-.39.34.85.85,0,0,0-.21.85.76.76,0,0,0,.07.14l-.06.05-.42.37a2.62,2.62,0,0,1-1.26.47,2,2,0,0,0-1,.47,4.21,4.21,0,0,1-.49.36,3.79,3.79,0,0,0-.81.67h0a.85.85,0,0,0-.79.08.68.68,0,0,0-.27.57c0,.14,0,.19-.08.23l0-.28,0-.18c0-.15,0-.31,0-.46a4.09,4.09,0,0,1,.14-.9l0-.1a.69.69,0,0,0,.26,0l.21,0,.12-.15a.7.7,0,0,1,.41-.25,1.2,1.2,0,0,0,.59-.52A1.37,1.37,0,0,0,56,85.28c.32-.32.67-.6,1-.9l.25-.24a1.32,1.32,0,0,0,1.17-.54s.05-.07.2-.08a2.11,2.11,0,0,0,.47-.1l.25-.08h0a.59.59,0,0,1,0,.26,1.5,1.5,0,0,1-.23.18Zm-5.72,1.24V85s0-.06,0-.08l.17,0Zm5.08,7.12.19.3a1.28,1.28,0,0,0-.76.07.58.58,0,0,0-.35-.26.68.68,0,0,0-.63.21.44.44,0,0,0-.12.16.65.65,0,0,0-.37.3c-.24,0-.57,0-.79.53l-.15.09-.12.07a1.11,1.11,0,0,0-.9,1,1.16,1.16,0,0,0-.56,0l-.09,0v-.26a1.42,1.42,0,0,0,0-.3.55.55,0,0,1,.32-.62,4.88,4.88,0,0,0,.78-.55,3.24,3.24,0,0,1,.81-.54,1.69,1.69,0,0,0,1-.83h0a1.09,1.09,0,0,0,.73-.56.84.84,0,0,0,.62-.09l.5-.26.07,0a2.78,2.78,0,0,0-.21.85c0,.09,0,.19,0,.28A.62.62,0,0,0,58.36,92.26Zm.65.21v0c0,.08,0,.13,0,.18l-.13,0-.17-.05Zm-4.82,7.75a.78.78,0,0,0,.61,0,2.79,2.79,0,0,0,.65-.31l.7-.47.55-.37.08.68h0l-.28.14,0,0-.07,0a.54.54,0,0,0-.44-.07.53.53,0,0,0-.37.55c0,.11,0,.17-.28.32a1.83,1.83,0,0,0-.61.49.37.37,0,0,1-.19.14,1.55,1.55,0,0,0-.7.49,1.76,1.76,0,0,1-.92.53l-.19.07a3.18,3.18,0,0,1,.14-1l.16-.16.37-.35C53.66,100.74,53.93,100.49,54.18,100.22ZM57.73,99a1.63,1.63,0,0,0-.58.31L56.81,99l.12-.08a4.85,4.85,0,0,1,.79-.41A.66.66,0,0,0,57.73,99Zm5.76-32.4h0l.09-.05,0,0Zm-.94.62h0a.85.85,0,0,0-.29.05l.42-.24A1,1,0,0,0,62.56,67.26Zm-9.09,37.88a2.16,2.16,0,0,1,.78-.49l.35-.17.23-.14c-.06.11-.12.21-.17.33a1,1,0,0,0-.07.36l-.19-.1-.21.06a.62.62,0,0,0-.43.32c-.1.22-.2.45-.28.68a.64.64,0,0,1-.27.34l-.05-.22a3.1,3.1,0,0,1-.12-.77A.59.59,0,0,0,53.47,105.13ZM56.84,104a.5.5,0,0,0,.17-.26l.15,0,.18,0a.52.52,0,0,0,.17-.07,1.12,1.12,0,0,0-.09.39c0,.2-.07.32-.44.5l-.12.06a2.51,2.51,0,0,0-.94.66h0A2.77,2.77,0,0,1,56.84,104Zm1.37-7.86H58.1a1.83,1.83,0,0,0-1,.53,1.15,1.15,0,0,1-.39.25.64.64,0,0,0-.13-.51l0-.05.12,0,.1,0a2.38,2.38,0,0,0,.34-.1.65.65,0,0,0,.36-.63l.05,0a.69.69,0,0,0,.85-.27.45.45,0,0,0,.49,0,2.25,2.25,0,0,0,.09.49l-.13.09a1.37,1.37,0,0,1-.26.17A1.28,1.28,0,0,1,58.21,96.11Zm.35-8c-.36.19-.73.36-1.1.54s-.71.33-1.05.51l-.1,0a3.08,3.08,0,0,0-.86.58,2.78,2.78,0,0,1-.69.5,3.29,3.29,0,0,0-.82.63,2,2,0,0,1-.32.24l-.28.19-.09.08-.06-.14a3,3,0,0,1-.09-.36l0-.08v0a.74.74,0,0,1,.12-.24,2.41,2.41,0,0,1,.71-.65,1.77,1.77,0,0,0,.46-.37,1.38,1.38,0,0,1,.2-.18c.4-.28.82-.54,1.24-.78a1.06,1.06,0,0,0,.34-.31.6.6,0,0,0,.73,0,3.08,3.08,0,0,0,.44-.4.7.7,0,0,1,.5-.28h0a1.64,1.64,0,0,0,.86-.26,1.63,1.63,0,0,1,.27-.13,2.58,2.58,0,0,0,.44-.19,2.28,2.28,0,0,1-.14.34A1.71,1.71,0,0,1,58.56,88.09ZM69.32,74.85l-.26.08a4.58,4.58,0,0,0-.71.26,1.82,1.82,0,0,1,.66-.44l.16-.09Zm-5.47,5.21.24-.11a2.47,2.47,0,0,0,1-.64h0l.23-.06a.72.72,0,0,0,.44-.27,1.26,1.26,0,0,1,.63-.39l.39-.17L68,77.75l0,0-.12.1a2.25,2.25,0,0,0-.72.77l-.09.05a1.53,1.53,0,0,0-.24.16,1.47,1.47,0,0,0-.43.63.83.83,0,0,0-.91.18,10.76,10.76,0,0,1-1.33.93.93.93,0,0,1-.43.14c-.37,0-.75,0-1.12,0C63,80.5,63.42,80.28,63.85,80.06Zm4.89-.86L69,79l.19-.15.26-.2A3.66,3.66,0,0,1,70.58,78a1.55,1.55,0,0,0,.63-.42v.28a2.44,2.44,0,0,1,0,.36c-.05.31-.14.36-.3.4a8.62,8.62,0,0,0-.91.26c-.24.08-.48.16-.72.22Zm.92-4.5v-.12l.15,0ZM69.32,73l-.15.1,0,0L69.3,73h0Zm-.45.34a.75.75,0,0,0-.5.22,4.53,4.53,0,0,1-.92.7,1,1,0,0,0-.28.23l-.05,0,0,.17A.92.92,0,0,0,67,75l-.28.06a.65.65,0,0,0-.4.44l-.19.48.41.16-.6.3-2.13,1.07-.07-.06a.62.62,0,0,0-.36-.16l-.46-.06-.12.44a.79.79,0,0,0,0,.23,3.28,3.28,0,0,0-1.41.95c-.06.09-.1.13-.3.14a.73.73,0,0,0-.62.32.64.64,0,0,0-.08.19,1.19,1.19,0,0,0-1.15.74l0,.08a.87.87,0,0,0-.6.3c-.22.1-.45.17-.68.25l-.62.22-.2.08a2.68,2.68,0,0,0-1,.58,1.67,1.67,0,0,1-.57.27l-.44.16c-.25.09-.51.18-.76.29a1.25,1.25,0,0,0-.2-.74.46.46,0,0,1,.12-.08,3.92,3.92,0,0,1,.65-.29,1.12,1.12,0,0,0,.48-.27.63.63,0,0,0,.47-.06,1.35,1.35,0,0,0,.22-.14,3.75,3.75,0,0,0,.3-.28c.21-.21.33-.33.51-.35l.22,0,.12-.19a1.08,1.08,0,0,1,.48-.35,3.15,3.15,0,0,0,.45-.26,1.34,1.34,0,0,1,.33-.14,1.56,1.56,0,0,0,.81-.5.62.62,0,0,1,.26-.14,1.31,1.31,0,0,0,.62-.4l.16-.06.23-.08.12,0a1.31,1.31,0,0,0,.45-.24A6.37,6.37,0,0,1,62.2,77l.57-.33.73-.47c.47-.3.91-.59,1.38-.84s.65-.37,1-.57.66-.41,1-.59l.56-.28,1.42-.72.1,0Zm-3.42-6.74a3.78,3.78,0,0,0-.47.14h0a.54.54,0,0,1,.14-.1.74.74,0,0,0,.69-.61l.53-.21a1,1,0,0,0,.1.26,2.81,2.81,0,0,0-.38.24,1.43,1.43,0,0,1-.33.2Zm-6.57-.09.21-.13.83-.5.24-.17a1.14,1.14,0,0,1,.25-.16,1,1,0,0,0,.64-.54h.07a.63.63,0,0,0,.49-.21,1.85,1.85,0,0,1,1-.6A1.33,1.33,0,0,0,63,64.1v.05l-.12,0a1.08,1.08,0,0,0-.53.32.67.67,0,0,1-.26.2,4.8,4.8,0,0,0-1.18.63l-.31.2c-.36.23-.7.48-1,.74a8.7,8.7,0,0,1-1.58,1l-.14.08.07-.05a1.5,1.5,0,0,0,.54-.67A.82.82,0,0,0,58.89,66.54Zm-1.21,1a4.19,4.19,0,0,1-1.47,1,8.85,8.85,0,0,1,.83-.57l.55-.35.23-.15ZM55.06,69s.07-.06,0-.06a1.17,1.17,0,0,0,.39,0,6.77,6.77,0,0,0-.59.55l-.2.21-.06.06-.18-.08L53.9,70l-.22.14a4.52,4.52,0,0,0,.83-.9A1.06,1.06,0,0,0,55.06,69ZM68.15,105.7a1.33,1.33,0,0,0-.28.12l0,0,0-.06-.05-.15a1.56,1.56,0,0,1-.13-.48v0A.81.81,0,0,0,68,105l.1.28.13.34,0,.06Zm1.5-9.24h0l.21-.21,0,.1Zm.53-22-.26-.34L70,74l.22-.12a3.45,3.45,0,0,1,.11.43Zm-7-13.31a.91.91,0,0,0-.54.19l0-.06c.1-.22.26-.29.61-.35A.81.81,0,0,0,63.19,61.13Zm-.74.5c0,.07,0,.09-.29.16l-.13,0h0l.11-.07a1.78,1.78,0,0,0,.33-.24ZM60.28,48.87l-.16.36-.06.12v.13c0,.14,0,.15-.41.27a3.23,3.23,0,0,0-.83.39,2.46,2.46,0,0,1-.41.18l-.26.1a3.39,3.39,0,0,1,.79-.84,3,3,0,0,0,.73-.91.92.92,0,0,0,.08-.71,1,1,0,0,0-.5-.6,1.64,1.64,0,0,0-.77-.21,1.33,1.33,0,0,0-.47.09l-.27.1a.89.89,0,0,0,.34-.34,2,2,0,0,0,.27-1h0l.4-.38a4.36,4.36,0,0,0,.47-.49.85.85,0,0,0,.84-.23,6,6,0,0,1,1.11-.86c.2-.13.4-.26.6-.41l.15-.1a1.72,1.72,0,0,0,.64-.63.89.89,0,0,0,.55-.16l.06.11a.51.51,0,0,1,0,.64,6.67,6.67,0,0,0-.74,1.66,1.9,1.9,0,0,1-.31.64,6.45,6.45,0,0,0-.87,1.36,8.32,8.32,0,0,1-.48.84A5.14,5.14,0,0,0,60.28,48.87Zm-.74-9a8.15,8.15,0,0,1,1.25-1.68,3.53,3.53,0,0,1,.84-.65,5.33,5.33,0,0,0,.74-.49,5.57,5.57,0,0,1,.52-.36c.49-.29,1-.57,1.79-.94a.22.22,0,0,1,0,.1.58.58,0,0,1,0,.09.82.82,0,0,0,.16.7.66.66,0,0,0,.25.17v0h0v.68c0,.12,0,.24,0,.39h0a4.32,4.32,0,0,0-1.9.38l-.54.26a15.9,15.9,0,0,0-3,1.73l-.34.26-.23.17c.15-.21.27-.42.39-.62Zm-6.09,9.76a3.65,3.65,0,0,1,.16-.9c0-.13.07-.26.1-.39a3.5,3.5,0,0,1,.67-1.22,1,1,0,0,0,.32.07,4.32,4.32,0,0,0-.95,1.76A2.51,2.51,0,0,1,53.45,49.62Zm-6.12,10.5c.15-.15.31-.31.47-.45l.32-.25a3.52,3.52,0,0,0,1-1,1.34,1.34,0,0,1,.29-.15l.1,0A7.73,7.73,0,0,0,51.39,57a1,1,0,0,0,.7.24,1,1,0,0,0-.36.28A8.43,8.43,0,0,1,49.53,59l.22.4h0l-.36-.33a5.84,5.84,0,0,0-1.78,1.3,1.55,1.55,0,0,1-.19.18l-.11-.41ZM50.6,86.47a1,1,0,0,0,.15-.37c0-.19.08-.38.12-.57A4.21,4.21,0,0,0,51,84.16a1,1,0,0,1,0-.24,7.45,7.45,0,0,0,.3-1,1.83,1.83,0,0,1,0,.2,1.37,1.37,0,0,1,0,.23,1.39,1.39,0,0,0,0,.68.72.72,0,0,1-.05.37,2.52,2.52,0,0,0-.08.33c0,.07,0,.14,0,.21a1.34,1.34,0,0,0,.08,1.08l0,.08a8.94,8.94,0,0,0-.37,1.8l-.06-.31c-.05-.26-.1-.52-.16-.78a.54.54,0,0,0-.07-.17A.92.92,0,0,0,50.6,86.47Zm2,23.46a2,2,0,0,1,.84-.76l0,0-.1.07a.86.86,0,0,0-.49.79l0,0-.43.44-.13,0A6,6,0,0,1,52.65,109.93Zm-.88-64.26-.1,0,.14-.21A.78.78,0,0,0,51.76,45.67Zm8.75,17a1,1,0,0,0,.43-.26l0,0h0l-.1.1a1.63,1.63,0,0,1-.26.21l-.24.18-.12.11s-.07.07-.06.08L60,63A1.55,1.55,0,0,0,60.51,62.66ZM50.2,114.39l0,0H50l.23-.06ZM61.37,89.63h0Zm12.74,43.49.29-.07a.46.46,0,0,1,0,.08Zm-3.76-29.27c0,.09,0,.19,0,.28a.87.87,0,0,0-.32.44.7.7,0,0,0-.5.08h-.06v-.23c0-.35.08-.54.54-.8A1,1,0,0,0,70.36,103.84ZM72.89,77.1c-.05-.19-.1-.39-.16-.64,0-.08.1-.19.06-.24a.91.91,0,0,1,.08.2,2,2,0,0,1,.11.47,4.33,4.33,0,0,1,0,.6ZM52.43,44.82a1.2,1.2,0,0,1-.08.15.62.62,0,0,0-.4.2l.21-.39a6.48,6.48,0,0,1,.4-.69h0l0,.05a1,1,0,0,1,.12.25A1.36,1.36,0,0,0,52.43,44.82Zm20.75,73.39a.94.94,0,0,0,.19-.12l.17-.16a1.08,1.08,0,0,1,.15-.13l.12-.07s0,.1,0,.14,0,.26,0,.39a4.66,4.66,0,0,0,0,.55h-.64v0A.77.77,0,0,0,73.18,118.21Zm-6.41-93.3-.82.29.45-.53,0,0ZM64,27.81a.82.82,0,0,0,.26,0l.23-.07a2.32,2.32,0,0,0,1-.51,2.66,2.66,0,0,1,.58-.36l.18-.09.74-.39a1.13,1.13,0,0,0-.08.46,1.48,1.48,0,0,1-.16.58c-.29.73-.59,1.54-.92,2.47a3.19,3.19,0,0,0-.12.53,2.4,2.4,0,0,1-.07.36l0,0-.11-.05a2.18,2.18,0,0,0-.75-.15,5,5,0,0,1-1.51-.18,5.1,5.1,0,0,0,.38-1.13,5.3,5.3,0,0,1,.24-.79,1.26,1.26,0,0,0,.11-.65ZM43.92,44.34h0Zm5.74,75.76a1.16,1.16,0,0,0-.39.19c.05-.19.1-.39.15-.59a.54.54,0,0,1,.32-.38l.38-.21-.06.07a1.32,1.32,0,0,0-.08,1A.5.5,0,0,0,49.66,120.1Zm-1.55,21.7h0Zm25.52-26.46.11.12.07.08,0,.06a1.76,1.76,0,0,0-.36.93l.45.1h-.51l-.28.08-.59.18a.6.6,0,0,0-.39.41.73.73,0,0,0,.14.66l0,0h0a8.84,8.84,0,0,0-.73.51h0a.27.27,0,0,1-.19-.2l0-.17a9.49,9.49,0,0,1-.33-1.53.59.59,0,0,0,.26,0l.17,0a1.66,1.66,0,0,0,.83-.42,2.13,2.13,0,0,1,1-.65.7.7,0,0,0,.34-.19Zm-4.9-15-.37-.22h0l.45.14A.29.29,0,0,1,68.73,100.36ZM63.11,49.68h0ZM48,34.35l.27-.35a.59.59,0,0,0,.09-.44l.77,1,.38.52-.06,0c-.05,0-.11,0-.29,0a1.61,1.61,0,0,0-.49-.09h0c-.13,0-.18,0-.37-.28l-.12-.16a.66.66,0,0,0-.22-.17ZM42.37,51l.31.34h0l-.36-.26A.34.34,0,0,1,42.37,51Zm7,72.52a.7.7,0,0,0-.23,0,.68.68,0,0,0-.32.08.82.82,0,0,1-.41.07.8.8,0,0,0,0-.58,1.13,1.13,0,0,0,.63-.74c0-.09,0-.13.2-.32a.49.49,0,0,0,.08-.16l.08,0h.05a.6.6,0,0,0,.45-.33l.08-.11c.09-.13.19-.26.27-.39a.6.6,0,0,0,.07-.4h.06l.19,0h.06a5.28,5.28,0,0,1-.24.83c-.05.14-.1.28-.15.42l-.09.26a4.39,4.39,0,0,0-.31,1.44,1.1,1.1,0,0,1,0,.32A.85.85,0,0,0,49.41,123.55Zm14.22,22Z"/><path class="cls-1" d="M74.25,106.34v.18c0,.27,0,.54,0,.81a.54.54,0,0,0,.24.42l.36.38.45-.58,0-.15c0-.1,0-.2,0-.31v-.28a2.94,2.94,0,0,0,0-.32.55.55,0,0,0-.24-.36l-.36-.38Z"/></svg>