<?xml version="1.0" encoding="utf-8"?>
<!-- Generator: Adobe Illustrator 21.0.0, SVG Export Plug-In . SVG Version: 6.00 Build 0)  -->
<svg version="1.1" id="_ÎÓÈ_1" xmlns="http://www.w3.org/2000/svg" xmlns:xlink="http://www.w3.org/1999/xlink" x="0px" y="0px"
	 viewBox="0 0 150 150" style="enable-background:new 0 0 150 150;" xml:space="preserve">
<title>LUNOMarquetteArtboard 7</title>
<path d="M47.1,50.9V51l0.5,0.9c0.2,1,1.4,0.8,2,0.9l1.8,0.2c2.2,0.5,3.8,0.9,5.3,1.2c0.8,0.2,1.5,0.4,2.3,0.7l0,0
	c2.1,0.8,4.2,1.8,6.1,3c0,0,0.1,0.1,0.1,0.1l-0.4-0.2l0.6,0.7l0.2-0.1c0.6,0.4,1.3,0.9,1.9,1.3c0.6,0.4,1.2,0.9,1.7,1.4
	c0.9,0.5,1.8,1.1,2.7,1.7c1.2,1,2.4,2.1,3.5,3.3l0.2-0.3l0,0c0,0,0-0.1,0-0.1l0.3-0.4c-0.2,0.3-0.3,0.5-0.4,0.7
	c1.6-2,3.1-3.8,4.7-5.5c0.8-0.8,1.6-1.6,2.3-2.3c0.4-0.3,0.8-0.7,1.2-1l0.6-0.4l0.8-0.5l-0.6,0.5l-0.4,0.3l-0.7,0.6
	c-0.4,0.4-0.7,0.7-1,1c-0.6,0.6-1.1,1.2-1.9,2.2c0.3-0.3,0.7-0.6,1-0.9c-0.3,0.3-0.5,0.6-0.7,0.9c0.5-0.3-0.5,0.8-0.3,0.8
	c0.5-0.5,0.9-1,1.4-1.5l1.5-1.5c-1.7,1.5-0.7,0.4-0.3-0.2s1.1-1,1.6-1.4c-0.4,0.3-1.4,1.1-0.3,0l1.3-0.9l-0.4-1.2l-0.3-0.9
	c0.2,0.3,0.3,0.5,0.4,0.8l0.6,1.3l-0.6-1.5L84.9,54l-0.6-1.7c-0.4-1.2-0.9-2.3-1.6-3.4l-0.2-0.8c-0.4-0.7-0.9-1.5-1.3-2.2l0.2,0.2
	c-0.5-0.9-1.1-1.7-1.8-2.6c-0.4-0.6-1-1.2-1.6-1.6c-0.8-1-1.8-1.8-2.1-2.2c0.4,0.3,0.8,0.6,1.2,1c-0.3-0.4-0.6-0.7-0.9-1
	c0.6,0.7-0.9-0.8-1.2-0.9c-2.3-2-1.7-1.4-3.2-2.7c-1.7-1-3.4-2.5-3.6-2.5c-1.3-1.1-2.6-2.3-3.8-3.6c-1.1-1.3-2.1-2.7-2.8-4.2
	c-0.3-0.4-0.6-0.9-0.9-1.3c-0.3-0.5-0.6-0.9-0.9-1.3l-0.5-0.5c-0.2-0.2-0.5-0.4-0.8-0.6c-0.3-0.2-0.7-0.3-1-0.3
	c-0.6-1-1.5-1.9-2.6-2.4c-8.6-3.9-7.4,9.5-6.8,13.8c0.1,1,0.8,1.8,1.7,2.1l0.4,0.7c0.7,1.4,1.7,2.6,2.7,3.8c0.6,0.6,1.3,1.2,2,1.7
	c0.7,0.6,1.4,1.2,2.1,1.9H57c-0.6-0.2-1.1-0.5-1.7-0.8L52.1,40v0.1c-0.2-0.2-0.5-0.3-0.8-0.4c-0.2-0.1-0.5-0.2-0.7-0.2
	c-0.5-0.1-0.9,0-1.4,0.1c-0.3,0.1-0.5,0.2-0.8,0.4L48,40.2l-0.4,0.4c-0.2,0.3-0.4,0.5-0.6,0.8c-0.7-0.2-1.4-0.3-2.1-0.3
	c-1.7,0-3,1.3-3,3C42.2,47.2,44.2,49.8,47.1,50.9z"/>
<path d="M124.5,29.5c-0.5,0.2-1,0.4-1.5,0.5l0.4,0.8c0.6,1,1.2,2,1.7,3.1c0,0,0,0,0-0.1c1.1,2.4,1.3,2.1,2.1,4.1
	c-0.6-1.6-1.3-3.1-2.1-4.6c-0.3-0.5-0.7-1.1-1.1-1.5c-0.4-0.5-0.7-1.1-1-1.7c0,0,0,0,0,0C123.6,29.9,124,29.7,124.5,29.5z"/>
<path d="M129.4,44.8l-0.4-1.2C129.1,44,129.2,44.4,129.4,44.8C129.4,44.8,129.4,44.8,129.4,44.8z"/>
<path d="M126.3,37l-0.2-0.6l-0.1-0.1c0.3,0.8,0.8,2.4,1,3.1l0,0v-0.1C126.8,38.5,126.6,37.7,126.3,37z"/>
<path d="M125.3,21.5l0.3-0.1l0.4-0.1c0.3-0.1,0.7-0.2,1-0.3c0.2,0.3,0.4,0.6,0.5,1c0.1,0.2,0.2,0.4,0.2,0.5l0.2,0.4l-0.1-0.3
	c0.3,0.8,0.5,1.7,0.5,2.5c0,0.8-0.1,1.6-0.4,2.3c-0.3,0.7-0.8,1.3-1.4,1.8c0.3-0.2,0.6-0.3,0.8-0.5c1-0.6,1.7-1.5,2.2-2.6
	c0.4-1.1,0.5-2.2,0.3-3.3c-0.1-0.5-0.2-1.1-0.4-1.6c-0.2-0.6-0.4-1.1-0.6-1.6c-0.9,0.2-1.9,0.6-2.7,1c-0.7,0.4-1.4,0.8-2,1.4
	c0.2-0.1,0.4-0.2,0.7-0.4L125.3,21.5z"/>
<path d="M122.8,23l0.1-0.1c0.2-0.2,0.5-0.4,0.7-0.6c0.3-0.4,0.6-0.7,1-1c0.6-0.5,1.3-0.9,2.1-1.2c0.7-0.3,1.5-0.6,2.3-0.8
	c0.3,0.5,0.5,1.1,0.7,1.7c0.2,0.5,0.3,0.9,0.4,1.4c0.2,1,0.2,2,0.1,3c-0.2,1.2-0.8,2.2-1.7,3c-0.5,0.5-1,0.9-1.6,1.2
	c-0.3,0.2-0.7,0.3-1,0.5c-0.2,0.1-0.4,0.2-0.6,0.2l0.4-0.1l0.2-0.1l0.3-0.1c0.5-0.2,0.9-0.4,1.3-0.7c0.9-0.5,1.7-1.3,2.2-2.2
	c-0.9,1.4-2.2,2.6-3.8,3.2c0.7-0.3,0.7-0.2,0.3,0l-0.3,0.1l-0.1,0.1l-0.2,0.1c0.2,0.3,0.3,0.4,0.3,0.3c0-0.1-0.1-0.1-0.1-0.2h0.2
	h0.1l0.2-0.1c0.6-0.2,1.1-0.5,1.6-0.9c1.1-0.7,2-1.7,2.5-2.9c0.5-1.2,0.6-2.5,0.4-3.8c-0.1-0.6-0.2-1.2-0.4-1.8
	c-0.1-0.2-0.1-0.2-0.2-0.5s-0.2-0.5-0.3-0.7c-0.2-0.5-0.4-0.9-0.6-1.3c-0.5,0.1-1.1,0.2-1.6,0.4l-0.4,0.1l-0.3,0.1l-0.5,0.2l0.6-0.2
	c0.3-0.1,0.6-0.2,0.9-0.3c0.5-0.2,1-0.2,1.4-0.3c0.2,0.5,0.4,0.9,0.6,1.3c0.1,0.3,0.3,0.7,0.4,1c0.1,0.3,0.2,0.7,0.2,1
	c0.1,0.5,0.1,0.5,0,0.4s-0.2-0.6-0.3-1.1L130,21c-0.1-0.2-0.2-0.4-0.3-0.6c-0.2-0.4-0.4-0.8-0.6-1.2c-0.4,0.1-0.8,0.2-1.2,0.3
	l-0.5,0.2l-0.4,0.2c-1.5,0.5-2.8,1.4-3.8,2.6c-0.2,0.3-0.5,0.6-0.7,1l0.1-0.1L122.8,23z"/>
<path d="M137.7,52.4c-0.1-2.3-2.9-2.7-5.1-2.9c-0.2-0.8-0.5-1.8-0.7-2.6c-0.6-2-1.3-4-2.1-6c-0.4-1-0.8-1.9-1.2-2.9l-1.3-2.8
	c-0.5-0.9-1-1.8-1.5-2.7l-0.7-1.3l-0.3-0.6l-0.1-0.2h-0.1l0,0c0,0,0,0.1,0,0.1l0,0l0.6,1c0.4,0.7,0.8,1.4,1.1,2
	c0.7,1.4,1.3,2.8,1.8,4.3c0.6,1.1,1.1,2.3,1.4,3.6c0.4,1.6,1.8,4.7,2.5,7.2l-2.7-0.9c-0.4-2-1.6-6.5-2.1-8.3
	c0.1,0.6,0.3,1.2,0.4,1.8c-0.3-0.8-0.4-1.7-0.8-2.5c-0.2-0.6-0.3-1.2-0.6-1.8c-0.2-0.7-0.5-1.3-0.7-1.9l-0.1-0.3l-0.1-0.5l0.1,0.3
	c0,0,0-0.1,0-0.1c-0.6-1.5-2.2-2.7-2.9-4.1c-0.2,0.3-0.4,0.6-0.7,0.8c-0.2,0.2-0.4,0.4-0.6,0.6c-0.4,0.4-0.9,0.7-1.4,1
	c-1.3,0.6-2.8,0.5-4.1-0.2c-0.3-0.1-0.7-0.3-1-0.5c-0.4-0.2-0.8-0.5-1.1-0.9c0.2-0.4,0.5-0.8,0.8-1.2c0.2-0.3,0.5-0.6,0.8-0.8
	c0.4-0.4,0.8-0.7,1.3-1c0.7-0.5,1.5-0.7,2.4-0.8c0.6,0,1.2,0.1,1.7,0.4l-0.4-0.2l0.2,0.1l0.2,0.1c0.1,0,0.2,0.1,0.1,0l-0.2-0.3
	l-0.3-0.5l-0.2-0.4c-0.1-0.1-0.2-0.3-0.2-0.4h-0.6h-0.6c-0.5,0-1,0-1.4-0.1l0.1,0.1c-0.6-0.2-1.2-0.4-1.7-0.8
	c-0.5-0.4-1-0.8-1.3-1.4c-0.3-0.4-0.6-0.9-0.9-1.4c-0.2-0.3-0.3-0.7-0.3-1.1c-0.1-0.3-0.1-0.6-0.1-0.9v-0.4c0-0.1,0-0.3,0-0.4
	c0-0.3,0.1-0.6,0.1-1h0.2c0.5-0.1,0.9-0.1,1.4-0.1c0.3,0,0.6,0,0.8,0c0.4,0,0.8,0.1,1.2,0.2c0.8,0.2,1.6,0.5,2.3,1
	c0.4,0.3,0.6,0.7,0.9,1.1c-0.2-0.3-0.5-0.6-0.8-0.8c0.6,0.7,1.1,1.5,1.3,2.4c0.2,0.9,0.3,1.8,0.3,2.7l0,0h0.1l0.1,0.1l0.2,0.1
	c0.1,0,0.1,0.1,0.2,0.2c0.1,0.2,0-0.1,0-0.2c0-0.1,0-0.1,0-0.2c0-0.1,0-0.2,0.1-0.2c0,0,0.1-0.3,0.1-0.4v-0.1c0-0.1,0.1-0.2,0.1-0.2
	l0,0l-0.2-0.2c0-0.3,0-0.5,0-0.8c0-0.2,0-0.4,0-0.6c-0.1-0.7-0.2-1.3-0.3-1.9c-0.3-1.2-1-2.2-1.9-3c-1-0.8-2.1-1.3-3.3-1.6
	c-0.3-0.1-0.5-0.1-0.8-0.1c-1.2-2.1-4.9-2.1-5.5,0.6c-1,4.7,1.8,8.4,5.6,10.6c-0.4,0.3-0.7,0.6-1,0.9h-0.1c0.1-0.1,0.2-0.2,0.3-0.4
	c-0.2,0.1-0.3,0.3-0.4,0.4c-0.7,0.3-1.4,0.4-2.1,0.4c-2.5,0-4,3.3-2.1,5.1c2.6,2.5,6.6,3.1,9.8,1.4c0.6-0.1,1.1-0.3,1.6-0.5
	c0.8-0.4,1.6-1,2.2-1.6c0,0,0,0,0-0.1c0.1,0,0-0.2,0.4,0.6l0.7,1.2c0.5,1.1,0.9,2.2,1.3,3.3s0.8,2.1,1.1,3.1
	c0.3,0.9,0.5,1.7,0.7,2.6l0.4,1.9c-0.4-1.8-1-3.6-1.6-5.4c0.2,0.8,0.6,1.6,0.7,2.5l0.6,2.5c-0.3-1.5-0.2-1,0.1,0.2l0.5,2l0.1,0.3
	h-0.1H128l-1-0.2c-0.6-0.1-1.2-0.2-1.7-0.3c-1.1-0.2-1.9-0.3-2.7-0.4c-1.5-0.2-2.4-0.3-3.2-0.3c-2.1-0.2-4.3-0.2-6.4-0.1
	c-2,0.1-4,0.4-6.1,0.8c-1,0.2-2,0.4-2.9,0.6s-1.8,0.5-2.7,0.7c-2,0.6-3.9,1.4-5.8,2.4c-1.6,0.8-3.2,1.7-4.8,2.7
	c-0.8,0.5-1.5,1-2.3,1.5l-1.1,0.8l-0.6,0.4l-0.3,0.2l0,0l-0.2,0.1c-1.6,1-3,2.2-4.4,3.5c-1.3,1.3-2.5,2.7-3.7,4.1
	c-0.6,0.7-1.2,1.4-1.7,2.2l-0.8,1.1l-0.4,0.5c0,0,0,0-0.1,0l0,0L75.3,68l-0.2-0.3c-0.2-0.2-0.3-0.3-0.5-0.5l-0.9-1
	c-2.5-2.5-5.3-4.7-8.3-6.6c-0.9-0.5-1.8-1-2.6-1.5s-1.8-0.9-2.7-1.3c-3.3-1.5-6.8-2.6-10.4-3.1l-2.4-0.2h-2.3c-1.5,0-2.9,0.1-4.3,0
	c-1.4,0-2.8-0.1-4.3-0.3c-1.5-0.2-2.9-0.5-4.3-1.1c-0.7-0.3-1.4-0.6-2.2-1c-0.9-0.4-1.8-0.8-2.7-1l-0.4-0.1l0,0l-1.3-0.7
	c-0.4-0.7-1-1.3-1.5-1.9c-1-1-2.6-1.8-3.9-1.2c-1.8,0.1-3.4,1.3-4,3c-0.3,0.8-0.4,1.7-0.2,2.6c-0.1,0.5-0.2,1-0.2,1.5
	c0,2.5,1.6,4.7,3.9,5.7c0.9,1,1.9,1.8,3,2.6c0.2,0.4,0.3,0.7,0.5,1.1c0.6,1.1,1.4,2,2.4,2.7c0.4,0.3,0.9,0.6,1.4,0.8
	c0.4,0.2,0.9,0.4,1.3,0.6c1.1,0.4,2.1,0.7,3.2,1h-0.7c-2.1-0.2-4.2-0.5-6.3-0.8c-5.6-1.1-8,7.6-2.4,8.6l1.7,0.3
	c-1.5,1.5-1.4,4.4,1.2,4.9c3.6,0.8,7.2,1.1,10.8,0.9c1.2,0.3,2.3,0.6,3.5,0.7l1.2,0.1h1.1h1.3l1.8,0.1c0.3,0,0.7,0,0.9,0.1
	c-0.2,0.2-0.5,0.3-0.7,0.4c-0.5,0.3-1.1,0.5-1.6,0.7l-0.4,0.1L42,84c-0.5,0.1-1,0.2-1.5,0.2l-3.1,0.3c-0.3,0-0.6,0.1-0.9,0.2
	c-0.3,0.1-0.5,0.2-0.8,0.4c-3.4-1.2-7.6-1.7-8.2,1.6c0,0.2-0.1,0.5,0,0.7c-0.9,0.6-0.4,2.1,0.6,2.5c1,1.1,2.2,1.9,3.6,2.3
	c0.7,0.5,1.5,0.8,2.3,1c0.6,0.2,1.1,0.4,1.7,0.6c1.6,1.6,3.6,2.6,5.8,2.9l1.8,0.3l0.4,0.1c0.1,0,0.4,0,0.2,0.1
	c-0.2,0.1-0.4,0.3-0.6,0.5v0.1l-0.1,0.2c-0.1,0.1-0.1,0.2-0.2,0.3c-0.1,0.2-0.2,0.5-0.3,0.8c0,0.1,0,0.2-0.1,0.4c-1-0.2-2-0.4-3-0.6
	c-1.6-0.4-2.7,1.9-1.2,2.7c2.8,1.4,5.8,2.4,8.9,2.9c0.7,0.2,1.3,0.4,2,0.6c2.2,0.5,4.4,0.6,6.6,0.4c0.2,0,0.5,0,0.7-0.1l0.3-0.1
	l0.4-0.1c0.3-0.1,0.5-0.1,0.8-0.2l0.2-0.1c0,0,0,0.1-0.1,0.1l-0.2,0.3l-0.4,0.5l-0.4,0.5l-0.3,0.3l-0.4,0.4c-0.5,0.6-1,1.1-1.6,1.6
	l-1.1,0.9c-0.4,0.4-0.9,0.7-1.4,1.1c-2.3,1.5-4.7,2.8-7.2,3.8l-0.5,0.2h-0.1l-18.7,1.4c-4.7,0.4-6.4,7.6-1.2,8.8
	c9.8,2.2,19.9,4.3,29.9,2.4c1.7-0.3,3.4-0.8,5-1.4h2.3c1.2,0.1,3.1,0,5.3-0.1c2.5-0.1,5.1-0.4,7.6-0.9c2.7-0.5,5.4-1.2,8.1-2.2
	c2.3-0.9,4.6-2,6.7-3.2c3.5-1.9,6.6-4.4,9.3-7.3c2.3-2.4,4.3-5,6.1-7.8c1.7-2.8,3.2-5.8,4.4-8.8c0.1-0.2,0.2-0.4,0.3-0.7
	c1.1-2.8,1.9-5.7,2.5-8.6c0.4-2.2,0.6-4.3,0.7-6.5c0.6-0.6,0.8-1.3,0.7-2.1c-0.2-2.8-0.5-5.6,1.1-8c1.3-1.6,2.7-3,4.4-4.2
	c2.6-2.2,5.8-4.9,6.9-8.3c1-0.2,2.1-0.5,3.2-0.7c0.1,2.5,0.5,5.1,1.2,7.5c0,0.4,0,0.9,0,1.3h0.4c0.1,0.4,0.2,0.8,0.4,1.2
	c0.5,1.5,3,1.4,2.9-0.4v-0.7h0.2c-0.1-1.4-0.2-2.9-0.4-4.3l-0.1-4.6c0-0.3-0.1-0.6-0.2-0.8C135.8,55.4,137.8,54.5,137.7,52.4z
	 M132.2,65.4c-0.8-2.3-1.4-4.8-1.6-7.2c-0.1-1.2,1.3-1.3,1.4-0.1c0,0.1,0,0.2,0,0.3c0.4-0.1,0.8,0.2,0.9,0.8l0.6,5.8
	C133.7,66.1,132.5,66.3,132.2,65.4L132.2,65.4z"/>
</svg>
