<svg id="_ÎÓÈ_1" data-name="—ÎÓÈ_1" xmlns="http://www.w3.org/2000/svg" viewBox="0 0 150 150"><defs><style>.cls-1{fill:#600;}</style></defs><title>LUNOMarquetteArtboard 6</title><path class="cls-1" d="M55.11,114.15c.3.77-.8,1.1-.39,2,1.35-1.74,3.06-3.32,3.8-5.49-1.32,1.16-2.83,2.67-4.7,2.64C53.91,114.16,54.83,113.43,55.11,114.15Z"/><path class="cls-1" d="M58.75,114a6.79,6.79,0,0,0,2.43-3.42C61,110.27,58.81,113.36,58.75,114Z"/><path class="cls-1" d="M50.76,113.37a4.77,4.77,0,0,0,2.41-3C52.89,110,51,113.1,50.76,113.37Z"/><path class="cls-1" d="M102.44,119.38c-1.12.25-1.36,1.17-1.55,2.19C101.32,120.89,101.93,120.07,102.44,119.38Z"/><path class="cls-1" d="M58.44,122.75c.93-.19,1.18-1,1.29-1.83C59.33,121.39,58.36,121.92,58.44,122.75Z"/><path class="cls-1" d="M60.28,116.83c.18-.42.57-1.09.82-1.54C59.71,115.31,60.33,115.93,60.28,116.83Z"/><path class="cls-1" d="M47.77,111.58a1,1,0,0,0,1-1A1,1,0,0,0,47.77,111.58Z"/><path class="cls-1" d="M63.8,119.86s1.33-1.41,1.38-1.38C64.35,118.46,64,119.11,63.8,119.86Z"/><path class="cls-1" d="M58.22,114.48q-1.24.37-.82.86Q58.65,114.95,58.22,114.48Z"/><path class="cls-1" d="M89.82,126.88c0-.08-.24.25,0,0Z"/><path class="cls-1" d="M67.7,116.94q.69-.28.41-.52Q67.41,116.69,67.7,116.94Z"/><path class="cls-1" d="M56.13,117.33c.05-.39-.06,0,0,0Z"/><path class="cls-1" d="M56.94,115.91q.7-.31.43-.62Q56.62,115.64,56.94,115.91Z"/><path class="cls-1" d="M58.25,114.51l.5-.55A1.36,1.36,0,0,0,58.25,114.51Z"/><path class="cls-1" d="M59.76,120.94q.78-.3.47-.59Q59.44,120.67,59.76,120.94Z"/><path class="cls-1" d="M45.1,77.71c.54-.9,1.31-1.91,2-2.83A3.45,3.45,0,0,0,45.1,77.71Z"/><path class="cls-1" d="M84.35,47.52l1.15-.64C84.49,46.86,84.16,46.88,84.35,47.52Z"/><path class="cls-1" d="M48.76,82.49q.49-.61,1-1.25Z"/><path class="cls-1" d="M50.15,85.56a1.37,1.37,0,0,0-1,.65A3.07,3.07,0,0,0,50.15,85.56Z"/><path class="cls-1" d="M23,89c.27-.15,0-.32,0,0Z"/><path class="cls-1" d="M72.24,114.78c.62-1.06-.86.79,0,0Z"/><path class="cls-1" d="M55.22,74.84c-2,1.32-3.69,4-5.49,6.4C51.74,78.81,54.36,76.28,55.22,74.84Z"/><path class="cls-1" d="M109.74,97.07l1.18,0Z"/><path class="cls-1" d="M130.52,80.08c.12-3.11.31-6.54-.42-9.59,1-6.57-.53-14.07-.66-20.74-.13-6.5-2.78-7.57-8.68-7.16-2.42.17-4.8.5-7.23.59-1.93.07-5.79,1.11-7.64.41-1.54-.58-1.85-2.94-2.75-4.35-1.85-2.91-4.63-5.13-6.83-7.73a6.58,6.58,0,0,0,1.89,5.21c-1.88.85-2.66-.88-4.33-1.11-1.92-.26-3,.87-5-.24l4-.38c-2.84-1.26-6-1.07-8.91-2l2.9-.84L73.68,29.52c2.08-1.59,4.57.59,6.78-.36-5.42-3.52-11.33-.07-16.79,1.31q.05.05-.11,0c.64,0,.33.95.22,1.19a.91.91,0,0,1,1.38.42,28.52,28.52,0,0,0-10.42,6.74c-2.16,2.11-3.09,4.34-6.17,4.1-2.83-.22-2-.48-.27-2.74,2.45-3.19,4.08-7,6.73-10a3.42,3.42,0,0,1-.1,2c6.46-3.31,12.43-7.37,19.91-7.25C82.91,25,89,27,95.92,31.24,84,19.33,64.59,19.9,52.34,30.87c-3.49,3.13-6.1,6.89-8.8,10.73-2.93,4.16-5.23,3.67-9.85,3.44-3.4-.17-6.72.76-10,.76-.87,0-1.31-1.22-1.92-.49-.79.94.67,2.69,1,3.31l-2.13.76c-.69-2.24,1.43-2.87-.92-4.65a159.86,159.86,0,0,0,1.46,35.41c-1.59-3.24,0,3,.23,4.12.41,2,.71,4.07.93,6.12a8.94,8.94,0,0,1,1.62-.85c.1,3.55-.41,6.41.27,9.84.74,3.69.42,7.53.39,11.27,0,2.62-1.3,16.58,3.5,15.47,1.5.9,1.61-.22,2.59-.1.69.08,1.57.46,2.3.6a52.32,52.32,0,0,0,7.46.83c10.67.49,21.52-.86,32.18-1.27,9.76-.37,18.81-.35,28.67-.94,2.07-.12,4.8.45,6.69.21,1-.12,2.89-.81,2.09-2.1.16.25-2.59-.84-2.33-.75-.73-.24.41-2.81-1.39-.2.26-.45.59-1.54,1-1.75.83-.45,1.91-.26,2.91-1.14l-2.49.28c.91-2.16,2-6.49,4.43-7-.35,0-.71-.31-1,.06,1.56-2.8,3.52-5.37,4.83-8.31-2.95,2.59-4.9,6.48-6.7,10-1.47,2.87-2.38,9.17-5.69,10.15.15-2.05,1.53-3.55,2.42-5.28a24.93,24.93,0,0,0-3.57,3.43c2.32-3.54,5.3-8.77,6.14-13-2,2.15-3.09,5.19-4.41,7.8-1.15,2.28-2.08,6.36-4.62,7.05l1.21-2.84a8,8,0,0,1-2.46,1.29c1.2-1.91,2.11-4,3.16-6,.37-.71,2.43-3.69,2.37-3.93-.36-1.6,4.35-7.54,5.43-9.84-4.12,4.18-7,10.06-9.58,15.36-1.06,2.17-1.29,4-3.26,5.1-2.89,1.63-6.91,1.18-10,1.06.81-1,1.37-.79,2.66-.83a10.14,10.14,0,0,0-1.82-.43c1.45-2.33,3.75-4.9,4.29-7.69-1.57,1.17-2.45,3.13-3.48,4.78-1.82,2.92-1.84,4.18-5.29,4.06-3-.1-6,0-9,0-2.33,0-3.19,0-2.47-2.8-.32.35-3,2.57-2.55,1.51-4.53,1.81,1.36-5.25,2.45-6.41-1.08,3.37,3.88-3.09,3.9-2.66,0,1.66-2,2.11-.78,3.89L82,107.4c1.85,2.67-1.78,5.71-2.31,8.18,3-2.08,4.15-5.78,6.44-8.49.37,1.66-1.23,2.84-1,4.49,3-3.77,5.15-8.43,9.19-11.16l-3.45,5.91c2.32-1.34,3-4.47,5.21-6s5.22-1.36,7.8-1.39c6-.06,12.57,1.13,18.54,0,0,4.57.21,9.14.33,13.71,0,1.57.71,4.56.15,5.91s-1.42.81-3.13,1c-.61.08-3,.08-2.51,1.31,1.59-.26,3.2-.38,4.79-.56-1.07.87-1.81,2-3.17,2.33-.36.09-7.86-2.45-7.34,2.36,4.27-1.89,9.86,1.11,14.3-.71,1.72-.71,1.17-.8,1.19-3.62,0-3.39-.67-6.91-.58-10.25,0-1.64.79-3.32.86-5.09A62.49,62.49,0,0,0,126.9,99c-.17-2.88-.73-11.41,1.25-13.33.42-.41,1.56,0,2-.39S130.49,80.9,130.52,80.08Zm-33,44.08s-.56-.38,0,0c0,.15,0-.08.34.28a1.94,1.94,0,0,1-2.2,0A1.73,1.73,0,0,1,97.55,124.16ZM56.86,43.81c1.29-4.39,1.67-4.28,1.05-2.46C64.06,30.41,86.78,29.66,90,43.23c-5.7-.1-12,.15-18.08.52.19-.18-4.06.26-6,.38-3.12.2-6.25.41-9.37.59C66.14,44.18,58.58,40.42,56.86,43.81Zm15.27,2c-.34.59-.52.66-.56.56-.73.44-1.64,0-2.51.15C70.2,45.55,70.63,45.71,72.13,45.84Zm-6.8,1.81a4.89,4.89,0,0,1,3.28-1.86,53.8,53.8,0,0,0-6.83,7.1c.77-1.3,3-6.81,4.08-7a2.08,2.08,0,0,0-.51,1.42A.54.54,0,0,0,65.32,47.64Zm-5-.57a32.7,32.7,0,0,1-3.19,3.17c1.15-2.26,1.32-3,3.63-3.65C60.25,46.75,59.88,47.5,60.35,47.08Zm-3-.42c-.22.56-.41.85-.89.73C56.2,46.69,56.71,46.75,57.33,46.66ZM41.77,44.87c.24.4-.3.79-.55.34ZM31.52,46.31l-.44,0Q31.41,45.94,31.52,46.31Zm-1.22-.06c-.5.14-1.46.72-1.54,0ZM22.85,80.84a20.39,20.39,0,0,1-.15,6.45C22.3,84.6,21.9,83.32,22.85,80.84ZM23,89l-.15-.95a.77.77,0,0,1,1,.55Zm3.2,8c-.83-.27-.63-.68-.18-1.25C26.59,96.24,26.33,96.61,26.16,97Zm.18,3.11-.3.49C25.58,100,26,100.1,26.35,100.11Zm-.26,2s.63-.24.44,5.77C25.05,107.69,25.49,103.1,26.09,102.12Zm.72,14.39c-1.18-.3-1.92-4.15-.87-5.19C27.52,109.75,26.63,115.83,26.8,116.51Zm-.27,8.31c-.5-.18-.48-.52-.31-.93C26.69,124.08,26.93,124.32,26.53,124.82Zm.37-4.8-.39-.17Q27.06,119.4,26.91,120ZM26,117.85c.53-.8.84-.55,1.14.14C26.53,118.69,26.21,118.48,26,117.85Zm-.39-8.39c.55-.88,1-.89,1.65-.49C27,110,26.44,110,25.57,109.45ZM27.41,122c1.1-.07-.15-.56.94-.8C29.12,122.26,28.09,122.08,27.41,122Zm2-26.47a.85.85,0,0,1-.11.42c-.23.65-.82.82-1.54.75a1.32,1.32,0,0,1,0,1.36C26.64,97.13,28.54,95.63,29.36,95.55Zm-1.93-.77c0-.63.19-.81.64-.65C28.18,94.59,28,94.82,27.43,94.78Zm8.08,1.52c-.71.86-1.27,2.83-2.1,3.28-1,.55-2.84-1.62-2.91,1.34.15-.07,3.19-.27,2.22.36-1.68,3.22-3.66,6.38-4.73,9.88-.71-1.47-.16-3.9-.05-5.46a35.65,35.65,0,0,1,5.68-10.28Q33,97,32.31,98.52C33.6,98.1,34.2,96.68,35.51,96.3ZM44,103.57c.49-.83,1-1,1.65-.2C45.16,104.08,44.64,104.11,44,103.57Zm1,2.14c-1,.1-2.4.68-3.29,0a2.56,2.56,0,0,1,2-.55A4.29,4.29,0,0,0,45,105.72Zm-2.14-4.05c.65-1.26,1.32-1.25,2.24-.92C44.61,101.63,43.92,101.66,42.87,101.66Zm-.05-3.14c0-.3.91-.33.91,0Zm.05,4.71a1.5,1.5,0,0,1-2,.66C41.21,102.86,41.88,102.85,42.87,103.24Zm-2.93-6.63,2.24-.18C41.62,97.34,41.12,97.33,39.94,96.61Zm1.11,1.64c-1.49,1.15-2.46,2.93-2.81.47C39.2,98.35,40,97.6,41.05,98.25ZM38.66,101a7.15,7.15,0,0,1,3.05-.25c-.66,1-1.51.9-1.73,1.16-.93.05-1.32-.06-1.27-.31a7.65,7.65,0,0,1-2.14.55C37.45,100.27,37.21,101.42,38.66,101Zm-.59,8.23c-1.18,1.9-2.52,4.44-4.29,4.49,1.17-2,2.9-6.92,5.23-6.73l-1.78,2.94ZM29,118.77c-1.51-3.3-1.1-6.12,2.33-6.3a24.27,24.27,0,0,0-1.26,4.8c.72-1.32,1-3.54,2.55-3.25a27.49,27.49,0,0,0-2.41,5.06c1.67-1.87,2.44-4.66,4.78-4.9C34,115.83,30.94,123,29,118.77Zm2.19,1.5-1.36,2.18C27.95,121.81,30.19,120.72,31.2,120.27Zm-2.75-9.54c2-3.12,4.13-10.59,7.95-10.2-.76,1.61-1.2,1.47-2.33,2.55,2,0,.3,1.89-.26,3.19s-1,3.35-1.77,4.35-1.32,2.44-3,1.33c-.68-.44-1.2-.39-.61-1.13C28.51,110.66,28.49,110.68,28.45,110.73Zm8.92-12.13c-.27.49-.33.75-.81,1l.81-1C37.28,98.76,37,98.81,37.37,98.61Zm-.77,7.1c0-.1.1-.13.15.06-.15.36-.21.34-.21.22-.47.47-1.31.08-1.78.65l2,.17c-.54.94-4.1,5.56-1.85,3.22-.92,1.6-.61,1.65-2.44,1.84q1-2.63,2.1-5.22.73-1.7,1.49-3.39a7.24,7.24,0,0,0,2.87-.08c-.93,1.13-2.89.74-3.52,2A3.48,3.48,0,0,1,36.6,105.71ZM33.79,112c-.69,1.2-.63,1.74-2,1.78A1.65,1.65,0,0,1,33.79,112Zm5.08-6a.73.73,0,0,1,1.22-.28C39.79,106.42,39.35,106.25,38.86,106Zm-4.19-6.63A13.51,13.51,0,0,1,37.74,96C36.76,97.64,36.77,99,34.67,99.38Zm.25-13.65c.12,0,.34.13-.06,0s2-3.56,2.26-4c-.21,1.46-.35,2.92-.48,4.39A10.39,10.39,0,0,1,34.92,85.73Zm-.52-1.32c.18-.27.29-.43-.26.43-.71-1.27,4.36-9.68,5.16-11.07A49.2,49.2,0,0,1,34.4,84.41Zm-6.46,19c0-2.56.45-4.89,2.23-6.43a3.43,3.43,0,0,1,1.37-.93C31.43,98.17,28.84,101.38,27.94,103.42Zm.87,21-.53-.71a1.86,1.86,0,0,1,1.53-1.21A12.73,12.73,0,0,0,28.81,124.41Zm10.83,1.65q0,.42-.55-.15Q39.8,125.6,39.65,126.07Zm.36.21c.09,0,.15.07-.11,0,.39-.69.18-.38,1.5-.42A1.39,1.39,0,0,1,40,126.28Zm9.15-1c.18,0,1.09-.4,1.24-.11Zm21.2.21c-1.21,0-12.38.61-12.39.15C59.18,125.64,70.36,125.17,70.36,125.53Zm1.89-10.75a45.26,45.26,0,0,0-5.45,6.69c-1.05,1.41-.56,1.56-2.18,2.08-.56.18-3.41.07-3.84-.35,0-.8,1,.11.63-1.2-1.71,3.23-8.09,2.1-11.22,2.28a10,10,0,0,0,2.76-5.19,6.42,6.42,0,0,0-2.1,2.6c-1.46,2.48-1.54,2.61-4.48,2.81,1.55-1.36,4-4.39,4.63-6.46-1.44.56-2.32,1.93-3.25,3.15-1.76,2.28-1.77,3.29-4.62,3.67,1.45-3.53,4.14-6.07,5.8-9.39a6.13,6.13,0,0,0-2.21,1.79,4.21,4.21,0,0,0-.09-.78c-.57,2.18-2.92,6.21-4.61,7.57.07,1.24.49.93-1.52,1.15,1.85-3.16,5.33-11.78,8.85-12.23-2.75-.31-6.79,6-8.3,9-.28.57-.81,2.93-1.27,3.23-1,.64-3.33-.5-4.37-.57-2.1-.13-4,.58-6.08-.07,4.2-4.73,6.52-10.67,9.78-15.43.54-.78.78-2,1.89-2.18,2-.25.75,1,2,1.44.74.25,1.63-.11,2.32.17,2.25.92-.23.69.49,1.25,1.38,1.06,4-3.83,3,.71,0-.59,1.92-1.21,2.34-1.06l-1.22,2.15c.79-.5,4.13-4.49,3.3-1.28,1.3.13,1.88-1.95,3.3-1.27l-.71,2c.65.17,2.65-2.54,2.72-.48L61,109.27a4.74,4.74,0,0,0,.19,1.27c1.68-.45,2.59-2.67,4.55-1.64l-3.84,4.92c2.57-1.06,3.93-3.82,6-5.55l-7.09,11.26c4.08-4.62,8-10,12.7-13.93a45.16,45.16,0,0,1-4.72,7.31c-1.35,1.69-3.37,3.22-3.6,5.58,1.58-2.16,3.51-4,5.13-6.13.06,1.14-1.42,3.39-2.22,4.06,1.6-.17,2.31-2,3.33-3-.84,3.38,1.38-1.19,2.82-1.23A11,11,0,0,0,72.24,114.78Zm-19.38-7.59c-.14.73-.47.83-1,.76C51.88,107,52.41,107.32,52.87,107.19Zm-2.42-1c.27-.75.63-1.27,1.51-1.26C52,106,51.48,106.41,50.45,106.19Zm-.29-20.64c.22,0,.12.22-1,.65.93-1.72,2.05-2.64,3.09-4.15C51.39,83.27,51.14,84.64,50.15,85.56Zm0,21.74c-.1.68-.45.46-.81.25C49.53,107.07,49.84,107.16,50.17,107.3Zm-1-2.31c-.15,1.54-1.11,1.25-2.24,1.2C47.6,105.27,48.09,104.66,49.2,105Zm-2.9-4.25.76-.09A.38.38,0,1,1,46.3,100.74Zm.74,6.59c-.35.58-.69.56-1.09.06A.64.64,0,0,1,47,107.33Zm6-.86a1.85,1.85,0,0,1,1.76-1.55C54.44,105.82,54.34,106.49,53.07,106.47Zm2,.7c-.15.93-1.05,1.33-1.09.15Zm2.41-1c.62-.77,1-1.69,2.25-1C59.31,106.7,58.49,106.48,57.44,106.19Zm3,1.08c0,.71-.43.7-.88.59C59.56,107.2,59.85,107,60.42,107.27Zm-2.09.29a1.14,1.14,0,0,1-1.87.32C57,106.9,57.53,106.92,58.32,107.56Zm-2.89-1.11c-.06-1,.6-1.09,1.27-1.5C56.74,106.17,56.18,106.33,55.44,106.45Zm10.6-.62c.68-.74,1.33-.63,2.34-.35A1.66,1.66,0,0,1,66,105.83Zm2.71,1.37c.25.49,0,.53-.39.55C68.22,107.34,68.39,107.2,68.75,107.19Zm-2,.1c-2,1.91-1.21-.31-2.72-.18-1.12.1-1.29.92-2.66.66.56-1.07,1.73-.71,2.66-.74C64.85,107.22,65.91,106.49,66.7,107.29Zm8.07,3.3.48-.44C75.4,110.67,75.2,110.72,74.77,110.6Zm9.17-17.26c-3.54,2.82-16.77,3.33-19.9-.72-1.54-2-3-6-1.27-8.21.62-.78,1.8-.86,2.43-1.72s.16-2,1.27-2.75C68.71,78.39,74.34,79,77,79c3.65,0,4.35.4,6.19,3.55.91,1.55,3,4.62,2.92,6.47C86.14,90.55,84.79,92,83.94,93.34Zm42.22,30.1-4.2.12c1.52-.88,5.53-7.17,1.81-4.67-.06-6.68-.23-13.4-.52-20.07,2.21-.15,1.78,2,1.78,3.5a1.16,1.16,0,0,1-.3,1.45q-.9.74.38,1.59a25,25,0,0,0,.08,2.87A88.06,88.06,0,0,1,126.16,123.44Zm1.5-44.75c.07-.75-.62.17-.11.56-.23-.17-.48-.32-.72-.48a2.52,2.52,0,0,1-1.18,1.53l-.12.05a5,5,0,0,1-1.3,1.56,8,8,0,0,1-3.09,2.44c-2,1-4.05.56-6.35,1.25a4.62,4.62,0,0,1,.5-1.3l-1.17,0a5.37,5.37,0,0,1-2.07,1.11,4.49,4.49,0,0,1,.72-1.2l-.87-.08c-.71,1.26-1.55,2.12-2.39,1.22.21-.43.38-1,.6-1.39l-1-.1A7.33,7.33,0,0,1,107,85.47l.4-1.68h-.56c-1.17,1.14-2.19,2-4,1.75.32-.56.68-1.09,1.05-1.61l-.75,0a3.63,3.63,0,0,1-2.21,1.42c.27-.46.54-.88.82-1.31l-1.17.1c-.7,1-1.36,1.37-3.5,1.52.5-1,.38-.67.21-.35.17-.31.34-.61.52-.91l-1.32.13c-1.06,1.26-2.33,1.85-4.88.89l.17-.15-.08,0a2.62,2.62,0,0,1-.7-.61l-.15.24a3,3,0,0,1-.4-2.09,3.48,3.48,0,0,1,.29-1.18,4.58,4.58,0,0,0,.27-.82l-.08-.54-.39.37c-.1-6.44-9.07-4-13-3.85-2.69.08-15.68,2.17-16.55-.9-1.2.95-3.5,3.88-5.18,3.63,1.1-2,3-3.77,3.73-6a9.52,9.52,0,0,0-3.83,3.22q.75-.57,1.53-1.08c-.91,1.24-1.65,4.18-2.87,2.55,0,1.46-2.49,3.49-3.35,4.55-.12.14-3.54,4.08-3.66,3.09s.55-2.12,1.49-3.41c-1.84,2.29-3.82,4-6.27,3.59.38-2.31,3.55-4.7,5.31-6.69C50.29,76.56,53,73.87,55,70.62c-3.68,3-6.63,6.88-9.78,10.42,2.66-4.63,4.22-9.68,5.73-14.79L50,66.19c-.72,2.35-1.44,4.71-2.26,7-1.25,3.51-4.17,12.95-9,13.08,1.2-2.16,2-4.6,3-6.83q-.18,1.07-.29,2.16a104.6,104.6,0,0,0,4.85-10.86l-.71.72c.79-1.8,1.75-3.54,2.52-5.35l-.87,0c-1.71,2.79-2.73,6.09-4.16,9-1.07,2.18-2.28,4.26-3.24,6.51-.87,2-.81,5-3.14,4.58a32.53,32.53,0,0,1,2.13-7.07c1.28-2.5,3.06-4.51,4-7.19a29.66,29.66,0,0,0-3.69,5A66.72,66.72,0,0,1,43.42,66l-1,0c-1.82,3.5-3.77,6.87-5.55,10.41.26-.53.52-1,0,0s-.27.54,0,0c-1.09,2.19-1.69,5.18-2.94,7.2-.87,1.4-1.2,1.45-3.18,1.45,4-6.19,6.58-13.37,11.31-19.07l-.47,0a21.12,21.12,0,0,0-3.1,3.57q0-.3,0-.61a8.45,8.45,0,0,0-2.4,3.32c-.15.28-1.44,2.93-.82,2.53-1.55,2.71-2.67,6.29-4.43,8.78-1.24,1.75-1.19,1.95-3.37,0-1.64-1.49-2-2-1.81-3.57.14-1.1,1.9-2.92,2.51-3.89s2-4,2.06-2.8c1-1.9,3.13-4.92,4.25-8a50.67,50.67,0,0,0-9.85,15,2.18,2.18,0,0,1-1.34-1.65c.11,0,.3-.61.13-.44,1.81-2.89,4.56-5,6.21-8-1.93.71-5.57,6.34-6.72,5.12,3-4.17,6.78-8.36,9.34-12.82a23.92,23.92,0,0,0-4,3.8c-.06-.18-.64.35-1.4,1.33,0,.35-2.86,4.56-4.37,6.93-1.91-5.25.78-8.92,3.44-13.2,1.32-2.11,5.28-9.78,7.76-9.93-2.45-2-11.45,14.09-12.11,16.17-.25-3.25-.52-5.45,1.05-8.27,1.1-2,3-3.45,3.82-5.61-2.15,1-3.63,3.73-4.88,5.67.24-3-1.36-5.72-.31-8.48,1.41-3.7,5.68-3.17,9-3.55,4.09-.47,10.67-2.18,14.69-.8-4.7,2.49-10.11,5.49-11.86,11.07,3.72-4.41,7.06-7.54,12.15-10.23-2.33,2.57-5.39,5.64-6.24,9.17,1.63-1.45,7.37-12.23,10.56-9.89-2.44,2.35-5.71,4.59-7.33,7.67,1.75-.85,8-8.72,9.62-7.88.67.35-1,2.24.55,1.43-1.57,2.55-4,4.91-5,7.75,2.32-1.34,4-4.3,5.32-6.58,1.85-3.09.69-2,2.82-1.38-2.71,3.62-5.75,7-8.43,10.62l1,0c1.45-1.9,3-3.71,4.46-5.62.89-1.18,2.52-4.91,3.84-5.07a10.28,10.28,0,0,0,1.9-.46c-1.92,2.63-4.37,5.43-5.87,8.31a17.86,17.86,0,0,1,1.92-1.77c-.72,1.55-1.36,3.14-1.94,4.76l.82,0a19.3,19.3,0,0,1,5.13-8.4A22.42,22.42,0,0,0,56,55.24c.83-1.11,1.62-2.22,2.38-3.38.88-1.33,1.58-3,2.71-4.14,1.51-1.46,1.8-1.5,4-1.77a38.39,38.39,0,0,0-3.78,5.87c-.56.94-1.48,3.69-1.89,4.08-.71,1-1.38,2-2,3.08l1,.07c.84-1.35,1.71-2.69,2.66-4s8.13-11,9.62-7.1c-1.47,1.28-3.47,2.46-4.31,4.33,3.16-.88,5.54-4.64,8.08-6.61.59.5-.29,2,.74,1.67-2.47,2.52-5.58,4.93-7.32,8.09,2.78-1.6,7.18-9,10-8.07,0-.82.24-1.57,1.19-1.41.06,1.13-3.06,3,.19,1.65-.61.7-6.34,7.93-4.72,8,.56-3.52,6.25-9.19,9.62-10.1-1.34,1.63-3.1,3.81-3.07,6.11,1.53-1.54,2-4,3.64-5.46,2.2-1.9,6.34-1.09,9.13-.78a12.11,12.11,0,0,0,3.92,0c2.32-.43,2.78-.22,5,.21s3-.81,5.07-.74l1.34.17c1.45-.48,5.52.45,7.14.5,1.83.05,3.67.17,5.5.28a2.84,2.84,0,0,1,1.38.08l2.19.1c-.15.35-.44.84-.69,1.32a2.84,2.84,0,0,1,.12.31c2,7.14,3.43,15.89,2.58,23.77.07.53.16,1,.23,1.58a4,4,0,0,1,.08.57l-.16.06,0,.1.15-.11A16.21,16.21,0,0,1,127.66,78.69Z"/><path class="cls-1" d="M58.25,29c.42-.76,0,0,0,0Z"/><path class="cls-1" d="M128.05,61.08c0,.65-.08.18,0,0Z"/><path class="cls-1" d="M37,91.87c.1,0-.17.32,0,0Z"/><path class="cls-1" d="M52.07,44.67c.58,0,.18.12,0,0Z"/><path class="cls-1" d="M33.43,46.19c-.11.3-.37-.11,0,0Z"/><path class="cls-1" d="M25,83.18c0,.69-.2,0,0,0Z"/><path class="cls-1" d="M25.16,85.95c.45.31-.47.25,0,0Z"/><path class="cls-1" d="M51.06,86.39c.25-.12.41.12,0,0Z"/><path class="cls-1" d="M69.81,105.66c.49-.26.18,0,0,0Z"/><path class="cls-1" d="M80,108.7s.12-.34,0,0Z"/><path class="cls-1" d="M112.19,98c.77.07,0,0,0,0Z"/><path class="cls-1" d="M124,94c.43-.19.5,0,0,0Z"/><path class="cls-1" d="M129.73,76.85h0C129.73,77.42,129.74,78.54,129.73,76.85Z"/><path class="cls-1" d="M97.22,85.38c-.07.12-.15.22-.21.35A1.23,1.23,0,0,0,97.22,85.38Z"/><path class="cls-1" d="M22.7,87.29c.16-.64-.16-1.07,0,0Z"/><path class="cls-1" d="M111.18,97h0Z"/><path class="cls-1" d="M111,97h0Z"/><path class="cls-1" d="M38.08,109.23c-.32.3-.45.72,0,0Z"/><path class="cls-1" d="M56.86,43.81a19.33,19.33,0,0,0,1.05-2.46A11.78,11.78,0,0,0,56.86,43.81Z"/><path class="cls-1" d="M100.75,121.79l.11-.26Z"/><path class="cls-1" d="M96.51,38.54c.54,0,.72-.19,0,0Z"/><path class="cls-1" d="M40,101.91c.14-.16-.41,0,0,0Z"/><path class="cls-1" d="M34.4,84.41a3.24,3.24,0,0,0-.26.43C34.24,84.7,34.31,84.56,34.4,84.41Z"/><path class="cls-1" d="M34.92,85.73h0Z"/><path class="cls-1" d="M91.29,123.73c5.31-5.6,10.91-12.44,14.06-19.67a163.5,163.5,0,0,0-14.86,20.4Z"/><path class="cls-1" d="M87.33,116.21c-.56,1,.34-.47,0,0Z"/><path class="cls-1" d="M81.24,124.53c2.72-1.66,4.56-5.56,6.09-8.33a5,5,0,0,0,.54-1.91A30.33,30.33,0,0,0,81.24,124.53Z"/></svg>