<svg id="_ÎÓÈ_1" data-name="—ÎÓÈ_1" xmlns="http://www.w3.org/2000/svg" viewBox="0 0 150 150"><defs><style>.cls-1{fill:#630d0d;}</style></defs><title>LUNOMarquetteArtboard 10</title><path class="cls-1" d="M36.45,68.84h0Z"/><path class="cls-1" d="M127.24,59.53l-.18-.1a9.11,9.11,0,0,0-2.18-2.69,21.75,21.75,0,0,0-5.15-2.92,14.27,14.27,0,0,0-1.89-.65,6.45,6.45,0,0,0-.77-1,18.56,18.56,0,0,0-5.86-3.67,8.11,8.11,0,0,0-2.28-.79,2.42,2.42,0,0,0-1.38.46A24.93,24.93,0,0,1,102.34,50,87.81,87.81,0,0,1,85.8,51.8h-.17q-.3-1.57-.5-3.15A52.73,52.73,0,0,1,86,30.55q.33-1.47.74-2.91a19.81,19.81,0,0,0,1-3.05,7.66,7.66,0,0,0-.46-3c-.61-1.69-2.49-3-3.95-3.89l-.32-.2a2.23,2.23,0,0,0-.1-.51,7,7,0,0,0-1.2-2.24,13.17,13.17,0,0,0-3-2.87,19.56,19.56,0,0,0-2.51-1.42,4.66,4.66,0,0,0-2.34-.74,9.74,9.74,0,0,0-2.67,1,4.92,4.92,0,0,0-3,4.55c-1.67.94-3.52,2-4.24,3.9a2.8,2.8,0,0,0-.1,2.06c-.23,0-.42,0-.35.2A65.68,65.68,0,0,1,66.5,39.71a65.23,65.23,0,0,1-.45,9.38c-.08.68-.18,1.35-.28,2a1.29,1.29,0,0,0,0,.35s-.08,0-.17.09a2.19,2.19,0,0,1-.57.18,14.69,14.69,0,0,1-3.34.59,67.58,67.58,0,0,1-9.74-.38c-2.93-.21-5.89-.35-8.79-.76A19.25,19.25,0,0,1,41,50.77l-.19-.05a18.42,18.42,0,0,0-2.11-1.12,4.31,4.31,0,0,0-2.38-.73A8.2,8.2,0,0,0,33,50.74a5.37,5.37,0,0,0-1.93,2.94,4,4,0,0,0,0,.68q0,.24,0,.49t-.29.12a12.63,12.63,0,0,1-1.94.18,10.31,10.31,0,0,0-6.72,4.52c-.2.31,1.07,1.08,2.36,1.75a8.14,8.14,0,0,0,1.17,1A24.39,24.39,0,0,0,30,64.83l.43.19v.08a4.69,4.69,0,0,0,2.34,3.14c2.44,1.68,5.58,3.37,8.65,3l.08,0,.08,0c5.72-2.6,12.25-3,18.45-2.77,1.94.07,3.87.19,5.8.34,0,7.31-.09,14.62-.21,21.93q-.1,6.1-.27,12.21a81.54,81.54,0,0,1-.94,11.45,35.73,35.73,0,0,1-4.26,11.89c-.18.32.81,1,2,1.58,0,2.28,1.86,4.09,3.69,5.3.84.55,1.71,1.06,2.59,1.54l.4,1.17c1.07,3,4,4.76,6.88,5.87a2.7,2.7,0,0,0,1.46.3,7.72,7.72,0,0,0,1.75-.75,9.15,9.15,0,0,0,3.42-2.45c.57-.74.83-1.66,1.37-2.4s1.53-.74,2.21-1.17a7.56,7.56,0,0,0,3.63-5.94,8.2,8.2,0,0,0-.72-2.56q-.78-2.4-1.43-4.85-1.13-4.27-1.86-8.62c-2-12-2.06-24.17-1.23-36.25q.15-2.22.35-4.44A16.27,16.27,0,0,1,85.07,69a3.1,3.1,0,0,1,.41-1c.27-.21,1.49,0,1.85-.06,1.6-.06,3.2-.1,4.8-.12,5.7,0,11.64.25,17,2.33.32.12,1.16.49,1.67.72l.08,0,.88.41c.91.43,2,1.22,3,1.08a5.67,5.67,0,0,0,3.63-2.13,5.37,5.37,0,0,0,.7-3.21,4.44,4.44,0,0,1,0-1.14s.19,0,.31,0a4.42,4.42,0,0,0,1.45.07A9.41,9.41,0,0,0,125,64.6a17.22,17.22,0,0,0,2.58-2.09A9.46,9.46,0,0,1,129.17,61C129.39,60.93,127.24,59.53,127.24,59.53ZM41.13,50.92l0,0Zm.39.3L41.25,51Zm-.73-.52-.29-.08C39.8,50.44,40.09,50.3,40.79,50.71ZM26.51,62.39l.25.11-.21-.08ZM33.67,68a8.31,8.31,0,0,1,1.09.14h-.06C34.36,68.08,34,68,33.67,68Zm2.77,1-.06-.14.07.06.38.27C37.27,69.64,36.89,70,36.43,68.92Zm31.93,65.52v0S68.35,134.45,68.36,134.44Zm.91-.39c-.2-.13.08,0,.14.07Zm53.17-75.22c-.61.58-1.23,1.16-1.88,1.7a8.72,8.72,0,0,1-5.93,2.34c-.67,0-1.22-.53-1.33.26s.06,1.58-.05,2.37c-.31,2.19-2,3-3.83,3.67-1.26-.58-2.53-1.14-3.82-1.65a40,40,0,0,0-8.27-2.2c-5.78-.93-11.67-.71-17.5-.48l-.16.05A8.9,8.9,0,0,0,79,67.66q-.25,2.72-.45,5.44C78.3,76.75,78.11,80.39,78,84a143.47,143.47,0,0,0,1.07,22,105,105,0,0,0,2,10.65q.6,2.52,1.34,5,.37,1.25.78,2.5a7.24,7.24,0,0,1,.56,2c.07,2.76-2.19,5.45-4.6,6.49-.42.18-.89.2-1.17.54a7.76,7.76,0,0,0-.65,1.29,7.73,7.73,0,0,1-3,3.07l-.09-.18a4.13,4.13,0,0,0-1.27-1.17A26.15,26.15,0,0,0,70,134.43l-.58-.31c-.08-.21-.73-1-.93-1.35a4.16,4.16,0,0,1-.42-2.85c.08-.38-1.12-1.07-1.68-1.38,3.52-6.48,4.46-13.63,4.72-20.94.3-8.12.38-16.24.45-24.36q.06-7,.09-14c0-.52-1.29-1.13-1.59-1.31a18,18,0,0,0-3.22-1.6,17.86,17.86,0,0,0-4.38-.57c-2.54-.22-5.09-.4-7.64-.5C48.53,65,42,65.38,36.17,67.91a2.57,2.57,0,0,1,.8-1.6c.4-.51-5-3.09-5.65-3.13-.85-.05-1.69-.2-2.53-.31l-.64-.46a10,10,0,0,1,4.32-3.52,9.54,9.54,0,0,1,3-.73c.27,0,1.07.11,1.3-.07s.09-.69.11-1c.09-1.64,1.47-3,2.75-3.89a10.92,10.92,0,0,1,1.71-.95l.13-.06A22.94,22.94,0,0,0,46.7,54a67.72,67.72,0,0,0,8.6.93c5.3.41,10.91,1.3,16.07-.31l.16-.05a66.54,66.54,0,0,0-2.28-30.1c.42.12.81.15.3-.38L69.47,24c-.21-.37.06-1.34.17-1.65a5,5,0,0,1,1-1.63,11.6,11.6,0,0,1,3.26-2.38c.05,0,.08,0,.08,0h0a.34.34,0,0,0,0-.07C73.85,16,75.26,14.68,77,13.78l.06.16a1.44,1.44,0,0,1-.29,1.53c-.27.39,2.7,2,4.47,2.77a3.74,3.74,0,0,1,.4,1.14,5.51,5.51,0,0,1,.1,2.51,72.52,72.52,0,0,0-2.21,8.93,52.67,52.67,0,0,0,.3,17.93c.19,1,.27,2.79,1,3.55A11.06,11.06,0,0,0,84,54.21a7.64,7.64,0,0,0,2.27.82,20.68,20.68,0,0,0,3.09,0,128.48,128.48,0,0,0,13-.91A42.68,42.68,0,0,0,111,52.26q.87-.3,1.71-.67a14.46,14.46,0,0,1,.55,1.54c.19.62,1.83,1.32,2.26,1.57a12.15,12.15,0,0,0,3,1.34,11.67,11.67,0,0,0,2.19-.06h.21l.09.13a4.68,4.68,0,0,0,1.22,1.56c.26.19.53.36.81.53C122.83,58.41,122.63,58.65,122.44,58.83ZM71.17,69.23c.29.05.48.15,0,0Z"/></svg>